<?xml version="1.0" encoding="UTF-8"?>
<svg id="Layer_2" data-name="Layer 2" xmlns="http://www.w3.org/2000/svg" viewBox="0 0 27.63 36">
  <defs>
    <style>
      .cls-1 {
        opacity: .9;
      }

      .cls-2 {
        fill: #FFFFFF;
        stroke-width: 0px;
      }
    </style>
  </defs>
  <g id="Layer_1-2" data-name="Layer 1">
    <g>
      <g>
        <g class="cls-1">
          <path class="cls-2" d="M17.67,18.41c0-.26-.03-.5-.06-.76.05-.16.1-.33.13-.48v-.13c.06-.23.1-.45.16-.68l.03-.48.11-.07c-.03-.16-.06-.32-.08-.47.07-.06.13-.1.2-.14-.08-.09-.18-.19-.28-.28l.03-.48h-.11c0-.2,0-.39,0-.58v-.29s-.02-.14-.02-.14v-.12c.07-.49.12-.98.11-1.45l.31-.04c0-.1-.01-.2-.03-.31l-.31.05c-.05-.25-.12-.51-.21-.74l-.06-.28c.3-.37-.07-.18-.07-.27.07-.14.14-.27.2-.43l-.04-.13c.02-.12.05-.23.07-.34-.13-.27-.21-.49-.3-.7-.08-.21-.17-.42-.32-.62-.13-.1-.33-.22-.47-.38-.14-.16-.23-.37-.13-.7-.33.1-.44-.1-.62-.19.16-.27-.05-.23-.07-.38l-.17-.09c-.09-.05-.18-.09-.27-.13-.09-.04-.18-.08-.28-.11-.31-.12-.64-.2-.98-.26-.11-.06-.23-.12-.35-.15-.12,0-.25.05-.37.09-.12.02-.23.06-.34.09l-.32.24h-.05c-.14.05-.28.11-.41.18-.15.06-.29.14-.43.23-.11,0-.21-.01-.32,0,.05.38-.17.37-.36.37-.22.16-.43.34-.63.52,0,.16.02.33.04.47-.1-.08-.22-.17-.31-.25-.17.2-.34.4-.49.63l.48.37c.01.24.26.46.32.55-.04.08-.06.18-.1.27-.31.18-.56.28-.32.5l-.09.64c-.34.21-.37.43-.08.49l-.06.18c-.05.15-.09.3-.13.46-.3.25.02.36.1.41-.03.13-.05.26-.07.39-.03.17-.05.35-.07.51-.06.14-.02.21.03.25.03.02.06.04.08.07.03.03.05.05.05.12-.07.13-.14.27-.23.41v.13c.38.14.24.41.17.56v.13c.37.1.25.31.18.42.12.05.25.09.39.15-.1.18-.17.35-.24.54l-.02.41.39.14c-.07.14-.14.28-.21.41-.06.26-.11.5-.15.75-.23.02-.48.03-.72.05-.08-.12-.17-.23-.27-.35v-.07c.22-.04.41-.07.62-.13l.02-.4c-.22-.19-.1-.42-.28-.56.09-.13.16-.27.23-.41-.03-.16-.04-.32-.08-.47l-.17-.28c-.5-.14-.36-.34-.39-.5h-.29s0-.15,0-.15c.03-.2.09-.4.14-.61.05-.14-.02-.25-.12-.3-.11-.06-.25-.11-.35-.15-.03-.12-.06-.24-.07-.35.03-.07.08-.15.13-.22l-.19-.14c.11-.34.24-.66.4-.96-.12-.11-.23-.2-.33-.3.1-.12.2-.25.31-.37.03-.15.03-.28.04-.43l.06-.16-.18-.06c.08-.14.19-.28.29-.4l.17.07c.25-.22-.06-.34-.05-.53.02-.12.05-.26.1-.37-.51-.18-.76.03-.51.28l-.05.1c-.19.04-.35.09-.54.14-.25-.33-.19-.54-.09-.7.1-.17.24-.29.2-.52.13-.15,0-.36-.06-.55-.07-.19-.07-.36.26-.39.4-.15.5-.33.29-.6.24-.3.51-.59.82-.84.29.23.21-.1.39-.14.08-.51.46-.64.81-.72.36-.09.7-.13.95-.58.2.1.32.08.43.01.11-.07.21-.19.35-.27.23,0,.46.02.68.05.16-.33.36-.23.55-.08.2.15.38.35.62.24.2.07.37.15.55.22.13,0,.32-.07.47-.09.15-.02.26,0,.23.2.12.02.15.17.19.3.04.13.09.25.27.24.21-.05.4.04.58.12.18.08.34.15.53.07.09.28.38.4.66.58.28.17.54.4.5.76.26.01.44.2.58.43.14.23.25.5.39.71.05.09.09.19.14.28-.21.1-.1.23-.07.31.06.07,0,.22.19.19.15-.08.12.14-.17.46l-.1.04c-.15-.05-.3-.08-.47-.12-.21.26-.18.36-.34.56.1-.02.21-.04.31-.06.11.06.23.11.36.17-.1.11-.22.23-.32.34-.15.34.41.02.56.2-.13.21-.26.42-.4.62.1.17.04.36,0,.53-.04.17-.07.33.1.48-.16.06-.33.11-.5.16.03.11.07.21.11.33-.04.19-.09.37-.11.56.31.1.42.44-.03.45l-.04.68.48.43c.38-.09.6.22.48.43l-.41.12.17.29c-.11.08-.2.18-.31.26l-.02.27-.03.41c.08.35.16.42.26.55h.4c.14.12.26.2.4.29.06.37-.19.64-.27.96-.24.45-.73.27-1.03.31l-.02.34c-.21.05-.41.12-.62.18-.4.03-.4-.28-.37-.55Z"/>
          <path class="cls-2" d="M19.17,16.87c-.1-.13-.18-.2-.26-.55l.03-.41.02-.27c-.06-.03-.12-.05-.21-.08.17-.07.34-.13.52-.19l-.17-.29.41-.12c.12-.21-.09-.52-.48-.43l-.48-.43.04-.68c.44,0,.34-.35.03-.45.03-.19.07-.37.11-.56-.04-.11-.09-.21-.11-.33.17-.05.33-.1.5-.16-.16-.15-.14-.31-.1-.48.04-.17.1-.36,0-.53.14-.2.27-.41.4-.62-.15-.18-.72.15-.56-.2.1-.1.22-.23.32-.34-.13-.06-.25-.11-.36-.17-.1.01-.21.04-.31.06-.03-.02-.08-.04-.13-.07.17-.16.33-.32.47-.49.19.03.38.05.56.08.29-.32.31-.54.17-.46-.19.03-.14-.12-.19-.19-.04-.08-.14-.21.07-.31-.05-.1-.09-.19-.14-.28-.14-.2-.25-.48-.39-.71-.14-.23-.33-.42-.58-.43.05-.36-.22-.59-.5-.76-.28-.18-.57-.3-.66-.58-.19.08-.35.01-.53-.07-.17-.08-.37-.17-.58-.12-.18.02-.23-.1-.27-.24-.04-.13-.07-.28-.19-.3.03-.19-.08-.22-.23-.2-.15.02-.34.09-.47.09-.18-.07-.35-.14-.55-.22-.24.11-.43-.09-.62-.24-.19-.15-.39-.25-.55.08-.23-.04-.45-.06-.68-.05-.15.08-.24.2-.35.27-.11.07-.23.09-.43-.01-.25.45-.59.49-.95.58-.35.08-.73.21-.81.72-.17.04-.09.36-.39.14-.31.25-.58.54-.82.84.21.27.11.45-.29.6-.33.03-.32.2-.26.39.07.19.19.4.06.55.05.24-.1.36-.2.52-.1.16-.16.37.09.7.19-.06.35-.1.54-.14l.05-.1c-.25-.25,0-.46.51-.28-.05.11-.08.24-.1.37.02.18.02.36.05.53l-.17-.07c-.11.12-.21.26-.29.4l.18.06-.06.16c0,.11,0,.22,0,.33l-.04.11c-.11.12-.21.25-.31.37.11.07.23.13.36.19l-.03.11c-.16.29-.29.62-.4.96l.19.14c-.05.07-.1.15-.13.22l-.29-.02c-.16.06-.29.14-.44.21-.12-.07-.26-.14-.38-.2-.17-.39-.67-.84-.72-1.26.4-.09.19-.33.37-.67l-.2-.05c.03-.35.08-.71.12-1.06.22-.17-.2-.25-.27-.4.04-.11.08-.2.14-.32-.06-.33-.08-.76-.14-1.08.47-.72.9-1.36,1.37-1.97.47-.61.98-1.2,1.64-1.75.18-.12.34-.06.49-.06.15,0,.29-.05.49-.39.16-.08.33-.18.49-.25.34.02.6-.01.81-.02.21,0,.38.01.54.14.39-.19.24-.55.38-.54.11,0,.21-.01.32-.01.22.09.35.08.45.04.1-.04.17-.11.25-.13.21.13.33.13.42.11.09-.02.14-.07.2-.04h.08c.3.06.61.13.92.22.06.02.14.04.22.07.19.17.37.35.54.51.28.09.57.19.84.32.11.06.21.12.32.19l-.04.07c.26.3.61.56.93.84.32.28.59.57.69.87.22.05.36.21.46.38.1.17.17.35.28.47-.26.29.08.38,0,.63.05.13.06.27.1.4.06.22.19.43.27.66.08.23.09.46-.1.67.2.16.37.33.54.52-.07.06-.16.13-.25.21.04.18.05.25.06.32-.12.04-.34.02-.38.14.09.3.29.36.69.53-.07.15-.12.29-.17.42.05.1.08.21.13.31.13.06.28.11.41.18-.21.14-.39.29-.6.42.08.16.14.3.2.45.02.15.05.31.08.46v.13s-.04.56-.04.56c-.11.08-.22.18-.33.26.02.34.34.69-.06,1.03-.04.31-.1.64-.16.95-.04.24-.4.37-.54.6h-.4Z"/>
          <path class="cls-2" d="M22.56,11c-.11.11-.25.24-.37.34-.01.4.14.85-.37,1.34-.06-.1-.12-.19-.19-.29.02-.12.06-.22.1-.36.12-.25-.22-.25-.43-.32.03-.13.06-.28.07-.41-.13-.09-.29-.15-.42-.23l-.29.04c-.4-.16-.6-.23-.69-.53.04-.12.26-.1.38-.14-.01-.07-.02-.13-.06-.32.09-.08.18-.14.25-.21-.17-.18-.35-.36-.54-.52.19-.22.17-.45.1-.67-.07-.23-.21-.44-.27-.66-.04-.13-.06-.27-.1-.4.08-.26-.26-.34,0-.63-.11-.11-.17-.3-.28-.47-.1-.17-.24-.33-.46-.38-.1-.3-.37-.6-.69-.87-.32-.28-.67-.54-.93-.84l.04-.07c-.1-.07-.21-.13-.32-.19-.27-.13-.56-.23-.84-.32-.17-.16-.36-.34-.54-.51-.08-.02-.15-.05-.22-.07-.31-.09-.61-.15-.92-.2h-.08c-.06-.04-.11,0-.2.03-.09.02-.2.02-.42-.11-.08.02-.15.08-.25.13-.1.04-.23.05-.45-.04-.11,0-.21,0-.32.01-.14,0,0,.35-.38.54-.16-.13-.33-.15-.54-.14-.21,0-.46.03-.81.02-.16.07-.33.17-.49.25-.2.34-.33.4-.49.39-.15,0-.31-.07-.49.06-.66.55-1.17,1.14-1.64,1.75-.47.61-.9,1.25-1.37,1.97.06.32.08.75.14,1.08-.05.12-.09.21-.14.32.07.15.5.22.27.4-.04.35-.09.71-.12,1.06l.2.05c-.18.34.03.58-.37.67.04.42.55.88.72,1.26.12.06.26.13.38.2.15-.07.29-.15.44-.21l.29.02c0,.11.04.23.07.35.1.04.24.08.35.15.11.05.17.16.12.3-.05.21-.11.41-.14.61v.14c-.06.11-.09.23-.13.34.14.43.44.78.42,1.31.02.37.02.74.04,1.1v.07s-.3,0-.3,0c-.07-.15-.13-.28-.18-.42-.1,0-.15-.22-.39-.15.07.52-.65.6-.46,1.02.02.1.05.19.07.29l-.54.67-.13-.9c-.09-.62-.15-1.35.22-1.91.11-.35-.54-.42-.46-.7-.29-.41-.58-.82-.74-1.26-.16-.06-.33-.14-.49-.21,0-.16-.04-.32-.07-.5,0-.01,0-.04,0-.06.18-.18.37-.36.56-.53-.22-.09-.44-.17-.66-.27-.12.12-.24.26-.36.41l-.29-.02s-.06-.07-.1-.09c.03-.23.05-.45.09-.67.07-.16.12-.35.19-.51-.1-.03-.2-.08-.27-.13.03-.14.06-.3.1-.45-.03-.25-.02-.53,0-.8-.09-.25-.13-.52-.08-.82.06-.3.22-.65.55-1.03.14-.14.08-.39.22-.44.06-.24.12-.48.2-.73.16-.22.35-.43.55-.63.21-.46.45-.9.75-1.34.13-.07.25-.15.38-.22.24-.08.14-.35.26-.49.48-.42,1-.8,1.58-1.12.4-.3.85-.55,1.31-.76l-.03-.1.18-.05c.18.01.38.03.58.07.34-.12.75-.06,1.02-.27.06.06.12.11.2.19.19-.12.38-.24.59-.34.15.04.3.06.44.11.13-.1.22-.31.39-.27.15.07.27.15.43.23.16.06.3,0,.46-.04.27.09.57.2.85.3.16.05.34.1.49.16l.06-.18c.19.02.38.05.55.1l-.04.1c.19.03.36.06.54.13.17.08.32.16.48.25.14.03.27.16.43.27.16.11.34.19.59.14.11.21.22.43.31.64.29,0,.42.37.72.38,0,.17-.03.36-.04.53.16.02.29.04.44.05.16.22.29.44.41.68l.08-.06c.1.13.2.28.28.41.16.24.31.5.44.73l-.17.09c-.59-.2-.77-.49-1.04-.86l-.15.11c.09.37.26.64.39.87.13.23.22.42.14.61.09.3.2.68.33,1.05.13.37.29.73.53,1-.1.12-.22.26-.32.38.06.06.09.12.14.18-.01.15,0,.29-.03.44l.39-.07c.25.12.53.27.78.41.09-.09.17-.19.26-.28"/>
          <path class="cls-2" d="M20.61,11.85c-.05-.1-.08-.21-.13-.31.05-.13.1-.27.17-.42l.29-.04c.14.08.29.15.42.23,0,.13-.04.28-.07.41-.08.11-.18.2-.28.31-.13-.06-.28-.12-.41-.18Z"/>
          <path class="cls-2" d="M8.81,18.91c.91-.09-.08.97,1.15.72.17-.02.34-.03.51-.06h.4s-.03.42-.03.42l.41.14c.11.19.23.38.37.57-.52.19-.73.18-.91.17-.08-.12-.13-.23-.19-.35-.23.02-.48.04-.72.05h-.08s-.5-.02-.5-.02l-.03.48c-.11.01-.21.04-.32.05-.28.05-.53.09-.8.12-.03-.23-.06-.46-.06-.69v-.07s.51.01.51.01c.07-.07.13-.12.22-.19-.14-.19-.25-.38-.39-.57-.3.05-.59.08-.91.12h-.1c-.17-.02-.33-.06-.5-.09-.09.07-.2.14-.31.21-.21,0-.4.03-.61.04h-.1s-.16-.41-.16-.41c0-.26.44-.34.72-.39h.5c.11-.01.21-.02.32-.05.16.08.33.15.49.21.13-.01.28-.04.4-.05.06.02.12.05.21.06.18-.15.33-.31.53-.46Z"/>
          <path class="cls-2" d="M11.78,19.8l-.52.33-.41-.14.03-.41c.15-.04.28-.08.43-.13.16.13.3.24.48.36Z"/>
          <path class="cls-2" d="M18.67,18.44c.3-.05.79.14,1.03-.31.03.23.04.46.06.69-.27.22-1.01.3-1.11-.03l.02-.34Z"/>
          <path class="cls-2" d="M17.33,15.66c0-.11.01-.23.23-.34l.03-.41c-.03-.14-.07-.27-.08-.42.11-.01.19-.04.3-.06h.11s-.03.49-.03.49c.1.09.2.19.28.28-.07.04-.13.08-.2.14.01.16.04.32.08.47l-.11.07c-.21-.08-.39-.15-.6-.22Z"/>
          <path class="cls-2" d="M17.88,11.85c0-.09-.01-.2-.02-.3l.31-.05c.01.11.02.21.03.31l-.31.04Z"/>
          <path class="cls-2" d="M17.65,10.81c-.29-.07-.41-.14-.06-.28l.06.28Z"/>
          <path class="cls-2" d="M17.67,9.71c-.38-.17-.51-.36-.59-.58-.08-.22-.11-.47-.26-.64-.28-.12-.51-.31-.73-.53-.22-.22-.44-.45-.65-.64.05-.19-.08-.14-.13-.19-.02.01-.05.05-.08.08-.42-.07-.77-.23-1.17-.31-.38-.08-.81-.06-1.13.28-.1-.18-.2-.06-.29-.06-.09.21-.25.27-.43.33-.18.05-.39.09-.54.21.05.19-.03.25-.13.3-.1.05-.21.09-.2.24-.2.09-.25.32-.31.52-.06.21-.13.38-.43.45-.06-.09-.31-.32-.32-.55l-.48-.37c.15-.23.32-.43.49-.63.1.08.21.18.31.25-.02-.15-.04-.32-.04-.47.21-.18.41-.36.63-.52.18,0,.4.02.36-.37.11-.02.21-.01.32,0,.14-.09.28-.17.43-.23.13-.07.27-.14.41-.18h.05s.32-.24.32-.24c.11-.03.23-.07.34-.09.12-.04.25-.08.37-.09.12.03.23.09.35.15.33.05.66.14.98.26.1.04.19.08.28.11.09.04.18.08.27.13l.17.09c.02.16.23.11.07.38.18.09.28.3.62.19-.1.33-.01.53.13.7.14.16.34.28.47.38.15.2.24.41.32.62.09.21.17.44.3.7-.02.12-.05.23-.07.34Z"/>
          <path class="cls-2" d="M10.5,9.42c.09.26.03.55-.32.5-.23-.22.01-.33.32-.5Z"/>
          <path class="cls-2" d="M10.09,10.56c.18.2.09.44-.08.49-.29-.06-.26-.28.08-.49Z"/>
          <path class="cls-2" d="M9.95,11.24c.23.25.19.37.05.5-.03.13-.06.24-.09.37-.07-.05-.4-.16-.1-.41.04-.16.09-.31.13-.46Z"/>
          <path class="cls-2" d="M9.84,12.5c.28.24.26.38.14.52.02.07.05.14.07.21.01.03.03.07.04.11l.02.05.03.07.15.62c-.05.41.38.64.33,1.18.07.2.12.4.17.62.01.17-.18.28-.24.46l-.39-.14.02-.41c.07-.18.15-.35.24-.54-.14-.06-.27-.11-.39-.15.07-.11.19-.32-.18-.42v-.13c.08-.15.22-.42-.17-.56v-.13c.1-.14.17-.28.24-.41,0-.07-.03-.09-.05-.12-.03-.03-.06-.05-.08-.07-.05-.05-.09-.11-.03-.25.02-.16.04-.34.07-.51Z"/>
          <path class="cls-2" d="M10.7,17.52c.78.02.37.5.35.77.38.24.14.75.67.78.05.24-.12.24-.42.39-.15.05-.28.09-.43.13-.07-.3-.15-.6-.24-.89v-.21s.02-.07.02-.07c-.04-.06-.06-.13-.09-.2.06-.23.09-.45.15-.68Z"/>
          <path class="cls-2" d="M8.88,14.24c.03-.2.09-.4.14-.61.05-.14-.02-.25-.12-.3-.11-.06-.25-.11-.35-.15.1.04.24.08.35.15.11.05.17.16.12.3-.05.21-.11.41-.14.61Z"/>
          <path class="cls-2" d="M9.16,14.39c.03.16-.11.35.39.5l.17.28c.03.16.04.32.08.47-.07.14-.14.28-.23.41.18.15.06.37.28.56l-.03.47c-.21-.02-.4,0-.62.13v-.07c-.02-.36-.01-.73-.03-1.1.01-.53-.28-.88-.42-1.31.05-.11.08-.23.13-.34h.29Z"/>
          <path class="cls-2" d="M10.87,19.58h-.4c-.09-.2-.17-.37-.26-.56-.11-.19.2-.22.42-.33.09.29.17.59.24.89Z"/>
          <path class="cls-2" d="M22.54,10.78c-.25-.14-.52-.29-.78-.41l-.39.07c.02-.15.01-.29.03-.44-.06-.06-.09-.12-.14-.18.1-.12.22-.26.32-.38-.24-.27-.4-.63-.53-1-.13-.37-.24-.75-.33-1.05.08-.19-.01-.38-.14-.61-.13-.23-.3-.5-.39-.87l.15-.11c.27.37.46.67,1.04.86l.17-.09c-.13-.23-.28-.49-.44-.73-.09-.13-.19-.28-.28-.41l-.08.06c-.12-.24-.25-.46-.41-.68-.15-.01-.28-.04-.44-.05.02-.16.04-.36.04-.53-.3,0-.43-.38-.72-.38-.09-.21-.2-.43-.31-.64.07-.03.14-.06.19-.1.14.29.36.27.53.27.17,0,.29,0,.18.32.11.1.22.21.33.32.16.19.3.4.43.58l.69.39c.08.21.14.41.18.63.14.06.25.12.38.2,0,.2,0,.41,0,.6.18.06.24.27.16.8-.13-.04-.26-.07-.37-.11-.04.28.04.39.13.46.1.06.21.08.24.18.15.27.17.64.4.81.14.45.25.89.33,1.33.04.21.07.41.1.62-.09.1-.16.19-.26.28Z"/>
          <path class="cls-2" d="M17.39,2.55c-.18-.06-.35-.1-.54-.13l.04-.1c-.16-.05-.36-.08-.55-.1l-.06.18c-.16-.06-.33-.11-.49-.16-.28-.1-.58-.21-.85-.3-.16.04-.3.1-.46.04-.16-.08-.28-.16-.43-.23.18-.07.28-.17.42-.25.14-.07.32-.11.63-.04.34.11.66.23.99.35l.09.03c.28.02.58.06.85.11.17.1.32.21.48.31.13.18.23.35.35.54-.16-.09-.31-.17-.48-.25Z"/>
          <path class="cls-2" d="M10.68,2.43c-.46.21-.9.46-1.31.76-.58.32-1.09.7-1.58,1.12-.12.15-.02.42-.26.49-.13.06-.25.15-.38.22-.29.44-.53.88-.75,1.34-.2.2-.39.4-.55.63.06-.29.13-.58.21-.87.16-.22.2-.41.29-.62.09-.21.23-.44.59-.68.14-.25.29-.48.45-.7.24-.36.46-.55.72-.9.32-.19.66-.34,1.03-.48.09-.19.27-.27.45-.31.18-.04.37-.02.5-.02.2-.03.39-.05.56-.08l.03.1Z"/>
          <path class="cls-2" d="M5.44,8.15c-.33.39-.49.73-.55,1.03-.06.3-.01.57.08.82-.09-.25-.13-.52-.08-.82.06-.3.22-.65.55-1.03Z"/>
          <path class="cls-2" d="M5.14,11.38c-.07.16-.13.34-.19.51l-.19-.02c-.06-.17-.22-.24.11-.61.08.05.17.09.27.13Z"/>
          <path class="cls-2" d="M6.28,12.53c-.19.17-.38.35-.56.53,0,.01,0,.04,0,.06.03.18.06.34.07.5.17.05.33.09.5.16.12.4.61.66.54,1.17.44-.06-.09.45.48.36.62.85-.58,1.63.06,2.47.01.16-.11.37.05.49.28-.09.25-.32.52-.33h.31s.16.56.16.56c-.09.07-.2.14-.31.19l-.71-.08c-.66-.48-.94-.74-.94-1.13-.07-.16-.17-.33-.26-.49-.07.15-.15.32-.24.48l-.59-.02c-.08-.09-.13-.19-.19-.28l.02-.41c.03-.14.08-.27.13-.41-.11-.35-.3-.61-.34-.97h-.1s0-.15,0-.15l.05-.81c-.03-.14-.07-.29-.08-.42.03-.08.07-.18.12-.27-.03-.16-.06-.32-.07-.5-.04-.05-.06-.1-.09-.16.05-.14.09-.29.14-.43l.29.02c.12-.14.24-.28.36-.41.22.1.44.18.66.27Z"/>
          <path class="cls-2" d="M21.97,7.74c-.03-.09-.14-.11-.24-.18-.1-.07-.17-.17-.13-.46.11.04.24.07.37.11,0,.17.02.35,0,.53Z"/>
          <path class="cls-2" d="M9.17,17.74c.09.3.39.57.76.71l.71.02v.21c-.23.11-.55.14-.43.33.09.19.17.36.26.55-.17.02-.34.03-.51.06-1.23.25-.25-.81-1.15-.72.01.11.05.23.06.34-.27-.08-.38.1-.6.11-.08-.02-.14-.05-.21-.06l.03-.56v-.07c.11-.05.22-.12.31-.19.68-.08.47-.42.54-.6.09-.04.15-.08.22-.14Z"/>
          <polygon class="cls-2" points="9.71 20.57 9.8 20.58 9.78 20.85 9.18 21.04 9.21 20.56 9.71 20.57"/>
          <path class="cls-2" d="M4.99,15.37c.04.36.24.62.34.97-.05.14-.1.27-.13.41l-.02.41h-.29c-.03-.15-.07-.3-.08-.42-.14-.15-.26-.28-.37-.42-.07-.26-.12-.5-.16-.76l.62-.18h.1Z"/>
          <path class="cls-2" d="M6.19,16.98c.38.27.38.38.26.49,0,.39.28.65.94,1.13l-.22.54c-.11.03-.21.04-.32.06h-.5c.19.05.09-.1-.08-.16-.21-.02-.49.04-.6-.09,0-.07-.01-.16.52-.19v-.2c-.29-.17-.58-.35-.86-.51l.04-.61.59.02c.09-.15.17-.32.24-.48Z"/>
          <path class="cls-2" d="M10.51,20.52c.06.12.11.23.19.35l-.92-.03.02-.27c.23,0,.49-.03.72-.05Z"/>
          <path class="cls-2" d="M8.11,18.67v.07s-.04.56-.04.56c-.13.01-.28.03-.4.05-.16-.06-.33-.14-.49-.21l.22-.54.71.08Z"/>
          <path class="cls-2" d="M8.73,20.13v.14c-.1.07-.16.12-.23.19h-.5s-.68-.5-.68-.5v-.14s.11,0,.11,0c.32-.03.61-.07.91-.12.14.15.26.29.39.43Z"/>
          <path class="cls-2" d="M9.2,17.2c.1.12.2.23.27.35.23-.02.48-.03.72-.05l-.03.48c.1.12.27.11.39.21.04.07.05.14.09.2v.07s-.72-.02-.72-.02c-.37-.14-.67-.4-.76-.71-.07.06-.13.1-.22.14l-.02.34c.15.26-.25.29-.52.26l-.16-.55h-.31c-.01-.11-.05-.2-.07-.3-.18-.42.53-.5.46-1.02.24-.06.29.15.39.15.05.14.11.27.18.42h.29Z"/>
          <path class="cls-2" d="M10.19,17.5h.5c-.06.24-.09.47-.15.69-.12-.1-.29-.09-.39-.21l.03-.48Z"/>
          <path class="cls-2" d="M17.59,10.54c-.02-.09-.04-.18-.07-.27,0,.09.37-.1.07.27Z"/>
          <path class="cls-2" d="M10.56,16.34c.32.28.39.77.14,1.17h-.5c.04-.27.09-.51.15-.77.07-.13.14-.27.21-.41Z"/>
          <path class="cls-2" d="M7.74,13.02c.14.14.22.24.25.33.03.09.03.17.02.25-.44.1-.6.01-.61-.14,0-.15.14-.33.33-.44Z"/>
          <path class="cls-2" d="M21.02,12.02c.1-.11.2-.2.28-.31.21.07.55.07.43.32-.04.14-.08.24-.1.36-.42.02-.13-.33-.62-.37Z"/>
          <path class="cls-2" d="M14.06,1.75c-.17-.03-.26.17-.39.27-.15-.05-.29-.07-.44-.11-.2.11-.4.22-.59.34-.08-.08-.14-.13-.2-.19-.27.22-.69.15-1.02.27-.2-.04-.4-.05-.58-.07.14-.04.19-.25.27-.38.42-.1.86-.18,1.28-.22.15-.01.32-.04.83.14.1-.01.18-.08.3-.13.12-.04.28-.05.54.07Z"/>
        </g>
        <g>
          <path class="cls-2" d="M10.52,10.51s-.21-2.22.3-3.56c0,0,.73-2.4,3.44-2.35,2.7.06,3.68,1.28,4.2,2.48,0,0,.41.9,0,2.46,0,0-.03-.2-.05-.68-.02-.47-.42-.27-.4-.58.02-.3.14-.26-.14-.43-.29-.17-.68-.42-.86-.53-.18-.11-.33-.4-.38-.27-.04.13.33.3.41.43.08.13.54.58.54.58,0,0,.12.22.16.4.04.18.38.52.43.62.04.1.23.36.15.59-.08.23,0,.54,0,.61,0,.07-.59,0-.59,0,0,0,.07-.47,0-.78-.07-.31-.18-.97-.27-1.02-.09-.04-.11-.33-.27-.47-.15-.13-.44-.3-.58-.45-.13-.15-.18-.17-.33-.17s-.18.04-.44-.07c-.27-.11-2.42-.8-4.45,1.22,0,0,.02-.33-.16.42-.18.75-.13.89-.18.98-.04.09-.27.2-.33.33-.07.13-.2.24-.2.24Z"/>
          <path class="cls-2" d="M15.14,10.34l.05-.13s-.05-.12.05-.21c.09-.09.19-.17.2-.22,0-.05.1-.11.22-.06.12.05.22.13.35.13.13,0,.19.09.39.09h.39s.1.08.17.14c.07.06.19.08.23.13.05.04.16.2.18.31.02.11-.05.13-.12.23-.06.11-.15.12-.1.28,0,0-.09-.02-.14-.09-.05-.07-.11-.09-.05-.17.06-.08.11-.12.09-.25-.02-.13-.04-.16-.11-.15-.07,0-.02,0-.12,0-.1,0-.08.03-.19,0-.11-.03-.17.02-.28,0-.11-.02-.12.06-.17.05-.05,0,0-.04-.08-.05-.09,0-.1,0-.19,0-.09,0-.11.05-.17,0-.06-.05.04-.09-.07-.11-.12-.02-.11-.08-.19,0-.08.08,0,.23-.16.21-.15-.03-.18-.12-.18-.12Z"/>
          <path class="cls-2" d="M15.1,11.26s-.07.02-.07-.05-.01-.13,0-.15c.01-.02.03-.06.03-.1,0-.05,0-.07,0-.09,0-.02.02-.11.04-.17.02-.06-.02-.08.05-.08s.17.04.21.03c.04-.01.06,0,.09-.06.02-.06.1-.03.1-.03,0,0-.02.09.09.09.11,0,.15-.05.29,0,.14.05.24.1.3.1s.18.06.24.08c.05.02.1.17.22.2.12.03.1.05.14.16.04.12.06.22.15.25.09.03.12,0,.2,0,.08,0-.13.1-.28.1s-.12-.08-.24-.08-.25-.02-.25-.02c0,0,.12-.13-.03-.14-.15-.01-.21-.01-.26.03-.05.05-.14.1-.19.11-.05,0-.1-.1-.1.05,0,.15-.06.14.06.19.12.05.11.01.18.05.07.03.08.06.16.07.07,0,.1-.05.1,0s.03.11-.13.11-.15.03-.31,0c-.16-.03-.54-.22-.56-.37-.02-.15.02-.09.04-.14.02-.05.03-.15-.06-.17-.09-.02-.2,0-.2,0Z"/>
          <path class="cls-2" d="M15.59,11.13s.04-.07.09,0c.05.07.09.1.03.16-.06.05-.15.02-.15,0s.03-.16.03-.16Z"/>
          <path class="cls-2" d="M15.89,10.83s0-.05.08-.03c.07.02.17.06.17.06,0,0-.09.06-.12.06s-.12-.06-.12-.06v-.03Z"/>
          <path class="cls-2" d="M16.29,10.97s.02-.03.06-.05c.04-.01.21.11.22.18.01.07-.03.06-.09.03-.06-.03-.2-.14-.2-.14v-.02Z"/>
          <path class="cls-2" d="M11.89,10.92s-.1-.11,0-.19c.1-.08.13-.09.17-.13.05-.04.01-.03.09-.09.08-.06.19-.04.27-.06.08-.02.13-.08.2-.09.07,0,.11-.02.26,0,.15.02.15-.05.25-.07.1-.02.23-.05.3.03.07.07.18.11.14.19-.04.08-.07.15-.15.16-.08,0-.1-.02-.21,0-.1.02-.18.02-.25.09-.07.08-.18.08-.25.1-.07.02-.12-.03-.12-.06,0-.03.06-.14-.08-.1-.14.04-.18.08-.28.1-.09.02-.21.15-.25.24-.03.09-.03.08.03.17.07.09.12.2.08.24-.03.04-.12.05-.16.09-.04.03-.07.12-.07.15s.12-.03.14-.05c.02-.02.2-.24.27-.24s.14.13.17.03c.02-.09-.06-.13.03-.18.09-.05.17-.04.19.04.02.08.01.16.02.21,0,.05,0,.03.08.01.09-.02.03-.05.12-.05.08,0,.06.03.12.04.06,0,.08-.01.1-.07.02-.06-.03-.12.05-.17.08-.05.13-.1.16-.04.03.05.02.08.01.14-.01.06,0,.27-.2.37-.2.1-.2.33-.08.28.12-.05.19-.16.27-.18.08-.03.29-.13.27-.24-.02-.11-.05-.23-.05-.23,0,0,.02-.23.17-.2.14.04.17.08.17.16s-.04.13,0,.12c.04,0,.12-.03.09-.19-.03-.16-.11-.14-.11-.23s.05-.15,0-.19c-.04-.04-.18,0-.18-.06s0-.09,0-.12-.05.02.01-.15c.06-.17.01-.19.09-.19s.09,0,.12.06c.03.06.04.11.09.13.05.02.11.01.12,0,.01-.01-.12-.17-.16-.24-.04-.07-.02-.1-.06-.12-.03-.02-.09.05-.18-.03-.09-.08-.26-.22-.37-.29-.11-.06-.05-.13-.22-.06-.18.07-.24.16-.36.16s-.1.01-.29,0c-.19,0-.22-.09-.32-.03-.1.06-.33.27-.33.27,0,0-.19.16-.13.28.06.12.1.04.07.17-.03.13-.17.12-.08.24.09.12.14.19.26.06Z"/>
          <path class="cls-2" d="M12.42,10.96s-.02.03-.05.03-.05-.02-.05-.03.02-.03.05-.03.05.02.05.03Z"/>
          <path class="cls-2" d="M13.1,13.35c.03-.07.1-.11.16-.17.05-.06.12-.14.16-.18.03-.03.04-.11.07-.08.03.03.04.08.05.12,0,.03.03.11.08.09.05-.02.1,0,.14-.05.03-.05-.03-.07.08-.08.1-.01.1-.05.25.03.15.08.11.14.25.14s.12-.04.18-.03c.07,0,.12,0,.14,0,.03,0,.1-.12.24-.13.14-.01.21.03.28.03.07,0,.09.05.16,0,.08-.05.07-.27.06-.33-.01-.06-.05-.1-.02-.1.03,0,.09,0,.12.17.03.18.05.21.1.26.05.05.1.09.1.14v.12s.11.03-.04-.06c-.15-.1-.14-.15-.2-.1-.07.05-.08.03-.18.12-.1.09-.13.22-.18.1-.05-.12-.01-.14-.13-.14-.12,0-.15-.03-.24.02-.09.05-.14.11-.17.16-.03.06-.07.09-.07.09,0,0-.02-.04-.06-.09-.04-.05-.1-.06-.12-.06s-.05-.14-.23-.15c-.18,0-.21-.04-.26,0-.05.03-.04.07,0,.12.05.05.13.01.13.08s.01.1-.06.08c-.07-.02-.07-.03-.14-.08-.06-.05-.05-.05-.1-.1-.04-.04-.03-.04-.09-.08-.05-.04-.06-.14-.13-.07-.07.07-.11.08-.14.15-.03.07-.02.12-.07.14-.05.01-.11.03-.12.01-.01-.01,0-.07,0-.07Z"/>
          <path class="cls-2" d="M14.45,13.81s0,0-.03.08c-.04.07,0,.12,0,.16,0,.03.04.07.04.07h.05v-.31h-.05Z"/>
          <path class="cls-2" d="M12.96,15.02s-.11-.1,0-.19c.11-.09.09-.2.21-.22.12-.02.29-.09.46-.14.16-.05.24-.09.35-.08.11.01.15.02.26.05.11.03.11.04.26.04s.31.03.53.03.22-.03.31.01c.1.04.08-.07.22.01.14.08.13.04.24.11.11.07.12.07.14.14.02.08.16.15.17.22.01.07,0,.12.05.15.05.03.13.09.13.09,0,0,.04.03-.05.07-.1.03-.12.08-.12.08,0,0,.01-.02-.07-.1-.09-.08-.13-.13-.14-.18-.01-.05.07-.12-.01-.15-.08-.03-.06-.07-.15-.07-.08,0,0-.12-.22-.15-.22-.03-.34-.07-.49-.09-.14-.02-.15-.04-.32-.02-.16.02-.39.1-.54.08-.15-.02-.14-.07-.3-.04-.16.02-.13.09-.25.09s-.17-.1-.22,0c-.04.1-.26.3-.42.26Z"/>
          <path class="cls-2" d="M11.66,14.96c-.07-.12-.18-.25-.24-.47-.06-.22-.09-.25-.12-.42-.02-.18-.07-.11-.13-.1-.06,0-.09.23-.09.23-.25.05-.15-.46-.16-.53-.01-.07-.05-.24-.1-.44-.05-.2-.11-.18-.16-.37-.05-.19-.01-.13,0-.26.01-.13.06,0,.09,0,.04,0,.08-.06.06-.12-.02-.06.13-.18,0-.21-.13-.04-.04-.28,0-.32.04-.04,0-.14-.2-.28-.2-.14-.08.01-.13.09-.05.08-.13.01-.13-.02s-.06-.26.13-.34c.19-.08.27.41.34.41s.07-.14.07-.14c-.02-.05-.18-.49-.35-.46-.18.04-.27.11-.32.19-.05.08-.12.08-.09.27.03.19.14.64.19.84.06.2.07.27.1.37.03.1.06.3.18.35.12.05.11.19.07.27-.04.08.07.11.09.24.02.13-.02.34.07.47.08.13.07.14.18.19.11.05.2.04.27.11.06.06.02-.02.09.17.07.19.23.56.13.73,0,0,.13.15.17-.08.04-.22.07-.25,0-.37ZM10.59,12.39c-.02.05,0,.16,0,.16h-.06s-.03-.05-.05-.07c-.02-.02,0-.09,0-.09,0,0-.07-.22-.1-.27-.03-.05-.01-.15,0-.23.01-.08.1.05.16.13.05.08.05.21.06.24,0,.03.02.08,0,.14Z"/>
          <path class="cls-2" d="M18.21,10.56s.01.19,0,.3c-.02.12.01.18,0,.3,0,.12.01.07-.01.16-.02.09-.02.03.14.09.16.06.41.29.29.54-.12.25-.12.65-.21.78-.09.13-.22.38-.24.43-.01.04-.09.19-.13.25-.04.06-.12-.06-.12.08s.15.32.07.47c-.07.15-.09.34-.3.24,0,0-.18.15-.18.31s-.29.4-.18.53c.11.13.24.4.24.4,0,0,.07-.34.07-.46,0-.12-.07-.28.01-.36.08-.08.23,0,.28-.06.05-.06.12-.15.14-.22.02-.08.05-.23.05-.24,0,0,.1-.59.18-.79.08-.2.22-.52.27-.65.05-.13.09-.23.13-.34.03-.11.11-.62-.1-.91-.22-.29-.41-.73-.42-.87Z"/>
          <path class="cls-2" d="M18.17,12.14s-.03-.35.07-.41c.1-.06.06-.16.1-.06.04.1-.11.46-.09.59.02.13-.05.26-.09.29-.04.03,0,0-.1.05-.1.06-.07.13-.12.22-.04.09-.13.34-.18.51-.04.17-.13,0-.12,0,.01,0,.1-.25.13-.33.03-.08.13-.4.13-.4,0,0,.22-.15.24-.25.01-.1.01-.21.01-.21Z"/>
          <path class="cls-2" d="M17.65,12.51s.16.04,0,.23c-.16.19-.17.19-.19.3-.01.11,0,.36,0,.36,0,0,.02-.05.13-.29.11-.24.3-.53.06-.6Z"/>
        </g>
        <g>
          <path class="cls-2" d="M3.94,21.59s.01-.03.04-.07c0-.01.01-.02.02-.04.01-.02.02-.03.03-.05.01-.02.02-.04.04-.06.01-.02.03-.04.04-.05.02-.02.03-.04.05-.06.02-.02.04-.04.06-.06.02-.02.04-.04.06-.06.02-.02.05-.04.07-.06.05-.03.1-.07.16-.1.05-.03.11-.06.17-.08.06-.02.12-.04.18-.06.06-.02.12-.02.18-.03.03,0,.06,0,.09,0,.03,0,.05,0,.08,0,.03,0,.05,0,.08,0,.02,0,.05,0,.07,0,.02,0,.04,0,.07,0,.02,0,.04,0,.06.01.04,0,.07.02.09.03.05.02.08.03.08.03,0,0-.03,0-.08-.02-.03,0-.06-.01-.09-.01-.02,0-.04,0-.06,0-.02,0-.04,0-.06,0s-.05,0-.07,0c-.02,0-.05,0-.07,0-.03,0-.05,0-.08.01-.03,0-.05,0-.08.02-.05.02-.11.03-.16.05-.05.02-.1.05-.16.07-.05.03-.1.06-.14.09-.05.03-.09.07-.13.1-.02.02-.04.04-.05.06-.02.02-.03.04-.05.06-.01.02-.03.04-.04.05-.01.02-.02.04-.04.05-.01.02-.02.03-.03.05,0,.02-.02.03-.02.04,0,.01-.01.03-.02.04,0,.01-.01.03-.02.04-.02.05-.03.08-.03.08l-.22-.1Z"/>
          <path class="cls-2" d="M10.98,16.6s0,.02.02.07c0,.02.02.04.03.07,0,.03.02.06.04.09.03.07.07.14.11.22.02.04.05.08.07.12.03.04.06.08.08.12.03.04.06.08.09.11.03.04.06.07.09.11.06.07.13.13.18.17.06.05.11.09.14.11.04.03.06.04.06.04,0,0-.02-.01-.06-.03-.04-.02-.09-.05-.16-.09-.06-.04-.14-.09-.21-.15-.04-.03-.08-.06-.11-.09-.04-.03-.07-.07-.11-.1-.04-.04-.07-.07-.11-.11-.03-.04-.07-.07-.1-.11-.06-.08-.12-.15-.16-.21-.02-.03-.04-.06-.06-.09-.02-.03-.03-.05-.04-.07-.02-.04-.03-.06-.03-.06l.23-.1Z"/>
          <path class="cls-2" d="M11.24,16.14s0,.03.02.07c0,.02.01.05.02.08,0,.03.02.06.03.1.03.07.06.15.1.24.02.04.04.09.07.13.02.05.05.09.08.13.03.04.06.09.09.13.03.04.06.08.09.12.03.04.06.07.09.11.03.03.06.06.09.09.03.03.06.05.08.07.02.02.05.04.07.05.04.03.06.04.06.04,0,0-.02-.01-.07-.03-.02,0-.04-.03-.07-.04-.03-.02-.06-.04-.09-.06-.03-.02-.07-.05-.1-.08-.04-.03-.07-.06-.11-.1-.04-.03-.08-.07-.11-.11-.04-.04-.07-.08-.11-.12-.03-.04-.07-.08-.1-.13-.03-.04-.06-.09-.09-.13-.06-.08-.11-.17-.15-.24-.02-.04-.04-.07-.05-.1-.01-.03-.03-.06-.04-.08-.02-.04-.03-.07-.03-.07l.23-.08Z"/>
          <path class="cls-2" d="M23,20.05c-.87-.74-.85-1.23-1.89-1.24-1.03,0-2.61-.2-2.94-.51-.33-.31-.88-.35-.88-.35"/>
          <path class="cls-2" d="M13.18,19.41s.36-1.66.07-1.83c-.29-.18-.76-.23-1.1-.81-.34-.58-.66-.99-.66-.99,0,0-.66.58-.79,1.44,0,0-1.91,1.2-2.98,1.55-1.07.36-2.96.82-3.46,1.87"/>
          <path class="cls-2" d="M10.75,16.92s.31,1.16,1.52,1.94c1.2.78,3.92,1.9,3.92,1.9,0,0,1.02-.74,1.06-1.07.04-.33.51-2.31-.19-3.17l-.68,1.37s1,1.21.7,2.04"/>
          <path class="cls-2" d="M11.72,18.3s.03.04.08.12c.05.08.13.18.22.31.18.26.41.61.66.94.25.33.52.65.75.86.11.11.22.19.29.24.04.03.07.05.09.06.02.01.03.02.03.02l-.05.09s-.01,0-.03-.02c-.02-.01-.05-.03-.09-.06-.08-.05-.19-.13-.31-.23-.25-.21-.54-.51-.81-.84-.27-.33-.52-.67-.71-.92-.09-.13-.17-.23-.23-.3-.06-.07-.09-.11-.09-.11l.2-.15Z"/>
          <path class="cls-2" d="M5,19.63s.01,0,.04-.02c.01,0,.04-.02.07-.02.03,0,.05-.01.09-.02.06-.01.14-.02.22-.02.08,0,.18,0,.27,0,.2.02.42.06.65.13.12.03.23.08.35.13.12.05.23.1.34.16.11.06.22.12.33.19.1.07.2.14.3.21.19.14.35.29.48.42.07.06.12.13.18.18.05.06.09.11.13.15.07.08.11.13.11.13,0,0-.04-.04-.12-.12-.04-.04-.09-.08-.14-.13-.06-.05-.12-.11-.19-.16-.14-.12-.32-.24-.51-.36-.1-.06-.2-.12-.31-.17-.11-.06-.22-.11-.33-.15-.11-.05-.23-.09-.34-.12-.11-.03-.23-.07-.34-.09-.22-.05-.43-.07-.6-.07-.09,0-.17,0-.23.02-.07,0-.12.02-.16.03-.02,0-.04.01-.05.02-.01,0-.02,0-.03.01-.03.01-.04.02-.04.02l-.16-.33Z"/>
          <path class="cls-2" d="M21.26,18.93s0,0-.01.02c-.01.01-.03.03-.05.06-.04.06-.09.15-.13.27-.02.06-.04.13-.06.2-.02.07-.03.15-.04.23,0,.04,0,.08,0,.13,0,.04,0,.09,0,.13,0,.09,0,.18.02.27,0,.09.03.18.04.27.01.09.02.18.03.27,0,.09.02.17.02.25,0,.08,0,.16.01.23,0,.14,0,.26,0,.34,0,.08-.02.13-.02.13,0,0,0-.05,0-.13,0-.08-.01-.2-.03-.34,0-.07-.02-.14-.04-.22-.01-.08-.03-.16-.05-.25-.02-.09-.04-.17-.06-.26-.02-.09-.05-.18-.07-.27-.03-.09-.04-.19-.06-.28,0-.05-.01-.1-.01-.14,0-.05,0-.09,0-.14,0-.09,0-.18.01-.27,0-.09.02-.17.04-.24.03-.15.08-.27.13-.35.02-.04.04-.08.05-.1.02-.02.03-.04.03-.04l.29.23Z"/>
        </g>
        <path class="cls-2" d="M4.94,18.44c0-3.16-.08-6.33,0-9.49.02-.81.15-1.61.35-2.4.09-.36.22-.71.36-1.06.08-.21.18-.42.28-.62-.96,1.95-.61,1.04-.24.52,1.64-2.28,4.39-3.48,7.14-3.63,2.76-.15,5.56.85,7.48,2.86,2.91,3.03,2.39,7.34,2.39,11.2v3.52c0-.57.98-1.15.98-1.74,0-3.01.16-6.07-.03-9.07-.1-1.57-.58-3.11-1.42-4.44C20.74,1.69,18.05.33,15.3.05c-2.74-.28-5.59.59-7.62,2.47-1.09,1.01-1.78,2.34-2.48,3.62-.74,1.35-1.13,2.79-1.23,4.33-.2,3.21-.02,6.49-.02,9.71,0-.57.98-1.15.98-1.74h0Z"/>
      </g>
      <g>
        <g>
          <path class="cls-2" d="M11.63,23.52c.28-.31.54-.57.54-.93,0-.04-.03-.06-.05-.09-.19-.06-.45-.08-.45-.4,0-.19.17-.38.38-.38.24,0,.47.24.47.59,0,.64-.5,1.15-.68,1.29l-.09.08-.12-.12v-.03Z"/>
          <g>
            <path class="cls-2" d="M6.4,23.5l1.62-.47-.03.27-1.58.48v-.28Z"/>
            <path class="cls-2" d="M6.44,23.82l.08-.3,1.45-.84-.04.27-1.49.87ZM6.46,23.36l.04-.26,1.47-.92-.02.23-1.49.95Z"/>
          </g>
          <path class="cls-2" d="M19.69,34.35c0,.49-.4.89-.89.89s-.89-.4-.89-.89.4-.89.89-.89.89.4.89.89Z"/>
          <g>
            <path class="cls-2" d="M24.43,26.29s-3.25.27-3.14,3.23c0,0,.08,1.15,1.25,1.87h-4.93c.02-.2.03-.41.03-.62,0-1.34-.34-2.49-1.02-3.47-.41-.58-.84-.86-1.27-.86-.35,0-.66.14-.93.43-.46.5-.84,1.07-1.14,1.73-.3.66-.45,1.27-.45,1.83,0,.37.12.7.36.98.24.28.54.45.9.5.17.03.51.04,1,.04h1.39c-.27.73-.67,1.3-1.19,1.73-.52.42-1.09.64-1.71.64-.38,0-.82-.09-1.31-.27,1,1.29,1.77,1.94,2.31,1.94.47,0,.99-.35,1.55-1.04.61-.76,1.04-1.57,1.28-2.43h9.67v-1.14h-3.17c-.27-.29-.55-.7-.71-1.29-.41-1.49.13-2.63,1.12-3.37.99-.74,1.96.05,1.74.49-.22.44-.48.33-.48.94,0,.53.46.96,1.03.96s1.03-.43,1.03-.96c0,0,.16-2.17-3.2-1.87ZM14.9,30.03c-.51,0-.76-.2-.76-.61,0-.3.11-.59.33-.86s.47-.41.73-.41c.6,0,.98.63,1.13,1.88h-1.43Z"/>
            <path class="cls-2" d="M19.61,31.39h-1.16c.53-.5,1.04-1.31,1.07-2.57.08-2.71-3.06-2.93-3.06-2.93,0,0,1.37-.42,1.11-1.85,0,0-.18-1.53-1.75-1.26v3.13s-.76-.25-1.57.44v-3.3s-.05-.42-.66-.42v-.15h3.74s1.54.1,1.8,1.41c0,0,.36,1.09-1.14,1.92,0,0,1.67.47,2.4,1.87.59,1.14.52,2.71-.8,3.7Z"/>
            <path class="cls-2" d="M4.12,26.83c-.95-.78-1.67-1.17-2.16-1.17-.39,0-.72.37-.98,1.11-.65,1.8-.97,3.03-.97,3.67,0,.7.19,1.16.56,1.36.12.07.29.11.51.14h.18c.11.01.22.02.31.02h3.14l.21-.61.27-.89c.24-.81.36-1.29.36-1.43,0-.68-.47-1.41-1.42-2.19ZM2.25,30.03c-.59,0-.88-.21-.88-.63,0-.27.09-.69.28-1.23.17-.48.37-.72.6-.72.07,0,.14.02.22.05.57.17,1.04.54,1.4,1.08.23.35.36.84.4,1.45h-2.02Z"/>
            <path class="cls-2" d="M9,25.91l-.74,1.51c.69.3,1.17.64,1.45,1.03.28.38.44.91.48,1.58h-3.35l-.43,1.93h4.1l.52-1.31c.24-.63.36-1.2.36-1.72,0-1.32-.8-2.32-2.4-3.02Z"/>
          </g>
          <path class="cls-2" d="M2.77,23.92c0,.49-.4.89-.89.89s-.89-.4-.89-.89.4-.89.89-.89.89.4.89.89Z"/>
          <path class="cls-2" d="M5.34,23.92c0,.49-.4.89-.89.89s-.89-.4-.89-.89.4-.89.89-.89.89.4.89.89Z"/>
        </g>
        <g>
          <path class="cls-2" d="M1.2,33.6h-.64v.59h.71v.18H.35v-1.64h.89v.18h-.68v.52h.64v.18Z"/>
          <path class="cls-2" d="M2.13,33.19l.17.25c.05.07.08.12.12.19h0c.04-.07.08-.13.12-.19l.16-.25h.23l-.4.57.41.61h-.24l-.18-.27c-.05-.07-.09-.13-.13-.2h0c-.04.07-.08.13-.12.2l-.17.27h-.24l.42-.6-.4-.58h.24Z"/>
          <path class="cls-2" d="M3.65,33.58c0-.15,0-.27,0-.39h.19v.2h.02c.09-.14.23-.23.42-.23.29,0,.5.24.5.6,0,.42-.26.63-.54.63-.16,0-.29-.07-.36-.19h0v.64h-.21v-1.28ZM3.86,33.89s0,.06,0,.09c.04.15.17.25.32.25.23,0,.36-.19.36-.46,0-.23-.12-.44-.35-.44-.15,0-.29.1-.32.26,0,.03-.01.06-.01.09v.21Z"/>
          <path class="cls-2" d="M5.53,33.56c0-.14,0-.26,0-.37h.19v.23h.02c.05-.16.19-.26.33-.26.02,0,.04,0,.06,0v.2s-.04,0-.07,0c-.15,0-.26.11-.29.27,0,.03,0,.07,0,.1v.63h-.21v-.81Z"/>
          <path class="cls-2" d="M6.91,33.82c0,.29.19.41.41.41.15,0,.25-.03.33-.06l.04.15c-.08.03-.21.08-.4.08-.36,0-.58-.24-.58-.6s.21-.63.55-.63c.39,0,.49.34.49.55,0,.04,0,.08,0,.1h-.83ZM7.54,33.67c0-.13-.06-.35-.3-.35-.22,0-.31.2-.33.35h.63Z"/>
          <path class="cls-2" d="M8.47,34.15c.07.04.18.08.29.08.15,0,.23-.08.23-.18s-.06-.16-.22-.21c-.21-.08-.31-.19-.31-.33,0-.19.16-.35.41-.35.12,0,.22.03.29.07l-.05.16s-.13-.07-.24-.07c-.13,0-.2.07-.2.16,0,.1.07.14.22.2.2.08.31.18.31.35,0,.21-.16.36-.44.36-.13,0-.25-.03-.33-.08l.05-.16Z"/>
          <path class="cls-2" d="M9.93,34.15c.07.04.18.08.29.08.15,0,.23-.08.23-.18s-.06-.16-.22-.21c-.21-.08-.31-.19-.31-.33,0-.19.16-.35.41-.35.12,0,.22.03.29.07l-.05.16s-.13-.07-.24-.07c-.13,0-.2.07-.2.16,0,.1.07.14.22.2.2.08.31.18.31.35,0,.21-.16.36-.44.36-.13,0-.25-.03-.33-.08l.05-.16Z"/>
        </g>
      </g>
    </g>
  </g>
</svg>