<?xml version="1.0" encoding="UTF-8"?>
<svg id="Layer_2" data-name="Layer 2" xmlns="http://www.w3.org/2000/svg" viewBox="0 0 84 50.32">
  <defs>
    <style>
      .cls-1 {
        fill: #FFFFFF;
        stroke-width: 0px;
      }
    </style>
  </defs>
  <g id="Layer_1-2" data-name="Layer 1">
    <g>
      <g>
        <path class="cls-1" d="M3.86,43.91h-.05c-.02.14-.06.32-.13.55-.04.15-.14.3-.29.43-.15.14-.31.22-.47.24-.08.02-.19.02-.33.02-.37,0-.67-.1-.89-.3-.25-.21-.37-.5-.37-.87,0-.22.08-.47.24-.76.16-.28.25-.48.25-.6,0-.13-.06-.2-.19-.2-.06,0-.11.04-.15.13-.03.06-.04.12-.04.16-.04-.01-.07-.06-.1-.14-.03-.08-.04-.16-.04-.21,0-.24.14-.36.41-.36-.03-.05-.05-.09-.05-.14,0-.1.04-.18.11-.25.07-.07.16-.1.24-.1,0,0,.06.02.17.05-.09.12-.14.23-.14.33,0,.01.01.1.04.27.03.16.04.26.04.27,0,.18-.09.42-.26.72-.17.3-.26.54-.26.7,0,.23.09.42.28.58.16.13.35.2.56.2s.38-.03.49-.09c.18-.1.31-.31.39-.64.03-.1.04-.23.04-.39,0-.15-.02-.33-.05-.53-.03-.04-.11-.09-.22-.15l.77-.75v1.83Z"/>
        <path class="cls-1" d="M6.09,43.91h-2.37v-.54h.65v-.58c-.06-.04-.14-.09-.25-.16l.78-.76v1.5h.59v-.83c-.05-.04-.13-.09-.24-.16l.74-.76v1.75h.1v.54Z"/>
        <path class="cls-1" d="M8.18,43.91h-2.33v-.54h1.81v-.3h-1.14v-.68s0-.07.03-.17c.02-.07.07-.14.16-.21.09-.07.16-.09.22-.07.07-.35.21-.53.43-.53h.45c.07,0,.19-.04.35-.11v2.62ZM7.71,40.56s-.11.15-.34.38c-.08-.07-.2-.19-.36-.36l-.35.36s-.17-.15-.38-.36c.07-.08.19-.2.35-.38.04.03.17.15.37.35l.35-.35c.24.21.35.32.35.35M7.62,42.58v-.73c-.07.01-.14.05-.2.12-.06.07-.09.14-.09.21,0,.03,0,.05.02.06,0,.02,0,.03,0,.04-.01-.01-.02-.02-.03-.02-.06,0-.11.03-.16.08-.05.05-.07.11-.07.16,0,.02,0,.03,0,.05,0,.02,0,.03,0,.03h.51Z"/>
        <path class="cls-1" d="M10.08,43.91h-1.16v-3.02c-.06-.04-.15-.09-.26-.16l.77-.76v3.39h.65v.54Z"/>
        <path class="cls-1" d="M12.6,43.91h-.86s-.06-.04-.15-.11c-.09-.07-.14-.11-.15-.11s-.1.07-.25.22h-1.37v-.54h1.26c.18-.16.36-.32.55-.49.19-.17.28-.32.28-.46s-.06-.27-.18-.37c-.12-.1-.24-.15-.37-.15-.07,0-.16.04-.28.11-.11.08-.17.16-.19.24-.02.11-.03.18-.03.2,0,.16.07.29.21.4l-.35.34c-.26-.18-.39-.43-.39-.77,0-.17.04-.35.12-.51.11-.22.26-.37.46-.46.11-.04.27-.06.48-.06.3,0,.55.11.74.32.18.2.27.44.27.72,0,.17-.04.32-.12.44-.08.14-.23.31-.47.5h.79v.54ZM11.84,40.57l-.41.41-.4-.39.41-.41.4.39Z"/>
        <path class="cls-1" d="M13.84,43.91h-1.47v-.54h.93v-.02s0-.27,0-.27c-.06-.04-.14-.09-.24-.16l.77-.75v1.75Z"/>
        <path class="cls-1" d="M16.74,43.91h-.1c0,.07,0,.17-.02.32-.01.07-.07.15-.17.25-.1.1-.18.16-.25.18-.04.01-.11.04-.19.07-.05.04-.1.1-.14.2-.03-.1-.08-.17-.15-.2-.02-.01-.04-.03-.08-.05-.16-.02-.3-.1-.41-.22-.12-.13-.18-.27-.18-.43,0-.04,0-.07.02-.11h-1.29v-.59s0-.07-.02-.2c-.01-.13-.02-.21-.02-.22,0-.04.01-.11.03-.2.02-.06.08-.14.18-.25.1-.1.19-.17.27-.18.16-.04.25-.05.27-.05h2.15v1.14h.1v.54ZM16.11,44.02v-1.22h-1.56s-.02,0-.18.02c-.11,0-.23.07-.36.19-.13.12-.21.24-.24.35h1.82v.59c0,.05.02.12.08.22.01,0,.02.02.03.03.06.02.1.03.14.03h.06c.07-.04.12-.08.15-.12.03-.04.05-.07.05-.1"/>
        <path class="cls-1" d="M18.33,43.91h-1.79v-.54h1.24v-.77s-.12-.09-.21-.16l.76-.74v2.21ZM18.12,45.03l-.42.43-.42-.42.42-.43.42.42Z"/>
        <path class="cls-1" d="M22.07,43.33l-.87-.81c-.09.09-.15.18-.18.25-.01.03-.02.05-.02.08,0,.05.03.11.08.17.18.19.45.49.81.89.05.05.07.16.07.31,0,.08-.02.19-.05.32-.03.13-.13.26-.3.39-.17.13-.31.2-.43.22-.12.01-.2.02-.22.02-.13,0-.24-.01-.33-.04-.24-.08-.41-.18-.53-.29-.12-.11-.18-.22-.21-.33-.01-.07-.02-.15-.02-.22,0-.08.02-.19.06-.34.04-.15.06-.25.06-.3,0-.04,0-.09-.02-.14,0-.03-.05-.1-.12-.22.03-.02.06-.02.1-.02s.08,0,.12.02c.04.01.09.05.15.1,0,.01.02.03.03.05.05.12.04.22,0,.3.12.05.2.14.24.25,0,.01,0,.03,0,.06,0,.02-.02.08-.05.17-.01-.05-.04-.1-.09-.13l-.06-.02s-.03,0-.07.02c-.04.02-.09.09-.14.21v.13s.05.12.09.21c.01.02.05.05.11.09.06.05.14.08.23.11.09.03.16.04.23.04.08,0,.2-.02.35-.07.04-.01.09-.05.16-.13.07-.07.11-.13.13-.18.03-.08.05-.14.05-.19,0-.09-.02-.16-.06-.21-.24-.24-.54-.56-.91-.96-.05-.06-.07-.14-.07-.24v-.08s.04-.09.09-.17c.1-.16.3-.46.62-.91l.76.74s.11-.06.2-.11v1ZM21.77,45.66c-.13.16-.24.28-.34.36-.04-.03-.15-.14-.33-.32-.07.06-.18.16-.33.32-.02-.02-.13-.13-.36-.34.01-.02.12-.13.34-.35l.33.33s.13-.12.35-.33l.34.34Z"/>
        <path class="cls-1" d="M24.3,43.91h-.21c-.01.12-.05.3-.11.54-.21.46-.43.72-.66.77-.04.01-.09.02-.16.04-.07.01-.18.02-.34.02s-.29-.01-.39-.03c-.07-.02-.21-.08-.42-.16.34,0,.6-.04.8-.11.28-.09.5-.28.67-.54.05-.07.07-.22.07-.44,0-.05-.01-.14-.04-.25-.04-.18-.11-.31-.19-.39-.09-.08-.17-.14-.24-.17-.05-.02-.11-.04-.17-.06.11-.09.18-.19.22-.29.05-.13.07-.23.07-.32,0-.08-.02-.19-.06-.32.45.4.71.71.77.92.02.05.05.14.08.28h.32v.54Z"/>
        <path class="cls-1" d="M26.68,38.89c0,.06-.01.11-.04.17,0,0-.01.01-.03.02-.01.01-.03.02-.06.02-.05,0-.09-.02-.14-.05h-.02s-.04.04-.08.07c-.04.03-.08.05-.13.05-.04,0-.07-.02-.11-.04-.03-.03-.05-.08-.06-.16,0-.11,0-.17-.02-.19-.02.03-.05.08-.09.14-.02-.15.04-.25.17-.32.03.03.04.09.04.17,0,.08,0,.14.02.17.02.04.05.05.09.05,0,0,.01-.01.06-.04.05-.02.07-.06.07-.1,0-.02,0-.04-.02-.08-.01-.04-.02-.06-.02-.07.02-.03.05-.08.09-.13.01.13.03.25.06.36,0,.03.03.05.07.05.01,0,.03-.01.07-.03,0-.02,0-.06-.02-.11-.02-.05-.02-.08-.02-.09,0-.04.03-.08.09-.14.03.15.04.25.04.3"/>
        <path class="cls-1" d="M28.51,43.91h-.13c0,.06,0,.16-.02.3,0,.05-.04.11-.1.2-.06.09-.12.15-.19.18-.08.02-.2.06-.36.13-.05.04-.09.09-.13.13-.07-.09-.17-.16-.29-.21-.17-.07-.27-.12-.3-.14-.15-.11-.22-.3-.19-.58h-2.83v-.54h3.31v.63s.02.03.04.05c.03.05.08.1.17.15.01,0,.02,0,.04.02.02,0,.04,0,.06,0,.06,0,.12-.02.17-.06.07-.06.11-.12.11-.18v-.99h-3.46l2-2.64v1.12c-.06,0-.14,0-.26,0-.16.21-.4.52-.72.94h2.93v.95h.13v.54Z"/>
        <path class="cls-1" d="M29.76,43.91h-1.47v-.54h.93v-.02s0-.27,0-.27c-.06-.04-.14-.09-.24-.16l.77-.75v1.75Z"/>
        <path class="cls-1" d="M32,43.91h-2.37v-.54h.65v-.58c-.06-.04-.14-.09-.25-.16l.78-.76v1.5h.59v-.83c-.05-.04-.13-.09-.24-.16l.74-.76v1.75h.1v.54Z"/>
        <path class="cls-1" d="M33.01,43.91h-1.22v-.54h.69v-2.49s-.11-.08-.24-.16l.77-.76v3.95Z"/>
        <path class="cls-1" d="M34.61,40.71s-.1.08-.24.18v3.02h-.53v-3.94l.77.73Z"/>
        <path class="cls-1" d="M38.36,43.91c.01.18,0,.38-.05.6-.02.11-.09.24-.2.38-.11.14-.23.24-.36.3-.04.02-.08.03-.13.05-.07.03-.17.04-.28.04-.08,0-.17,0-.24-.02-.12-.02-.31-.08-.57-.17.04,0,.1,0,.2.02.1,0,.15.02.16.02.27,0,.5-.1.69-.3.19-.2.28-.43.28-.7v-.21h-1.34v-.72s0-.08.02-.12c.02-.04.04-.09.06-.14.02-.05.06-.1.11-.13.04-.03.11-.04.22-.04.02-.1.07-.24.14-.41.04-.05.11-.09.21-.11.08-.02.17-.03.25-.05.14-.03.28-.05.43-.09.14-.03.28-.11.41-.24v2.05ZM37.76,43.37v-.67h-.18c-.15,0-.23.07-.23.22,0,.04.01.08.03.13h-.07c-.07,0-.11.01-.13.03-.04.05-.06.09-.06.13v.17h.65Z"/>
        <path class="cls-1" d="M43.48,43.96c0,.07-.01.16-.04.25-.05.17-.13.3-.24.36-.09.03-.18.06-.26.09-.11.04-.19.11-.24.2-.07-.1-.18-.17-.31-.22-.17-.07-.28-.12-.33-.17-.07-.05-.11-.14-.13-.26-.02-.11-.03-.21-.04-.31h-1.78v-.59h2.29v.58s0,.04.02.06c.03.08.09.14.17.17.03.02.06.02.09.02.02,0,.04,0,.04,0,0,0,.02,0,.05-.02.06-.03.1-.08.13-.13.01,0,.02-.01.02-.04v-1.08h-2.81v-1.44l.7.29c-.04.06-.11.15-.21.28v.28h2.88v1.67Z"/>
        <path class="cls-1" d="M47.52,43.91h-.16c0,.15-.03.3-.11.44-.09.17-.23.28-.41.32-.03,0-.07.02-.11.04-.04.02-.09.07-.15.15-.08-.11-.19-.18-.31-.22-.17-.06-.28-.11-.34-.15-.06-.04-.1-.12-.13-.26-.03-.13-.04-.24-.03-.33h-1.77v-.58h2.29v.59c0,.06.04.11.1.16.07.05.12.07.17.07.05,0,.11-.02.17-.06.06-.04.09-.09.09-.15v-1.07h-2.82v-1.44l.69.29c-.04.06-.11.16-.2.29v.28h2.87v1.06h.16v.54Z"/>
        <path class="cls-1" d="M50.68,43.91h-1.33c-.07-.07-.18-.17-.33-.3-.14.12-.25.21-.33.3h-1.35v-.54h1.36l.99-.88c-.06-.13-.13-.21-.21-.23-.04,0-.08-.01-.14-.03-.05-.02-.14-.07-.24-.15-.08.09-.23.16-.43.2-.03,0-.11.07-.23.19l.44.36c-.07.07-.19.18-.36.32-.11-.11-.26-.22-.46-.36-.04-.02-.07-.02-.1-.02,0,0-.04,0-.1.02-.05.01-.11.07-.18.18-.04-.08-.06-.13-.06-.16,0-.05.02-.12.05-.19.02-.03.05-.06.1-.09.02-.01.08-.02.17-.02,0-.21.07-.37.24-.47,0,0,.17-.07.5-.2.21-.08.34-.19.4-.33.11.18.28.3.53.36.27.07.47.18.59.33.03.04.05.09.05.16,0,.04,0,.07-.02.09,0,.02,0,.02.02.02h.06c.16,0,.24.1.24.29,0,.07,0,.11-.02.13s-.03.04-.04.05c-.03-.06-.09-.12-.19-.18-.04,0-.06,0-.08,0-.07,0-.11,0-.13.02-.13.08-.35.26-.66.55h1.25v.54ZM49.27,40.41c-.07.08-.19.2-.35.37-.04-.03-.17-.14-.37-.35.07-.07.19-.2.36-.37.04.03.17.15.37.36"/>
        <path class="cls-1" d="M51.64,43.91h-1.22v-.54h.69v-2.49s-.11-.08-.24-.16l.77-.76v3.95Z"/>
        <path class="cls-1" d="M53.24,40.71s-.1.08-.24.18v3.02h-.53v-3.94l.77.73Z"/>
        <path class="cls-1" d="M57.12,43.91h-1.07c-.15,0-.3.05-.45.14-.18.12-.3.27-.35.46-.03-.11-.04-.18-.04-.24,0-.16.05-.32.15-.47.12-.18.27-.29.47-.34-.3-.26-.46-.51-.46-.75,0-.32.15-.53.47-.63.12-.01.23-.02.35-.04.17-.03.29-.08.34-.17.03-.05.04-.15.04-.28.08.11.12.22.12.35,0,.14-.06.27-.17.39.02.01.04.04.07.08.03.04.04.1.04.17,0,.04-.02.1-.07.2-.1-.13-.23-.19-.38-.19-.21,0-.32.11-.32.33,0,.11.07.23.2.35.12.12.22.17.31.17h.76v.47Z"/>
        <path class="cls-1" d="M59.04,43.91h-1.16v-3.02c-.06-.04-.15-.09-.26-.16l.77-.76v3.39h.65v.54Z"/>
        <path class="cls-1" d="M60.08,40.04c0,.06-.01.11-.04.17,0,0-.01.01-.03.02-.01.01-.03.02-.06.02-.05,0-.09-.02-.14-.06h-.02s-.04.04-.08.07c-.04.03-.08.05-.14.05-.04,0-.07-.02-.11-.04-.03-.03-.05-.08-.06-.16,0-.11-.01-.17-.02-.19-.02.03-.05.08-.09.14-.02-.15.04-.25.17-.32.03.03.04.09.03.17,0,.08,0,.14.02.17.02.04.05.05.09.05,0,0,.01-.01.06-.04.05-.02.07-.06.07-.1,0-.02,0-.04-.02-.08-.01-.04-.02-.06-.02-.07.02-.03.05-.08.09-.13.01.13.03.25.05.36,0,.03.03.05.07.05.01,0,.04-.01.07-.03,0-.02,0-.06-.02-.11-.02-.05-.02-.08-.02-.1,0-.04.03-.08.09-.14.03.15.04.25.04.3"/>
        <path class="cls-1" d="M60.54,43.91h-1.75v-.54h.87v-.37s-.12-.07-.24-.14l.79-.82v1.33h.33v.54ZM60.21,45.05l-.41.45-.43-.42.41-.47.43.44Z"/>
        <path class="cls-1" d="M64.37,43.95s-.02.12-.07.25c-.05.16-.17.29-.36.41-.05.02-.13.05-.22.1-.05.04-.1.1-.13.2-.05-.11-.09-.18-.14-.2-.17-.08-.3-.15-.38-.21-.16-.11-.25-.22-.28-.33v-.27h-2.45v-.54h.63v-2.5c-.06-.04-.14-.1-.25-.17l.78-.75v2.8c.03-.09.08-.19.16-.28.08-.1.16-.16.24-.18l.26-.07h2.21v1.73ZM63.84,43.97v-1.18h-1.59s-.04,0-.14.02c-.16.02-.29.09-.39.21-.13.15-.19.25-.19.32h1.8v.64c0,.06.03.12.08.17.05.06.11.09.17.09s.12-.03.18-.09c.06-.06.09-.12.09-.17"/>
        <path class="cls-1" d="M66.01,39.4h-.58s-.07.03-.13.09c-.04.03-.08.09-.12.17-.02-.02-.02-.06-.02-.11,0-.04,0-.06,0-.08,0-.05.03-.1.09-.17.05-.07.11-.1.16-.11-.06-.05-.13-.13-.21-.24l-.02-.1s.02-.09.06-.16c.02-.04.06-.06.11-.07.05-.01.1-.02.16-.02.08,0,.13-.04.17-.08.02-.02.02-.06.02-.13.05.05.07.1.07.14,0,.04-.02.1-.05.17.02.09.02.16,0,.21-.06-.04-.11-.06-.15-.06-.08,0-.12.03-.12.09,0,.02.02.06.05.1.04.05.07.08.09.09.05.01.19.02.42.02v.25Z"/>
        <path class="cls-1" d="M66.1,40.71s-.1.08-.24.18v3.02h-.53v-3.94l.77.73Z"/>
        <path class="cls-1" d="M69.8,40.59l-.39.41-.39-.38-.4.37-.4-.4.39-.4.4.38.39-.38.4.4ZM70.34,43.91h-2.1v-.85s0-.04.01-.09.02-.09.03-.12c0-.13.1-.28.27-.45.18-.17.33-.26.47-.26.02,0,.05,0,.09-.01.05,0,.07-.01.09-.01.09,0,.21.02.36.06v-.37s-.07-.07-.18-.19c0-.03,0-.04.02-.05.17-.13.42-.3.73-.51v2.31h.21v.54ZM69.56,43.33v-.63l-.05-.03c-.07-.04-.15-.06-.23-.06-.04,0-.07,0-.1,0-.12.03-.21.07-.27.14-.03.04-.07.09-.11.16-.02.06-.03.1-.03.1v.3h.79Z"/>
        <path class="cls-1" d="M71.54,39.83c0,.06-.01.11-.04.17,0,0-.02.01-.03.02-.01.01-.03.02-.06.02-.05,0-.09-.02-.14-.06h-.02s-.04.04-.08.07c-.04.03-.08.05-.13.05-.04,0-.07-.02-.11-.04-.03-.03-.05-.08-.06-.16,0-.11,0-.17-.02-.19-.02.03-.05.08-.09.14-.02-.15.04-.25.16-.32.03.03.04.09.04.17,0,.08,0,.14.02.17.02.04.05.05.09.05,0,0,.01-.01.06-.04.04-.02.07-.06.07-.1,0-.02,0-.04-.02-.08s-.02-.06-.02-.07c.02-.03.05-.08.1-.13.01.13.03.25.05.36,0,.03.03.05.07.05.01,0,.04-.01.07-.03,0-.02,0-.06-.02-.11-.02-.05-.02-.08-.02-.09,0-.04.03-.08.09-.14.03.15.04.25.04.3"/>
        <path class="cls-1" d="M71.91,43.91h-1.86v-.54h1.33v-.75s-.12-.09-.23-.16l.76-.75v2.21ZM70.84,44.6c.07.07.19.19.36.36.14-.15.26-.27.36-.36,0,0,.12.13.35.36l-.35.37s-.16-.15-.36-.35l-.34.35s-.15-.14-.36-.39c.06,0,.12-.06.18-.14.06-.07.11-.14.16-.21"/>
        <path class="cls-1" d="M75.81,43.96c0,.07-.01.16-.04.25-.05.17-.13.3-.24.36-.09.03-.18.06-.26.09-.11.04-.19.11-.24.2-.07-.1-.18-.17-.31-.22-.17-.07-.28-.12-.33-.17-.07-.05-.11-.14-.13-.26-.02-.11-.03-.21-.04-.31h-1.78v-.59h2.29v.58s.01.04.02.06c.03.08.09.14.17.17.03.02.06.02.09.02.02,0,.04,0,.04,0,0,0,.02,0,.05-.02.06-.03.1-.08.12-.13.01,0,.02-.01.02-.04v-1.08h-2.81v-1.44l.7.29c-.04.06-.11.15-.21.28v.28h2.88v1.67Z"/>
        <path class="cls-1" d="M77.48,40.71s-.1.08-.24.18v3.02h-.53v-3.94l.77.73Z"/>
        <path class="cls-1" d="M81.6,43.96c0,.07-.01.16-.04.25-.05.17-.13.3-.24.36-.09.03-.18.06-.26.09-.11.04-.19.11-.24.2-.07-.1-.18-.17-.31-.22-.17-.07-.28-.12-.33-.17-.07-.05-.11-.14-.13-.26-.02-.11-.03-.21-.04-.31h-1.78v-.59h2.29v.58s.01.04.02.06c.03.08.09.14.17.17.03.02.06.02.09.02.02,0,.04,0,.04,0,0,0,.02,0,.05-.02.06-.03.1-.08.13-.13.01,0,.02-.01.02-.04v-1.08h-2.81v-1.44l.7.29c-.04.06-.11.15-.21.28v.28h2.88v1.67Z"/>
        <path class="cls-1" d="M84,43.91c0,.18,0,.38-.05.6-.02.11-.09.24-.2.38-.11.14-.23.24-.37.3-.04.02-.08.03-.13.05-.07.03-.17.04-.28.04-.08,0-.16,0-.24-.02-.11-.02-.31-.08-.57-.17.04,0,.1,0,.2.02.1,0,.15.02.16.02.27,0,.5-.1.69-.3.19-.2.28-.43.28-.7v-.21h-1.34v-.72s0-.08.02-.12c.02-.04.04-.09.06-.14.02-.05.06-.1.11-.13.04-.03.11-.04.22-.04.02-.1.07-.24.14-.41.04-.05.11-.09.21-.11.08-.02.17-.03.25-.05.14-.03.28-.05.43-.09.14-.03.28-.11.41-.24v2.05ZM83.4,43.37v-.67h-.18c-.15,0-.23.07-.23.22,0,.04.01.08.03.13h-.07c-.07,0-.11.01-.13.03-.04.05-.06.09-.06.13v.17h.65Z"/>
        <path class="cls-1" d="M1.29,47.08l1.21,2.59h-.28l-.4-.85H.69l-.4.85h-.29l1.22-2.59h.06ZM1.25,47.63l-.44.94h.89l-.44-.94Z"/>
        <path class="cls-1" d="M1.29,47.08l1.21,2.59h-.28l-.4-.85H.69l-.4.85h-.29l1.22-2.59h.06ZM1.25,47.63l-.44.94h.89l-.44-.94Z"/>
        <path class="cls-1" d="M2.86,47.76h.25v.33c.09-.12.17-.21.26-.27.12-.07.26-.11.39-.11.09,0,.18.02.26.05.08.04.15.09.2.15.05.06.1.15.14.26.08-.15.18-.26.31-.34.12-.08.25-.12.4-.12.13,0,.25.03.35.1.1.07.18.16.23.28.05.12.07.3.07.54v1.04h-.25v-1.04c0-.21-.01-.35-.04-.42-.03-.08-.08-.14-.15-.19-.07-.05-.16-.07-.25-.07-.12,0-.23.03-.33.1-.1.07-.17.16-.22.28-.05.12-.07.31-.07.59v.75h-.25v-.98c0-.23-.01-.39-.04-.47-.03-.08-.08-.15-.15-.2-.07-.05-.16-.07-.26-.07-.11,0-.22.03-.32.1-.1.07-.17.16-.22.28-.05.12-.07.29-.07.53v.81h-.25v-1.91Z"/>
        <path class="cls-1" d="M2.86,47.76h.25v.33c.09-.12.17-.21.26-.27.12-.07.26-.11.39-.11.09,0,.18.02.26.05.08.04.15.09.2.15.05.06.1.15.14.26.08-.15.18-.26.31-.34.12-.08.25-.12.4-.12.13,0,.25.03.35.1.1.07.18.16.23.28.05.12.07.3.07.54v1.04h-.25v-1.04c0-.21-.01-.35-.04-.42-.03-.08-.08-.14-.15-.19-.07-.05-.16-.07-.25-.07-.12,0-.23.03-.33.1-.1.07-.17.16-.22.28-.05.12-.07.31-.07.59v.75h-.25v-.98c0-.23-.01-.39-.04-.47-.03-.08-.08-.15-.15-.2-.07-.05-.16-.07-.26-.07-.11,0-.22.03-.32.1-.1.07-.17.16-.22.28-.05.12-.07.29-.07.53v.81h-.25v-1.91Z"/>
        <path class="cls-1" d="M6.33,46.97c.05,0,.1.02.14.06.04.04.06.09.06.14s-.02.1-.06.14c-.04.04-.09.06-.14.06s-.1-.02-.14-.06c-.04-.04-.06-.09-.06-.14s.02-.1.06-.14c.04-.04.09-.06.14-.06M6.21,47.76h.25v1.91h-.25v-1.91Z"/>
        <path class="cls-1" d="M6.33,46.97c.05,0,.1.02.14.06.04.04.06.09.06.14s-.02.1-.06.14c-.04.04-.09.06-.14.06s-.1-.02-.14-.06c-.04-.04-.06-.09-.06-.14s.02-.1.06-.14c.04-.04.09-.06.14-.06ZM6.21,47.76h.25v1.91h-.25v-1.91Z"/>
        <path class="cls-1" d="M8.82,48.16l-.19.12c-.17-.22-.4-.34-.69-.34-.23,0-.43.07-.58.22-.15.15-.23.33-.23.54,0,.14.04.27.11.39.07.12.17.22.29.28.12.07.26.1.42.1.28,0,.51-.11.69-.34l.19.13c-.09.14-.21.25-.37.32-.15.08-.33.11-.53.11-.3,0-.55-.1-.75-.29-.2-.19-.3-.43-.3-.7,0-.19.05-.36.14-.52.09-.16.22-.28.38-.37.16-.09.35-.13.55-.13.13,0,.25.02.37.06.12.04.22.09.3.15.08.06.15.14.21.24"/>
        <path class="cls-1" d="M8.82,48.16l-.19.12c-.17-.22-.4-.34-.69-.34-.23,0-.43.07-.58.22-.15.15-.23.33-.23.54,0,.14.04.27.11.39.07.12.17.22.29.28.12.07.26.1.42.1.28,0,.51-.11.69-.34l.19.13c-.09.14-.21.25-.37.32-.15.08-.33.11-.53.11-.3,0-.55-.1-.75-.29-.2-.19-.3-.43-.3-.7,0-.19.05-.36.14-.52.09-.16.22-.28.38-.37.16-.09.35-.13.55-.13.13,0,.25.02.37.06.12.04.22.09.3.15.08.06.15.14.21.24Z"/>
        <path class="cls-1" d="M11.21,47.76v1.91h-.25v-.33c-.1.12-.22.22-.35.28-.13.06-.27.09-.42.09-.27,0-.5-.1-.7-.29-.19-.2-.29-.43-.29-.72s.1-.51.29-.71c.19-.19.43-.29.7-.29.16,0,.3.03.43.1.13.07.24.17.34.3v-.35h.25ZM10.22,47.95c-.14,0-.26.03-.38.1-.12.07-.21.16-.28.28-.07.12-.1.25-.1.39s.04.26.1.39c.07.12.16.22.28.29.12.07.24.1.38.1s.26-.03.38-.1c.12-.07.21-.16.28-.27.07-.12.1-.25.1-.39,0-.22-.07-.41-.22-.55-.15-.15-.33-.22-.54-.22"/>
        <path class="cls-1" d="M11.21,47.76v1.91h-.25v-.33c-.1.12-.22.22-.35.28-.13.06-.27.09-.42.09-.27,0-.5-.1-.7-.29-.19-.2-.29-.43-.29-.72s.1-.51.29-.71c.19-.19.43-.29.7-.29.16,0,.3.03.43.1.13.07.24.17.34.3v-.35h.25ZM10.22,47.95c-.14,0-.26.03-.38.1-.12.07-.21.16-.28.28-.07.12-.1.25-.1.39s.04.26.1.39c.07.12.16.22.28.29.12.07.24.1.38.1s.26-.03.38-.1c.12-.07.21-.16.28-.27.07-.12.1-.25.1-.39,0-.22-.07-.41-.22-.55-.15-.15-.33-.22-.54-.22Z"/>
        <rect class="cls-1" x="11.72" y="47.02" width=".25" height="2.66"/>
        <rect class="cls-1" x="11.72" y="47.02" width=".25" height="2.66"/>
        <path class="cls-1" d="M14.1,49.04l.21.11c-.07.13-.15.24-.24.32-.09.08-.19.14-.3.19-.11.04-.24.06-.38.06-.31,0-.56-.1-.73-.31-.18-.2-.27-.43-.27-.69,0-.24.08-.46.22-.65.19-.24.44-.36.76-.36s.59.12.78.37c.14.17.21.39.21.65h-1.73c0,.22.08.4.21.55.14.14.31.21.51.21.1,0,.19-.02.29-.05.09-.03.17-.08.24-.13.06-.06.13-.14.21-.27M14.1,48.52c-.03-.13-.08-.23-.14-.31s-.15-.14-.25-.19c-.1-.05-.21-.07-.33-.07-.19,0-.35.06-.49.18-.1.09-.17.22-.22.39h1.43Z"/>
        <path class="cls-1" d="M14.1,49.04l.21.11c-.07.13-.15.24-.24.32-.09.08-.19.14-.3.19-.11.04-.24.06-.38.06-.31,0-.56-.1-.73-.31-.18-.2-.27-.43-.27-.69,0-.24.08-.46.22-.65.19-.24.44-.36.76-.36s.59.12.78.37c.14.17.21.39.21.65h-1.73c0,.22.08.4.21.55.14.14.31.21.51.21.1,0,.19-.02.29-.05.09-.03.17-.08.24-.13.06-.06.13-.14.21-.27ZM14.1,48.52c-.03-.13-.08-.23-.14-.31s-.15-.14-.25-.19c-.1-.05-.21-.07-.33-.07-.19,0-.35.06-.49.18-.1.09-.17.22-.22.39h1.43Z"/>
        <path class="cls-1" d="M17.74,47.02v2.66h-.25v-.33c-.1.12-.22.22-.35.28-.13.06-.27.09-.42.09-.27,0-.5-.1-.69-.29-.19-.2-.29-.43-.29-.72s.1-.51.29-.71c.19-.19.43-.29.7-.29.16,0,.3.03.43.1.13.07.24.17.33.3v-1.1h.25ZM16.75,47.95c-.14,0-.26.03-.38.1-.12.07-.21.16-.28.28-.07.12-.1.25-.1.39s.03.26.1.39c.07.12.16.22.28.29.12.07.24.1.37.1s.26-.03.38-.1c.12-.07.21-.16.28-.27.07-.12.1-.25.1-.39,0-.22-.07-.41-.22-.55-.15-.15-.32-.22-.54-.22"/>
        <path class="cls-1" d="M17.74,47.02v2.66h-.25v-.33c-.1.12-.22.22-.35.28-.13.06-.27.09-.42.09-.27,0-.5-.1-.69-.29-.19-.2-.29-.43-.29-.72s.1-.51.29-.71c.19-.19.43-.29.7-.29.16,0,.3.03.43.1.13.07.24.17.33.3v-1.1h.25ZM16.75,47.95c-.14,0-.26.03-.38.1-.12.07-.21.16-.28.28-.07.12-.1.25-.1.39s.03.26.1.39c.07.12.16.22.28.29.12.07.24.1.37.1s.26-.03.38-.1c.12-.07.21-.16.28-.27.07-.12.1-.25.1-.39,0-.22-.07-.41-.22-.55-.15-.15-.32-.22-.54-.22Z"/>
        <path class="cls-1" d="M19.91,49.04l.21.11c-.07.13-.15.24-.24.32-.09.08-.19.14-.3.19-.11.04-.24.06-.38.06-.31,0-.56-.1-.73-.31-.18-.2-.27-.43-.27-.69,0-.24.08-.46.22-.65.19-.24.44-.36.76-.36s.59.12.78.37c.14.17.21.39.21.65h-1.73c0,.22.08.4.21.55.14.14.31.21.51.21.1,0,.19-.02.29-.05.09-.03.17-.08.24-.13.06-.06.13-.14.21-.27M19.91,48.52c-.03-.13-.08-.23-.14-.31-.06-.08-.15-.14-.25-.19-.1-.05-.21-.07-.33-.07-.19,0-.35.06-.49.18-.1.09-.17.22-.22.39h1.43Z"/>
        <path class="cls-1" d="M19.91,49.04l.21.11c-.07.13-.15.24-.24.32-.09.08-.19.14-.3.19-.11.04-.24.06-.38.06-.31,0-.56-.1-.73-.31-.18-.2-.27-.43-.27-.69,0-.24.08-.46.22-.65.19-.24.44-.36.76-.36s.59.12.78.37c.14.17.21.39.21.65h-1.73c0,.22.08.4.21.55.14.14.31.21.51.21.1,0,.19-.02.29-.05.09-.03.17-.08.24-.13.06-.06.13-.14.21-.27ZM19.91,48.52c-.03-.13-.08-.23-.14-.31-.06-.08-.15-.14-.25-.19-.1-.05-.21-.07-.33-.07-.19,0-.35.06-.49.18-.1.09-.17.22-.22.39h1.43Z"/>
        <path class="cls-1" d="M21.61,47.97l-.16.16c-.13-.13-.26-.19-.39-.19-.08,0-.15.03-.21.08-.06.05-.09.11-.09.18,0,.06.02.12.07.18.05.06.15.12.3.2.18.09.31.19.37.28.07.09.1.19.1.3,0,.16-.05.29-.17.4-.11.11-.25.16-.41.16-.11,0-.22-.02-.32-.07-.1-.05-.18-.12-.25-.2l.16-.18c.12.14.26.21.4.21.1,0,.18-.03.25-.09.07-.06.1-.14.1-.22,0-.07-.02-.13-.07-.19-.05-.05-.15-.12-.31-.2-.17-.09-.29-.18-.35-.26-.06-.09-.09-.19-.09-.3,0-.14.05-.26.15-.36.1-.09.22-.14.38-.14.18,0,.35.09.53.25"/>
        <path class="cls-1" d="M21.61,47.97l-.16.16c-.13-.13-.26-.19-.39-.19-.08,0-.15.03-.21.08-.06.05-.09.11-.09.18,0,.06.02.12.07.18.05.06.15.12.3.2.18.09.31.19.37.28.07.09.1.19.1.3,0,.16-.05.29-.17.4-.11.11-.25.16-.41.16-.11,0-.22-.02-.32-.07-.1-.05-.18-.12-.25-.2l.16-.18c.12.14.26.21.4.21.1,0,.18-.03.25-.09.07-.06.1-.14.1-.22,0-.07-.02-.13-.07-.19-.05-.05-.15-.12-.31-.2-.17-.09-.29-.18-.35-.26-.06-.09-.09-.19-.09-.3,0-.14.05-.26.15-.36.1-.09.22-.14.38-.14.18,0,.35.09.53.25Z"/>
        <polygon class="cls-1" points="23.08 47.08 24.57 47.08 24.57 47.34 23.34 47.34 23.34 48.15 24.56 48.15 24.56 48.4 23.34 48.4 23.34 49.42 24.56 49.42 24.56 49.67 23.08 49.67 23.08 47.08"/>
        <polygon class="cls-1" points="23.08 47.08 24.57 47.08 24.57 47.34 23.34 47.34 23.34 48.15 24.56 48.15 24.56 48.4 23.34 48.4 23.34 49.42 24.56 49.42 24.56 49.67 23.08 49.67 23.08 47.08"/>
        <path class="cls-1" d="M24.97,47.76h.25v.34c.1-.13.21-.23.33-.29.12-.06.25-.1.39-.1s.27.04.38.11c.11.07.19.17.25.29.05.12.08.32.08.57v.98h-.25v-.91c0-.22,0-.37-.03-.44-.03-.13-.08-.22-.17-.29-.08-.06-.19-.1-.32-.1-.15,0-.28.05-.4.15-.12.1-.2.22-.23.37-.02.09-.04.27-.04.52v.7h-.25v-1.91Z"/>
        <path class="cls-1" d="M24.97,47.76h.25v.34c.1-.13.21-.23.33-.29.12-.06.25-.1.39-.1s.27.04.38.11c.11.07.19.17.25.29.05.12.08.32.08.57v.98h-.25v-.91c0-.22,0-.37-.03-.44-.03-.13-.08-.22-.17-.29-.08-.06-.19-.1-.32-.1-.15,0-.28.05-.4.15-.12.1-.2.22-.23.37-.02.09-.04.27-.04.52v.7h-.25v-1.91Z"/>
        <path class="cls-1" d="M29.08,47.02v2.66h-.25v-.33c-.1.12-.22.22-.35.28-.13.06-.27.09-.42.09-.27,0-.5-.1-.69-.29-.19-.2-.29-.43-.29-.72s.1-.51.29-.71c.19-.19.43-.29.7-.29.16,0,.3.03.43.1.13.07.24.17.34.3v-1.1h.25ZM28.1,47.95c-.14,0-.26.03-.38.1-.12.07-.21.16-.28.28-.07.12-.1.25-.1.39s.04.26.1.39c.07.12.16.22.28.29.12.07.24.1.37.1s.26-.03.38-.1.21-.16.28-.27c.07-.12.1-.25.1-.39,0-.22-.07-.41-.22-.55-.14-.15-.32-.22-.54-.22"/>
        <path class="cls-1" d="M29.08,47.02v2.66h-.25v-.33c-.1.12-.22.22-.35.28-.13.06-.27.09-.42.09-.27,0-.5-.1-.69-.29-.19-.2-.29-.43-.29-.72s.1-.51.29-.71c.19-.19.43-.29.7-.29.16,0,.3.03.43.1.13.07.24.17.34.3v-1.1h.25ZM28.1,47.95c-.14,0-.26.03-.38.1-.12.07-.21.16-.28.28-.07.12-.1.25-.1.39s.04.26.1.39c.07.12.16.22.28.29.12.07.24.1.37.1s.26-.03.38-.1.21-.16.28-.27c.07-.12.1-.25.1-.39,0-.22-.07-.41-.22-.55-.14-.15-.32-.22-.54-.22Z"/>
        <path class="cls-1" d="M30.55,47.71c.29,0,.54.11.73.32.18.19.26.43.26.69s-.09.5-.28.7c-.19.2-.43.3-.72.3s-.53-.1-.72-.3c-.19-.2-.28-.43-.28-.7s.09-.49.26-.69c.19-.21.44-.32.73-.32M30.55,47.95c-.2,0-.38.07-.53.23-.15.15-.22.33-.22.55,0,.14.03.27.1.39.07.12.16.21.27.28.11.06.24.1.37.1s.26-.03.38-.1c.11-.07.2-.16.27-.28.07-.12.1-.25.1-.39,0-.21-.07-.4-.22-.55-.15-.15-.32-.23-.53-.23"/>
        <path class="cls-1" d="M30.55,47.71c.29,0,.54.11.73.32.18.19.26.43.26.69s-.09.5-.28.7c-.19.2-.43.3-.72.3s-.53-.1-.72-.3c-.19-.2-.28-.43-.28-.7s.09-.49.26-.69c.19-.21.44-.32.73-.32ZM30.55,47.95c-.2,0-.38.07-.53.23-.15.15-.22.33-.22.55,0,.14.03.27.1.39.07.12.16.21.27.28.11.06.24.1.37.1s.26-.03.38-.1c.11-.07.2-.16.27-.28.07-.12.1-.25.1-.39,0-.21-.07-.4-.22-.55-.15-.15-.32-.23-.53-.23Z"/>
        <path class="cls-1" d="M33.87,48.16l-.2.12c-.17-.22-.4-.34-.69-.34-.23,0-.43.07-.58.22-.15.15-.23.33-.23.54,0,.14.04.27.11.39.07.12.17.22.29.28.12.07.26.1.42.1.28,0,.51-.11.69-.34l.2.13c-.09.14-.21.25-.37.32-.16.08-.33.11-.53.11-.3,0-.55-.1-.75-.29-.2-.19-.3-.43-.3-.7,0-.19.05-.36.14-.52.09-.16.22-.28.39-.37.16-.09.35-.13.55-.13.13,0,.25.02.37.06.12.04.22.09.3.15.08.06.15.14.21.24"/>
        <path class="cls-1" d="M33.87,48.16l-.2.12c-.17-.22-.4-.34-.69-.34-.23,0-.43.07-.58.22-.15.15-.23.33-.23.54,0,.14.04.27.11.39.07.12.17.22.29.28.12.07.26.1.42.1.28,0,.51-.11.69-.34l.2.13c-.09.14-.21.25-.37.32-.16.08-.33.11-.53.11-.3,0-.55-.1-.75-.29-.2-.19-.3-.43-.3-.7,0-.19.05-.36.14-.52.09-.16.22-.28.39-.37.16-.09.35-.13.55-.13.13,0,.25.02.37.06.12.04.22.09.3.15.08.06.15.14.21.24Z"/>
        <path class="cls-1" d="M34.25,47.76h.25v.28c.08-.11.16-.19.24-.25.08-.05.17-.08.26-.08.07,0,.14.02.22.07l-.13.21c-.05-.02-.1-.03-.13-.03-.08,0-.16.03-.24.1-.08.07-.14.17-.18.31-.03.11-.05.33-.05.66v.65h-.25v-1.91Z"/>
        <path class="cls-1" d="M34.25,47.76h.25v.28c.08-.11.16-.19.24-.25.08-.05.17-.08.26-.08.07,0,.14.02.22.07l-.13.21c-.05-.02-.1-.03-.13-.03-.08,0-.16.03-.24.1-.08.07-.14.17-.18.31-.03.11-.05.33-.05.66v.65h-.25v-1.91Z"/>
        <path class="cls-1" d="M35.51,46.97c.06,0,.1.02.14.06.04.04.06.09.06.14s-.02.1-.06.14c-.04.04-.09.06-.14.06s-.1-.02-.14-.06c-.04-.04-.06-.09-.06-.14s.02-.1.06-.14c.04-.04.09-.06.14-.06M35.39,47.76h.25v1.91h-.25v-1.91Z"/>
        <path class="cls-1" d="M35.51,46.97c.06,0,.1.02.14.06.04.04.06.09.06.14s-.02.1-.06.14c-.04.04-.09.06-.14.06s-.1-.02-.14-.06c-.04-.04-.06-.09-.06-.14s.02-.1.06-.14c.04-.04.09-.06.14-.06ZM35.39,47.76h.25v1.91h-.25v-1.91Z"/>
        <path class="cls-1" d="M36.15,47.76h.25v.34c.1-.13.21-.23.33-.29.12-.06.25-.1.39-.1s.27.04.38.11c.11.07.19.17.25.29.05.12.08.32.08.57v.98h-.25v-.91c0-.22,0-.37-.03-.44-.03-.13-.08-.22-.17-.29-.08-.06-.19-.1-.32-.1-.15,0-.28.05-.4.15-.12.1-.2.22-.23.37-.02.09-.04.27-.04.52v.7h-.25v-1.91Z"/>
        <path class="cls-1" d="M36.15,47.76h.25v.34c.1-.13.21-.23.33-.29.12-.06.25-.1.39-.1s.27.04.38.11c.11.07.19.17.25.29.05.12.08.32.08.57v.98h-.25v-.91c0-.22,0-.37-.03-.44-.03-.13-.08-.22-.17-.29-.08-.06-.19-.1-.32-.1-.15,0-.28.05-.4.15-.12.1-.2.22-.23.37-.02.09-.04.27-.04.52v.7h-.25v-1.91Z"/>
        <path class="cls-1" d="M39.25,47.71c.3,0,.54.11.73.32.18.19.26.43.26.69s-.09.5-.28.7c-.19.2-.43.3-.72.3s-.53-.1-.72-.3c-.19-.2-.28-.43-.28-.7s.09-.49.26-.69c.19-.21.44-.32.73-.32M39.25,47.95c-.2,0-.38.07-.53.23-.15.15-.22.33-.22.55,0,.14.03.27.1.39.07.12.16.21.27.28.11.06.24.1.37.1s.26-.03.37-.1c.11-.07.2-.16.27-.28.07-.12.1-.25.1-.39,0-.21-.07-.4-.22-.55-.15-.15-.32-.23-.53-.23"/>
        <path class="cls-1" d="M39.25,47.71c.3,0,.54.11.73.32.18.19.26.43.26.69s-.09.5-.28.7c-.19.2-.43.3-.72.3s-.53-.1-.72-.3c-.19-.2-.28-.43-.28-.7s.09-.49.26-.69c.19-.21.44-.32.73-.32ZM39.25,47.95c-.2,0-.38.07-.53.23-.15.15-.22.33-.22.55,0,.14.03.27.1.39.07.12.16.21.27.28.11.06.24.1.37.1s.26-.03.37-.1c.11-.07.2-.16.27-.28.07-.12.1-.25.1-.39,0-.21-.07-.4-.22-.55-.15-.15-.32-.23-.53-.23Z"/>
        <rect class="cls-1" x="40.92" y="48.59" width=".97" height=".21"/>
        <rect class="cls-1" x="40.92" y="48.59" width=".97" height=".21"/>
        <path class="cls-1" d="M42.53,49.58v-2.59h.54c.39,0,.67.03.84.09.25.09.45.24.59.46.14.22.21.48.21.78,0,.26-.06.49-.17.68-.11.2-.26.34-.44.44-.18.09-.43.14-.75.14h-.82ZM42.78,49.33h.3c.36,0,.6-.02.74-.07.19-.06.35-.18.46-.34.11-.16.17-.37.17-.6s-.06-.46-.18-.64c-.12-.18-.29-.3-.5-.36-.16-.05-.43-.07-.8-.07h-.18v2.09Z"/>
        <path class="cls-1" d="M42.53,49.58v-2.59h.54c.39,0,.67.03.84.09.25.09.45.24.59.46.14.22.21.48.21.78,0,.26-.06.49-.17.68-.11.2-.26.34-.44.44-.18.09-.43.14-.75.14h-.82ZM42.78,49.33h.3c.36,0,.6-.02.74-.07.19-.06.35-.18.46-.34.11-.16.17-.37.17-.6s-.06-.46-.18-.64c-.12-.18-.29-.3-.5-.36-.16-.05-.43-.07-.8-.07h-.18v2.09Z"/>
        <path class="cls-1" d="M45.34,46.87c.05,0,.1.02.14.06.04.04.06.09.06.14s-.02.1-.06.14c-.04.04-.09.06-.14.06s-.1-.02-.14-.06c-.04-.04-.06-.09-.06-.14s.02-.1.06-.14c.04-.04.09-.06.14-.06M45.21,47.66h.25v1.91h-.25v-1.91Z"/>
        <path class="cls-1" d="M45.34,46.87c.05,0,.1.02.14.06.04.04.06.09.06.14s-.02.1-.06.14c-.04.04-.09.06-.14.06s-.1-.02-.14-.06c-.04-.04-.06-.09-.06-.14s.02-.1.06-.14c.04-.04.09-.06.14-.06ZM45.21,47.66h.25v1.91h-.25v-1.91Z"/>
        <path class="cls-1" d="M47.96,47.66v1.91h-.25v-.33c-.1.12-.22.22-.35.28-.13.06-.27.09-.42.09-.27,0-.5-.1-.7-.29-.19-.2-.29-.43-.29-.72s.1-.51.29-.71c.19-.2.43-.29.7-.29.16,0,.3.03.43.1.13.07.24.17.34.3v-.35h.25ZM46.97,47.85c-.14,0-.26.03-.38.1-.12.07-.21.16-.28.28-.07.12-.1.25-.1.39s.04.26.11.39c.07.12.16.22.28.29.12.07.24.1.38.1s.26-.03.38-.1c.12-.07.21-.16.28-.28.07-.12.1-.25.1-.39,0-.22-.07-.41-.22-.55-.15-.15-.33-.22-.54-.22"/>
        <path class="cls-1" d="M47.96,47.66v1.91h-.25v-.33c-.1.12-.22.22-.35.28-.13.06-.27.09-.42.09-.27,0-.5-.1-.7-.29-.19-.2-.29-.43-.29-.72s.1-.51.29-.71c.19-.2.43-.29.7-.29.16,0,.3.03.43.1.13.07.24.17.34.3v-.35h.25ZM46.97,47.85c-.14,0-.26.03-.38.1-.12.07-.21.16-.28.28-.07.12-.1.25-.1.39s.04.26.11.39c.07.12.16.22.28.29.12.07.24.1.38.1s.26-.03.38-.1c.12-.07.21-.16.28-.28.07-.12.1-.25.1-.39,0-.22-.07-.41-.22-.55-.15-.15-.33-.22-.54-.22Z"/>
        <path class="cls-1" d="M48.61,49.58v-2.66h.25v1.07c.1-.13.22-.22.35-.28.13-.06.27-.09.42-.09.27,0,.5.1.69.29.19.2.29.43.29.71s-.1.51-.29.71c-.19.19-.43.29-.7.29-.16,0-.3-.03-.42-.1-.13-.07-.24-.17-.34-.3v.35h-.25ZM49.6,49.39c.14,0,.26-.03.38-.1.12-.07.21-.16.28-.28.07-.12.1-.25.1-.39s-.03-.26-.1-.39c-.07-.12-.16-.22-.28-.29-.12-.07-.24-.1-.37-.1s-.26.03-.38.1c-.12.07-.21.16-.28.28-.07.12-.1.25-.1.39,0,.22.07.4.22.55.15.15.33.22.54.22"/>
        <path class="cls-1" d="M48.61,49.58v-2.66h.25v1.07c.1-.13.22-.22.35-.28.13-.06.27-.09.42-.09.27,0,.5.1.69.29.19.2.29.43.29.71s-.1.51-.29.71c-.19.19-.43.29-.7.29-.16,0-.3-.03-.42-.1-.13-.07-.24-.17-.34-.3v.35h-.25ZM49.6,49.39c.14,0,.26-.03.38-.1.12-.07.21-.16.28-.28.07-.12.1-.25.1-.39s-.03-.26-.1-.39c-.07-.12-.16-.22-.28-.29-.12-.07-.24-.1-.37-.1s-.26.03-.38.1c-.12.07-.21.16-.28.28-.07.12-.1.25-.1.39,0,.22.07.4.22.55.15.15.33.22.54.22Z"/>
        <polygon class="cls-1" points="53.77 46.95 54.02 46.95 54.02 47.66 54.41 47.66 54.41 47.88 54.02 47.88 54.02 49.58 53.77 49.58 53.77 47.88 53.44 47.88 53.44 47.66 53.77 47.66 53.77 46.95"/>
        <polygon class="cls-1" points="53.77 46.95 54.02 46.95 54.02 47.66 54.41 47.66 54.41 47.88 54.02 47.88 54.02 49.58 53.77 49.58 53.77 47.88 53.44 47.88 53.44 47.66 53.77 47.66 53.77 46.95"/>
        <path class="cls-1" d="M55.77,47.62c.29,0,.54.11.73.32.18.19.26.43.26.69s-.09.5-.28.7c-.19.2-.43.3-.72.3s-.53-.1-.72-.3c-.18-.2-.28-.43-.28-.7s.09-.49.26-.69c.19-.21.44-.32.73-.32M55.77,47.86c-.2,0-.38.08-.53.23-.15.15-.22.33-.22.55,0,.14.03.27.1.39.07.12.16.21.27.28.11.07.24.1.37.1s.26-.03.37-.1c.11-.07.2-.16.27-.28.07-.12.1-.25.1-.39,0-.21-.07-.4-.22-.55-.15-.15-.32-.23-.53-.23"/>
        <path class="cls-1" d="M55.77,47.62c.29,0,.54.11.73.32.18.19.26.43.26.69s-.09.5-.28.7c-.19.2-.43.3-.72.3s-.53-.1-.72-.3c-.18-.2-.28-.43-.28-.7s.09-.49.26-.69c.19-.21.44-.32.73-.32ZM55.77,47.86c-.2,0-.38.08-.53.23-.15.15-.22.33-.22.55,0,.14.03.27.1.39.07.12.16.21.27.28.11.07.24.1.37.1s.26-.03.37-.1c.11-.07.2-.16.27-.28.07-.12.1-.25.1-.39,0-.21-.07-.4-.22-.55-.15-.15-.32-.23-.53-.23Z"/>
        <rect class="cls-1" x="57.27" y="46.92" width=".25" height="2.66"/>
        <rect class="cls-1" x="57.27" y="46.92" width=".25" height="2.66"/>
        <path class="cls-1" d="M59.01,47.62c.29,0,.54.11.73.32.18.19.26.43.26.69s-.09.5-.28.7c-.19.2-.43.3-.72.3s-.53-.1-.72-.3c-.18-.2-.28-.43-.28-.7s.09-.49.27-.69c.19-.21.44-.32.73-.32M59.01,47.86c-.2,0-.38.08-.53.23-.15.15-.22.33-.22.55,0,.14.03.27.1.39.07.12.16.21.27.28.11.07.24.1.37.1s.26-.03.37-.1c.11-.07.2-.16.27-.28.07-.12.1-.25.1-.39,0-.21-.07-.4-.22-.55-.15-.15-.32-.23-.53-.23"/>
        <path class="cls-1" d="M59.01,47.62c.29,0,.54.11.73.32.18.19.26.43.26.69s-.09.5-.28.7c-.19.2-.43.3-.72.3s-.53-.1-.72-.3c-.18-.2-.28-.43-.28-.7s.09-.49.27-.69c.19-.21.44-.32.73-.32ZM59.01,47.86c-.2,0-.38.08-.53.23-.15.15-.22.33-.22.55,0,.14.03.27.1.39.07.12.16.21.27.28.11.07.24.1.37.1s.26-.03.37-.1c.11-.07.2-.16.27-.28.07-.12.1-.25.1-.39,0-.21-.07-.4-.22-.55-.15-.15-.32-.23-.53-.23Z"/>
        <path class="cls-1" d="M62.2,47.66h.25v1.52c0,.27-.02.46-.07.59-.06.18-.18.31-.34.41-.16.09-.35.14-.58.14-.16,0-.31-.02-.44-.07-.13-.05-.24-.11-.32-.19-.08-.08-.16-.19-.23-.34h.27c.07.13.17.22.28.28.11.06.26.09.43.09s.31-.03.43-.09c.12-.06.2-.14.25-.23.05-.09.07-.25.07-.46v-.1c-.09.12-.21.21-.34.27-.13.06-.28.09-.43.09-.18,0-.34-.04-.5-.13-.16-.09-.28-.2-.36-.35-.09-.15-.13-.31-.13-.49s.04-.34.13-.5c.09-.15.21-.27.37-.36.15-.09.32-.13.49-.13.14,0,.28.03.4.09.12.06.24.15.36.29v-.33ZM61.47,47.85c-.14,0-.27.03-.39.1-.12.07-.21.16-.28.28-.07.12-.1.25-.1.39,0,.21.07.38.21.52.14.14.32.21.55.21s.41-.07.55-.2c.14-.14.21-.31.21-.54,0-.14-.03-.27-.09-.39-.06-.11-.15-.2-.27-.27-.12-.07-.24-.1-.37-.1"/>
        <path class="cls-1" d="M62.2,47.66h.25v1.52c0,.27-.02.46-.07.59-.06.18-.18.31-.34.41-.16.09-.35.14-.58.14-.16,0-.31-.02-.44-.07-.13-.05-.24-.11-.32-.19-.08-.08-.16-.19-.23-.34h.27c.07.13.17.22.28.28.11.06.26.09.43.09s.31-.03.43-.09c.12-.06.2-.14.25-.23.05-.09.07-.25.07-.46v-.1c-.09.12-.21.21-.34.27-.13.06-.28.09-.43.09-.18,0-.34-.04-.5-.13-.16-.09-.28-.2-.36-.35-.09-.15-.13-.31-.13-.49s.04-.34.13-.5c.09-.15.21-.27.37-.36.15-.09.32-.13.49-.13.14,0,.28.03.4.09.12.06.24.15.36.29v-.33ZM61.47,47.85c-.14,0-.27.03-.39.1-.12.07-.21.16-.28.28-.07.12-.1.25-.1.39,0,.21.07.38.21.52.14.14.32.21.55.21s.41-.07.55-.2c.14-.14.21-.31.21-.54,0-.14-.03-.27-.09-.39-.06-.11-.15-.2-.27-.27-.12-.07-.24-.1-.37-.1Z"/>
        <path class="cls-1" d="M63.02,47.66h.25v.89c0,.22.01.37.04.45.03.12.1.21.2.28.1.07.22.1.36.1s.25-.03.35-.1c.1-.07.16-.15.2-.26.02-.07.04-.23.04-.47v-.89h.25v.94c0,.26-.03.46-.09.6-.06.13-.16.24-.28.31-.12.08-.28.11-.47.11s-.34-.04-.47-.11c-.13-.08-.22-.18-.28-.32-.06-.14-.09-.34-.09-.61v-.92Z"/>
        <path class="cls-1" d="M63.02,47.66h.25v.89c0,.22.01.37.04.45.03.12.1.21.2.28.1.07.22.1.36.1s.25-.03.35-.1c.1-.07.16-.15.2-.26.02-.07.04-.23.04-.47v-.89h.25v.94c0,.26-.03.46-.09.6-.06.13-.16.24-.28.31-.12.08-.28.11-.47.11s-.34-.04-.47-.11c-.13-.08-.22-.18-.28-.32-.06-.14-.09-.34-.09-.61v-.92Z"/>
        <path class="cls-1" d="M66.94,48.94l.21.11c-.07.13-.15.24-.24.32-.09.08-.19.14-.3.19-.11.04-.24.06-.38.06-.31,0-.56-.1-.73-.31-.18-.2-.26-.43-.26-.69,0-.24.07-.46.22-.65.19-.24.44-.36.76-.36s.59.12.78.37c.14.17.21.39.21.65h-1.73c0,.22.07.4.21.55.14.14.31.21.51.21.1,0,.19-.02.28-.05.09-.03.17-.08.24-.13.06-.06.13-.15.21-.27M66.94,48.42c-.03-.13-.08-.23-.14-.31-.06-.08-.15-.14-.25-.19-.1-.05-.21-.07-.33-.07-.19,0-.35.06-.49.18-.1.09-.17.22-.23.39h1.43Z"/>
        <path class="cls-1" d="M66.94,48.94l.21.11c-.07.13-.15.24-.24.32-.09.08-.19.14-.3.19-.11.04-.24.06-.38.06-.31,0-.56-.1-.73-.31-.18-.2-.26-.43-.26-.69,0-.24.07-.46.22-.65.19-.24.44-.36.76-.36s.59.12.78.37c.14.17.21.39.21.65h-1.73c0,.22.07.4.21.55.14.14.31.21.51.21.1,0,.19-.02.28-.05.09-.03.17-.08.24-.13.06-.06.13-.15.21-.27ZM66.94,48.42c-.03-.13-.08-.23-.14-.31-.06-.08-.15-.14-.25-.19-.1-.05-.21-.07-.33-.07-.19,0-.35.06-.49.18-.1.09-.17.22-.23.39h1.43Z"/>
        <path class="cls-1" d="M68.71,47.87l-.16.16c-.13-.13-.26-.19-.38-.19-.08,0-.15.03-.21.08-.06.05-.09.11-.09.19,0,.06.02.12.07.18.05.06.15.12.3.2.18.09.31.19.37.27.06.09.1.19.1.3,0,.16-.05.29-.17.4-.11.11-.25.16-.41.16-.11,0-.22-.02-.32-.07-.1-.05-.18-.11-.25-.2l.16-.18c.12.14.26.22.4.22.1,0,.18-.03.25-.09.07-.06.1-.14.1-.22,0-.07-.02-.13-.07-.19-.05-.05-.15-.12-.31-.2-.17-.09-.29-.18-.35-.26-.06-.09-.09-.19-.09-.3,0-.15.05-.27.15-.36.1-.09.22-.14.38-.14.18,0,.35.08.53.25"/>
        <path class="cls-1" d="M68.71,47.87l-.16.16c-.13-.13-.26-.19-.38-.19-.08,0-.15.03-.21.08-.06.05-.09.11-.09.19,0,.06.02.12.07.18.05.06.15.12.3.2.18.09.31.19.37.27.06.09.1.19.1.3,0,.16-.05.29-.17.4-.11.11-.25.16-.41.16-.11,0-.22-.02-.32-.07-.1-.05-.18-.11-.25-.2l.16-.18c.12.14.26.22.4.22.1,0,.18-.03.25-.09.07-.06.1-.14.1-.22,0-.07-.02-.13-.07-.19-.05-.05-.15-.12-.31-.2-.17-.09-.29-.18-.35-.26-.06-.09-.09-.19-.09-.3,0-.15.05-.27.15-.36.1-.09.22-.14.38-.14.18,0,.35.08.53.25Z"/>
        <path class="cls-1" d="M72.22,46.92v2.66h-.25v-.33c-.1.12-.22.22-.35.28-.13.06-.27.09-.42.09-.27,0-.5-.1-.69-.29-.19-.2-.29-.43-.29-.72s.1-.51.29-.71c.19-.2.43-.29.7-.29.16,0,.3.03.43.1.13.07.24.17.33.3v-1.1h.25ZM71.23,47.85c-.14,0-.26.03-.38.1-.12.07-.21.16-.27.28-.07.12-.1.25-.1.39s.03.26.1.39c.07.12.16.22.28.29.12.07.24.1.37.1s.26-.03.38-.1c.12-.07.21-.16.28-.28.07-.12.1-.25.1-.39,0-.22-.07-.41-.22-.55-.15-.15-.32-.22-.54-.22"/>
        <path class="cls-1" d="M72.22,46.92v2.66h-.25v-.33c-.1.12-.22.22-.35.28-.13.06-.27.09-.42.09-.27,0-.5-.1-.69-.29-.19-.2-.29-.43-.29-.72s.1-.51.29-.71c.19-.2.43-.29.7-.29.16,0,.3.03.43.1.13.07.24.17.33.3v-1.1h.25ZM71.23,47.85c-.14,0-.26.03-.38.1-.12.07-.21.16-.27.28-.07.12-.1.25-.1.39s.03.26.1.39c.07.12.16.22.28.29.12.07.24.1.37.1s.26-.03.38-.1c.12-.07.21-.16.28-.28.07-.12.1-.25.1-.39,0-.22-.07-.41-.22-.55-.15-.15-.32-.22-.54-.22Z"/>
        <path class="cls-1" d="M74.47,48.94l.21.11c-.07.13-.15.24-.24.32-.09.08-.19.14-.3.19-.11.04-.24.06-.38.06-.31,0-.56-.1-.73-.31-.18-.2-.26-.43-.26-.69,0-.24.07-.46.22-.65.19-.24.44-.36.76-.36s.59.12.78.37c.14.17.21.39.21.65h-1.73c0,.22.08.4.21.55.14.14.31.21.51.21.1,0,.19-.02.28-.05.09-.03.17-.08.24-.13.06-.06.13-.15.21-.27M74.47,48.42c-.03-.13-.08-.23-.14-.31-.06-.08-.15-.14-.25-.19-.1-.05-.21-.07-.33-.07-.19,0-.35.06-.49.18-.1.09-.17.22-.23.39h1.43Z"/>
        <path class="cls-1" d="M74.47,48.94l.21.11c-.07.13-.15.24-.24.32-.09.08-.19.14-.3.19-.11.04-.24.06-.38.06-.31,0-.56-.1-.73-.31-.18-.2-.26-.43-.26-.69,0-.24.07-.46.22-.65.19-.24.44-.36.76-.36s.59.12.78.37c.14.17.21.39.21.65h-1.73c0,.22.08.4.21.55.14.14.31.21.51.21.1,0,.19-.02.28-.05.09-.03.17-.08.24-.13.06-.06.13-.15.21-.27ZM74.47,48.42c-.03-.13-.08-.23-.14-.31-.06-.08-.15-.14-.25-.19-.1-.05-.21-.07-.33-.07-.19,0-.35.06-.49.18-.1.09-.17.22-.23.39h1.43Z"/>
        <path class="cls-1" d="M76.13,49.09l.22-.13c.16.29.33.43.54.43.09,0,.17-.02.24-.06.08-.04.13-.09.17-.16.04-.07.06-.14.06-.22,0-.09-.03-.17-.09-.25-.08-.12-.23-.25-.44-.42-.21-.16-.35-.28-.4-.35-.09-.12-.14-.25-.14-.4,0-.11.03-.22.08-.31.05-.09.13-.17.23-.22s.2-.08.32-.08c.12,0,.24.03.34.09.11.06.22.17.34.34l-.21.16c-.1-.13-.18-.21-.25-.26-.07-.04-.14-.06-.22-.06-.11,0-.19.03-.26.09-.07.06-.1.14-.1.23,0,.06.01.11.03.16.02.05.07.11.13.17.04.03.15.12.34.26.22.17.38.31.46.44.08.13.13.26.13.39,0,.19-.07.35-.21.49-.14.14-.32.21-.52.21-.16,0-.3-.04-.43-.13-.13-.08-.25-.22-.35-.42"/>
        <path class="cls-1" d="M76.13,49.09l.22-.13c.16.29.33.43.54.43.09,0,.17-.02.24-.06.08-.04.13-.09.17-.16.04-.07.06-.14.06-.22,0-.09-.03-.17-.09-.25-.08-.12-.23-.25-.44-.42-.21-.16-.35-.28-.4-.35-.09-.12-.14-.25-.14-.4,0-.11.03-.22.08-.31.05-.09.13-.17.23-.22s.2-.08.32-.08c.12,0,.24.03.34.09.11.06.22.17.34.34l-.21.16c-.1-.13-.18-.21-.25-.26-.07-.04-.14-.06-.22-.06-.11,0-.19.03-.26.09-.07.06-.1.14-.1.23,0,.06.01.11.03.16.02.05.07.11.13.17.04.03.15.12.34.26.22.17.38.31.46.44.08.13.13.26.13.39,0,.19-.07.35-.21.49-.14.14-.32.21-.52.21-.16,0-.3-.04-.43-.13-.13-.08-.25-.22-.35-.42Z"/>
        <path class="cls-1" d="M79.03,46.92v.24c-.09-.04-.17-.06-.23-.06-.05,0-.09,0-.12.03-.03.02-.05.04-.06.07,0,.03-.01.09-.01.2v.26h.4v.21h-.4v1.7h-.25v-1.7h-.25v-.21h.25v-.3c0-.14.01-.23.04-.29.02-.06.07-.11.13-.14.06-.04.13-.05.22-.05.08,0,.18.02.29.05"/>
        <path class="cls-1" d="M79.03,46.92v.24c-.09-.04-.17-.06-.23-.06-.05,0-.09,0-.12.03-.03.02-.05.04-.06.07,0,.03-.01.09-.01.2v.26h.4v.21h-.4v1.7h-.25v-1.7h-.25v-.21h.25v-.3c0-.14.01-.23.04-.29.02-.06.07-.11.13-.14.06-.04.13-.05.22-.05.08,0,.18.02.29.05Z"/>
        <path class="cls-1" d="M81.35,47.66v1.91h-.25v-.33c-.1.12-.22.22-.35.28-.13.06-.27.09-.42.09-.27,0-.5-.1-.7-.29-.19-.2-.29-.43-.29-.72s.1-.51.29-.71c.19-.2.43-.29.7-.29.16,0,.3.03.43.1.13.07.24.17.34.3v-.35h.25ZM80.37,47.85c-.14,0-.26.03-.38.1-.12.07-.21.16-.28.28-.07.12-.1.25-.1.39s.04.26.1.39c.07.12.16.22.28.29.12.07.24.1.38.1s.26-.03.38-.1c.12-.07.21-.16.28-.28.07-.12.1-.25.1-.39,0-.22-.07-.41-.22-.55-.15-.15-.33-.22-.54-.22"/>
        <path class="cls-1" d="M81.35,47.66v1.91h-.25v-.33c-.1.12-.22.22-.35.28-.13.06-.27.09-.42.09-.27,0-.5-.1-.7-.29-.19-.2-.29-.43-.29-.72s.1-.51.29-.71c.19-.2.43-.29.7-.29.16,0,.3.03.43.1.13.07.24.17.34.3v-.35h.25ZM80.37,47.85c-.14,0-.26.03-.38.1-.12.07-.21.16-.28.28-.07.12-.1.25-.1.39s.04.26.1.39c.07.12.16.22.28.29.12.07.24.1.38.1s.26-.03.38-.1c.12-.07.21-.16.28-.28.07-.12.1-.25.1-.39,0-.22-.07-.41-.22-.55-.15-.15-.33-.22-.54-.22Z"/>
        <polygon class="cls-1" points="81.77 47.66 82.07 47.66 82.58 48.36 83.09 47.66 83.38 47.66 82.72 48.56 83.46 49.58 83.17 49.58 82.58 48.77 81.99 49.58 81.7 49.58 82.43 48.57 81.77 47.66"/>
        <polygon class="cls-1" points="81.77 47.66 82.07 47.66 82.58 48.36 83.09 47.66 83.38 47.66 82.72 48.56 83.46 49.58 83.17 49.58 82.58 48.77 81.99 49.58 81.7 49.58 82.43 48.57 81.77 47.66"/>
        <path class="cls-1" d="M52.77,48.94l.21.11c-.07.13-.15.24-.24.32-.09.08-.19.14-.3.19-.11.04-.24.06-.38.06-.31,0-.56-.1-.73-.31-.18-.21-.26-.44-.26-.69,0-.24.07-.46.22-.65.19-.24.44-.36.76-.36s.59.12.78.37c.14.17.21.39.21.65h-1.73c0,.22.08.4.21.55.14.14.31.21.51.21.1,0,.19-.02.29-.05.09-.03.17-.08.24-.13.06-.05.13-.14.21-.27M52.77,48.42c-.03-.13-.08-.24-.14-.31-.06-.08-.15-.14-.25-.19-.1-.05-.21-.07-.33-.07-.19,0-.35.06-.49.18-.1.09-.17.22-.22.39h1.43ZM52.17,46.76h.38l-.52.54h-.24l.38-.54Z"/>
        <path class="cls-1" d="M52.77,48.94l.21.11c-.07.13-.15.24-.24.32-.09.08-.19.14-.3.19-.11.04-.24.06-.38.06-.31,0-.56-.1-.73-.31-.18-.21-.26-.44-.26-.69,0-.24.07-.46.22-.65.19-.24.44-.36.76-.36s.59.12.78.37c.14.17.21.39.21.65h-1.73c0,.22.08.4.21.55.14.14.31.21.51.21.1,0,.19-.02.29-.05.09-.03.17-.08.24-.13.06-.05.13-.14.21-.27ZM52.77,48.42c-.03-.13-.08-.24-.14-.31-.06-.08-.15-.14-.25-.19-.1-.05-.21-.07-.33-.07-.19,0-.35.06-.49.18-.1.09-.17.22-.22.39h1.43ZM52.17,46.76h.38l-.52.54h-.24l.38-.54Z"/>
      </g>
      <g>
        <path class="cls-1" d="M52.16,29.4c.14-1.28-.94-2.02-.91-3.07,0-1.48,1.33-2.67,1.46-3.48.03-.4.08.85.33,1.53.26.68.99,2.03.49,3.25-.33.94-1.17,1.78-1.17,1.78,0,0,.16-.58-.09-2.06-.26-1.47.1-2.33.1-2.33,0,0-.08,1.03.15,2.35.07.67.18,1.36.18,1.36,0,0-.01.02.17-.31.18-.33.92-1.25.45-2.66-.46-1.4-.68-2.07-.66-2.19.03-.12-.52.82-.81,1.27-.29.46-.65,1.19-.33,2.02.31.82.78,1.68.63,2.54"/>
        <path class="cls-1" d="M52.47,29.72c1.31-.58,2.39.47,3.5.1,1.56-.49,2.46-2.45,3.28-2.88.42-.17-.91.18-1.7.09-.79-.09-2.41-.53-3.57.46-.9.7-1.61,2.08-1.61,2.08,0,0,.62-.49,2.25-.66,1.63-.17,2.44-.87,2.44-.87,0,0-1.07.43-2.53.58-.72.13-1.49.23-1.49.23,0,0-.02.02.28-.31.3-.33,1.08-1.5,2.69-1.4,1.61.1,2.37.15,2.49.08.12-.07-.72.89-1.13,1.38-.4.49-1.09,1.16-2.04,1.05-.96-.11-1.99-.39-2.86.07"/>
        <path class="cls-1" d="M55.06,26.26c-.16-1.15-1.37-1.54-1.6-2.47-.34-1.29.65-2.65.59-3.39-.07-.36.27.72.68,1.26.41.54,1.42,1.53,1.23,2.72-.1.9-.7,1.84-.7,1.84,0,0,.02-.55-.57-1.78-.59-1.23-.45-2.06-.45-2.06,0,0,.17.92.7,2.02.22.57.49,1.15.49,1.15,0,0,0,.02.09-.31.1-.34.58-1.31-.19-2.43-.77-1.12-1.14-1.65-1.14-1.76,0-.11-.31.84-.48,1.3-.17.47-.34,1.2.15,1.84.49.64,1.14,1.28,1.2,2.07"/>
        <path class="cls-1" d="M55.43,26.47c1.12-.82,2.4-.16,3.37-.74,1.38-.8,1.79-2.73,2.47-3.3.36-.24-.84.38-1.61.49-.78.11-2.43.11-3.31,1.25-.7.83-1.06,2.2-1.06,2.2,0,0,.48-.57,2-1.11,1.52-.54,2.13-1.35,2.13-1.35,0,0-.93.63-2.29,1.11-.66.28-1.37.55-1.37.55,0,0-.02.02.2-.34.21-.36.68-1.57,2.24-1.87,1.57-.3,2.31-.44,2.41-.52.1-.09-.48.95-.76,1.47-.27.53-.77,1.28-1.71,1.41-.94.13-1.99.13-2.72.74"/>
        <path class="cls-1" d="M56.93,23.14c-.42-1.06-1.65-1.1-2.07-1.93-.61-1.15.02-2.73-.2-3.43-.14-.33.42.62.93,1.02.51.4,1.69,1.08,1.78,2.27.11.89-.25,1.97-.25,1.97,0,0-.11-.53-.94-1.55-.84-1.02-.89-1.86-.89-1.86,0,0,.37.84,1.12,1.75.34.48.73.97.73.97,0,0,0,.02.02-.33.02-.35.26-1.43-.73-2.29-.98-.86-1.45-1.27-1.48-1.37-.03-.11-.1.89-.16,1.39-.05.5-.05,1.25.56,1.73.61.48,1.37.91,1.61,1.66"/>
        <path class="cls-1" d="M57.33,23.24c.88-1.11,2.25-.83,3.04-1.67,1.13-1.16,1.08-3.13,1.61-3.87.29-.34-.71.6-1.43.92-.71.33-2.28.79-2.86,2.14-.48.99-.51,2.42-.51,2.42,0,0,.33-.69,1.65-1.63,1.32-.94,1.73-1.9,1.73-1.9,0,0-.74.87-1.93,1.71-.57.46-1.18.92-1.18.92,0,0-.01.03.11-.38.12-.41.29-1.7,1.71-2.43,1.42-.73,2.1-1.07,2.17-1.18.07-.11-.25,1.05-.39,1.63-.14.58-.44,1.45-1.31,1.83-.87.39-1.87.69-2.43,1.48"/>
        <path class="cls-1" d="M57.84,19.71c-.6-.9-1.74-.76-2.3-1.45-.81-.96-.57-2.48-.92-3.08-.2-.28.52.5,1.06.79.55.29,1.77.74,2.11,1.81.3.79.19,1.82.19,1.82,0,0-.21-.47-1.19-1.27-.98-.8-1.21-1.56-1.21-1.56,0,0,.52.71,1.39,1.43.41.39.87.77.87.77,0,0,0,.02-.06-.3-.06-.32-.07-1.33-1.15-1.97-1.08-.64-1.59-.94-1.64-1.03-.05-.09.1.83.15,1.28.06.46.22,1.14.88,1.49.66.35,1.44.63,1.82,1.27"/>
        <path class="cls-1" d="M58.22,19.74c.56-1.13,1.87-1.07,2.41-1.94.78-1.21.31-2.99.63-3.74.19-.35-.52.64-1.1,1.04-.58.4-1.91,1.05-2.15,2.35-.23.97.06,2.27.06,2.27,0,0,.15-.67,1.15-1.71,1-1.05,1.16-1.97,1.16-1.97,0,0-.49.89-1.39,1.83-.42.5-.88,1-.88,1,0,0,0,.02.02-.36.03-.39-.1-1.59,1.04-2.45,1.14-.86,1.68-1.27,1.72-1.38.04-.11,0,.99,0,1.53,0,.55-.09,1.37-.8,1.85-.7.48-1.55.89-1.89,1.69"/>
        <path class="cls-1" d="M57.95,16.46c-.75-.75-1.83-.42-2.5-.98-.96-.77-1.01-2.27-1.46-2.78-.25-.23.59.39,1.18.57.58.18,1.86.39,2.38,1.35.43.7.52,1.7.52,1.7,0,0-.29-.41-1.39-1-1.1-.59-1.46-1.27-1.46-1.27,0,0,.63.58,1.61,1.11.47.3.98.58.98.58,0,0,0,.02-.11-.28-.12-.3-.32-1.26-1.48-1.68-1.16-.42-1.72-.61-1.78-.69-.06-.08.25.77.39,1.2.14.43.42,1.05,1.13,1.26.71.21,1.52.35,2,.89"/>
        <path class="cls-1" d="M58.33,16.42c.34-1.17,1.61-1.35,1.98-2.28.54-1.29-.25-2.91-.08-3.68.12-.36-.38.71-.87,1.19-.49.48-1.66,1.34-1.65,2.62-.04.96.47,2.15.47,2.15,0,0,.02-.67.8-1.84.78-1.17.77-2.08.77-2.08,0,0-.31.94-1.01,1.99-.31.55-.67,1.11-.67,1.11,0,0,0,.02-.04-.35-.04-.37-.39-1.5.56-2.52.95-1.02,1.4-1.51,1.42-1.62.02-.11.18.94.28,1.46.1.52.16,1.33-.43,1.91-.59.58-1.34,1.12-1.52,1.94"/>
        <path class="cls-1" d="M57.55,13.48c-.87-.56-1.84-.15-2.59-.55-1.07-.55-1.4-1.84-1.93-2.23-.28-.17.64.27,1.24.35.6.09,1.86.12,2.54.89.55.56.82,1.41.82,1.41,0,0-.36-.32-1.52-.7-1.17-.38-1.65-.93-1.65-.93,0,0,.72.43,1.76.78.51.2,1.06.39,1.06.39,0,0,.01.02-.16-.23-.17-.24-.54-1.05-1.74-1.28-1.2-.23-1.77-.33-1.84-.39-.08-.06.38.64.59.99.22.35.6.86,1.32.96.72.1,1.53.12,2.09.54"/>
        <path class="cls-1" d="M57.83,13.35c.1-1.1,1.27-1.41,1.44-2.29.26-1.23-.79-2.61-.77-3.32.04-.34-.23.68-.6,1.17-.37.49-1.31,1.4-1.06,2.56.15.88.86,1.89.86,1.89,0,0-.1-.6.41-1.75.51-1.15.33-1.97.33-1.97,0,0-.11.88-.58,1.91-.19.53-.42,1.08-.42,1.08,0,0,0,.02-.11-.31-.11-.33-.65-1.31.05-2.34.7-1.03,1.03-1.52,1.03-1.63,0-.1.35.83.55,1.29.19.46.41,1.18-.05,1.77-.45.59-1.05,1.17-1.07,1.93"/>
        <path class="cls-1" d="M56.39,10.88c-.88-.44-1.83.12-2.59-.17-1.08-.4-1.45-1.64-1.99-1.95-.28-.13.65.17,1.24.17.6,0,1.86-.15,2.56.52.57.48.86,1.29.86,1.29,0,0-.37-.27-1.54-.48-1.17-.21-1.67-.69-1.67-.69,0,0,.73.33,1.78.52.51.13,1.06.24,1.06.24,0,0,.01.01-.16-.2-.18-.22-.57-.97-1.77-1.02-1.2-.05-1.77-.07-1.85-.12-.08-.05.4.58.62.9.23.32.63.77,1.35.77.72,0,1.52-.1,2.1.23"/>
        <path class="cls-1" d="M56.71,10.8c-.06-1.13,1.03-1.7,1.07-2.63.08-1.29-1.12-2.43-1.2-3.15,0-.35-.12.74-.41,1.31-.29.58-1.07,1.7-.67,2.81.26.85,1.08,1.7,1.08,1.7,0,0-.18-.58.15-1.85.33-1.27.04-2.05.04-2.05,0,0,.01.91-.29,2.05-.11.58-.25,1.18-.25,1.18,0,0,0,.02-.15-.29-.15-.31-.81-1.16-.28-2.36.53-1.2.78-1.76.77-1.87-.02-.11.45.75.7,1.17s.55,1.09.2,1.79c-.35.7-.85,1.41-.76,2.18"/>
        <path class="cls-1" d="M54.99,8.58c-.87-.26-1.45.39-2.17.24-1.02-.2-1.76-1.26-2.31-1.46-.28-.07.59.06,1.07-.03.48-.09,1.45-.42,2.26.08.63.35,1.16,1.04,1.16,1.04,0,0-.39-.19-1.42-.2-1.03-.01-1.6-.37-1.6-.37,0,0,.71.19,1.63.2.46.04.95.05.95.05,0,0,.02,0-.2-.16-.22-.17-.81-.8-1.8-.66-.99.14-1.46.21-1.54.17-.08-.03.53.47.83.72.3.26.78.6,1.37.49.58-.11,1.2-.32,1.79-.11"/>
        <path class="cls-1" d="M55.18,8.33c-.18-1.04.74-1.73.68-2.59-.07-1.22-1.28-2.1-1.43-2.76-.04-.33-.03.7-.23,1.28-.2.58-.78,1.74-.3,2.71.33.75,1.17,1.43,1.17,1.43,0,0-.23-.51-.07-1.75.16-1.23-.19-1.91-.19-1.91,0,0,.11.84-.04,1.95-.04.55-.1,1.13-.1,1.13,0,0,0,.02-.16-.25-.17-.26-.86-.97-.51-2.15.35-1.19.51-1.75.49-1.85-.03-.09.49.63.76.99.27.35.62.94.38,1.63-.24.7-.61,1.44-.45,2.14"/>
        <path class="cls-1" d="M53.27,6.59c-.8-.22-1.39.35-2.06.22-.95-.16-1.58-1.09-2.09-1.26-.26-.06.55.04,1.01-.04.46-.08,1.4-.38,2.13.05.57.3,1.03.9,1.03.9,0,0-.36-.16-1.33-.16-.97,0-1.49-.31-1.49-.31,0,0,.65.16,1.53.16.43.03.89.04.89.04,0,0,.01,0-.18-.14-.2-.15-.71-.69-1.66-.56-.95.13-1.4.19-1.47.16-.07-.03.47.4.73.62.26.22.7.52,1.26.42.56-.1,1.15-.29,1.69-.11"/>
        <path class="cls-1" d="M53.6,6.54c-.32-.99.34-1.8.14-2.64-.26-1.18-1.41-1.85-1.65-2.47-.09-.31.09.69.02,1.29-.07.6-.37,1.82.19,2.69.4.68,1.21,1.21,1.21,1.21,0,0-.28-.47-.34-1.69-.07-1.23-.47-1.84-.47-1.84,0,0,.23.81.29,1.91.06.55.1,1.12.1,1.12,0,0,.01.02-.18-.21-.19-.23-.87-.81-.78-2.02.1-1.21.15-1.79.11-1.88-.04-.09.51.54.8.85s.67.82.58,1.53c-.09.72-.28,1.5-.03,2.16"/>
        <path class="cls-1" d="M51.28,4.91c-.71-.2-1.24.31-1.84.2-.84-.15-1.41-.97-1.86-1.12-.23-.05.49.04.9-.03.41-.07,1.24-.34,1.9.04.51.26.91.8.91.8,0,0-.32-.14-1.18-.14-.86,0-1.32-.28-1.32-.28,0,0,.58.14,1.36.14.39.02.79.03.79.03,0,0,.01,0-.16-.12-.17-.13-.64-.61-1.48-.5-.84.11-1.24.17-1.31.14-.07-.02.42.36.65.56.24.2.62.46,1.12.37.5-.09,1.03-.26,1.51-.1"/>
        <path class="cls-1" d="M51.76,4.76c-.48-.83,0-1.65-.33-2.36-.45-1.01-1.68-1.45-2.02-1.97-.14-.27.21.6.24,1.14.04.54-.03,1.67.66,2.36.5.55,1.37.91,1.37.91,0,0-.35-.38-.63-1.46-.28-1.08-.77-1.57-.77-1.57,0,0,.36.68.61,1.65.16.47.3.98.3.98,0,0,.01.01-.21-.16-.22-.18-.98-.6-1.1-1.69-.12-1.09-.18-1.61-.23-1.68-.05-.07.59.41.92.64.33.23.79.63.83,1.28.04.65,0,1.37.36,1.92"/>
        <path class="cls-1" d="M49.8,3.38c-.75-.63-.5-1.59-1.06-2.16-.77-.81-2.17-.8-2.67-1.18-.23-.21.4.51.59,1.01.2.51.47,1.62,1.4,2.04.68.35,1.69.39,1.69.39,0,0-.47-.24-1.09-1.18-.61-.94-1.27-1.24-1.27-1.24,0,0,.58.53,1.13,1.38.3.4.6.84.6.84,0,0,.02,0-.27-.08-.28-.09-1.19-.23-1.65-1.24-.46-1.01-.67-1.49-.75-1.54-.08-.05.73.19,1.14.29.41.11,1,.33,1.24.94.24.61.41,1.32.95,1.73"/>
        <path class="cls-1" d="M31.84,29.4c-.14-1.28.94-2.02.91-3.07,0-1.48-1.33-2.67-1.47-3.48-.03-.4-.08.85-.33,1.53-.26.68-.99,2.03-.49,3.25.33.94,1.17,1.78,1.17,1.78,0,0-.16-.58.09-2.06.25-1.47-.1-2.33-.1-2.33,0,0,.08,1.03-.15,2.35-.07.67-.18,1.36-.18,1.36,0,0,0,.02-.17-.31-.18-.33-.92-1.25-.45-2.66.46-1.4.68-2.07.66-2.19-.03-.12.52.82.81,1.27.29.46.65,1.19.34,2.02-.31.82-.78,1.68-.63,2.54"/>
        <path class="cls-1" d="M31.53,29.72c-1.31-.58-2.39.47-3.5.1-1.56-.49-2.46-2.45-3.28-2.88-.42-.17.92.18,1.71.09.79-.09,2.41-.53,3.57.46.9.7,1.61,2.08,1.61,2.08,0,0-.62-.49-2.25-.66-1.63-.17-2.44-.87-2.44-.87,0,0,1.07.43,2.53.58.72.13,1.49.23,1.49.23,0,0,.02.02-.28-.31-.3-.33-1.08-1.5-2.69-1.4-1.61.1-2.37.15-2.49.08-.12-.07.72.89,1.13,1.38.4.49,1.09,1.16,2.04,1.05.96-.11,1.99-.39,2.86.07"/>
        <path class="cls-1" d="M28.94,26.26c.16-1.15,1.37-1.54,1.59-2.47.34-1.29-.65-2.65-.59-3.39.07-.36-.27.72-.68,1.26-.41.54-1.42,1.53-1.23,2.72.1.9.7,1.84.7,1.84,0,0-.02-.55.57-1.78.59-1.23.45-2.06.45-2.06,0,0-.17.92-.7,2.02-.23.57-.49,1.15-.49,1.15,0,0,0,.02-.09-.31-.1-.34-.58-1.31.19-2.43.77-1.12,1.14-1.65,1.14-1.76,0-.11.31.84.48,1.3.17.47.34,1.2-.15,1.84-.49.64-1.14,1.28-1.2,2.07"/>
        <path class="cls-1" d="M28.57,26.47c-1.12-.82-2.4-.16-3.37-.74-1.38-.8-1.79-2.73-2.47-3.3-.36-.24.83.38,1.61.49.78.11,2.43.11,3.31,1.25.7.83,1.06,2.2,1.06,2.2,0,0-.48-.57-2-1.11-1.52-.54-2.14-1.35-2.14-1.35,0,0,.93.63,2.29,1.11.66.28,1.37.55,1.37.55,0,0,.02.02-.2-.34-.22-.36-.68-1.57-2.25-1.87-1.57-.3-2.31-.44-2.41-.52-.1-.09.48.95.76,1.47.27.53.77,1.28,1.71,1.41.94.13,1.99.13,2.72.74"/>
        <path class="cls-1" d="M27.07,23.14c.41-1.06,1.65-1.1,2.07-1.93.61-1.15-.02-2.73.2-3.43.14-.33-.42.62-.93,1.02-.51.4-1.69,1.08-1.78,2.27-.11.89.25,1.97.25,1.97,0,0,.11-.53.94-1.55.84-1.02.89-1.86.89-1.86,0,0-.37.84-1.12,1.75-.34.48-.72.97-.72.97,0,0,0,.02-.02-.33-.02-.35-.26-1.43.73-2.29.98-.86,1.45-1.27,1.48-1.37.03-.11.11.89.16,1.39.05.5.05,1.25-.56,1.73-.61.48-1.37.91-1.61,1.66"/>
        <path class="cls-1" d="M26.67,23.24c-.88-1.11-2.25-.83-3.04-1.67-1.13-1.16-1.08-3.13-1.61-3.87-.29-.34.71.6,1.42.92.71.33,2.29.79,2.86,2.14.48.99.51,2.42.51,2.42,0,0-.33-.69-1.65-1.63-1.32-.94-1.73-1.9-1.73-1.9,0,0,.74.87,1.93,1.71.57.46,1.18.92,1.18.92,0,0,0,.03-.12-.38-.12-.41-.29-1.7-1.71-2.43-1.42-.73-2.1-1.07-2.17-1.18-.07-.11.25,1.05.39,1.63.14.58.44,1.45,1.31,1.83.87.39,1.87.69,2.42,1.48"/>
        <path class="cls-1" d="M26.16,19.71c.6-.9,1.74-.76,2.3-1.45.81-.96.57-2.48.92-3.08.2-.28-.52.5-1.06.79-.55.29-1.78.74-2.11,1.81-.29.79-.19,1.82-.19,1.82,0,0,.21-.47,1.19-1.27.98-.8,1.21-1.56,1.21-1.56,0,0-.52.71-1.4,1.43-.41.39-.87.77-.87.77,0,0,0,.02.06-.3.06-.32.07-1.33,1.15-1.97,1.08-.64,1.59-.94,1.64-1.03.05-.09-.1.83-.15,1.28-.06.46-.22,1.14-.88,1.49-.66.35-1.44.63-1.82,1.27"/>
        <path class="cls-1" d="M25.78,19.74c-.56-1.13-1.87-1.07-2.41-1.94-.78-1.21-.31-2.99-.63-3.74-.19-.35.52.64,1.1,1.04.58.4,1.91,1.05,2.15,2.35.23.97-.06,2.27-.06,2.27,0,0-.15-.67-1.15-1.71-1-1.05-1.16-1.97-1.16-1.97,0,0,.49.89,1.39,1.83.42.5.88,1,.88,1,0,0,0,.02-.02-.36-.03-.39.1-1.59-1.04-2.45-1.14-.86-1.68-1.27-1.72-1.38-.04-.11,0,.99,0,1.53,0,.55.1,1.37.8,1.85.7.48,1.55.89,1.89,1.69"/>
        <path class="cls-1" d="M26.05,16.46c.75-.75,1.83-.42,2.5-.98.96-.77,1.01-2.27,1.46-2.78.25-.23-.59.39-1.18.57-.58.18-1.86.39-2.38,1.35-.43.7-.52,1.7-.52,1.7,0,0,.29-.41,1.39-1,1.1-.59,1.46-1.27,1.46-1.27,0,0-.63.58-1.61,1.11-.47.3-.98.58-.98.58,0,0,0,.02.11-.28.12-.3.32-1.26,1.48-1.68,1.17-.42,1.72-.61,1.78-.69.06-.08-.24.77-.38,1.2-.14.43-.42,1.05-1.13,1.26-.71.21-1.52.35-2,.89"/>
        <path class="cls-1" d="M25.67,16.42c-.34-1.17-1.61-1.35-1.98-2.28-.54-1.29.25-2.91.07-3.68-.12-.36.38.71.87,1.19.49.48,1.66,1.34,1.65,2.62.04.96-.47,2.15-.47,2.15,0,0-.02-.67-.8-1.84-.78-1.17-.77-2.08-.77-2.08,0,0,.31.94,1.01,1.99.31.55.67,1.11.67,1.11,0,0,0,.02.04-.35.05-.37.39-1.5-.56-2.52-.95-1.02-1.4-1.51-1.42-1.62-.02-.11-.18.94-.28,1.46-.1.52-.16,1.33.43,1.91.59.58,1.34,1.12,1.52,1.94"/>
        <path class="cls-1" d="M26.45,13.48c.86-.56,1.83-.15,2.59-.55,1.06-.55,1.4-1.84,1.93-2.23.28-.17-.64.27-1.24.35-.6.09-1.86.12-2.54.89-.55.56-.82,1.41-.82,1.41,0,0,.36-.32,1.52-.7,1.17-.38,1.65-.93,1.65-.93,0,0-.71.43-1.76.78-.51.2-1.06.39-1.06.39,0,0-.01.02.16-.23.17-.24.54-1.05,1.74-1.28,1.2-.23,1.77-.33,1.84-.39.08-.06-.38.64-.59.99-.22.35-.6.86-1.32.96-.72.1-1.53.12-2.09.54"/>
        <path class="cls-1" d="M26.17,13.35c-.1-1.1-1.27-1.41-1.44-2.29-.26-1.23.79-2.61.77-3.32-.05-.34.23.68.6,1.17.37.49,1.31,1.4,1.06,2.56-.15.88-.86,1.89-.86,1.89,0,0,.1-.6-.41-1.75-.51-1.15-.33-1.97-.33-1.97,0,0,.11.88.57,1.91.19.53.42,1.08.42,1.08,0,0,0,.02.11-.31.11-.33.65-1.31-.04-2.34-.7-1.03-1.03-1.52-1.03-1.63,0-.1-.35.83-.55,1.29-.19.46-.41,1.18.05,1.77.45.59,1.05,1.17,1.07,1.93"/>
        <path class="cls-1" d="M27.61,10.88c.88-.44,1.83.12,2.59-.17,1.08-.4,1.45-1.64,1.99-1.95.28-.13-.65.17-1.24.17-.6,0-1.86-.15-2.56.52-.56.48-.86,1.29-.86,1.29,0,0,.37-.27,1.54-.48,1.17-.21,1.67-.69,1.67-.69,0,0-.73.33-1.78.52-.51.13-1.06.24-1.06.24,0,0-.01.01.16-.2.17-.22.57-.97,1.77-1.02,1.2-.05,1.77-.07,1.85-.12.08-.05-.4.58-.62.9-.23.32-.63.77-1.35.77-.72,0-1.52-.1-2.1.23"/>
        <path class="cls-1" d="M27.29,10.8c.06-1.13-1.02-1.7-1.07-2.63-.08-1.29,1.12-2.43,1.2-3.15,0-.35.13.74.41,1.31.29.58,1.07,1.7.67,2.81-.26.85-1.08,1.7-1.08,1.7,0,0,.18-.58-.15-1.85-.33-1.27-.04-2.05-.04-2.05,0,0-.01.91.29,2.05.11.58.26,1.18.26,1.18,0,0,0,.02.15-.29.15-.31.81-1.16.28-2.36-.53-1.2-.78-1.76-.76-1.87.02-.11-.45.75-.7,1.17-.25.42-.55,1.09-.2,1.79.35.7.85,1.41.76,2.18"/>
        <path class="cls-1" d="M29.01,8.58c.87-.26,1.44.39,2.17.24,1.02-.2,1.76-1.26,2.31-1.46.27-.07-.59.06-1.07-.03-.49-.09-1.45-.42-2.26.08-.63.35-1.16,1.04-1.16,1.04,0,0,.39-.19,1.42-.2,1.03-.01,1.6-.37,1.6-.37,0,0-.71.19-1.63.2-.46.04-.95.05-.95.05,0,0-.01,0,.2-.16.22-.17.81-.8,1.8-.66.99.14,1.47.21,1.54.17.08-.03-.53.47-.83.72-.3.26-.78.6-1.37.49-.59-.11-1.2-.32-1.79-.11"/>
        <path class="cls-1" d="M28.82,8.33c.18-1.04-.74-1.73-.67-2.59.07-1.22,1.28-2.1,1.43-2.76.04-.33.03.7.23,1.28.2.58.78,1.74.3,2.71-.33.75-1.17,1.43-1.17,1.43,0,0,.23-.51.07-1.75-.16-1.23.19-1.91.19-1.91,0,0-.11.84.04,1.95.04.55.1,1.13.1,1.13,0,0,0,.02.17-.25.17-.26.86-.97.51-2.15-.35-1.19-.51-1.75-.49-1.85.03-.09-.49.63-.76.99-.27.35-.62.94-.38,1.63.24.7.61,1.44.45,2.14"/>
        <path class="cls-1" d="M30.72,6.59c.8-.22,1.39.35,2.06.22.95-.16,1.58-1.09,2.09-1.26.25-.06-.55.04-1.01-.04-.46-.08-1.4-.38-2.13.05-.57.3-1.03.9-1.03.9,0,0,.36-.16,1.33-.16.97,0,1.49-.31,1.49-.31,0,0-.65.16-1.53.16-.44.03-.89.04-.89.04,0,0-.01,0,.18-.14.19-.15.71-.69,1.66-.56.95.13,1.4.19,1.47.16.07-.03-.47.4-.73.62-.26.22-.7.52-1.26.42-.56-.1-1.16-.29-1.69-.11"/>
        <path class="cls-1" d="M30.41,6.54c.32-.99-.34-1.8-.14-2.64.26-1.18,1.41-1.85,1.65-2.47.09-.31-.09.69-.02,1.29.07.6.37,1.82-.19,2.69-.4.68-1.21,1.21-1.21,1.21,0,0,.28-.47.34-1.69.06-1.23.47-1.84.47-1.84,0,0-.23.81-.29,1.91-.06.55-.1,1.12-.1,1.12,0,0-.01.02.18-.21.19-.23.87-.81.78-2.02-.1-1.21-.14-1.79-.11-1.88.04-.09-.51.54-.8.85-.28.3-.67.82-.58,1.53.09.72.28,1.5.03,2.16"/>
        <path class="cls-1" d="M32.72,4.91c.71-.2,1.23.31,1.84.2.84-.15,1.41-.97,1.86-1.12.23-.05-.49.04-.9-.03-.41-.07-1.24-.34-1.9.04-.51.26-.91.8-.91.8,0,0,.32-.14,1.18-.14.86,0,1.32-.28,1.32-.28,0,0-.58.14-1.36.14-.39.02-.79.03-.79.03,0,0-.01,0,.16-.12.17-.13.63-.61,1.48-.5.84.11,1.24.17,1.31.14.07-.02-.42.36-.65.56-.24.2-.62.46-1.12.37-.5-.09-1.03-.26-1.51-.1"/>
        <path class="cls-1" d="M32.23,4.76c.48-.83,0-1.65.33-2.36.45-1.01,1.68-1.45,2.02-1.97.14-.27-.21.6-.24,1.14-.04.54.03,1.67-.66,2.36-.5.55-1.37.91-1.37.91,0,0,.35-.38.63-1.46.28-1.08.77-1.57.77-1.57,0,0-.36.68-.61,1.65-.16.47-.3.98-.3.98,0,0-.01.01.21-.16.22-.18.98-.6,1.1-1.69.12-1.09.18-1.61.23-1.68.05-.07-.59.41-.92.64-.33.23-.79.63-.83,1.28-.04.65,0,1.37-.36,1.92"/>
        <path class="cls-1" d="M34.2,3.38c.74-.63.49-1.59,1.06-2.16.77-.81,2.17-.8,2.67-1.18.23-.21-.4.51-.6,1.01-.2.51-.47,1.62-1.4,2.04-.68.35-1.69.39-1.69.39,0,0,.47-.24,1.09-1.18.62-.94,1.27-1.24,1.27-1.24,0,0-.58.53-1.13,1.38-.3.4-.6.84-.6.84,0,0-.02,0,.26-.08.28-.09,1.19-.23,1.65-1.24.46-1.01.67-1.49.75-1.54.08-.05-.73.19-1.14.29-.41.11-1,.33-1.24.94-.24.61-.41,1.32-.95,1.73"/>
        <path class="cls-1" d="M51.96,23.23c-.21.29-.41.54-.61.77-4.24,4.94-11.72,5.5-16.65,1.25-.69-.59-1.32-1.28-1.86-2.02l.56-.4c.33.45.69.87,1.08,1.26,1.07,1.07,2.36,1.92,3.8,2.49,1.25.49,2.61.75,4.03.75,3.06,0,5.82-1.24,7.84-3.24.42-.42.8-.87,1.14-1.34l.67.49Z"/>
        <g>
          <polygon class="cls-1" points="36.43 10.43 33.7 16.91 39.15 16.9 36.43 10.43"/>
          <path class="cls-1" d="M50.69,12.77c-.64-.56-1.41-.9-2.31-1.01-.47-.06-.94-.05-1.4.03-.46.08-.92.24-1.37.47l1.22,6.3c.98-.12,1.97-.45,2.96-.99,1.51-.82,2.15-1.85,1.92-3.08-.13-.65-.47-1.22-1.03-1.71Z"/>
          <path class="cls-1" d="M51.94,10.73c-.49-.86-1.1-1.65-1.79-2.35-1.99-1.98-4.71-3.21-7.73-3.24h-.21c-1.39.01-2.71.28-3.93.75-1.44.56-2.73,1.41-3.8,2.48-.7.7-1.3,1.49-1.8,2.35-.93,1.62-1.46,3.5-1.46,5.5,0,1.1.16,2.15.46,3.16l4.25-10.03c.14-.34.32-.51.51-.51s.37.19.52.57l3.16,7.5h1.03v-7.6c0-.33.04-.54.1-.63s.16-.15.27-.18c.1-.02.31-.03.63-.03h5.25c.27,0,.44.03.54.1.14.09.21.23.21.4,0,.21-.09.35-.27.45-.07.04-.23.06-.47.06h-5.25v7.32h2.3c.26,0,.44.04.53.11.14.09.21.22.21.4,0,.21-.09.35-.27.44-.07.04-.23.06-.47.06h-2.3v3.05h8.63c.26,0,.44.03.54.1.14.09.21.23.21.4,0,.21-.09.35-.27.44-.07.04-.22.06-.47.06h-8.63c-.44,0-.7-.03-.8-.08-.14-.09-.21-.32-.21-.7v-3.29h-7.84l-1.1,2.61c-.02.07-.06.13-.09.18.34.79.77,1.53,1.28,2.22l.61-.44c.48.65,1.03,1.26,1.63,1.77,4.34,3.73,10.89,3.24,14.62-1.1.17-.2.35-.42.54-.68l.5.36c1.33-1.83,2.11-4.08,2.11-6.51,0-2-.53-3.88-1.46-5.5ZM50.23,19c-.91.47-1.84.79-2.76.97-.42.08-.73.11-.93.08-.23-.03-.38-.14-.45-.34-.02-.06-.06-.26-.12-.6l-1.28-7.16c-.03-.11.29-.41.77-.65.36-.15.68-.26.97-.33.62-.16,1.28-.18,1.99-.08,1,.13,1.89.5,2.68,1.11.98.76,1.56,1.66,1.75,2.71.32,1.8-.54,3.24-2.61,4.28Z"/>
        </g>
        <path class="cls-1" d="M33.33,31.85l.41-.19c.22.53.5.81.86.85.15.02.3,0,.44-.06.14-.06.25-.14.34-.25.08-.11.13-.23.15-.37.02-.15-.02-.31-.1-.46-.12-.22-.35-.49-.7-.81-.35-.33-.56-.56-.64-.7-.14-.23-.19-.47-.16-.72.02-.2.09-.37.2-.52.11-.15.26-.27.44-.34.18-.07.37-.1.57-.08.21.02.41.1.58.22.17.13.35.34.52.65l-.4.24c-.15-.24-.27-.41-.39-.49-.11-.08-.24-.14-.38-.15-.18-.02-.34.02-.47.12-.13.1-.2.23-.22.39,0,.1,0,.2.03.29.03.1.09.21.19.33.05.07.23.24.54.52.36.33.6.62.72.86s.17.48.14.7c-.04.33-.19.6-.47.81-.28.22-.59.3-.95.26-.27-.03-.52-.13-.72-.3-.21-.17-.39-.44-.54-.8"/>
        <path class="cls-1" d="M33.33,31.85l.41-.19c.22.53.5.81.86.85.15.02.3,0,.44-.06.14-.06.25-.14.34-.25.08-.11.13-.23.15-.37.02-.15-.02-.31-.1-.46-.12-.22-.35-.49-.7-.81-.35-.33-.56-.56-.64-.7-.14-.23-.19-.47-.16-.72.02-.2.09-.37.2-.52.11-.15.26-.27.44-.34.18-.07.37-.1.57-.08.21.02.41.1.58.22.17.13.35.34.52.65l-.4.24c-.15-.24-.27-.41-.39-.49-.11-.08-.24-.14-.38-.15-.18-.02-.34.02-.47.12-.13.1-.2.23-.22.39,0,.1,0,.2.03.29.03.1.09.21.19.33.05.07.23.24.54.52.36.33.6.62.72.86s.17.48.14.7c-.04.33-.19.6-.47.81-.28.22-.59.3-.95.26-.27-.03-.52-.13-.72-.3-.21-.17-.39-.44-.54-.8Z"/>
        <path class="cls-1" d="M40.22,29.39l-.02.42c-.16-.07-.29-.11-.4-.12-.08,0-.16.01-.21.04-.06.03-.09.07-.11.11-.02.04-.03.16-.03.35l-.02.45.7.03v.37s-.72-.03-.72-.03l-.12,2.99-.43-.02.12-2.99-.44-.02v-.37s.46.02.46.02l.02-.53c0-.24.04-.41.09-.51.05-.1.13-.18.24-.24.11-.06.24-.09.39-.08.14,0,.31.04.5.11"/>
        <path class="cls-1" d="M40.22,29.39l-.02.42c-.16-.07-.29-.11-.4-.12-.08,0-.16.01-.21.04-.06.03-.09.07-.11.11-.02.04-.03.16-.03.35l-.02.45.7.03v.37s-.72-.03-.72-.03l-.12,2.99-.43-.02.12-2.99-.44-.02v-.37s.46.02.46.02l.02-.53c0-.24.04-.41.09-.51.05-.1.13-.18.24-.24.11-.06.24-.09.39-.08.14,0,.31.04.5.11Z"/>
        <path class="cls-1" d="M45.34,31.03l.1,3.37h-.43s-.02-.57-.02-.57c-.17.23-.38.4-.6.51-.22.12-.47.18-.73.19-.48.01-.89-.15-1.24-.48-.35-.34-.53-.75-.54-1.25-.01-.49.14-.9.48-1.26.33-.35.73-.54,1.21-.55.28,0,.53.04.76.15.23.11.43.28.6.51l-.02-.62h.43ZM43.62,31.41c-.24,0-.46.07-.66.2-.2.12-.36.29-.47.51-.12.22-.17.45-.16.69,0,.24.07.46.2.68.13.21.3.38.5.49.21.11.43.17.67.16.24,0,.46-.07.67-.2.21-.13.37-.29.48-.5.11-.21.16-.44.15-.7-.01-.39-.15-.71-.41-.97-.26-.26-.58-.38-.96-.37"/>
        <path class="cls-1" d="M45.34,31.03l.1,3.37h-.43s-.02-.57-.02-.57c-.17.23-.38.4-.6.51-.22.12-.47.18-.73.19-.48.01-.89-.15-1.24-.48-.35-.34-.53-.75-.54-1.25-.01-.49.14-.9.48-1.26.33-.35.73-.54,1.21-.55.28,0,.53.04.76.15.23.11.43.28.6.51l-.02-.62h.43ZM43.62,31.41c-.24,0-.46.07-.66.2-.2.12-.36.29-.47.51-.12.22-.17.45-.16.69,0,.24.07.46.2.68.13.21.3.38.5.49.21.11.43.17.67.16.24,0,.46-.07.67-.2.21-.13.37-.29.48-.5.11-.21.16-.44.15-.7-.01-.39-.15-.71-.41-.97-.26-.26-.58-.38-.96-.37Z"/>
        <polygon class="cls-1" points="47.72 29.81 48.24 29.79 49.19 31 50.02 29.71 50.54 29.69 49.46 31.34 50.84 33.05 50.31 33.07 49.22 31.7 48.27 33.16 47.75 33.18 48.95 31.36 47.72 29.81"/>
        <polygon class="cls-1" points="47.72 29.81 48.24 29.79 49.19 31 50.02 29.71 50.54 29.69 49.46 31.34 50.84 33.05 50.31 33.07 49.22 31.7 48.27 33.16 47.75 33.18 48.95 31.36 47.72 29.81"/>
        <path class="cls-1" d="M53.15,29.31c0,.34-.28.62-.62.62s-.62-.28-.62-.62.28-.62.62-.62.62.28.62.62"/>
        <path class="cls-1" d="M56.02,25.96c0,.34-.28.62-.62.62s-.62-.28-.62-.62.28-.62.62-.62.62.28.62.62"/>
        <path class="cls-1" d="M57.89,22.56c0,.34-.28.62-.62.62s-.62-.28-.62-.62.28-.62.62-.62.62.28.62.62"/>
        <path class="cls-1" d="M58.7,19.11c0,.35-.28.62-.62.62s-.62-.28-.62-.62.28-.62.62-.62.62.28.62.62"/>
        <path class="cls-1" d="M58.59,15.99c0,.31-.25.56-.56.56s-.56-.25-.56-.56.25-.56.56-.56.56.25.56.56"/>
        <path class="cls-1" d="M56.8,10.53c0,.28-.23.51-.51.51s-.51-.23-.51-.51.23-.51.51-.51.51.23.51.51"/>
        <path class="cls-1" d="M57.99,13.17c0,.28-.23.51-.51.51s-.51-.23-.51-.51.23-.51.51-.51.51.23.51.51"/>
        <path class="cls-1" d="M55.36,8.19c0,.24-.19.43-.43.43s-.43-.19-.43-.43.19-.43.43-.43.43.19.43.43"/>
        <path class="cls-1" d="M53.68,6.45c0,.17-.14.3-.3.3s-.3-.14-.3-.3.13-.3.3-.3.3.14.3.3"/>
        <path class="cls-1" d="M51.75,4.68c0,.17-.14.3-.3.3s-.3-.14-.3-.3.14-.3.3-.3.3.14.3.3"/>
        <path class="cls-1" d="M30.71,29.31c0,.34.28.62.62.62s.62-.28.62-.62-.28-.62-.62-.62-.62.28-.62.62"/>
        <path class="cls-1" d="M27.85,25.96c0,.34.28.62.62.62s.62-.28.62-.62-.28-.62-.62-.62-.62.28-.62.62"/>
        <path class="cls-1" d="M25.97,22.56c0,.34.28.62.62.62s.62-.28.62-.62-.28-.62-.62-.62-.62.28-.62.62"/>
        <path class="cls-1" d="M25.17,19.11c0,.35.28.62.62.62s.62-.28.62-.62-.28-.62-.62-.62-.62.28-.62.62"/>
        <path class="cls-1" d="M25.27,15.99c0,.31.25.56.56.56s.56-.25.56-.56-.25-.56-.56-.56-.56.25-.56.56"/>
        <path class="cls-1" d="M27.07,10.53c0,.28.23.51.51.51s.51-.23.51-.51-.23-.51-.51-.51-.51.23-.51.51"/>
        <path class="cls-1" d="M25.87,13.17c0,.28.23.51.51.51s.51-.23.51-.51-.23-.51-.51-.51-.51.23-.51.51"/>
        <path class="cls-1" d="M28.51,8.19c0,.24.19.43.43.43s.43-.19.43-.43-.19-.43-.43-.43-.43.19-.43.43"/>
        <path class="cls-1" d="M30.18,6.45c0,.17.14.3.3.3s.3-.14.3-.3-.14-.3-.3-.3-.3.14-.3.3"/>
        <path class="cls-1" d="M32.12,4.68c0,.17.14.3.3.3s.3-.14.3-.3-.13-.3-.3-.3-.3.14-.3.3"/>
      </g>
    </g>
  </g>
</svg>