<?xml version="1.0" encoding="UTF-8"?>
<svg xmlns="http://www.w3.org/2000/svg" viewBox="0 0 84 30.92">
  <defs>
    <style>
      .cls-1 {
        isolation: isolate;
      }

      .cls-2 {
        opacity: .6;
      }

      .cls-2, .cls-3 {
        mix-blend-mode: multiply;
      }

      .cls-4 {
        fill: #FFFFFF;
        stroke-width: 0px;
      }
    </style>
  </defs>
  <g class="cls-1">
    <g id="Layer_2" data-name="Layer 2">
      <g id="Layer_1-2" data-name="Layer 1">
        <g>
          <g class="cls-2">
            <path class="cls-4" d="M18.54,29.43s3.93-.46,4.64-.19,2.67.22,3.51.62,3.48.65,3.58.65,1.71.29,1.72-.07-2.04-1.05-2.44-1.06-2.63-.12-2.96-.14-3.99-.1-5.02-1.65c-1.03-1.55-.39-4.5-.39-4.5,0,0,.83-.9,1.47-.49s1.88-.01,1.88-.01c0,0,.91.03,2.02.18s2.61-.34,2.61-.34c0,0,1.66-.93,1.86-1.61s2.06-1.58,2.06-1.58c0,0,.93-1.53.93-2.53s1.47-2.29,1.47-2.29c0,0,.63-1.7-1.72-3.05-2.35-1.35,1.32-1.85,1.32-1.85,0,0,.38-.81-.39-1.28s-1.21-1.2-1.21-1.2c0,0,.19-.76,1.13-.64s-2.6-2.48-2.6-2.48c0,0-1.95-1.36-2.44-1.19s-2.43.35-2.43.35c0,0-2.28-1-2.52-1.99s-2.41-.35-2.41-.35c0,0-.1,0-1.02-.51s-1.63.42-1.63.42c0,0-1.04.09-1.76-.45s-1.28.28-1.28.28c0,0-.38.36-1.15-.05s-4.49,1.08-4.49,1.08c0,0-1.25,1.15-.27,1.9s-2.49,0-2.49,0c0,0-3.06.82-3.5,2.24-.44,1.41-1.31,1.37-1.31,1.37,0,0-1.07.64-.69,1.06s1.23.08,1.44.37,1.21,2.01-.48,2.11c-1.69.1-2.48.97-2.48,1.2s.04,1.03.39,1.35.44,1.04.44,1.04c0,0-.37.58-.87.63S-.01,14.65,0,14.95s.31,1.18,1.59,1.46-.23.87-.23.87c0,0-.3.84,1.87.32,2.17-.52,2.38-.4,2.45-.13s.9.99-.02,1.03-1.81-.42-2.09.09-.83,2.36-.09,2.73,2.22-.19,2.69-.88,1.82.59,1.92.62,1.23.71,1.23,1.54,1.33.84,1.33.84c0,0,.4-1.51,1.15-1.08s.51,1.08.51,1.08c0,0,.35.52,1.19-.18s1.66-.8,1.68-.43-.08,1.17.16,1.36.49.54.3.75-.38.45-.5.72-.36,1.01-.12,1.23.17,1.19.17,1.19c0,0-.1,1.15-6.48,1.17-6.38.01-3.27,1.63-3.27,1.63,0,0,4.93-.15,5.47-.38s1.77-.67,2.62-.41,5.02-.66,5.02-.66Z"/>
          </g>
          <g>
            <path class="cls-4" d="M17.76,13.41c-.75,0-1.47-.32-2.02-.92-.57-.61-.92-1.45-.96-2.35-.09-1.88,1.16-3.47,2.78-3.55.8-.04,1.56.29,2.15.92.57.61.92,1.45.96,2.35h0c.09,1.88-1.16,3.47-2.78,3.55-.04,0-.09,0-.13,0ZM17.68,7.28s-.06,0-.09,0c-1.24.06-2.19,1.33-2.12,2.82.04.73.31,1.41.77,1.91.45.48,1.02.73,1.61.7,1.24-.06,2.19-1.33,2.12-2.82h0c-.04-.73-.31-1.41-.77-1.91-.42-.45-.96-.7-1.52-.7Z"/>
            <rect class="cls-4" x="17.58" y="13.3" width=".69" height="15.32" transform="translate(-.04 .04) rotate(-.12)"/>
            <path class="cls-4" d="M18.28,28.01c-.12,0-.24-.01-.36-.03-.33-.05-.94-.22-1.38-.76-.97-1.18-.14-3.03-.04-3.24.37-.79,1.09-1.59,2.13-2.37l.06-.04c.12-.09.25-.19.42-.35.32-.32.93-.91,1.01-1.8,0-.01.09-1.11-.65-1.85-.45-.45-1.08-.59-1.81-.75-.19-.04-.39-.09-.59-.14-.33-.08-.55-.13-.73-.17-.25-.05-.39-.08-.62-.17-1.22-.45-1.03-1.08-.89-1.55.05-.15.09-.3.07-.41l.14-.02c.02.14-.02.3-.08.47-.14.45-.29.97.8,1.37.22.08.36.11.6.16.18.04.4.09.73.17.2.05.4.09.59.14.75.17,1.4.31,1.88.79.79.79.69,1.96.69,1.97-.09.94-.74,1.58-1.05,1.89-.17.17-.31.27-.43.36l-.06.04c-1.02.76-1.72,1.54-2.08,2.32-.09.2-.89,1.97.02,3.09.41.5.98.66,1.29.71.97.16,1.87-.38,2.76-1.64l.12.08c-.81,1.16-1.65,1.73-2.54,1.73Z"/>
            <ellipse class="cls-4" cx="15.1" cy="14.24" rx=".87" ry=".51" transform="translate(-4.05 22.26) rotate(-66.04)"/>
          </g>
          <g>
            <path class="cls-4" d="M44.32,7.51l-.43,1.12h-.56l1.42-3.57h.65l1.42,3.57h-.58l-.45-1.12h-1.48ZM45.69,7.15l-.41-1.03c-.09-.23-.15-.44-.22-.65h-.01c-.06.21-.13.43-.21.65l-.41,1.03h1.26Z"/>
            <path class="cls-4" d="M47.3,8.16c.16.09.45.19.72.19.4,0,.58-.17.58-.38,0-.22-.15-.34-.56-.47-.54-.16-.79-.42-.79-.73,0-.41.39-.75,1.03-.75.3,0,.57.07.74.16l-.14.34c-.12-.06-.33-.15-.61-.15-.32,0-.5.16-.5.35,0,.21.18.31.57.43.52.17.79.39.79.77,0,.45-.41.77-1.12.77-.33,0-.63-.07-.84-.17l.14-.35Z"/>
            <path class="cls-4" d="M49.75,8.16c.16.09.45.19.72.19.4,0,.58-.17.58-.38,0-.22-.15-.34-.56-.47-.54-.16-.79-.42-.79-.73,0-.41.39-.75,1.03-.75.3,0,.57.07.74.16l-.14.34c-.12-.06-.33-.15-.61-.15-.32,0-.5.16-.5.35,0,.21.18.31.57.43.52.17.79.39.79.77,0,.45-.41.77-1.12.77-.33,0-.63-.07-.84-.17l.14-.35Z"/>
            <path class="cls-4" d="M54.99,7.33c0,.95-.77,1.36-1.49,1.36-.81,0-1.44-.51-1.44-1.32,0-.86.66-1.36,1.49-1.36s1.44.53,1.44,1.32ZM52.61,7.36c0,.56.38.98.91.98s.91-.42.91-1c0-.43-.25-.98-.9-.98s-.92.51-.92.99Z"/>
            <path class="cls-4" d="M57.81,8.54c-.14.06-.46.15-.86.15-.9,0-1.49-.52-1.49-1.31s.63-1.36,1.61-1.36c.32,0,.61.07.76.13l-.12.36c-.13-.06-.33-.12-.63-.12-.69,0-1.06.43-1.06.97,0,.59.45.96,1.04.96.31,0,.51-.07.67-.13l.09.35Z"/>
            <path class="cls-4" d="M59.05,5.35c0,.16-.13.29-.35.29-.19,0-.33-.13-.33-.29s.14-.29.34-.29.33.13.33.29ZM58.45,8.63v-2.56h.55v2.56h-.55Z"/>
            <path class="cls-4" d="M61.56,8.63l-.04-.32h-.02c-.17.2-.49.38-.92.38-.61,0-.92-.36-.92-.74,0-.62.64-.96,1.8-.95v-.05c0-.21-.07-.59-.68-.59-.28,0-.57.07-.78.19l-.12-.31c.25-.14.61-.23.99-.23.92,0,1.14.53,1.14,1.05v.96c0,.22.01.44.05.61h-.5ZM61.48,7.33c-.6-.01-1.27.08-1.27.58,0,.3.24.44.51.44.39,0,.64-.21.72-.43.02-.05.03-.1.03-.15v-.44Z"/>
            <path class="cls-4" d="M63.51,5.34v.74h.78v.35h-.78v1.38c0,.32.11.5.41.5.14,0,.25-.02.32-.03l.02.35c-.11.04-.27.06-.48.06-.25,0-.46-.07-.59-.2-.15-.14-.21-.36-.21-.67v-1.4h-.46v-.35h.46v-.61l.53-.12Z"/>
            <path class="cls-4" d="M65.51,5.35c0,.16-.13.29-.35.29-.19,0-.33-.13-.33-.29s.14-.29.34-.29.33.13.33.29ZM64.9,8.63v-2.56h.55v2.56h-.55Z"/>
            <path class="cls-4" d="M69.06,7.33c0,.95-.77,1.36-1.49,1.36-.81,0-1.44-.51-1.44-1.32,0-.86.66-1.36,1.49-1.36s1.44.53,1.44,1.32ZM66.68,7.36c0,.56.38.98.91.98s.91-.42.91-1c0-.43-.25-.98-.9-.98s-.92.51-.92.99Z"/>
            <path class="cls-4" d="M69.75,6.77c0-.26,0-.48-.03-.69h.48l.03.42h.01c.15-.24.5-.48.99-.48.41,0,1.06.21,1.06,1.09v1.53h-.55v-1.48c0-.41-.18-.76-.69-.76-.36,0-.64.22-.73.48-.02.06-.04.14-.04.22v1.54h-.55v-1.87Z"/>
            <path class="cls-4" d="M77.08,4.88v3.1c0,.23,0,.49.03.66h-.49l-.02-.44h-.01c-.17.29-.53.5-1.02.5-.72,0-1.28-.52-1.28-1.3,0-.85.61-1.38,1.34-1.38.46,0,.77.19.9.39h.01v-1.53h.55ZM76.54,7.11c0-.06,0-.14-.02-.2-.08-.3-.38-.54-.79-.54-.56,0-.9.42-.9.99,0,.52.3.95.89.95.37,0,.7-.21.8-.56.02-.06.02-.13.02-.2v-.44Z"/>
            <path class="cls-4" d="M78.29,7.44c.01.63.48.89,1.03.89.39,0,.63-.06.83-.13l.09.33c-.19.07-.52.16-1,.16-.92,0-1.47-.52-1.47-1.29s.53-1.38,1.41-1.38c.98,0,1.24.74,1.24,1.21,0,.1-.01.17-.02.22h-2.11ZM79.88,7.1c0-.3-.14-.76-.76-.76-.55,0-.79.43-.84.76h1.59Z"/>
            <path class="cls-4" d="M81.01,8.16c.16.09.45.19.72.19.4,0,.58-.17.58-.38,0-.22-.15-.34-.56-.47-.54-.16-.79-.42-.79-.73,0-.41.39-.75,1.03-.75.3,0,.57.07.74.16l-.14.34c-.12-.06-.33-.15-.61-.15-.32,0-.5.16-.5.35,0,.21.18.31.57.43.52.17.79.39.79.77,0,.45-.41.77-1.12.77-.33,0-.63-.07-.84-.17l.14-.35Z"/>
            <path class="cls-4" d="M46.58,13.41c-.03-.5-.06-1.1-.05-1.54h-.02c-.12.42-.27.86-.45,1.35l-.63,1.73h-.35l-.58-1.7c-.17-.5-.31-.96-.41-1.39h-.01c-.01.44-.04,1.04-.07,1.58l-.09,1.53h-.44l.25-3.57h.59l.61,1.72c.15.44.27.83.36,1.2h.02c.09-.36.22-.75.38-1.2l.64-1.72h.59l.22,3.57h-.45l-.09-1.57Z"/>
            <path class="cls-4" d="M48.11,13.78c.01.63.41.89.88.89.33,0,.53-.06.71-.13l.08.33c-.16.07-.44.16-.85.16-.79,0-1.26-.52-1.26-1.29s.46-1.38,1.2-1.38c.84,0,1.06.74,1.06,1.21,0,.1-.01.17-.02.22h-1.8ZM49.47,13.45c0-.3-.12-.76-.65-.76-.47,0-.68.43-.71.76h1.36ZM49.58,11.31l-.65.76h-.33l.47-.76h.51Z"/>
            <path class="cls-4" d="M52.71,11.22v3.1c0,.23,0,.49.02.66h-.42l-.02-.44h-.01c-.14.29-.46.5-.87.5-.62,0-1.09-.52-1.09-1.3,0-.85.52-1.38,1.15-1.38.39,0,.66.19.77.39h.01v-1.53h.47ZM52.24,13.46c0-.06,0-.14-.02-.2-.07-.3-.32-.54-.67-.54-.48,0-.77.42-.77.99,0,.52.25.95.76.95.31,0,.6-.21.68-.56.02-.06.02-.13.02-.2v-.44Z"/>
            <path class="cls-4" d="M53.74,13.78c.01.63.41.89.88.89.33,0,.53-.06.71-.13l.08.33c-.16.07-.44.16-.85.16-.79,0-1.26-.52-1.26-1.29s.46-1.38,1.2-1.38c.84,0,1.06.74,1.06,1.21,0,.1-.01.17-.02.22h-1.8ZM55.1,13.45c0-.3-.12-.76-.65-.76-.47,0-.68.43-.71.76h1.36Z"/>
            <path class="cls-4" d="M57.95,14.88c-.12.06-.39.15-.74.15-.77,0-1.28-.52-1.28-1.31s.54-1.36,1.38-1.36c.27,0,.52.07.65.13l-.11.36c-.11-.06-.29-.12-.54-.12-.59,0-.9.43-.9.97,0,.59.38.96.89.96.26,0,.44-.07.57-.13l.08.35Z"/>
            <path class="cls-4" d="M59.02,11.7c0,.16-.11.29-.3.29-.16,0-.28-.13-.28-.29s.12-.29.29-.29.29.13.29.29ZM58.5,14.98v-2.56h.47v2.56h-.47Z"/>
            <path class="cls-4" d="M59.73,13.11c0-.26,0-.48-.02-.69h.41l.03.42h.01c.13-.24.42-.48.85-.48.35,0,.9.21.9,1.09v1.53h-.47v-1.48c0-.41-.15-.76-.59-.76-.31,0-.54.22-.62.48-.02.06-.03.14-.03.22v1.54h-.47v-1.87Z"/>
            <path class="cls-4" d="M62.61,14.5c.14.09.38.19.61.19.34,0,.5-.17.5-.38,0-.22-.13-.34-.48-.47-.46-.16-.68-.42-.68-.73,0-.41.33-.75.88-.75.26,0,.49.07.63.16l-.12.34c-.1-.06-.29-.15-.52-.15-.27,0-.43.16-.43.35,0,.21.15.31.49.43.44.17.67.39.67.77,0,.45-.35.77-.96.77-.28,0-.54-.07-.72-.17l.12-.35Z"/>
            <path class="cls-4" d="M68.1,11.22v3.1c0,.23,0,.49.02.66h-.42l-.02-.44h-.01c-.14.29-.46.5-.87.5-.62,0-1.09-.52-1.09-1.3,0-.85.52-1.38,1.15-1.38.39,0,.66.19.77.39h.01v-1.53h.47ZM67.63,13.46c0-.06,0-.14-.02-.2-.07-.3-.32-.54-.67-.54-.48,0-.77.42-.77.99,0,.52.25.95.76.95.31,0,.6-.21.68-.56.02-.06.02-.13.02-.2v-.44Z"/>
            <path class="cls-4" d="M69.13,13.78c.01.63.41.89.88.89.33,0,.53-.06.71-.13l.08.33c-.16.07-.44.16-.85.16-.79,0-1.26-.52-1.26-1.29s.46-1.38,1.2-1.38c.84,0,1.06.74,1.06,1.21,0,.1-.01.17-.02.22h-1.8ZM70.49,13.45c0-.3-.12-.76-.65-.76-.47,0-.68.43-.71.76h1.36Z"/>
            <path class="cls-4" d="M72.66,11.41h.46v3.18h1.52v.39h-1.98v-3.57Z"/>
            <path class="cls-4" d="M75.65,11.7c0,.16-.11.29-.3.29-.16,0-.28-.13-.28-.29s.12-.29.29-.29.29.13.29.29ZM75.14,14.98v-2.56h.47v2.56h-.47Z"/>
            <path class="cls-4" d="M76.35,14.98c.01-.17.02-.43.02-.66v-3.1h.46v1.61h.01c.16-.29.46-.47.87-.47.64,0,1.09.53,1.08,1.31,0,.92-.58,1.37-1.15,1.37-.37,0-.67-.14-.86-.48h-.02l-.02.42h-.4ZM76.83,13.95c0,.06.01.12.02.17.09.32.36.54.7.54.49,0,.78-.4.78-.98,0-.51-.27-.95-.76-.95-.32,0-.61.22-.71.57-.01.05-.03.12-.03.19v.46Z"/>
            <path class="cls-4" d="M79.38,13.22c0-.3,0-.56-.02-.8h.41l.02.5h.02c.12-.34.4-.56.71-.56.05,0,.09,0,.13.02v.44s-.1-.02-.16-.02c-.33,0-.56.25-.62.6-.01.06-.02.14-.02.22v1.37h-.46v-1.76Z"/>
            <path class="cls-4" d="M81.32,13.78c.01.63.41.89.88.89.33,0,.53-.06.71-.13l.08.33c-.16.07-.44.16-.85.16-.79,0-1.26-.52-1.26-1.29s.46-1.38,1.2-1.38c.84,0,1.06.74,1.06,1.21,0,.1-.01.17-.02.22h-1.8ZM82.68,13.45c0-.3-.12-.76-.65-.76-.47,0-.68.43-.71.76h1.36Z"/>
            <path class="cls-4" d="M43.63,17.8c.25-.04.58-.07,1-.07.51,0,.89.11,1.13.3.22.17.35.43.35.75s-.11.58-.31.76c-.28.26-.72.39-1.23.39-.16,0-.3,0-.42-.03v1.43h-.52v-3.52ZM44.15,19.52c.11.03.26.04.43.04.63,0,1.01-.27,1.01-.76s-.38-.7-.95-.7c-.23,0-.4.02-.49.04v1.39Z"/>
            <path class="cls-4" d="M46.7,19.56c0-.3,0-.56-.02-.8h.46l.02.5h.02c.13-.34.45-.56.8-.56.06,0,.1,0,.15.02v.44c-.05-.01-.11-.02-.18-.02-.37,0-.63.25-.71.6-.01.06-.02.14-.02.22v1.37h-.52v-1.76Z"/>
            <path class="cls-4" d="M50.22,21.33l-.04-.32h-.02c-.16.2-.47.38-.88.38-.59,0-.88-.36-.88-.74,0-.62.62-.96,1.74-.95v-.05c0-.21-.07-.59-.66-.59-.27,0-.55.07-.75.19l-.12-.31c.24-.14.59-.23.95-.23.88,0,1.1.53,1.1,1.05v.96c0,.22.01.44.05.61h-.48ZM50.14,20.02c-.57-.01-1.23.08-1.23.58,0,.3.23.44.5.44.38,0,.62-.21.7-.43.02-.05.03-.1.03-.15v-.44Z"/>
            <path class="cls-4" d="M52.11,18.03v.74h.75v.35h-.75v1.38c0,.32.1.5.39.5.14,0,.24-.02.3-.03l.02.35c-.1.04-.26.06-.47.06-.25,0-.44-.07-.57-.2-.15-.14-.2-.36-.2-.67v-1.4h-.45v-.35h.45v-.61l.51-.12Z"/>
            <path class="cls-4" d="M54.04,18.05c0,.16-.13.29-.34.29-.18,0-.32-.13-.32-.29s.14-.29.33-.29.32.13.32.29ZM53.45,21.33v-2.56h.53v2.56h-.53Z"/>
            <path class="cls-4" d="M56.83,20.93h-.01c-.15.25-.48.46-.94.46-.67,0-1.23-.52-1.23-1.3,0-.96.7-1.38,1.31-1.38.45,0,.75.2.89.44h.01l.02-.39h.5c-.01.22-.02.44-.02.7v2.91h-.53v-1.44ZM56.83,19.8c0-.06,0-.14-.02-.2-.08-.29-.36-.53-.75-.53-.54,0-.87.41-.87.98,0,.51.27.95.86.95.34,0,.63-.19.75-.51.02-.06.04-.15.04-.22v-.48Z"/>
            <path class="cls-4" d="M60.64,20.63c0,.26,0,.5.02.7h-.47l-.03-.42h-.01c-.14.21-.44.48-.96.48-.45,0-1-.22-1-1.12v-1.5h.53v1.42c0,.49.17.81.64.81.35,0,.6-.22.69-.42.03-.07.05-.15.05-.24v-1.57h.53v1.86Z"/>
            <path class="cls-4" d="M61.8,20.13c.01.63.47.89.99.89.38,0,.6-.06.8-.13l.09.33c-.19.07-.5.16-.96.16-.89,0-1.42-.52-1.42-1.29s.51-1.38,1.36-1.38c.94,0,1.2.74,1.2,1.21,0,.1-.01.17-.02.22h-2.03ZM63.35,19.8c0-.3-.14-.76-.73-.76-.53,0-.76.43-.81.76h1.54Z"/>
            <path class="cls-4" d="M68.27,17.57v3.1c0,.23,0,.49.02.66h-.47l-.02-.44h-.01c-.16.29-.51.5-.99.5-.7,0-1.24-.52-1.24-1.3,0-.85.59-1.38,1.3-1.38.44,0,.74.19.87.39h.01v-1.53h.53ZM67.74,19.81c0-.06,0-.14-.02-.2-.08-.3-.36-.54-.76-.54-.54,0-.87.42-.87.99,0,.52.29.95.86.95.35,0,.67-.21.77-.56.02-.06.02-.13.02-.2v-.44Z"/>
            <path class="cls-4" d="M69.44,20.13c.01.63.47.89.99.89.38,0,.6-.06.8-.13l.09.33c-.19.07-.5.16-.96.16-.89,0-1.42-.52-1.42-1.29s.51-1.38,1.36-1.38c.94,0,1.2.74,1.2,1.21,0,.1-.01.17-.02.22h-2.03ZM70.98,19.8c0-.3-.14-.76-.73-.76-.53,0-.76.43-.81.76h1.54Z"/>
            <path class="cls-4" d="M73.35,20.77c.23.13.57.23.93.23.53,0,.84-.25.84-.61,0-.33-.22-.52-.76-.71-.66-.21-1.06-.51-1.06-1.01,0-.56.52-.97,1.3-.97.41,0,.71.08.89.17l-.14.38c-.13-.06-.4-.17-.76-.17-.55,0-.76.29-.76.53,0,.33.25.5.8.69.68.23,1.03.52,1.03,1.05,0,.55-.46,1.03-1.41,1.03-.39,0-.81-.1-1.03-.23l.13-.39Z"/>
            <path class="cls-4" d="M76.4,21.33v-2.21h-.41v-.35h.41v-.12c0-.36.09-.69.33-.89.2-.17.46-.24.71-.24.19,0,.35.04.45.07l-.07.36c-.08-.03-.18-.06-.33-.06-.45,0-.56.35-.56.74v.14h.7v.35h-.7v2.21h-.52Z"/>
            <path class="cls-4" d="M79.7,21.33l-.04-.32h-.02c-.16.2-.47.38-.88.38-.59,0-.88-.36-.88-.74,0-.62.62-.96,1.74-.95v-.05c0-.21-.07-.59-.66-.59-.27,0-.55.07-.75.19l-.12-.31c.24-.14.59-.23.95-.23.88,0,1.1.53,1.1,1.05v.96c0,.22.01.44.05.61h-.48ZM79.62,20.02c-.57-.01-1.23.08-1.23.58,0,.3.23.44.5.44.38,0,.62-.21.7-.43.02-.05.03-.1.03-.15v-.44Z"/>
            <path class="cls-4" d="M81.22,18.77l.41.55c.11.14.2.28.29.42h.02c.1-.15.19-.29.29-.42l.41-.54h.57l-.99,1.24,1.02,1.32h-.6l-.42-.58c-.11-.15-.21-.29-.31-.44h-.01c-.1.15-.2.29-.3.44l-.42.58h-.58l1.03-1.31-.98-1.25h.59Z"/>
          </g>
          <g class="cls-3">
            <path class="cls-4" d="M48.73,30.87h-1.54l-.49-1.19h-2.21l-.49,1.19h-1.54l2.56-5.84h1.15l2.56,5.84ZM46.25,28.59l-.25-.67-.39-1.16h-.04l-.38,1.14-.25.69h1.3Z"/>
            <path class="cls-4" d="M51.29,30.87h-1.6v-1.38h1.6v1.38Z"/>
            <path class="cls-4" d="M59.28,30.87h-1.57v-2.78h-.03s-.64,1.17-.64,1.17l-.48.82h-1.21l-.5-.86-.62-1.14-.03.03v2.76h-1.58v-5.84h1.42l.96,1.69.92,1.75h.04l.89-1.75.94-1.69h1.48v5.84Z"/>
            <path class="cls-4" d="M62.11,30.87h-1.6v-1.38h1.6v1.38Z"/>
            <path class="cls-4" d="M68.05,30.87h-4.66v-5.84h1.46v4.68h3.2v1.16Z"/>
            <path class="cls-4" d="M70.47,30.87h-1.6v-1.38h1.6v1.38Z"/>
            <path class="cls-4" d="M76.11,28.22c-.45.34-.99.52-1.62.52h-1.29v2.13h-1.46v-5.84h2.72c.7,0,1.26.17,1.68.51.43.34.64.79.64,1.37,0,.53-.22.97-.66,1.31ZM74.39,26.19h-1.18v1.39h1.22c.49,0,.87-.29.87-.7,0-.46-.3-.7-.91-.7Z"/>
            <path class="cls-4" d="M78.02,30.87h-1.6v-1.38h1.6v1.38Z"/>
            <path class="cls-4" d="M83.07,26.56c-.46-.26-1-.39-1.62-.39s-.87.25-.87.55c0,.18.09.31.27.39.18.08.56.16,1.12.23.6.08,1.03.22,1.42.49.39.26.62.69.62,1.26s-.27,1.03-.79,1.36c-.52.33-1.13.49-1.82.49-1.11,0-2-.27-2.69-.81l.84-.99c.52.41,1.16.61,1.92.61.61,0,1-.25,1-.58,0-.34-.18-.58-.9-.64-.69-.06-1.18-.18-1.68-.42s-.76-.7-.76-1.33c0-.58.23-1.02.68-1.33.46-.31,1-.47,1.6-.47.94,0,1.72.18,2.33.55l-.67,1.03Z"/>
          </g>
          <g>
            <path class="cls-4" d="M29.85,8.41c.14-.13.23-.21.28-.25.05-.03.09-.05.14-.05.1,0,.24.08.4.24.16.16.24.31.24.46,0,.1-.04.19-.11.27-.07.08-.13.12-.19.12-.03,0-.05-.02-.05-.06,0-.01,0-.04.01-.09.02-.11.02-.2.02-.26,0-.09-.02-.18-.05-.27-.03-.08-.07-.13-.1-.13-.04,0-.1.05-.2.14-.09.09-.14.17-.14.25s.03.19.09.35c.04.12.06.19.06.23,0,.03-.02.05-.05.05-.02,0-.07-.02-.15-.06-.08-.04-.12-.06-.13-.08s-.03-.07-.06-.14c-.12-.32-.27-.62-.46-.91-.05-.08-.08-.14-.08-.16,0-.03.02-.05.07-.05.1,0,.24.13.43.4Z"/>
            <path class="cls-4" d="M29.25,10.71v-.14c0-.41.31-.61.93-.61.05,0,.15,0,.3,0,.22,0,.37,0,.46,0,.21,0,.43,0,.67-.02.22.21.33.33.33.37,0,.02-.02.04-.05.04-.03,0-.1,0-.19,0l-.38-.02-.64-.03c-.14,0-.26,0-.34,0-.33,0-.49.09-.49.27v.11h-.6Z"/>
            <path class="cls-4" d="M29.84,10.67v1.41h-.6v-1.41h.6Z"/>
            <path class="cls-4" d="M29.84,12.05v1.41h-.6v-1.41h.6Z"/>
            <path class="cls-4" d="M28.65,14.03l-.28.27-.28-.27.27-.28.28.28ZM29.84,13.42v.08c0,.25.15.4.46.46.08.01.12.03.12.05,0,.03-.04.05-.12.06-.31.05-.46.2-.46.44v.1h-.6c0-.21.05-.36.15-.44.1-.08.21-.13.32-.16-.17-.05-.29-.12-.37-.2-.07-.09-.11-.22-.11-.39h.6Z"/>
            <path class="cls-4" d="M30.03,15.11c.48.55.71,1.02.71,1.41,0,.13-.04.24-.11.32-.07.08-.16.12-.26.12-.13,0-.28-.07-.45-.2s-.31-.3-.42-.49c-.11-.19-.18-.39-.21-.6-.03-.21-.05-.46-.05-.75v-.34h.6v.36c.14.04.3.06.46.06.29,0,.63-.06,1-.18.05-.01.07-.02.07-.02.03,0,.06.02.11.06l.28.23s.04.05.04.07c0,.02-.02.03-.05.05,0,0-.02,0-.02,0l-.49.2s-.05.02-.07.02c-.02,0-.03-.01-.03-.03,0-.03.02-.07.05-.13-.44,0-.83-.04-1.18-.13ZM30.37,16.18c0-.14-.05-.3-.14-.49-.09-.19-.22-.37-.38-.54,0,.01-.01.05-.01.11v.12c0,.35.01.61.04.79.03.18.06.3.1.34.04.05.08.07.12.07.07,0,.13-.04.19-.12s.08-.17.08-.28Z"/>
            <path class="cls-4" d="M31.38,17.49c.09.11.17.23.25.35s.11.19.11.21c0,.01-.01.02-.03.02l-2.08-.16c-.19-.01-.31-.03-.36-.04-.05-.01-.07-.03-.07-.06,0-.02.02-.04.05-.06s.29-.05.75-.1l1.38-.16ZM32.04,17.59c.02-.08.04-.13.06-.16.02-.03.05-.05.09-.05.09,0,.18.05.27.16s.14.19.14.26c0,.03-.02.06-.05.11-.04.04-.07.07-.09.07-.03,0-.05-.04-.05-.13-.01-.18-.05-.26-.12-.26-.06,0-.09.07-.09.21,0,.04.01.1.04.18.02.06.03.1.03.12,0,.03,0,.04-.03.04-.01,0-.04-.01-.09-.04-.05-.02-.08-.04-.09-.06-.01-.01-.02-.04-.04-.08-.08-.21-.17-.38-.26-.49-.02-.03-.03-.05-.03-.06,0-.02.01-.04.04-.04.07,0,.16.08.26.23Z"/>
            <path class="cls-4" d="M30.7,20.09c.12-.02.2-.03.22-.03.03,0,.1.04.22.13s.18.14.18.16c0,.02-.08.04-.25.06l-.6.08c-.26.04-.42.08-.5.12-.08.05-.12.11-.12.2v.07h-.6v-.12c0-.18.05-.31.14-.39.09-.08.25-.14.46-.18l-.13-.08c-.08-.05-.13-.09-.13-.11,0-.03.03-.13.08-.31.05-.17.1-.27.13-.3.03-.03.07-.04.11-.04.04,0,.1.01.19.04s.16.06.22.11c.06.05.19.24.38.58ZM30.16,19.64c-.08.13-.13.31-.17.55.26-.05.42-.07.49-.07-.12-.21-.22-.37-.31-.48ZM31.87,19.6l-.25.25.25.25-.28.27-.28-.27.26-.25-.26-.25.28-.27.28.27Z"/>
            <path class="cls-4" d="M29.02,21.23l-.27.25.26.25-.28.24-.28-.24.26-.25-.26-.24.27-.25.28.25ZM29.84,20.86v.08c0,.25.15.4.46.46.08.01.12.03.12.05,0,.03-.04.05-.12.06-.31.05-.46.2-.46.44v.1h-.6c0-.21.05-.36.15-.44.1-.08.21-.13.32-.16-.17-.05-.29-.12-.37-.2-.07-.09-.11-.22-.11-.39h.6Z"/>
            <path class="cls-4" d="M30.09,22.59c.11-.11.2-.23.28-.36.03-.05.05-.08.06-.08.05,0,.12.05.21.16.09.11.14.27.14.49,0,.14-.03.26-.08.35-.05.1-.13.14-.23.14-.07,0-.14-.03-.19-.09s-.12-.17-.2-.33c-.17.16-.25.35-.25.56h-.6v-.04c0-.16.04-.29.13-.39.09-.1.23-.19.42-.27-.18-.07-.32-.15-.41-.26-.09-.11-.14-.22-.14-.34v-.11h.6s0,.03,0,.04c0,.19.08.37.25.53Z"/>
            <path class="cls-4" d="M29.84,23.4c0,.12.01.21.04.28.02.07.06.12.1.13.04.02.11.03.19.04.12,0,.22.03.3.06.08.03.15.09.21.17.06.08.09.17.09.28,0,.08-.03.17-.09.25-.06.08-.21.19-.43.31-.12.06-.2.11-.25.16-.05.04-.09.1-.12.17s-.04.16-.04.26h-.6v-.13c0-.18.11-.32.33-.42-.13-.07-.23-.14-.28-.2s-.08-.13-.08-.23c0-.22.15-.4.46-.56-.18-.1-.29-.19-.34-.27s-.07-.18-.08-.3h.6ZM30.5,24.38c0-.06-.02-.1-.06-.14-.04-.03-.09-.05-.14-.05-.07,0-.16.02-.28.07s-.21.11-.27.19-.09.15-.09.22c0,.09.05.13.14.13.07,0,.17-.03.31-.08.14-.06.23-.11.29-.17.06-.06.09-.12.09-.17Z"/>
            <path class="cls-4" d="M28.64,26.87l-.28.28-.28-.28.28-.28.28.28ZM30.16,27.03c.06-.2.13-.41.22-.64.06-.17.1-.28.1-.35,0-.09-.05-.17-.16-.26-.05-.04-.07-.07-.07-.08,0-.03.02-.04.05-.04.06,0,.19.05.37.17.18.11.27.24.27.4,0,.09-.04.23-.11.42-.19.47-.31.91-.36,1.32-.01.1-.03.15-.05.15,0,0-.02,0-.05-.02l-.29-.15c-.05-.03-.08-.05-.08-.08,0-.01,0-.03,0-.06,0-.03,0-.04,0-.06,0-.08-.02-.17-.05-.27-.03-.1-.11-.25-.23-.45-.19-.31-.31-.55-.37-.73s-.09-.41-.09-.68v-.14h.6c0,.35.02.64.07.85.05.22.13.46.24.72Z"/>
          </g>
          <g>
            <g>
              <path class="cls-4" d="M7.02,24.3c.09-.02.16-.03.22-.03.33,0,.6.11.8.32.2.21.3.52.3.93,0,.36-.07.62-.22.8-.14.18-.35.26-.61.26-.2,0-.38-.03-.55-.09-.16-.06-.25-.11-.25-.16,0-.02.02-.03.06-.03.01,0,.05,0,.12.02.14.04.25.05.31.05.37,0,.55-.29.55-.87,0-.34-.05-.61-.14-.8-.09-.2-.2-.29-.33-.29s-.32.13-.6.38c-.07.06-.1.09-.11.09,0,0-.03-.01-.07-.04-.08-.05-.17-.1-.25-.14-.08-.04-.12-.07-.12-.08,0,0,.02-.02.05-.05.24-.2.36-.37.36-.49s-.09-.2-.27-.24c-.06-.01-.1-.03-.1-.06,0-.03.03-.04.1-.06.18-.03.27-.11.27-.25,0-.05-.02-.1-.06-.14-.04-.05-.11-.08-.21-.1-.06,0-.09-.03-.09-.05,0-.03.03-.05.09-.06.11-.02.19-.06.23-.12s.06-.11.06-.15v-.08h.56v.04c0,.12-.08.22-.23.3.15.07.23.16.23.3s-.08.24-.23.32c.16.06.23.16.23.29,0,.1-.04.2-.11.28Z"/>
              <path class="cls-4" d="M7.52,26.59c-.2,0-.38-.03-.55-.09-.16-.06-.25-.11-.25-.16,0-.02.02-.03.06-.03.01,0,.05,0,.12.02.14.03.25.05.31.05.37,0,.55-.29.55-.87,0-.34-.05-.61-.14-.8-.09-.19-.2-.29-.33-.29s-.32.13-.6.38c-.07.06-.1.09-.11.09,0,0-.02-.01-.07-.04-.09-.05-.17-.1-.25-.14-.08-.05-.12-.07-.12-.08,0,0,.02-.02.05-.05.24-.2.36-.37.36-.49s-.09-.2-.27-.24c-.06-.01-.1-.03-.1-.06,0-.03.03-.04.1-.06.18-.03.27-.11.27-.25,0-.05-.02-.1-.06-.14-.04-.05-.11-.08-.21-.09-.06,0-.09-.03-.09-.05,0-.03.03-.05.09-.06.11-.02.19-.06.23-.12s.06-.11.06-.15v-.08h.56s0,.04,0,.04c0,.12-.08.22-.23.3.15.07.23.17.23.3s-.08.24-.23.32c.15.06.23.16.23.29,0,.1-.04.2-.11.28.09-.02.16-.03.22-.03.33,0,.6.11.8.32.2.21.3.53.3.93,0,.35-.07.62-.22.8-.14.18-.35.26-.61.26ZM6.78,26.31s-.05.01-.05.03c0,.04.08.1.25.16.16.06.35.09.55.09.26,0,.47-.09.61-.26.14-.18.22-.44.22-.8,0-.4-.1-.72-.3-.93-.2-.21-.47-.32-.8-.32-.06,0-.14,0-.22.03h0,0c.07-.08.11-.18.11-.28,0-.13-.08-.23-.23-.29.15-.08.23-.19.23-.32s-.08-.23-.23-.3c.15-.08.23-.18.23-.3v-.04h-.56s0,.08,0,.08c0,.05-.02.1-.06.15-.04.06-.12.1-.23.12-.06.01-.09.03-.09.06,0,.02.03.04.09.05.1.02.17.05.21.1.04.05.06.1.06.14,0,.13-.09.21-.27.25-.07.01-.1.03-.1.06,0,.03.03.05.09.06.18.04.27.12.27.24s-.12.29-.36.49c-.05.04-.05.05-.05.05,0,0,.04.03.12.08.08.04.16.09.25.14.04.03.07.04.07.04,0,0,.05-.03.11-.09.27-.25.48-.38.6-.38s.24.1.33.29c.09.19.14.46.14.8,0,.58-.19.87-.55.87-.07,0-.17-.02-.31-.05-.07-.02-.11-.02-.12-.02Z"/>
            </g>
            <g>
              <path class="cls-4" d="M4.77,22.64l-.26-.25.25-.24-.25-.24.27-.26.26.26-.24.24.24.24-.27.25ZM6.33,21.81c.01.11.02.23.02.35,0,.2-.02.33-.06.4s-.12.1-.24.1c-.19,0-.38-.04-.57-.13-.19-.08-.28-.21-.28-.37,0-.12.08-.25.23-.37.15-.12.4-.19.74-.19.28,0,.52.09.69.26.18.17.27.43.27.78v.17h-.56v-.18c0-.55-.08-.82-.24-.82ZM5.89,21.92c-.07.03-.13.08-.18.14s-.07.13-.07.2.02.11.05.15.07.05.11.05c.05,0,.08-.03.09-.08.01-.05.02-.13.02-.22,0-.1,0-.18-.01-.23Z"/>
              <path class="cls-4" d="M6.57,22.81v-.18c0-.54-.08-.82-.24-.82.01.11.02.23.02.35,0,.19-.02.33-.06.4s-.12.1-.24.1c-.19,0-.38-.04-.57-.13-.18-.08-.28-.21-.28-.37,0-.12.08-.25.23-.37.15-.12.4-.19.74-.19.28,0,.52.09.69.26.18.17.27.43.27.78v.17h-.56ZM6.33,21.81h0c.16,0,.24.28.24.82v.18h.56s0-.17,0-.17c0-.35-.09-.61-.27-.78s-.41-.26-.69-.26c-.34,0-.59.06-.74.19-.15.12-.23.25-.23.37,0,.17.09.29.28.37.18.08.37.12.57.12.12,0,.2-.03.24-.1.04-.07.06-.2.06-.4,0-.12,0-.24-.02-.35h0ZM4.77,22.64h0s-.26-.25-.26-.25l.25-.24-.25-.24.27-.26.26.26-.24.24.24.24-.27.25ZM4.77,21.65l-.27.26.25.24-.25.24.26.25.27-.25-.24-.24.24-.24-.26-.26ZM5.8,22.46s-.07-.02-.11-.05c-.03-.03-.05-.08-.05-.15s.02-.13.07-.2c.05-.06.11-.11.18-.14h0s0,0,0,0c0,.05.01.13.01.23s0,.17-.02.22c-.01.05-.04.08-.09.08ZM5.89,21.92c-.07.03-.14.08-.18.14-.05.06-.07.13-.07.2s.02.11.05.15c.03.03.07.05.11.05.05,0,.08-.03.09-.08s.02-.13.02-.22,0-.18-.01-.23Z"/>
            </g>
            <g>
              <path class="cls-4" d="M7.13,20.5v.13c0,.38-.29.57-.87.57-.04,0-.14,0-.28,0-.2,0-.35,0-.44,0-.19,0-.4,0-.63.02-.21-.2-.31-.31-.31-.35,0-.02.02-.04.05-.04s.09,0,.18,0l.36.02.6.03c.14,0,.24,0,.32,0,.31,0,.47-.09.47-.26v-.1h.56Z"/>
              <path class="cls-4" d="M4.91,21.21c-.2-.2-.31-.31-.31-.35,0-.02.02-.04.05-.04.03,0,.09,0,.18,0l.36.02.6.03c.14,0,.24,0,.32,0,.31,0,.47-.09.47-.26v-.1s.56,0,.56,0v.13c0,.38-.29.57-.87.57-.04,0-.14,0-.28,0-.2,0-.35,0-.44,0-.19,0-.4,0-.63.02ZM4.82,20.81c-.08,0-.14,0-.18,0-.03,0-.05.02-.05.04,0,.04.1.16.31.35.22-.01.44-.02.63-.02.09,0,.24,0,.44,0,.14,0,.24,0,.28,0,.58,0,.87-.19.87-.57v-.13h-.56v.1c0,.17-.16.26-.47.26-.08,0-.19,0-.32,0l-.96-.04Z"/>
            </g>
            <g>
              <path class="cls-4" d="M5.27,19.8l-.26.26-.26-.26.26-.25.26.25ZM6.57,20.24c-.12.1-.21.15-.26.15-.06,0-.16-.04-.29-.12-.13-.08-.22-.16-.28-.25s-.09-.18-.09-.29c0-.13.05-.22.15-.29.1-.06.21-.1.33-.1.16,0,.31.05.44.16v-.31h.56v.1c0,.21-.07.4-.22.57.14.18.22.36.22.54v.12h-.56v-.29ZM6.52,19.86c-.07-.22-.14-.33-.22-.33-.05,0-.1.04-.16.11-.06.07-.09.16-.09.25,0,.07.02.14.06.21.04.07.08.11.12.11.03,0,.08-.03.14-.1.06-.07.11-.15.15-.25Z"/>
              <path class="cls-4" d="M6.57,20.54v-.29c-.12.1-.21.15-.26.15-.06,0-.16-.04-.29-.12-.13-.08-.22-.16-.28-.25-.06-.09-.09-.18-.09-.29,0-.13.05-.23.15-.29.1-.06.21-.1.33-.1.16,0,.31.05.44.16v-.31s.56,0,.56,0v.1c0,.21-.07.4-.22.57.14.17.22.36.22.54v.12h-.56ZM6.57,20.24v.29h.56s0-.12,0-.12c0-.19-.07-.37-.22-.54.14-.16.22-.35.22-.57v-.1h-.56s0,.31,0,.31c-.14-.1-.29-.16-.44-.16-.12,0-.23.03-.33.1-.1.06-.15.16-.15.29,0,.11.03.2.09.29.06.09.15.17.28.25.13.08.22.12.28.12.06,0,.14-.05.26-.15h0ZM6.23,20.21s-.08-.04-.12-.11c-.04-.07-.06-.14-.06-.21,0-.1.03-.18.09-.25.06-.07.11-.11.16-.11.08,0,.16.11.22.33h0c-.04.1-.09.18-.15.25-.06.07-.11.1-.14.1ZM6.29,19.53s-.1.04-.16.11c-.06.07-.09.16-.09.25,0,.07.02.14.06.21.04.07.08.11.12.11.03,0,.08-.03.14-.1.06-.07.11-.15.15-.25-.07-.22-.14-.33-.22-.33ZM5.01,20.06l-.26-.26.26-.25.26.25-.26.26ZM5.01,19.54l-.26.25.26.26.26-.26-.26-.25Z"/>
            </g>
            <g>
              <path class="cls-4" d="M6.55,18.55c-.6-.53-.9-.99-.9-1.36,0-.14.04-.24.12-.32s.18-.11.32-.11c.21,0,.44.13.68.38.24.25.36.59.36,1.02,0,.3-.07.52-.22.66.15.09.22.2.22.34v.07h-.56v-.09c0-.12-.09-.21-.28-.27-.07-.02-.1-.04-.1-.07s.05-.05.15-.08c.1-.03.17-.09.21-.18ZM6.08,17.54c0,.26.17.53.5.82,0-.13.01-.25.01-.36,0-.27-.02-.49-.05-.67-.04-.18-.09-.27-.15-.27-.07,0-.14.05-.21.14-.07.09-.1.21-.1.33Z"/>
              <path class="cls-4" d="M6.57,19.24v-.09c0-.12-.1-.21-.28-.27-.07-.02-.1-.04-.1-.07s.05-.05.15-.08c.1-.03.17-.09.21-.18-.6-.53-.9-.99-.9-1.36,0-.13.04-.24.12-.32.08-.08.19-.11.32-.11.21,0,.44.13.68.38.24.25.36.6.36,1.02,0,.3-.07.53-.22.66.15.09.22.2.22.34v.07h-.56ZM6.09,16.76c-.14,0-.25.04-.32.11-.08.08-.12.18-.12.32,0,.37.3.83.9,1.36h0c-.03.09-.1.15-.21.18-.1.03-.15.05-.15.08,0,.02.03.05.1.07.19.06.28.15.28.27v.09h.56s0-.07,0-.07c0-.14-.07-.26-.22-.34.14-.14.22-.36.22-.66,0-.43-.12-.77-.36-1.02-.24-.25-.47-.38-.68-.38ZM6.58,18.36c-.33-.29-.5-.57-.5-.82,0-.13.03-.24.1-.33.07-.09.14-.14.21-.14.06,0,.12.09.15.27.03.18.05.4.05.67,0,.11,0,.23-.01.36ZM6.39,17.07c-.07,0-.14.05-.21.14-.07.09-.1.21-.1.33,0,.26.17.53.5.82,0-.13.01-.25.01-.36,0-.27-.02-.49-.05-.67-.03-.18-.09-.27-.15-.27Z"/>
            </g>
            <g>
              <path class="cls-4" d="M4.66,15.39l.24-.24-.24-.24.26-.26.26.26-.25.24.25.24-.26.26-.26-.26ZM5.77,14.93c-.12.02-.19.02-.21.02-.03,0-.1-.04-.21-.13-.11-.08-.17-.13-.17-.15,0-.02.08-.04.23-.06l.57-.08c.24-.03.4-.07.48-.12.08-.04.11-.11.11-.19v-.07h.56v.11c0,.17-.04.29-.13.37-.09.07-.23.13-.44.17l.13.08c.08.05.12.08.12.11,0,.03-.03.13-.08.29s-.09.26-.12.29-.06.04-.1.04c-.04,0-.09-.01-.18-.03s-.15-.06-.21-.1c-.06-.05-.18-.23-.36-.54ZM6.27,15.35c.07-.12.13-.29.16-.52-.25.05-.4.07-.46.07.11.2.21.35.3.45Z"/>
              <path class="cls-4" d="M4.92,15.65l-.26-.26.24-.24-.24-.24.26-.26.26.26-.25.24.25.24-.26.26ZM4.66,15.39l.26.26.26-.26-.25-.24.25-.24-.26-.26-.26.26.24.24-.24.24ZM6.52,15.61s-.09-.01-.18-.03c-.08-.02-.15-.06-.21-.1-.06-.05-.18-.22-.36-.54-.11.02-.18.02-.21.02s-.1-.04-.21-.13c-.11-.08-.17-.13-.17-.15,0-.02.08-.04.23-.06l.57-.08c.24-.03.4-.07.48-.12.08-.04.11-.11.11-.19v-.07h.56s0,.11,0,.11c0,.17-.05.29-.13.37-.09.07-.24.13-.44.17l.13.08c.08.05.12.08.12.11,0,.03-.03.13-.08.29-.05.16-.09.26-.12.29-.03.03-.06.04-.1.04ZM5.77,14.93h0c.18.32.3.5.36.54.06.05.13.08.21.1.08.02.14.03.18.03.04,0,.07-.01.1-.04s.07-.12.12-.29.08-.26.08-.29c0-.02-.04-.06-.12-.11l-.13-.08c.2-.04.35-.1.44-.17s.13-.2.13-.37v-.11h-.56s0,.07,0,.07c0,.08-.04.15-.11.19-.08.04-.24.08-.48.12l-.57.08c-.15.02-.23.04-.23.06,0,.02.05.06.17.15.11.08.18.13.21.13s.1,0,.21-.02h0ZM6.27,15.35h0c-.09-.1-.19-.25-.3-.45.06,0,.21-.02.46-.07-.04.23-.09.4-.16.52h0ZM6.44,14.83c-.25.05-.4.07-.46.07.11.2.21.35.3.45.07-.12.13-.29.16-.52Z"/>
            </g>
            <g>
              <path class="cls-4" d="M5.71,13.72c-.07-.04-.1-.07-.12-.08-.01-.01-.02-.02-.02-.04,0-.02.07-.07.22-.14.15-.07.32-.11.51-.11.55,0,.83.25.83.74v.1h-.56v-.1c0-.35-.05-.53-.14-.53-.06,0-.19.1-.39.3-.02.02-.04.03-.05.03,0,0-.03,0-.05-.03l-.23-.15ZM7.36,13.86l.25-.23-.25-.22.26-.24.26.24-.24.23.24.22-.26.24-.26-.24Z"/>
              <path class="cls-4" d="M6.57,14.2v-.1c0-.35-.05-.53-.14-.53-.06,0-.19.1-.39.3-.02.02-.04.03-.05.03,0,0-.03,0-.05-.03l-.23-.15c-.07-.05-.11-.07-.12-.08-.01-.01-.02-.02-.02-.04,0-.02.07-.07.22-.14.15-.07.32-.11.51-.11.55,0,.83.25.83.74v.1h-.56ZM6.43,13.57c.09,0,.14.18.14.53v.1h.56s0-.1,0-.1c0-.49-.28-.74-.83-.74-.19,0-.36.04-.51.11-.15.07-.22.12-.22.14,0,.02,0,.03.02.04.01,0,.05.03.12.08l.23.15s.04.03.05.03c.01,0,.03,0,.05-.03.2-.2.33-.3.39-.3ZM7.62,14.09l-.27-.24h0l.25-.23-.25-.22.26-.24.27.24-.24.23.24.22-.26.24ZM7.36,13.86l.26.24.26-.24-.24-.22.24-.23-.26-.24-.26.24.25.22-.25.23Z"/>
            </g>
            <g>
              <path class="cls-4" d="M5.43,12.67c.1.02.15.05.15.07,0,.02-.03.05-.09.09l-.2.12-.04.02s-.07.04-.08.04-.13-.05-.36-.14c0,0-.02,0-.03-.01-.06-.02-.1-.05-.1-.07,0-.04.15-.18.44-.43.3-.25.65-.46,1.05-.63-.19-.14-.39-.21-.61-.21-.12,0-.26.02-.41.06-.04.01-.07.02-.08.02-.03,0-.09-.03-.17-.08l-.13-.09s-.02,0-.03-.02c-.04-.02-.06-.04-.06-.05,0-.02.03-.04.08-.08.03-.02.05-.03.07-.05l.25-.17h.02s.08-.06.09-.06c.02,0,.02.02.02.05,0,.03,0,.07-.02.13.45.01.83.18,1.14.5.13-.04.23-.07.33-.07.12,0,.21.03.28.09.07.06.13.16.18.31.05.15.07.33.07.53,0,.08,0,.14-.01.17,0,.03-.03.04-.07.04-.02,0-.08-.02-.2-.07-.13-.05-.22-.08-.29-.11-.09-.27-.19-.48-.29-.64-.4.24-.71.5-.92.76ZM6.49,11.84c.09.15.18.33.27.56.01-.04.02-.11.02-.21,0-.12-.01-.22-.03-.31s-.05-.13-.07-.13c-.05,0-.12.03-.19.08Z"/>
              <path class="cls-4" d="M5.18,13.01s-.13-.05-.36-.14c0,0-.02,0-.03-.01-.06-.02-.1-.05-.1-.07,0-.04.15-.18.44-.43.29-.25.65-.46,1.05-.63-.18-.14-.39-.21-.61-.21-.12,0-.26.02-.41.06-.04.01-.07.02-.08.02-.03,0-.09-.03-.17-.08l-.13-.09s-.02,0-.03-.02c-.04-.02-.06-.04-.06-.05,0-.02.03-.04.08-.08h.01s.05-.04.06-.05l.26-.19s.08-.05.09-.05c.02,0,.02.02.02.05,0,.03,0,.07-.02.13.45.01.83.18,1.14.5.12-.04.23-.07.32-.07.12,0,.21.03.28.09.07.06.13.16.18.31.05.15.07.33.07.53,0,.08,0,.14-.01.17,0,.03-.03.04-.07.04-.02,0-.08-.02-.2-.07-.12-.05-.22-.08-.29-.11-.09-.27-.19-.48-.29-.64-.4.24-.71.5-.92.76.1.02.15.05.15.07,0,.02-.03.05-.09.09l-.2.12-.04.02s-.07.04-.08.04ZM5.57,11.52c.22,0,.42.07.61.21-.4.17-.76.38-1.05.63-.3.25-.44.39-.44.43,0,.02.03.05.1.07.02,0,.03,0,.03.01.23.09.35.14.36.14s.04-.01.08-.04l.04-.02.2-.12c.06-.04.09-.07.09-.09,0-.03-.05-.05-.15-.07h0,0c.21-.26.52-.52.92-.76.1.15.2.37.29.64.07.02.17.06.29.11.11.04.18.07.2.07.03,0,.06-.01.07-.04,0-.03.01-.08.01-.17,0-.2-.02-.38-.07-.53-.05-.15-.11-.25-.18-.31-.07-.06-.16-.09-.28-.09-.09,0-.2.02-.33.07-.31-.32-.69-.49-1.14-.5.01-.06.02-.1.02-.13,0-.03,0-.05-.02-.05-.02,0-.05.02-.09.05h-.02s-.25.19-.25.19c-.02.01-.04.03-.06.04h-.01c-.06.04-.08.07-.08.08,0,.02.02.03.06.05.01,0,.02.02.03.02l.13.09c.08.06.14.08.17.08.01,0,.04,0,.08-.02.15-.04.29-.06.41-.06ZM6.76,12.4c-.09-.23-.18-.42-.27-.56h0c.07-.06.14-.08.19-.08.02,0,.05.04.07.13.02.09.03.19.03.31,0,.1,0,.17-.02.21ZM6.49,11.84c.09.15.18.34.27.56.01-.04.02-.11.02-.21,0-.12-.01-.22-.03-.31-.02-.09-.05-.13-.07-.13-.05,0-.12.03-.19.08Z"/>
            </g>
            <g>
              <path class="cls-4" d="M7.13,9.74c0,.39-.03.65-.08.77-.05.12-.14.18-.27.18-.16,0-.37-.06-.64-.17-.27-.11-.4-.25-.4-.41,0-.29.28-.48.84-.56v-.43h.56v.45c.19.03.37.07.53.13.17.06.3.13.41.21.11.08.18.14.21.17.03.04.04.08.04.12,0,.19-.01.37-.03.55-.02.18-.05.27-.08.27-.03,0-.09-.1-.17-.3-.08-.2-.21-.41-.38-.63s-.35-.34-.54-.35ZM6.57,9.83c-.22.11-.34.25-.34.41,0,.06.02.12.07.16.05.04.09.07.13.07.09,0,.14-.14.14-.43v-.2Z"/>
              <path class="cls-4" d="M8.21,11.02s-.09-.1-.17-.3c-.08-.2-.21-.41-.38-.63-.17-.22-.35-.34-.54-.35,0,.39-.03.65-.08.77-.05.12-.14.19-.28.19-.16,0-.38-.06-.64-.17-.27-.11-.4-.25-.4-.41,0-.29.28-.48.84-.56v-.43s.56,0,.56,0v.45c.19.03.37.07.53.13.16.06.3.13.41.21.11.08.18.14.21.17.03.04.04.08.04.12,0,.19-.01.37-.03.55-.02.18-.05.27-.08.27ZM7.13,9.74h0c.19,0,.37.12.54.35.17.22.3.43.38.63.08.2.14.3.17.3.03,0,.06-.09.08-.27.02-.18.03-.36.03-.55,0-.04-.01-.08-.04-.12s-.09-.09-.21-.17c-.11-.08-.25-.15-.41-.21-.16-.06-.34-.1-.53-.13v-.45s-.56,0-.56,0v.43c-.56.08-.84.27-.84.56,0,.16.13.3.4.41.26.11.48.17.64.17.13,0,.22-.06.27-.18.05-.12.08-.38.08-.77h0ZM6.43,10.46s-.08-.02-.13-.07c-.05-.04-.07-.1-.07-.16,0-.16.11-.3.34-.41h0s0,.2,0,.2c0,.29-.05.43-.14.43ZM6.57,9.83c-.22.11-.34.25-.34.41,0,.06.02.12.07.16.05.04.09.07.13.07.09,0,.14-.15.14-.43v-.2Z"/>
            </g>
            <g>
              <path class="cls-4" d="M5.71,8.7c-.07-.04-.1-.07-.12-.08-.01-.01-.02-.02-.02-.04,0-.02.07-.07.22-.14.15-.07.32-.11.51-.11.55,0,.83.25.83.74v.1h-.56v-.1c0-.35-.05-.53-.14-.53-.06,0-.19.1-.39.3-.02.02-.04.03-.05.03,0,0-.03,0-.05-.03l-.23-.15ZM7.46,8.69l.26-.26.26.26-.26.26-.26-.26Z"/>
              <path class="cls-4" d="M6.57,9.17v-.1c0-.35-.05-.53-.14-.53-.06,0-.19.1-.39.3-.02.02-.04.03-.05.03,0,0-.03,0-.05-.03l-.23-.15c-.07-.05-.11-.07-.12-.08-.01-.01-.02-.02-.02-.04,0-.02.07-.07.22-.14.15-.07.32-.11.51-.11.55,0,.83.25.83.74v.1h-.56ZM6.43,8.54c.09,0,.14.18.14.53v.1h.56s0-.1,0-.1c0-.49-.28-.74-.83-.74-.19,0-.36.04-.51.11-.15.07-.22.12-.22.14,0,.02,0,.03.02.04.01,0,.05.03.12.08l.23.15s.04.03.05.03c.01,0,.03,0,.05-.03.2-.2.33-.3.39-.3ZM7.73,8.95l-.26-.26.26-.26.26.26-.26.26ZM7.46,8.69l.26.26.26-.26-.26-.26-.26.26Z"/>
            </g>
          </g>
          <g>
            <path class="cls-4" d="M7,5.08c.14.02.21.04.35.06.05-.13.08-.2.13-.33.15.03.23.05.37.08-.06.14-.09.21-.14.35-.14-.03-.21-.04-.35-.07-.05.13-.07.2-.12.33-.15-.03-.23-.04-.38-.06.05-.14.08-.22.13-.36ZM7.96,5.73c-.07-.09-.11-.14-.12-.16-.01-.02,0-.1.03-.24.03-.14.06-.21.07-.22.02,0,.07.04.16.16.13.17.19.26.32.43.14.18.24.3.32.34.07.04.15.04.23,0,.03-.01.04-.02.07-.03.09.19.14.28.23.47-.04.02-.06.03-.1.05-.16.08-.29.1-.39.06-.11-.04-.22-.13-.35-.28,0,.06,0,.09-.02.14-.01.09-.03.14-.05.15-.03.01-.13.04-.3.09-.17.04-.28.06-.32.05-.04,0-.07-.03-.08-.06-.02-.03-.03-.08-.05-.16-.02-.08-.02-.15,0-.23.02-.07.13-.27.35-.58ZM7.78,6.37c.14,0,.33-.05.56-.14-.15-.18-.24-.29-.27-.34-.14.19-.24.36-.29.48Z"/>
            <path class="cls-4" d="M9.64,5.7c.28-.74.64-1.19,1.02-1.34.14-.05.26-.06.36-.02.1.04.17.12.22.25.07.19,0,.43-.16.74-.17.3-.45.53-.85.71-.28.12-.52.16-.71.1-.02.16-.1.28-.23.34-.03.01-.04.02-.07.03-.09-.19-.14-.28-.23-.47.03-.02.05-.03.09-.04.11-.06.16-.17.14-.36,0-.07,0-.11.02-.12.02-.01.07.02.14.1.07.07.15.11.26.09ZM10.46,4.88c-.26.1-.47.36-.62.77.13-.05.24-.1.35-.14.26-.11.47-.21.63-.31.16-.1.23-.17.21-.23-.02-.06-.09-.11-.21-.13-.12-.02-.24-.01-.36.04Z"/>
            <path class="cls-4" d="M12.65,5.16c-.05.01-.08.02-.13.04-.37.11-.64-.08-.81-.6-.01-.04-.04-.12-.08-.25-.05-.18-.09-.31-.12-.39-.06-.17-.12-.36-.21-.55.15-.25.25-.38.29-.4.02,0,.04,0,.06.03.01.03.03.08.06.16.03.13.05.2.08.33.06.22.08.33.14.54.03.12.06.22.08.29.09.28.21.39.38.34.04-.01.06-.02.1-.03.06.2.09.3.15.51Z"/>
            <path class="cls-4" d="M15.56,2.76s.01.1.03.18c0,.05.02.09.02.11.02.14.03.22.05.36.05.41.04.7-.03.87-.07.17-.21.28-.4.31-.27.04-.48.07-.61.06-.13,0-.23-.05-.3-.13-.07-.08-.12-.18-.14-.31,0,0,0-.05-.02-.13-.16.16-.23.25-.38.42-.12.13-.23.23-.33.31-.1.08-.22.15-.35.21-.14.06-.29.11-.47.17-.06-.2-.09-.3-.15-.51.07-.02.11-.03.18-.05.16-.05.32-.11.49-.18s.41-.25.76-.52c-.3,0-.45,0-.76,0-.14,0-.23,0-.27.02-.09.02-.17.09-.23.21-.03.05-.05.09-.07.09-.03,0-.05,0-.05-.03-.02-.05,0-.17.07-.36.06-.18.19-.3.36-.35.09-.02.23-.03.42-.02.5.02.96,0,1.39-.04.04,0,.07,0,.08,0,.01,0,.02,0,.02.02,0,.01,0,.03-.01.06-.04.11-.06.17-.1.28,0,0,0,.01,0,.02,0,.02-.01.04-.02.04,0,0-.03.01-.07.02-.03,0-.09.01-.17.02-.05,0-.08,0-.1.01-.08.02-.11.05-.1.11.02.09.11.13.28.13.17,0,.35-.02.56-.06.25-.04.36-.13.34-.29-.01-.1-.07-.28-.17-.55-.09-.24-.13-.35-.23-.59,0-.01,0-.03.03-.06.07-.1.1-.14.17-.24.05-.07.09-.11.11-.11.03,0,.05.01.07.05.02.04.05.08.07.11.08.12.12.19.19.31.01.02.02.03.02.04,0,.02,0,.02-.02.03-.02,0-.05,0-.1-.01-.02,0-.04,0-.04,0ZM13.47,2.68c.13.07.2.11.32.18-.09.12-.13.18-.21.3-.13-.07-.2-.1-.33-.17.09-.12.13-.19.22-.31Z"/>
            <path class="cls-4" d="M16.16,2.41c.33-.28.52-.41.57-.41.02,0,.02,0,.03.03,0,.21,0,.32,0,.54,0,.57-.01.86-.01,1.43,0,.17,0,.28-.01.32,0,.04-.02.07-.05.07-.02,0-.04-.01-.06-.04-.02-.03-.07-.26-.17-.69-.11-.5-.17-.74-.28-1.24Z"/>
            <path class="cls-4" d="M20.74,3.11s.02-.03.04-.06c.04-.07.07-.1.09-.1.02,0,.05.03.1.1.05.06.1.15.14.25.04.1.05.22.03.35-.03.28-.17.49-.39.66-.22.17-.68.21-1.38.18-.5-.02-.84-.08-1.03-.2-.19-.12-.29-.31-.3-.57,0-.14.01-.27.05-.38s.07-.17.11-.17c.03,0,.05.02.05.06,0,.02,0,.05,0,.09,0,.05,0,.08,0,.11,0,.18.09.3.27.39.18.08.5.12.97.15.43.02.77.02,1.02,0,.25-.03.37-.07.38-.14,0-.07-.07-.19-.23-.35-.05-.05-.08-.08-.08-.09,0-.01.01-.04.04-.07,0,0,.01-.01.01-.02.05-.07.08-.11.13-.19ZM19.33,2.27c.1.1.15.14.25.24.11-.09.16-.13.27-.21.11.11.16.16.27.26-.12.09-.18.14-.29.23-.1-.1-.15-.15-.25-.24-.11.09-.16.13-.27.22-.11-.1-.16-.15-.27-.25.11-.1.17-.15.29-.24Z"/>
            <path class="cls-4" d="M21.78,2.54c.39-.19.61-.27.65-.26.02,0,.02.01.02.04-.06.21-.08.31-.14.52-.15.55-.22.83-.36,1.39-.04.16-.07.27-.09.31-.02.04-.04.06-.07.05-.02,0-.04-.02-.05-.06,0-.03,0-.27,0-.71.01-.51.02-.76.03-1.27Z"/>
            <path class="cls-4" d="M23.42,3.36c.07.02.18.12.33.31s.25.37.29.52c.04.15.04.31,0,.46-.07.27-.19.44-.35.52-.16.08-.39.07-.71,0-.42-.1-.6-.27-.55-.54.02-.09.05-.18.09-.28.04-.1.08-.14.11-.13.04,0,.05.05.05.11,0,.05,0,.09.01.12.01.03.06.07.15.11.08.04.19.07.32.1.18.04.34.06.48.06.13,0,.21-.02.22-.06.02-.06-.07-.2-.25-.42-.19-.22-.33-.34-.41-.35-.02,0-.04,0-.06,0-.02,0-.03,0-.04,0-.04,0-.05-.03-.04-.06,0-.02.06-.11.17-.26.11-.15.17-.22.19-.22Z"/>
            <path class="cls-4" d="M25.09,5.43s-.07-.03-.12-.04c-.37-.12-.48-.44-.32-.96.01-.04.04-.12.08-.25.06-.18.1-.31.13-.39.05-.17.1-.36.15-.57.26-.12.42-.17.46-.16.02,0,.03.03.03.06,0,.03-.02.08-.04.16-.05.12-.07.19-.12.31-.08.21-.12.32-.2.53-.04.12-.08.21-.1.28-.09.28-.05.44.12.5.04.01.06.02.1.04-.07.2-.1.3-.17.5Z"/>
            <path class="cls-4" d="M25.23,4.92s.05.02.08.03c.23.08.41,0,.56-.24.04-.06.07-.09.09-.08.02,0,.03.05.02.12-.05.27.04.45.26.54.04.02.06.02.1.04-.08.2-.12.29-.2.49-.19-.08-.3-.17-.35-.28-.04-.11-.06-.22-.05-.32-.1.13-.2.2-.3.24-.1.03-.23.02-.39-.04.07-.2.1-.3.17-.5ZM25.32,5.73c.06.12.08.18.14.3.12-.05.18-.08.3-.13.05.12.08.19.13.31-.12.06-.18.09-.3.14-.05-.12-.08-.18-.14-.3-.12.05-.17.08-.29.13-.06-.12-.08-.18-.14-.3.12-.07.18-.1.3-.16Z"/>
            <path class="cls-4" d="M26.9,5.33c-.06-.13-.14-.25-.24-.37-.04-.05-.06-.07-.05-.08.02-.04.09-.08.22-.11.13-.03.3,0,.51.08.13.06.23.13.3.21.07.08.09.17.05.24-.03.06-.08.1-.15.12-.07.02-.2.03-.38.02.09.2.22.34.41.44-.09.19-.14.29-.23.48-.02,0-.02-.01-.04-.02-.14-.07-.24-.15-.29-.26-.06-.11-.09-.26-.09-.45-.12.12-.25.2-.38.23s-.24.03-.35-.01c-.04-.02-.06-.02-.1-.04.08-.2.12-.29.2-.49.01,0,.02.01.04.02.17.07.36.07.57,0Z"/>
            <path class="cls-4" d="M27.54,5.86s.07.03.11.05c.09.04.18.06.26.06.08,0,.14-.04.18-.11.05-.1.11-.28.17-.55.06-.24.09-.36.14-.6,0-.01.02-.02.06-.03.11-.04.17-.06.28-.1.08-.03.14-.03.16-.02.02.01.03.06.03.14,0,.12-.01.26-.02.45,0,.02,0,.04,0,.04,0,.01-.02.02-.03,0-.02,0-.04-.03-.08-.07-.02-.01-.03-.03-.03-.03-.02.03-.04.09-.08.16-.02.05-.04.08-.05.1-.07.13-.1.19-.17.32-.11.21-.21.38-.3.49-.09.12-.19.2-.29.24-.1.04-.19.05-.26.04s-.16-.05-.26-.1c-.02,0-.02-.01-.04-.02.09-.19.14-.29.23-.48Z"/>
            <path class="cls-4" d="M29.44,5.15c.44-.03.68-.03.72,0,.01,0,.02.02,0,.04-.13.17-.19.26-.31.43-.33.46-.5.7-.83,1.17-.1.14-.16.22-.19.25-.03.03-.06.04-.08.03-.02-.01-.03-.03-.02-.07,0-.03.09-.25.25-.66.19-.47.28-.71.47-1.18Z"/>
          </g>
        </g>
      </g>
    </g>
  </g>
</svg>