<?xml version="1.0" encoding="UTF-8"?>
<svg id="Layer_2" data-name="Layer 2" xmlns="http://www.w3.org/2000/svg" viewBox="0 0 84 20.39">
  <defs>
    <style>
      .cls-1 {
        fill: #FFFFFF;
        stroke-width: 0px;
      }
    </style>
  </defs>
  <g id="Layer_1-2" data-name="Layer 1">
    <g>
      <g>
        <path class="cls-1" d="M12.49,2.43c-.54.51-1.21,1.15-1.88,1.8-.11.11-.29.11-.4.01-.61-.54-1.37-.91-2.22-1.03-.15-.02-.26-.15-.26-.3V.25C7.73.11,7.85,0,7.98,0h0c1.81.09,3.26.83,4.5,1.99.13.12.13.32,0,.44h0Z"/>
        <path class="cls-1" d="M12.5,12.59l-1.92-1.88c-.11-.11-.28-.12-.4-.02-.75.62-1.72.99-2.77.97-.97-.02-1.87-.37-2.58-.94-.98-.79-1.6-2-1.59-3.34,0-.16.01-.31.03-.46h0c.13-1.11.69-2.09,1.51-2.77.05-.04.09-.07.14-.11.55-.42,1.33-.7,2.03-.82.15-.02.26-.15.26-.3V.32c0-.18-.15-.32-.33-.3-1.05.1-2.17.42-3.05.92-.12.07-.25.14-.37.22-.32.21-.63.44-.91.69h0c-.85.75-1.53,1.69-1.97,2.75C.19,5.52-.02,6.54,0,7.61c.07,4.02,3.35,7.29,7.37,7.34,1.97.03,3.76-.71,5.11-1.92.13-.12.13-.32,0-.43h0Z"/>
      </g>
      <g>
        <g>
          <path class="cls-1" d="M16.58,13.46c-.79-.44-1.4-1.07-1.85-1.88-.45-.81-.67-1.75-.67-2.82s.23-1.99.69-2.8c.46-.81,1.09-1.44,1.88-1.87.79-.43,1.68-.65,2.66-.65s1.87.22,2.66.65,1.42,1.05,1.88,1.86.69,1.74.69,2.81-.24,2.01-.71,2.82c-.47.81-1.11,1.44-1.92,1.88s-1.7.66-2.68.66-1.85-.22-2.63-.66h0ZM20.96,12.18c.54-.29.98-.72,1.31-1.3.33-.58.5-1.28.5-2.11s-.16-1.54-.49-2.11-.75-1.01-1.28-1.29c-.53-.28-1.1-.43-1.72-.43s-1.2.14-1.73.43-.94.71-1.26,1.29-.47,1.28-.47,2.11.15,1.55.46,2.13.72,1.01,1.24,1.29c.52.28,1.08.43,1.7.43s1.2-.14,1.74-.43h0Z"/>
          <path class="cls-1" d="M34.89,4.56c.78.76,1.17,1.86,1.17,3.29v6.1h-1.7v-5.85c0-1.03-.26-1.82-.77-2.37-.52-.55-1.22-.82-2.11-.82s-1.63.28-2.16.85c-.54.57-.8,1.39-.8,2.47v5.72h-1.72V3.61h1.72v1.47c.34-.53.8-.94,1.39-1.23.59-.29,1.23-.43,1.93-.43,1.26,0,2.28.38,3.06,1.14h0Z"/>
          <path class="cls-1" d="M42.73,12.37l3.21-8.76h1.83l-4.06,10.35h-2l-4.06-10.35h1.85l3.23,8.76h0Z"/>
          <path class="cls-1" d="M58.85,9.42h-8.27c.06,1.02.41,1.82,1.05,2.39.64.57,1.41.86,2.31.86.74,0,1.36-.17,1.86-.52s.85-.81,1.05-1.39h1.85c-.28.99-.83,1.8-1.66,2.43s-1.86.93-3.1.93c-.98,0-1.86-.22-2.63-.66-.77-.44-1.38-1.07-1.82-1.88s-.66-1.75-.66-2.82.21-2.01.64-2.81,1.03-1.43,1.8-1.86c.77-.43,1.66-.65,2.67-.65s1.85.21,2.61.64,1.34,1.02,1.75,1.77c.41.75.61,1.6.61,2.54,0,.33-.02.67-.06,1.04h0ZM56.7,6.34c-.29-.47-.68-.83-1.18-1.08s-1.05-.37-1.65-.37c-.87,0-1.61.28-2.22.83s-.96,1.32-1.05,2.3h6.53c0-.65-.15-1.22-.43-1.69h0Z"/>
          <path class="cls-1" d="M64.18,3.91c.56-.33,1.24-.49,2.05-.49v1.77h-.45c-1.93,0-2.89,1.05-2.89,3.13v5.63h-1.72V3.61h1.72v1.68c.3-.59.73-1.05,1.29-1.38h0Z"/>
          <path class="cls-1" d="M70.31,5.02v6.1c0,.5.11.86.32,1.07.21.21.58.31,1.11.31h1.27v1.45h-1.55c-.96,0-1.67-.22-2.15-.66-.48-.44-.72-1.16-.72-2.17v-6.1h-1.34v-1.42h1.34V1h1.72v2.61h2.7v1.42h-2.7Z"/>
          <path class="cls-1" d="M84,3.61l-6.23,15.22h-1.77l2.04-4.99-4.17-10.23h1.91l3.25,8.38,3.21-8.38h1.77,0Z"/>
        </g>
        <g>
          <path class="cls-1" d="M58.98,18.77c-.07-.07-.11-.16-.11-.26s.04-.19.11-.26c.07-.07.16-.11.26-.11s.18.04.25.11.1.16.1.26-.03.19-.1.26-.15.11-.25.11-.19-.04-.26-.11Z"/>
          <path class="cls-1" d="M60.8,18.77c-.2-.09-.35-.2-.47-.36-.12-.15-.18-.33-.19-.53h.56c.02.16.09.3.23.4.14.1.32.16.54.16.21,0,.37-.05.49-.14.12-.09.18-.21.18-.34s-.06-.25-.19-.32-.32-.14-.59-.2c-.24-.06-.44-.13-.59-.19-.15-.07-.28-.16-.39-.29-.11-.13-.16-.3-.16-.51,0-.17.05-.32.15-.46s.24-.25.42-.33c.18-.08.39-.12.62-.12.36,0,.65.09.87.27.22.18.34.43.36.75h-.54c-.01-.17-.08-.31-.2-.41-.12-.1-.29-.16-.5-.16-.19,0-.35.04-.46.12s-.17.19-.17.33c0,.11.03.19.1.26.07.07.16.12.26.17.11.04.25.09.44.14.23.06.42.13.57.19.15.06.27.15.38.28.1.12.16.28.16.48,0,.18-.05.34-.15.48-.1.14-.24.25-.42.34-.18.08-.39.12-.62.12-.25,0-.47-.04-.67-.13h0Z"/>
          <path class="cls-1" d="M65.7,15.68c.2.11.35.26.47.47s.17.47.17.77v1.92h-.54v-1.84c0-.33-.08-.57-.24-.75-.16-.17-.38-.26-.67-.26s-.51.09-.68.27c-.17.18-.25.44-.25.78v1.8h-.54v-4.4h.54v1.6c.11-.17.25-.3.44-.39s.4-.14.63-.14c.25,0,.47.05.67.16h0Z"/>
          <path class="cls-1" d="M67.81,18.69c-.25-.14-.44-.34-.58-.59s-.21-.55-.21-.89.07-.63.22-.88c.14-.26.34-.45.59-.59.25-.14.53-.2.84-.2s.59.07.84.2c.25.14.45.33.59.59s.22.55.22.89-.07.63-.22.89c-.15.26-.35.45-.6.59-.25.14-.54.21-.84.21s-.58-.07-.83-.21h0ZM69.19,18.28c.17-.09.31-.23.41-.41.1-.18.16-.4.16-.67s-.05-.48-.16-.67-.24-.32-.4-.41c-.17-.09-.35-.13-.54-.13s-.38.05-.54.13c-.16.09-.3.23-.4.41-.1.18-.15.4-.15.67s.05.49.15.67c.1.18.23.32.39.41.16.09.34.13.54.13s.38-.05.55-.14h0Z"/>
          <path class="cls-1" d="M72.04,15.72c.21-.12.46-.19.74-.19s.55.07.79.21c.24.14.42.33.56.58s.2.54.2.88-.07.62-.2.88-.32.46-.56.6-.5.21-.79.21-.52-.06-.73-.19c-.21-.12-.37-.28-.48-.47v2.14h-.54v-4.8h.54v.6c.11-.19.27-.34.48-.47h0ZM73.62,16.56c-.1-.18-.23-.32-.4-.42-.17-.09-.35-.14-.56-.14s-.38.05-.55.15c-.17.1-.3.24-.4.42-.1.18-.15.4-.15.64s.05.46.15.64.24.33.4.42c.17.1.35.15.55.15s.39-.05.56-.15c.17-.1.3-.24.4-.42.1-.18.15-.4.15-.65s-.05-.46-.15-.64h0Z"/>
        </g>
      </g>
    </g>
  </g>
</svg>