<?xml version="1.0" encoding="UTF-8"?>
<svg id="Layer_2" data-name="Layer 2" xmlns="http://www.w3.org/2000/svg" viewBox="0 0 31.33 36">
  <defs>
    <style>
      .cls-1 {
        fill: #FFFFFF;
        stroke-width: 0px;
      }
    </style>
  </defs>
  <g id="Layer_1-2" data-name="Layer 1">
    <g>
      <g>
        <path class="cls-1" d="M29.4,8.77c-.16-.02-.32-.06-.44-.13-.14-.08-.25-.17-.35-.28-.06-.06-.18-.08-.21,0-.74,2.05-1.41,1.7-2.06,2.47-.53-.58-.1-1.1-1.21-1.71-.2-.11-.57-.42-.56-.6.06-.84-.24-1.46-.84-2.03-.27-.25-.65-.57-.43-1.07.02-.04-.04-.13-.07-.18-.21-.39-.42-.77-.64-1.18-.33.29-.66.19-1.04.01-.11-.05-.21-.1-.32-.15-.48-.33-.9-.42-1.52-.47-.52-.18-.91-.5-1.31-1.05-.37-.51-1.15-1.13-1.57-1.54-.07-.07-.19-.01-.18.09,0,.03,0,.06,0,.09,0,.77-.55,1.29-1.38,1.43l-.16.04s1.09,1.38,1.59,1.92c.24.26.48.54.37.72-.76,1.2-1.55,2.39-2.12,3.69-.16.36-.43.35-.68.43-1.42.44-2.4,1.25-2.66,2.8-.08.49-.27.96-.78,1.23-1.22.66-2,1.71-2.65,2.87-.1.18-.01.4.18.46.89.3,1.23.78,1.12,1.66-.03.24.21.42.43.31,2.04-1,4.01-1.94,4.84-4.21,1,.54,1.54,1.28,3.12,1.55-.4.26-1.04.29-1.47.81-.67.82-.78.84-1.03.97-.09.05-.12.17-.05.25.13.14.21.32.21.53,0,.05,0,.11-.02.16-.02.1.08.21.17.17,1.56-.7,3.15-.86,4.78-1.3.13-.04.17-.21.07-.3-.38-.33-.6-.84-.54-1.4.08-.75.68-1.35,1.42-1.44.12-.01.24-.02.36,0,.11.01.17-.13.09-.2-.5-.48-.99-.96-1.55-1.33-.74-.48-1.59-.78-2.37-1.15.95-1.26,2.36-.85,3.88-2.21.1-.09.37.14.47.28.38.49.7,1.04,1.1,1.51.56.65,1.22,1.19,2.04,1.62.06.03.14-.02.12-.09-.03-.13-.05-.27-.04-.41.03-.61.5-1.12,1.1-1.21.56-.08,1.06.2,1.32.64.05.08.16.08.2,0,.5-1.02.95-1.94,1.39-2.83.04-.08-.01-.18-.11-.19Z"/>
        <g>
          <g>
            <path class="cls-1" d="M6.65,17.96c-.02.58.17.94.75,1.33.13.09.11.29-.04.35-1.68.69-2.84,1.88-4.01,3.24-.1.12-.29.09-.35-.05-.1-.21-.27-.38-.48-.48-.15-.08-.22-.27-.14-.42.45-.89.87-1.77,1.37-2.62.57-.98,1.37-1.64,2.52-1.73.21-.01.39.16.38.38Z"/>
            <path class="cls-1" d="M13.93,1.12c0,.28.08.54.22.76.03.05,0,.11-.06.11h-2.26s-.08-.05-.07-.09c.07-.21.14-.39.14-.59,0-.16-.06-.33-.13-.51-.02-.04,0-.09.05-.1.39-.08.79-.16,1.2-.25.34-.07.7-.15,1.07-.22.06-.01.11.06.07.11-.15.22-.24.49-.24.78Z"/>
          </g>
          <g>
            <circle class="cls-1" cx="29.41" cy="7.73" r=".78"/>
            <circle class="cls-1" cx="26.79" cy="12.44" r=".97"/>
            <circle class="cls-1" cx="21.67" cy="15.99" r="1.22"/>
            <circle class="cls-1" cx="8.09" cy="18.01" r="1.11"/>
            <circle class="cls-1" cx="15.29" cy="1.11" r="1.11"/>
            <circle class="cls-1" cx="10.85" cy="1.34" r=".78"/>
            <circle class="cls-1" cx="1.92" cy="23.37" r=".78"/>
            <circle class="cls-1" cx="14.41" cy="18.55" r=".78"/>
            <circle class="cls-1" cx="24.41" cy="3.88" r="2.05"/>
          </g>
          <path class="cls-1" d="M28.49,14.71l-.03-.41s-.03-.06-.04-.07c0,0-.22-.02-.43-.03-.08,0-.17-.01-.24-.02h-.05s0-.07,0-.07c0-.08-.01-.15-.02-.19s0-.07,0-.08c0,0,0-.06-.03-.17l-.68.12c.06.46.1.93.09,1.4-.04,5.24-4.31,9.45-9.55,9.41-3.74-.03-6.96-2.22-8.48-5.38l-.59.37c.06.11.09.18.09.18,0,0,.05.1.12.25,0,0,0,0,.01.01l.02.04-.22.17-.34.27s-.02.04,0,.08l.43.69s.04.04.06.04c0,0,.21-.1.4-.19.05-.03.1-.05.15-.08l.11-.05.02.05s0,0,0,.01c.1.13.16.22.16.22,0,0,.07.09.17.22h0s.05.03.05.03l-.04.05s-.07.08-.11.12l-.06.06c-.14.16-.29.33-.29.33,0,.01-.01.05.01.08l.55.59s.06.03.07.02c0,0,.18-.13.36-.25.03-.02.06-.05.09-.07.03-.03.07-.05.1-.07l.03-.02.03.03-.02.05.04-.04c.12.11.21.19.21.19l.21.19.05.03-.02.05c-.04.06-.08.13-.13.2-.11.19-.23.37-.23.37,0,.01,0,.05.03.08,0,0,.04.03.1.08.05.05.12.1.21.17.17.12.33.24.33.24.02.01.06.03.08,0,0,0,.15-.16.3-.31l.07-.07s.07-.07.1-.1l.03-.03.04.03c.14.1.24.17.24.17,0,0,.1.06.25.14l.04.02v.04s-.06.11-.08.16l-.03.07c-.08.2-.16.41-.16.41,0,.01,0,.05.04.07,0,0,.17.1.35.2.09.05.18.1.24.13.07.03.12.05.12.05.03.02.08,0,.08,0l.31-.46s.05-.07.07-.1l.02-.04.05.03c.15.07.25.11.25.12,0,0,.1.04.25.11h.01s.06,0,.06,0l-.02.06-.05.23c-.04.21-.09.42-.09.42,0,.01.02.04.05.05l.77.25s.07,0,.07-.02c0,0,.09-.2.18-.4.02-.05.04-.11.07-.16l.04-.1h.04s.02,0,.02,0c.16.04.27.06.27.06,0,0,.11.03.27.06,0,0,.01,0,.03,0h.03s0,.04,0,.04c0,.07,0,.16,0,.24,0,.22-.01.44-.01.44,0,.02.03.05.06.05l.8.1s.07-.02.07-.03c0,0,.05-.21.1-.42l.07-.29.05.02s0,0,0,0c.16,0,.27,0,.27,0h.28s.06,0,.06,0v.04s.02.06.02.1c0,.05.01.09.02.14l.07.43s.03.04.07.04c0,0,.05,0,.12,0,.07,0,.18,0,.28-.01l.4-.03s.06-.03.07-.04l.03-.43c0-.08,0-.17.01-.24v-.05s.05,0,.05,0c0,0,.02,0,.02,0h.08s.09-.01.12-.02c.04,0,.07-.01.07-.01l.33-.05v.04c.04.07.06.15.09.23.07.2.14.41.14.41,0,.01.04.03.08.03l.4-.07.39-.1s.06-.04.06-.05c0,0-.02-.22-.04-.43v-.04c-.01-.07-.02-.14-.03-.21v-.04s.04-.01.04-.01c.17-.04.28-.08.28-.08,0,0,.03,0,.07-.02.04-.01.09-.03.16-.06l.04-.02s.01,0,.02,0h.03s.01.03.01.03c.02.04.04.07.06.12l.05.09c.11.19.21.38.21.38,0,.01.05.02.07,0,0,0,.19-.07.38-.14.19-.06.36-.16.36-.16.04-.02.06-.05.05-.07l-.12-.42c-.02-.08-.05-.16-.07-.23v-.04s.04-.03.04-.03l.25-.12s.1-.05.25-.12c0,0,.01,0,.02-.01l.03-.02.03.03.06.08s.06.07.08.11l.27.34s.05.01.08,0l.69-.42s.04-.06.03-.07c0,0-.09-.2-.19-.39l-.13-.26.04-.02c.14-.11.23-.17.23-.17l.22-.17s.02-.01.02-.01l.03-.02.03.02s.07.06.1.09l.07.07c.17.14.33.29.33.29,0,0,.06,0,.08-.01l.6-.55s.03-.06.02-.07l-.25-.35c-.05-.07-.1-.13-.14-.19l-.04-.05.05-.03c.11-.13.19-.21.19-.21,0,0,.07-.08.18-.21,0,0,.02-.02.03-.02h.03s.23.13.23.13l.37.22s.06,0,.08-.03c0,0,.03-.04.08-.1.05-.05.1-.12.17-.21l.23-.33s.02-.07.01-.08c0,0-.16-.16-.31-.3-.03-.03-.07-.06-.1-.09-.03-.03-.06-.05-.08-.07l-.03-.03.02-.03c.1-.15.17-.24.17-.24l.17-.29.13.05s.09.03.13.05c.2.08.4.16.4.16.02,0,.05-.01.07-.05l.2-.35c.06-.1.1-.18.12-.24.03-.07.06-.12.06-.12.02-.03,0-.07,0-.08,0,0-.18-.12-.36-.25-.05-.03-.09-.06-.14-.09l-.12-.08.04-.04s0,0,0,0c.07-.15.11-.25.11-.25,0,0,.04-.1.11-.26l.02-.06.1.02c.05.01.11.03.17.04.21.04.43.08.43.08.02,0,.04-.02.06-.05l.25-.77s0-.07-.02-.08c0,0-.2-.09-.4-.18-.05-.02-.11-.05-.16-.07l-.09-.04v-.03s0-.03,0-.04c.03-.15.06-.26.06-.26,0,0,.02-.11.06-.27v-.05s.05,0,.05,0c.08,0,.16,0,.24,0h.44s.05-.01.06-.05l.1-.8s-.01-.07-.03-.07c0,0-.21-.06-.42-.11l-.07-.02c-.06-.01-.11-.03-.16-.04h-.04s0-.05,0-.05c0,0,0-.02,0-.03,0-.16,0-.27,0-.27,0,0,0-.11,0-.28v-.06s.04,0,.04,0c.07-.01.15-.02.24-.04l.43-.07s.04-.03.04-.07c0,0,0-.2,0-.4Z"/>
        </g>
      </g>
      <g>
        <g>
          <path class="cls-1" d="M0,28.66c.27-.06.66-.09,1.03-.09.57,0,.94.1,1.2.34.21.18.33.47.33.79,0,.55-.34.91-.78,1.06v.02c.32.11.51.41.61.84.14.58.23.98.32,1.14h-.55c-.07-.12-.16-.47-.28-.99-.12-.57-.34-.79-.83-.8h-.5v1.79h-.53v-4.08ZM.53,30.54h.55c.57,0,.93-.31.93-.79,0-.53-.39-.77-.95-.77-.26,0-.44.02-.53.05v1.51Z"/>
          <path class="cls-1" d="M3.61,31.35c.01.73.48,1.03,1.02,1.03.39,0,.62-.07.82-.15l.09.39c-.19.09-.52.18-.99.18-.92,0-1.46-.6-1.46-1.5s.53-1.6,1.39-1.6c.97,0,1.23.85,1.23,1.4,0,.11-.01.2-.02.25h-2.09ZM5.19,30.97c0-.34-.14-.88-.75-.88-.55,0-.79.5-.83.88h1.58Z"/>
          <path class="cls-1" d="M8.03,32.74l-.04-.37h-.02c-.17.23-.49.44-.91.44-.6,0-.91-.42-.91-.85,0-.72.64-1.11,1.79-1.11v-.06c0-.25-.07-.69-.68-.69-.28,0-.56.09-.77.22l-.12-.36c.25-.16.6-.26.98-.26.91,0,1.13.62,1.13,1.22v1.11c0,.26.01.51.05.71h-.49ZM7.95,31.22c-.59-.01-1.26.09-1.26.67,0,.35.23.52.51.52.39,0,.63-.25.72-.5.02-.06.03-.12.03-.17v-.52Z"/>
          <path class="cls-1" d="M9.97,28.91v.85h.77v.41h-.77v1.6c0,.37.1.58.41.58.14,0,.25-.02.31-.04l.02.41c-.1.04-.27.07-.48.07-.25,0-.45-.08-.58-.23-.15-.16-.21-.42-.21-.77v-1.62h-.46v-.41h.46v-.71l.53-.14Z"/>
          <path class="cls-1" d="M11.35,28.38h.54v1.85h.01c.09-.15.22-.29.39-.38.16-.09.35-.15.55-.15.4,0,1.04.25,1.04,1.27v1.77h-.54v-1.71c0-.48-.18-.88-.69-.88-.35,0-.63.25-.72.54-.03.07-.04.15-.04.26v1.79h-.54v-4.36Z"/>
          <path class="cls-1" d="M14.75,28.38h.54v4.36h-.54v-4.36Z"/>
          <path class="cls-1" d="M16.5,31.35c.01.73.48,1.03,1.02,1.03.39,0,.62-.07.82-.15l.09.39c-.19.09-.52.18-.99.18-.92,0-1.46-.6-1.46-1.5s.53-1.6,1.39-1.6c.97,0,1.23.85,1.23,1.4,0,.11-.01.2-.02.25h-2.09ZM18.09,30.97c0-.34-.14-.88-.75-.88-.55,0-.79.5-.83.88h1.58Z"/>
          <path class="cls-1" d="M19.93,28.91v.85h.77v.41h-.77v1.6c0,.37.1.58.41.58.14,0,.25-.02.31-.04l.02.41c-.1.04-.27.07-.48.07-.25,0-.45-.08-.58-.23-.15-.16-.21-.42-.21-.77v-1.62h-.46v-.41h.46v-.71l.53-.14Z"/>
          <path class="cls-1" d="M21.91,28.93c0,.18-.13.33-.34.33-.19,0-.33-.15-.33-.33s.14-.34.34-.34.33.15.33.34ZM21.31,32.74v-2.97h.54v2.97h-.54Z"/>
          <path class="cls-1" d="M24.86,32.63c-.14.07-.45.17-.85.17-.9,0-1.48-.61-1.48-1.52s.63-1.58,1.6-1.58c.32,0,.6.08.75.15l-.12.42c-.13-.07-.33-.14-.63-.14-.68,0-1.05.5-1.05,1.12,0,.69.44,1.11,1.03,1.11.31,0,.51-.08.66-.15l.09.41Z"/>
          <path class="cls-1" d="M25.36,32.42c0-.23.15-.39.37-.39s.36.16.36.39-.14.39-.37.39c-.21,0-.36-.17-.36-.39Z"/>
          <path class="cls-1" d="M27.42,28.91v.85h.77v.41h-.77v1.6c0,.37.1.58.41.58.14,0,.25-.02.31-.04l.02.41c-.1.04-.27.07-.48.07-.25,0-.45-.08-.58-.23-.15-.16-.21-.42-.21-.77v-1.62h-.46v-.41h.46v-.71l.53-.14Z"/>
          <path class="cls-1" d="M28.8,30.57c0-.31,0-.56-.02-.8h.48l.03.49h.01c.15-.28.49-.56.98-.56.41,0,1.05.25,1.05,1.27v1.78h-.54v-1.71c0-.48-.18-.88-.69-.88-.36,0-.63.25-.72.55-.02.07-.04.16-.04.25v1.79h-.54v-2.17Z"/>
        </g>
        <g>
          <path class="cls-1" d="M1.06,35.45c-.1-.06-.17-.13-.23-.23s-.09-.21-.09-.34.03-.24.09-.34.13-.18.23-.23.21-.08.32-.08.23.03.33.08.17.13.23.23c.06.1.08.21.08.34s-.03.24-.08.34c-.06.1-.13.18-.23.23s-.21.08-.33.08-.23-.03-.32-.08ZM1.62,35.33c.07-.04.13-.1.17-.18.04-.08.06-.17.06-.27s-.02-.19-.06-.27c-.04-.08-.1-.14-.17-.18-.07-.04-.15-.06-.24-.06s-.17.02-.24.06c-.07.04-.13.1-.17.18-.04.08-.06.17-.06.27s.02.19.06.27c.04.08.1.14.17.18.07.04.15.06.24.06s.17-.02.24-.06Z"/>
          <path class="cls-1" d="M2.56,34.56c.07-.04.14-.06.23-.06.09,0,.17.02.24.06.07.04.13.1.17.18s.06.17.06.27-.02.19-.06.27-.1.14-.17.18-.15.07-.24.07-.16-.02-.23-.06c-.07-.04-.11-.09-.15-.14v.18h-.17v-1.35h.17v.54c.03-.06.08-.11.15-.15ZM3.04,34.82c-.03-.06-.07-.1-.12-.13-.05-.03-.11-.04-.17-.04s-.12.01-.17.04c-.05.03-.09.07-.12.13-.03.06-.05.12-.05.2s.02.14.05.2c.03.06.07.1.12.13.05.03.11.04.17.04s.12-.01.17-.04.09-.07.12-.13c.03-.06.05-.12.05-.2s-.02-.14-.05-.2Z"/>
          <path class="cls-1" d="M3.63,35.5c-.06-.03-.11-.06-.14-.11s-.06-.1-.06-.16h.17c0,.05.03.09.07.12.04.03.1.05.17.05.06,0,.11-.01.15-.04.04-.03.05-.06.05-.11s-.02-.08-.06-.1c-.04-.02-.1-.04-.18-.06-.07-.02-.14-.04-.18-.06-.05-.02-.09-.05-.12-.09s-.05-.09-.05-.16c0-.05.02-.1.05-.14.03-.04.07-.08.13-.1.06-.03.12-.04.19-.04.11,0,.2.03.27.08.07.06.1.13.11.23h-.17c0-.05-.02-.09-.06-.13-.04-.03-.09-.05-.15-.05-.06,0-.11.01-.14.04-.04.03-.05.06-.05.1,0,.03.01.06.03.08s.05.04.08.05.08.03.13.04c.07.02.13.04.18.06.04.02.08.05.12.08.03.04.05.09.05.15,0,.05-.02.1-.05.15s-.07.08-.13.1c-.06.02-.12.04-.19.04-.08,0-.15-.01-.21-.04Z"/>
          <path class="cls-1" d="M4.64,34.66v.59s.01.08.03.1c.02.02.06.03.11.03h.12v.14h-.15c-.09,0-.16-.02-.21-.06s-.07-.11-.07-.21v-.59h-.13v-.14h.13v-.25h.17v.25h.26v.14h-.26Z"/>
          <path class="cls-1" d="M5.1,34.75c.04-.08.1-.14.17-.18.07-.04.15-.06.24-.06s.16.02.23.06.11.09.14.14v-.18h.17v1h-.17v-.19c-.03.06-.08.11-.15.15-.07.04-.14.06-.23.06s-.17-.02-.24-.07c-.07-.04-.13-.11-.17-.18-.04-.08-.06-.17-.06-.27s.02-.19.06-.27ZM5.84,34.82c-.03-.06-.07-.1-.12-.13-.05-.03-.11-.04-.17-.04s-.12.01-.17.04c-.05.03-.09.07-.12.13-.03.06-.05.12-.05.2s.02.14.05.2c.03.06.07.1.12.13.05.03.11.04.17.04s.12-.01.17-.04c.05-.03.09-.07.12-.13.03-.06.05-.12.05-.2s-.02-.14-.05-.2Z"/>
          <path class="cls-1" d="M6.34,34.75c.04-.08.1-.14.17-.18.07-.04.16-.06.25-.06.12,0,.22.03.3.09s.13.14.16.25h-.18c-.02-.06-.05-.11-.1-.14-.05-.04-.11-.05-.18-.05-.1,0-.17.03-.23.1-.06.07-.09.16-.09.28s.03.21.09.28c.06.07.14.1.23.1.07,0,.13-.02.18-.05.05-.03.08-.08.1-.15h.18c-.03.1-.08.18-.16.25-.08.06-.18.09-.3.09-.1,0-.18-.02-.25-.06-.07-.04-.13-.1-.17-.18-.04-.08-.06-.17-.06-.27s.02-.19.06-.27Z"/>
          <path class="cls-1" d="M7.61,34.17v1.35h-.17v-1.35h.17Z"/>
          <path class="cls-1" d="M8.81,35.09h-.8c0,.1.04.18.1.23.06.06.14.08.22.08.07,0,.13-.02.18-.05s.08-.08.1-.13h.18c-.03.1-.08.17-.16.23-.08.06-.18.09-.3.09-.1,0-.18-.02-.25-.06-.07-.04-.13-.1-.18-.18-.04-.08-.06-.17-.06-.27s.02-.19.06-.27c.04-.08.1-.14.17-.18.08-.04.16-.06.26-.06s.18.02.25.06c.07.04.13.1.17.17s.06.15.06.25c0,.03,0,.07,0,.1ZM8.6,34.79s-.07-.08-.11-.1c-.05-.02-.1-.04-.16-.04-.08,0-.16.03-.21.08-.06.05-.09.13-.1.22h.63c0-.06-.01-.12-.04-.16Z"/>
          <path class="cls-1" d="M9.18,35.5c-.06-.03-.11-.06-.14-.11s-.06-.1-.06-.16h.17c0,.05.03.09.07.12.04.03.1.05.17.05.06,0,.11-.01.15-.04.04-.03.05-.06.05-.11s-.02-.08-.06-.1c-.04-.02-.1-.04-.18-.06-.07-.02-.14-.04-.18-.06-.05-.02-.09-.05-.12-.09s-.05-.09-.05-.16c0-.05.02-.1.05-.14.03-.04.07-.08.13-.1.06-.03.12-.04.19-.04.11,0,.2.03.27.08.07.06.1.13.11.23h-.17c0-.05-.02-.09-.06-.13-.04-.03-.09-.05-.15-.05-.06,0-.11.01-.14.04-.04.03-.05.06-.05.1,0,.03.01.06.03.08s.05.04.08.05.08.03.13.04c.07.02.13.04.18.06.04.02.08.05.12.08.03.04.05.09.05.15,0,.05-.02.1-.05.15s-.07.08-.13.1c-.06.02-.12.04-.19.04-.08,0-.15-.01-.21-.04Z"/>
          <path class="cls-1" d="M10.47,34.75c.04-.08.1-.14.17-.18.07-.04.15-.06.24-.06.08,0,.15.02.22.05.07.04.12.08.15.14v-.53h.17v1.35h-.17v-.19c-.03.06-.08.11-.15.15-.06.04-.14.06-.23.06s-.17-.02-.24-.07-.13-.11-.17-.18c-.04-.08-.06-.17-.06-.27s.02-.19.06-.27ZM11.21,34.82c-.03-.06-.07-.1-.12-.13-.05-.03-.11-.04-.17-.04s-.12.01-.17.04c-.05.03-.09.07-.12.13-.03.06-.05.12-.05.2s.02.14.05.2c.03.06.07.1.12.13.05.03.11.04.17.04s.12-.01.17-.04c.05-.03.09-.07.12-.13.03-.06.05-.12.05-.2s-.02-.14-.05-.2Z"/>
          <path class="cls-1" d="M11.89,35.48c-.08-.04-.14-.1-.18-.18-.04-.08-.07-.17-.07-.27s.02-.19.07-.27c.04-.08.11-.14.18-.18s.16-.06.26-.06.18.02.26.06.14.1.18.18c.04.08.07.17.07.27s-.02.19-.07.27c-.05.08-.11.14-.19.18-.08.04-.16.06-.26.06s-.18-.02-.26-.06ZM12.32,35.35c.05-.03.09-.07.13-.13.03-.06.05-.12.05-.21s-.02-.15-.05-.2c-.03-.06-.07-.1-.12-.13-.05-.03-.11-.04-.17-.04s-.12.01-.17.04c-.05.03-.09.07-.12.13s-.05.12-.05.2.01.15.04.21c.03.06.07.1.12.13.05.03.1.04.16.04s.12-.01.17-.04Z"/>
          <path class="cls-1" d="M13.67,34.61c.08.07.11.18.11.32v.59h-.16v-.57c0-.1-.03-.18-.07-.23-.05-.05-.12-.08-.21-.08s-.16.03-.21.08-.08.13-.08.24v.55h-.17v-1h.17v.14c.03-.05.08-.09.13-.12.06-.03.12-.04.19-.04.12,0,.22.04.3.11Z"/>
          <path class="cls-1" d="M14.14,34.07l-.02.36h-.12l-.02-.36h.16Z"/>
          <path class="cls-1" d="M14.54,34.66v.59s.01.08.03.1c.02.02.06.03.11.03h.12v.14h-.15c-.09,0-.16-.02-.21-.06s-.07-.11-.07-.21v-.59h-.13v-.14h.13v-.25h.17v.25h.26v.14h-.26Z"/>
          <path class="cls-1" d="M16.2,34.55c.06.03.11.08.14.15s.05.14.05.24v.59h-.16v-.57c0-.1-.03-.18-.07-.23-.05-.05-.12-.08-.21-.08s-.16.03-.21.08-.08.13-.08.24v.55h-.17v-1.35h.17v.49c.03-.05.08-.09.14-.12.06-.03.12-.04.19-.04.08,0,.14.02.21.05Z"/>
          <path class="cls-1" d="M16.67,34.75c.04-.08.1-.14.17-.18.07-.04.15-.06.24-.06s.16.02.23.06.11.09.14.14v-.18h.17v1h-.17v-.19c-.03.06-.08.11-.15.15-.07.04-.14.06-.23.06s-.17-.02-.24-.07c-.07-.04-.13-.11-.17-.18-.04-.08-.06-.17-.06-.27s.02-.19.06-.27ZM17.41,34.82c-.03-.06-.07-.1-.12-.13-.05-.03-.11-.04-.17-.04s-.12.01-.17.04c-.05.03-.09.07-.12.13-.03.06-.05.12-.05.2s.02.14.05.2c.03.06.07.1.12.13.05.03.11.04.17.04s.12-.01.17-.04c.05-.03.09-.07.12-.13.03-.06.05-.12.05-.2s-.02-.14-.05-.2Z"/>
          <path class="cls-1" d="M18.28,35.37l.31-.85h.18l-.39,1h-.19l-.39-1h.18l.31.85Z"/>
          <path class="cls-1" d="M19.84,35.09h-.8c0,.1.04.18.1.23.06.06.14.08.22.08.07,0,.13-.02.18-.05s.08-.08.1-.13h.18c-.03.1-.08.17-.16.23-.08.06-.18.09-.3.09-.1,0-.18-.02-.25-.06-.07-.04-.13-.1-.18-.18-.04-.08-.06-.17-.06-.27s.02-.19.06-.27c.04-.08.1-.14.17-.18.08-.04.16-.06.26-.06s.18.02.25.06c.07.04.13.1.17.17s.06.15.06.25c0,.03,0,.07,0,.1ZM19.63,34.79s-.07-.08-.11-.1c-.05-.02-.1-.04-.16-.04-.08,0-.16.03-.21.08-.06.05-.09.13-.1.22h.63c0-.06-.01-.12-.04-.16Z"/>
          <path class="cls-1" d="M20.75,34.66v.59s.01.08.03.1c.02.02.06.03.11.03h.12v.14h-.15c-.09,0-.16-.02-.21-.06s-.07-.11-.07-.21v-.59h-.13v-.14h.13v-.25h.17v.25h.26v.14h-.26Z"/>
          <path class="cls-1" d="M21.4,35.48c-.08-.04-.14-.1-.18-.18-.04-.08-.07-.17-.07-.27s.02-.19.07-.27c.04-.08.11-.14.18-.18s.16-.06.26-.06.18.02.26.06.14.1.18.18c.04.08.07.17.07.27s-.02.19-.07.27c-.05.08-.11.14-.19.18-.08.04-.16.06-.26.06s-.18-.02-.26-.06ZM21.82,35.35c.05-.03.09-.07.13-.13.03-.06.05-.12.05-.21s-.02-.15-.05-.2c-.03-.06-.07-.1-.12-.13-.05-.03-.11-.04-.17-.04s-.12.01-.17.04c-.05.03-.09.07-.12.13s-.05.12-.05.2.01.15.04.21c.03.06.07.1.12.13.05.03.1.04.16.04s.12-.01.17-.04Z"/>
          <path class="cls-1" d="M23.02,35.5c-.06-.03-.11-.06-.14-.11s-.06-.1-.06-.16h.17c0,.05.03.09.07.12.04.03.1.05.17.05.06,0,.11-.01.15-.04.04-.03.05-.06.05-.11s-.02-.08-.06-.1c-.04-.02-.1-.04-.18-.06-.07-.02-.14-.04-.18-.06-.05-.02-.09-.05-.12-.09s-.05-.09-.05-.16c0-.05.02-.1.05-.14.03-.04.07-.08.13-.1.06-.03.12-.04.19-.04.11,0,.2.03.27.08.07.06.1.13.11.23h-.17c0-.05-.02-.09-.06-.13-.04-.03-.09-.05-.15-.05-.06,0-.11.01-.14.04-.04.03-.05.06-.05.1,0,.03.01.06.03.08s.05.04.08.05.08.03.13.04c.07.02.13.04.18.06.04.02.08.05.12.08.03.04.05.09.05.15,0,.05-.02.1-.05.15s-.07.08-.13.1c-.06.02-.12.04-.19.04-.08,0-.15-.01-.21-.04Z"/>
          <path class="cls-1" d="M24.03,34.66v.59s.01.08.03.1c.02.02.06.03.11.03h.12v.14h-.15c-.09,0-.16-.02-.21-.06s-.07-.11-.07-.21v-.59h-.13v-.14h.13v-.25h.17v.25h.26v.14h-.26Z"/>
          <path class="cls-1" d="M24.68,35.48c-.08-.04-.14-.1-.18-.18-.04-.08-.07-.17-.07-.27s.02-.19.07-.27c.04-.08.11-.14.18-.18s.16-.06.26-.06.18.02.26.06.14.1.18.18c.04.08.07.17.07.27s-.02.19-.07.27c-.05.08-.11.14-.19.18-.08.04-.16.06-.26.06s-.18-.02-.26-.06ZM25.1,35.35c.05-.03.09-.07.13-.13.03-.06.05-.12.05-.21s-.02-.15-.05-.2c-.03-.06-.07-.1-.12-.13-.05-.03-.11-.04-.17-.04s-.12.01-.17.04c-.05.03-.09.07-.12.13s-.05.12-.05.2.01.15.04.21c.03.06.07.1.12.13.05.03.1.04.16.04s.12-.01.17-.04Z"/>
          <path class="cls-1" d="M25.98,34.56c.07-.04.14-.06.23-.06s.17.02.24.06c.07.04.13.1.17.18s.06.17.06.27-.02.19-.06.27-.1.14-.17.18-.15.07-.24.07-.16-.02-.23-.06c-.07-.04-.11-.09-.15-.14v.66h-.17v-1.48h.17v.18c.03-.06.08-.11.15-.14ZM26.47,34.82c-.03-.06-.07-.1-.12-.13-.05-.03-.11-.04-.17-.04s-.12.01-.17.04c-.05.03-.09.07-.12.13-.03.06-.05.12-.05.2s.02.14.05.2c.03.06.07.1.12.13.05.03.11.04.17.04s.12-.01.17-.04.09-.07.12-.13c.03-.06.05-.12.05-.2s-.02-.14-.05-.2Z"/>
          <path class="cls-1" d="M28.25,34.52l-.6,1.47h-.17l.2-.48-.4-.99h.18l.31.81.31-.81h.17Z"/>
          <path class="cls-1" d="M28.6,35.48c-.08-.04-.14-.1-.18-.18-.04-.08-.07-.17-.07-.27s.02-.19.07-.27c.04-.08.11-.14.18-.18s.16-.06.26-.06.18.02.26.06.14.1.18.18c.04.08.07.17.07.27s-.02.19-.07.27c-.05.08-.11.14-.19.18-.08.04-.16.06-.26.06s-.18-.02-.26-.06ZM29.03,35.35c.05-.03.09-.07.13-.13.03-.06.05-.12.05-.21s-.02-.15-.05-.2c-.03-.06-.07-.1-.12-.13-.05-.03-.11-.04-.17-.04s-.12.01-.17.04c-.05.03-.09.07-.12.13s-.05.12-.05.2.01.15.04.21c.03.06.07.1.12.13.05.03.1.04.16.04s.12-.01.17-.04Z"/>
          <path class="cls-1" d="M30.48,34.52v1h-.17v-.15c-.03.05-.08.09-.13.12-.06.03-.12.04-.19.04-.08,0-.15-.02-.21-.05-.06-.03-.11-.08-.15-.15s-.05-.14-.05-.24v-.59h.16v.57c0,.1.03.17.07.23.05.05.12.08.21.08s.16-.03.21-.08c.05-.05.08-.13.08-.24v-.55h.17Z"/>
        </g>
      </g>
    </g>
  </g>
</svg>