<?xml version="1.0" encoding="UTF-8"?>
<svg id="Layer_2" data-name="Layer 2" xmlns="http://www.w3.org/2000/svg" viewBox="0 0 84 17.28">
  <defs>
    <style>
      .cls-1 {
        fill: #FFFFFF;
        stroke-width: 0px;
      }
    </style>
  </defs>
  <g id="Layer_1-2" data-name="Layer 1">
    <g id="Group_6105" data-name="Group 6105">
      <path id="Path_18187" data-name="Path 18187" class="cls-1" d="M74.41,17.13l-.06-.28s0,0,0-.01l-.21-.28-.03-.25-.04-.24s0,0,0,0l-.24-.48c.04-.2.09-.46.13-.68l.03-.13s0,0,0-.01c-.04-.19-.1-.42-.15-.62l-.04-.18s0,0,0-.01l-.33-.36.02-.64s0-.01,0-.02l-.18-.2s-.01,0-.02,0h-.23s-.2-.24-.2-.24c0,0-.02-.01-.03,0-.16.04-.36.1-.54.15l-.2.06-.66.07-.4-.26-.43-.55-.4-.57.09-.42s0,0,0-.01l-.15-.6c.24-.38.58-.91.84-1.31,0,0,0,0,0-.01l.06-.36.48-.55.15.1s.01,0,.02,0l.14-.02.09.05s.01,0,.02,0c.45-.1,1.04-.24,1.48-.35l.2.04v.22s-.13.18-.13.18c0,0,0,.01,0,.02,0,0,0,.01.01.02.33.17.76.39,1.08.56,0,0,.01,0,.02,0l.26-.05s.01,0,.02-.01c0,0,0-.01,0-.02l-.02-.11.06-.1.3-.02.03.06s.01.01.02.01l.17.04.07.08s0,0,.01,0l.3.1s.01,0,.02,0l.33-.1.24.09s.01,0,.02,0l.2-.09s0,0,0,0l.09-.1s0,0,0-.01l.15-.78s0-.03-.02-.03c0,0-.01,0-.02,0l-.07.03-.08-.03s-.02,0-.03,0l-.09.09h-.11s-.18-.09-.18-.09c0,0-.01,0-.02,0l-.11.02s0,0-.01,0l-.07.06-.19-.09-.16-.44s0,0,0,0l.35-.16s.02-.02.01-.04c0,0,0,0-.01-.01l-.03-.02c.14-.03.29-.07.44-.1l.21-.05.04.06s0,0,.01.01l.29.1s0,0,.01,0l.41-.08s.02-.02.02-.03l-.03-.2s0-.01-.01-.02l-.56-.4h0s.07.01.07.01c.01,0,.02,0,.03-.01l.09-.13s0-.03,0-.03l-.06-.06h.02s.01,0,.02,0l.07-.06s.01-.02,0-.03c0,0,0-.02-.02-.02l-.09-.03s-.01,0-.02,0l-.19.08s-.02-.02-.04-.01c0,0,0,0,0,0l-.15.09s-.01.02-.01.03l.02.12s.01.02.02.02h.08s-.28.11-.28.11l-.09-.11.08-.11s0-.03,0-.04c0,0,0,0-.01,0h-.11l-.03-.02h.07s.03-.03.02-.04-.01-.03-.03-.02h-.21s-.02,0-.02.01l-.13.17s0,0,0,.01v.12s-.09.05-.09.05c0,0-.01,0-.01.02l-.1.44s0,.02,0,.03l.1.09-.12.02s-.01,0-.01,0l-.07.07s0,0-.01,0l-.28-.06s0,0-.01,0l-.09.03s-.02.01-.02.02v.04l-.1-.02s-.02,0-.02,0c0,0,0,.01,0,.02l.03.29s0,.01,0,.01l.11.14h-.07s-.02,0-.02,0c0,0,0,.01,0,.02l.02.18h-.09s-.07-.02-.07-.02l-.06-.06.05-.12s0-.03-.01-.03l-.1-.04-.07-.11-.09-.17-.06-.28s0-.01-.01-.02l-.16-.1-.04-.09s0-.01-.02-.01l-.27-.1-.15-.23s0,0,0,0l-.11-.1s-.02,0-.03,0l-.11.09s0,.01,0,.02v.14s0,.02,0,.02l.09.06.05.07.11.18s0,0,0,0l.12.07.08.03v.05s0,.02.01.02l.16.08.12.11-.11-.07s-.03,0-.03,0l-.05.06s0,.02,0,.03l.05.07-.05.11-.04.02v-.02s.02-.02.02-.03l-.08-.19s0,0-.01-.01l-.17-.1-.17-.12-.19-.15-.11-.19-.13-.15s-.01,0-.02,0h-.14s-.01,0-.01,0l-.3.19-.23-.08s-.02,0-.02,0l-.14.1s-.01.01-.01.02v.17s-.44.39-.44.39c0,0,0,.02,0,.02l.02.13-.08.14-.1.03s0,0-.01,0l-.07.08h-.24s-.01,0-.01,0l-.15.1-.06-.11s-.01-.01-.02-.01h-.31s.02-.21.02-.21c0-.01,0-.02-.02-.03h-.02v-.08l.05-.24s0,0,0,0v-.18s.04-.17.04-.17c0,0,0-.02,0-.02l-.03-.05.1-.03s.01,0,.02-.01c0,0,0,0,0,0l.72.04s.02,0,.03-.02l.13-.38s0-.01,0-.02l-.1-.29s0-.01-.01-.02l-.25-.11h0s0-.02,0-.02l-.03-.04.11-.02.09.03s.01,0,.02,0l.14-.06s.02-.02.02-.03l-.03-.1h.03s.03.05.03.05c0,0,.01,0,.02,0l.17-.02s.02-.01.02-.02c0,0,0-.02,0-.02l.11-.06s.01,0,.01-.02l.04-.12.31-.08s.02-.02.02-.03c0,0,0-.01-.01-.02h-.02s0-.02.01-.02l.08-.18.28-.1s.01,0,.02-.01v-.03s.16,0,.16,0c0,0,0,0,.01,0l.08-.05s.02-.02.01-.03l-.11-.38.1-.16.15-.08.02.17-.15.23s0,.03,0,.04l.17.11-.03.05s0,.02,0,.03c0,0,.02.01.03,0l.22-.07.2.14s.03,0,.04,0c0,0,0,0,0-.01v-.04s0,0,0,0l.49-.11s0,0,0,0l.08.02s.03,0,.03-.02l.02-.06h.03s0,0,.01-.01l.04-.03s0,0,0-.01l.1-.39.2.09s.03,0,.03,0l.07-.1s0,0,0-.01v-.13s0-.02-.01-.02c0,0-.02,0-.02,0h-.03s-.04-.03-.04-.03l-.02-.07.41-.04s.01,0,.02,0l.05-.05.22-.02s.03-.01.02-.03c0,0,0-.02-.01-.02l-.17-.09v-.03s0-.02,0-.02c0,0-.02,0-.02,0l-.61.12-.15-.17-.06-.26.4-.43s0-.01,0-.02c0,0,0-.01-.01-.02l-.18-.12s-.02,0-.02,0l-.19.08s-.01.01-.02.02l-.02.16-.29.25s0,0,0,.01l-.12.4s0,.02.01.03l.17.12-.22.29s0,0,0,.01l-.03.24-.2.11s0,0-.01.01l-.04.07-.06.02-.06-.04c-.06-.15-.13-.34-.19-.52l-.07-.19s-.02-.02-.03-.02c0,0,0,0,0,0l-.26.26-.27-.09-.09-.31.12-.24.22-.12.18-.14.27-.29.21-.17s0,0,0,0l.06-.1c.1-.1.22-.23.33-.35l.12-.12.37-.13s0,0,.01,0l.1-.11.09-.02-.06.14s0,.03.02.03c0,0,.02,0,.03,0l.09-.11v.04s.03.02.04.02c.01,0,.02,0,.03-.01l.05-.09h.04l-.02.04s0,.02,0,.03c0,0,.02,0,.03,0l.06-.04.14.05-.02.03h-.12s-.02,0-.03,0c0,.01,0,.02,0,.03l.1.07s.01,0,.02,0l.2-.02h0s0,0,0,.01c0,.01,0,.02.02.03.27.11.63.27.9.38l.02.12-.04.06-.52-.11-.2-.04s-.03,0-.03.02c0,0,0,.02,0,.02l.23.21.11.25s0,.01.02.01l.27.09s.03,0,.03-.02c0,0,0-.01,0-.02l-.04-.09s0,0,0-.01l-.06-.04h.08s.22.06.22.06c.01,0,.03,0,.03-.02,0,0,0-.01,0-.02l-.08-.14.18-.15.16.05s.02,0,.02,0c0,0,0-.01,0-.02l-.02-.12s0-.01,0-.01l-.08-.08v-.14s-.02-.01-.02-.02l-.03-.03h.1s.1.09.1.09h-.07s-.02.03-.02.05c0,0,0,0,0,.01l.09.12s.01,0,.02.01h.13s0,0,0,0c.01,0,.03-.01.03-.02v-.09c.09-.05.18-.1.26-.16.04-.02.07-.05.1-.07l.12.09s.03,0,.04,0l.06-.07.22-.02v.03s0,.02.01.02c0,0,.02,0,.03,0l.09-.04s.01,0,.01-.02c0,0,0-.02,0-.02l-.06-.08c.11.02.24.04.35.07l.14.03.19.12s.03,0,.04,0c0,0,0-.02,0-.02l-.08-.14s0,0,0-.01l-.2-.12-.05-.14s0,0-.01-.01l-.11-.07.04-.11s0-.01,0-.02l-.06-.14h.19s.08.18.08.18c0,0,0,0,0,0l.14.13.21.34s0,0,0,0l.13.11.03.14-.06.09h-.1s-.03,0-.03,0c0,.01,0,.03.02.03l.26.09s.01,0,.02,0c0,0,.01,0,.01-.02l.06-.21s0-.01,0-.02l-.1-.2h.03s.15.11.15.11c.01,0,.03,0,.04,0,0,0,0-.02,0-.03l-.13-.14s-.01,0-.02,0h-.21s-.1-.14-.1-.14l-.07-.15s0,0,0,0l-.14-.13.03-.06.1.12s0,0,.01,0l.25.06s.02,0,.03-.02c0-.01,0-.03-.02-.03l-.21-.09v-.06s.31.07.31.07c.01,0,.02,0,.03-.01,0-.01,0-.02,0-.03l-.12-.11s0,0-.01,0l-.09-.02-.15-.15.14-.03.09-.02s.02-.02.02-.03c0,0,0,0,0-.01l-.13-.18c.09-.07.17-.15.23-.25,0-.01,0-.02,0-.03l-.09-.09v-.02s.05.02.05.02v.02s0,.02.02.03l.13.03.06.07s.01,0,.02,0h.06s.03,0,.03-.01c0,0,0-.02-.01-.03h-.02s.01,0,.01,0l.27.17.08.07c.07.13.14.26.2.4,0,.01.02.02.03.02.01,0,.02,0,.02-.02l.04-.11.2.02h0l.02.03s0,0,0,0l.1.06s.03,0,.03,0l.03-.04s0-.02,0-.03l.06.05.33.31.11.09s.03,0,.04,0l.04.04c.7.7,1.29,1.49,1.76,2.36l.19.39.06.11.05.11s0,0,0,0c.1.22.19.45.28.68.12.34.24.79.31,1.05-.01,0-.02.02-.01.03.02.15.04.33.05.49v.11s-.03-.08-.03-.08c0,0-.02-.02-.03-.01-.01,0-.02.01-.02.02h0s0-.06,0-.06c0,0,0-.01,0-.02l-.04-.04s-.02,0-.03,0c0,0-.02.01-.02.02l-.05.31s0,0,0,.01l.06.17s0,.01.01.01l.11.05-.05.37s0,0,0,0l.1.44s-.03,0-.04,0c0,0,0,.01,0,.02l.06.18-.03.13s0,.02,0,.02l.05.06c-.04.28-.12.64-.19.98-.05.07-.12.14-.18.21l-.08.09-.09-.03s-.03,0-.03.01l-.12.22s0,0,0,0l-.04.16s0,0,0,0c.02.15.03.33.04.5,0,.07,0,.15.01.21l-.07.32-.23.32v-.07s.02,0,.01-.01l-.13-.36.02-.09s0-.03-.02-.03c-.01,0-.02,0-.03.01l-.12.29v-.03s0-.03-.02-.03c-.01,0-.02,0-.03.01l.03-.23.05-.39v-.19s-.02-.03-.03-.03c0,0-.02,0-.02.01l-.09.16-.04.02v-.07s.03-.19.03-.19c0,0,0,0,0-.01l-.14-.71s-.02-.02-.03-.02c0,0-.01,0-.01,0l-.1.12-.23.06s-.02.01-.02.02v.11c-.16.19-.35.43-.51.62l-.07.09s0,0,0,.01l-.14.55-.12.26-.06.16-.1.08-.1-.4-.11-.69c.03-.2.05-.45.07-.67,0-.08.02-.16.02-.24,0-.01-.01-.03-.02-.03,0,0-.02,0-.02.01l-.1.18-.06.04-.13-.18.12-.07s.02-.02,0-.04c0,0-.02-.01-.03-.01h-.07s-.17-.13-.17-.13l-.08-.22s-.01-.02-.02-.02c-.2,0-.45-.02-.67-.03h-.14s-.29-.21-.29-.21c0,0-.01,0-.02,0h-.23s-.42-.52-.42-.52c0,0-.02-.01-.03,0l-.22.11s-.02.02-.01.03l.32.74s.02.02.04.01c0,0,.01-.01.01-.02v-.02s.02.15.02.15c0,0,0,.01.01.02,0,0,.01,0,.02,0l.32-.05s.01,0,.02-.01l.19-.25.03.23s0,.01.01.02l.2.14.08.24-.12.17h0s-.01-.02-.03-.02c-.01,0-.02,0-.03.02l-.06.21-.25.19s0,0,0,0l-.07.13h-.08s-.01,0-.01,0l-.13.06s0,0,0,0l-.11.14c-.21.1-.49.23-.72.33l-.11.05-.11-.08c-.31-.8-.63-1.52-.95-2.21l.03-.22s0-.03-.02-.03c-.01,0-.03,0-.03.02l-.07.22-.18-.29s-.03-.01-.04,0c0,0-.01.02,0,.03.23.65.26.75.58,1.71h0s0,.02,0,.02l.13.14.11.39s0,.01.01.02l.14.07.37.61s.02.01.03.01c.16-.04.36-.08.54-.12l.15-.03-.2.48-.28.54-.46.33s0,0,0,0c-.17.23-.41.55-.71.94,0,0,0,.01,0,.02,0,.29,0,.69,0,.94-.22.21-.52.49-.74.7,0,0,0,.01,0,.02l.03.18-.07.21-.19.08s-.01,0-.01.01l-.15.32-.51.44-.09.08-.54.13-.14-.15ZM80.14,17.26l.14-.1.25-.25.31-.36c.12-.12.26-.27.39-.42.02-.03.05-.05.07-.08,0,0,.02,0,.03,0l.17-.17.27-.17c.15-.16.35-.37.5-.55,0,0,0,.02.01.02,0,0,.02,0,.02,0l-.16.23c-.29.39-.61.76-.96,1.11-.15.15-.31.3-.48.45,0,0,0,0,0-.01,0,0-.02-.01-.03,0l-.25.16-.08.06c-.05.03-.12.05-.19.08h0ZM76.83,16.28l.08-.37.15-.19s0,0,0-.01l.02-.22.09-.16.2-.07s0,0,.01,0l.3-.31.06.03-.06.24s-.01-.01-.02-.01c0,0-.02,0-.02.01-.2.36-.4.71-.6,1.06l-.12.04-.08-.04ZM82.59,14.42h0,0s0,0,0,0ZM82.34,14.35s-.01,0-.02,0h0s-.01,0-.02,0h0s-.11-.09-.11-.09h0s0-.02,0-.02v-.09s.04-.02.04-.02c.04.02.08.04.13.07l.05.03v.08s-.04.09-.04.09l-.03-.03ZM82.21,14.03s-.01-.01-.02-.01c.07-.45.08-.9.04-1.35l.04.02c.05.19.1.46.14.65l-.05.09s0,.01,0,.02l.02.04-.07.2s0,.01,0,.02l.02.08-.12.24h0ZM82.73,13.77s-.01,0-.02,0h-.06s.02-.04.02-.04c0,0,0-.02,0-.03,0,0-.01-.01-.02-.01h-.02l.07-.2s0-.02-.01-.03v-.05s.04-.04.04-.04c0,0,0,0,0,0v-.07s.07-.14.07-.14h.01s.02.04.02.04c0,.01.01.02.02.02.01,0,.02,0,.03-.02l.05-.14c.1-.14.21-.31.32-.47l.04-.07v.14s-.03.03-.03.03c0,0,0,.01,0,.02v.06s-.06.05-.06.05c0,0,0,0,0,.01l-.05.19-.03.06s0,0,0,0v.06c-.08.14-.17.31-.26.48l-.08.14s-.01,0-.01,0h0s0,0,0,0h0ZM82.97,13.66s0,0-.01,0c0,0,0,0,0,0l.07-.14.03-.05s0,.02.01.02c0,0,0,0,0,0l-.06.07s0,0,0,.01l-.02.08h0ZM83.15,13.28l.03-.05h.02s-.02.05-.02.05h-.02ZM82.49,13.02l.04-.2.03-.2-.02-.28v-.06s.01.1.01.1l.05.32-.1.39-.03-.07ZM81.19,12.32l.04-.15.02-.02s0,0,0,0v-.05s.02.23.02.23l-.08.06h0s0-.07,0-.07ZM83.56,12.33s0,0,0-.01c0,0,.01,0,.01-.01v-.02s-.01.07-.01.07c0,0,0,0-.01,0v-.03ZM83.37,10.7l.06-.06-.03.1-.03.04v-.08ZM76.52,8.17l.12-.03-.03.05-.1-.02ZM75.34,8.14h0s.06,0,.06,0h-.07ZM83.98,7.92l.02.08v.1s-.02-.18-.02-.18ZM73.94,7.71h.28s0,0,0,0l-.03.13-.09.03-.17-.16ZM83.91,7.68v-.09s.01.11.01.11v-.02ZM73.36,7.45s0-.01,0-.02l-.02-.03.03-.06s0-.02,0-.02l-.03-.05.13.03-.02.16-.05.05h-.04s0-.06,0-.06ZM73.37,7.03l.04-.03v.07s-.04-.04-.04-.04ZM71.8,5.58l.17-.05s.01,0,.01-.01l.06-.09s0-.02,0-.03c0,0-.02-.01-.03,0l-.11.04h-.04s0-.02,0-.02c0-.01-.01-.02-.02-.02h-.08s.09-.04.09-.04c0,0,.01-.01.02-.02l.02-.12s0-.02,0-.02c0,0-.02,0-.02,0h-.04s0-.02,0-.02l.03.02s0,0,.01,0h.11s.04-.02.04-.02c.01,0,.02-.01.02-.02v-.29s0-.01,0-.02c0,0-.01,0-.02,0l-.18.02.04-.2s0-.02-.02-.03h-.03s.02-.06.02-.06c0,0,0-.02,0-.02v-.02s-.02-.01-.02-.01c0,0-.01,0-.02,0l-.06.04.07-.08s0-.02,0-.02h0s0-.03,0-.03c0,0,0,0,0-.01v-.02s.03,0,.03,0c.01,0,.02,0,.03-.01,0,0,0-.02,0-.03l-.02-.03h.02s0,0,.01-.01l.03-.03.11-.02-.07.07h-.03s-.03,0-.03.02c0,0,0,0,0,0,0,.01,0,.03.02.03h0s-.02.02-.02.02c0,0,0,.01,0,.02,0,0,0,.01,0,.02h0s.01.02.02.01l.21-.02-.09.19-.08.03s-.01,0-.02.02c0,0,0,.02,0,.02l.3.35s-.02,0-.02,0c0,0,0,.02,0,.03l.08.14s0,.01.02.01l.15.04-.13.16s0,.03,0,.04l.05.05-.16.04-.08-.03s-.01,0-.02,0l-.41.12.05-.06ZM71.21,5.37h-.05s0-.02,0-.02l.18-.08s.02-.02.01-.04c0,0-.01-.01-.02-.01h-.06s.06-.06.06-.06c0,0,0-.02,0-.03,0,0,0-.02-.02-.02l-.09-.03.06-.1h.07s.01.01.02,0l.09-.04s.02-.01.02-.03c0-.01,0-.02-.02-.02h-.02s.11-.06.11-.06c0,0,.01,0,.02,0h.09s.04.04.04.04l-.1.13s0,.01,0,.02l.03.14-.04.1-.35.1s0-.01-.02-.01h0ZM73.69,4.71v-.03s.07,0,.07,0l.07.1-.04.07-.1-.13ZM74.97,4.26h.06s-.05.03-.05.03v-.03ZM68.35,3.79c.02-.27.06-.64.11-.97l.21-.31.2-.09s0,0,.01,0l.11-.14s0-.02,0-.03c0,0-.02-.01-.03,0l-.16.05-.04-.02.1-.15s0,0,0,0l.05-.15.22-.29s0,0,0,0c.04-.1.1-.22.16-.32.02-.05.05-.09.07-.13,0,0,0-.02,0-.03,0,0-.01-.01-.02-.01-.1,0-.22-.02-.33-.03.03-.07.08-.16.12-.23l.04-.07.1-.07c.1-.03.22-.07.33-.1l.11-.03s0,0,0,0l.17-.11s.02-.02,0-.04v-.02c.14-.06.36-.14.64-.24.19.01.25.02.54.03.01,0,.02,0,.03-.02l.04-.12.24-.08.15.03s.01,0,.02,0l.11-.05c.23.05.32.06.54.1l-.1.03s-.03.01-.03.03c0,.01.01.03.03.03h.05s-.09.1-.09.1c0,.01,0,.03,0,.04,0,0,.02,0,.02,0l.18-.06.08.02s.01,0,.02,0l.08-.05.14-.02.07.03-.29.1s-.01,0-.02.02c0,0,0,.02,0,.02h0s-.32.2-.32.2c0,0,0,0,0,0l-.16.16s0,.02,0,.03l.04.11-.24.16s-.01.01-.01.02c0,0,0,.02,0,.02l.07.07-.06.25-.43.44s0,0,0,.01l-.03.17-.09.14c-.57.25-1.14.51-1.71.77,0,0,0,0-.01,0-.26.35-.58.8-.72.99l-.34-.15ZM67.05,3.54v-.05s0-.02-.01-.02l-.04-.02h0s0-.03,0-.04l-.02-.03.04-.03s.01-.02.01-.03l-.04-.19s-.01-.02-.02-.02c-.01,0-.02,0-.03.01l-.03.04h-.1s.01-.03.01-.03l.05-.05h.51l-.02.04s0,.03.01.03c0,0,.01,0,.02,0h.02s-.01.11-.01.11l-.03.05h0s-.03,0-.03.01l-.04.1s0,0-.01,0c0,0,0,0,0,0l-.04-.13s-.01-.02-.02-.02c-.01,0-.02,0-.03.02h0s0,0,0,0c0,0-.02-.01-.03-.01-.01,0-.02,0-.02.02l-.03.11s0,.01,0,.02l.05.11-.03.06-.1-.06ZM66.38,3.29s0,0,0,0l.04-.04.05-.07.08-.09h.05l-.05.13s-.02-.02-.04,0c0,0,0,0,0,0l-.12.1s0-.02,0-.02h0ZM66.54,3.29h.01s-.01.02-.01.02v-.02ZM70.86,3.2l-.02-.04s-.02-.02-.03-.01h-.1s.05-.03.05-.03c.01,0,.01-.03,0-.04,0,0,0,0,0,0,0,0,0,0,0-.01v-.04s-.01-.02-.02-.02h.05s.02-.02.02-.03v-.02s0-.02,0-.02h0s0,0,0,0h0s0,.03,0,.03c0,.01.02.02.03.02,0,0,.01,0,.01,0l.1-.14.04.05s.01,0,.02,0c0,0,.01,0,.02-.01l.04-.05.04.05s.02.01.03,0c.01,0,.02-.01.02-.02v-.05s.35.1.35.1v.05s-.19.13-.19.13l-.29.13h-.19ZM66.89,3.08l.04-.04.19-.02s.02,0,.02-.02l.02-.08.27-.22s0,0,0,0l.06-.14s0,0,0-.01v-.13s0,0-.01-.01l.03-.03s.01-.01,0-.02v-.09s.04-.06.04-.06c0,0,0-.02,0-.03l-.02-.05s-.01-.02-.02-.02c-.01,0-.02,0-.02.02l-.03.06-.08-.02s-.03,0-.03.02v.02s-.02,0-.02,0l-.02.02-.09-.08.05-.08h.04s.02.01.03,0c0,0,.01-.01,0-.02v-.06s.09-.1.09-.1l.36-.28h0s-.01.02,0,.03c0,.01.02.02.03.01l.1-.03-.05.07-.11.11s0,.01,0,.02v.02s.01.03.03.03c0,0,0,0,0,0h.05s0-.01,0-.01l.09-.06h.03s0,.1.01.15v.06s-.1.06-.1.06c-.01,0-.01.03,0,.04,0,0,.02.01.03.01l.06-.02.03.05-.1.05s-.01.01-.01.02v.05s0,.02,0,.03h-.01s-.02.02-.02.03v.04s-.05.06-.05.06h-.04s-.01.01-.02.02c0,0,0,.02,0,.02.03.06.06.12.1.18l.03.06-.05.05s-.01.02,0,.03c0,.01.02.02.03.02h.06s-.04.08-.04.08h-.05s-.03.01-.03.03c0,0,0,.01,0,.02h0s-.09.02-.09.02c0,0-.01,0-.02.01l-.07.11v-.06s.08-.07.08-.07c.01,0,.01-.02,0-.03,0-.01-.02-.02-.03-.01l-.05.02v-.05s-.01-.03-.03-.03c0,0,0,0,0,0h-.05s-.02.02-.02.02l-.04.08h-.02s-.02,0-.03,0l-.04.08s0,.03.01.04c0,0,0,0,0,0h0s-.03.06-.03.06h-.51ZM65.94,3.08c.07-.08.14-.17.21-.25,0,0,0,0,0,0,.01,0,.03,0,.04,0l.21-.25.05-.05.02.07s0,.02.02.02c0,0,0,0,.01,0h0s0,.02,0,.02l-.03.07s0,.03.02.03c0,0,.02,0,.03,0l.16-.18.1-.08.07-.08s0,0,0-.01l.06-.05h0l-.12.17s0,.03,0,.04c0,0,.02,0,.03,0l.04-.04-.07.15s0,.03,0,.03c.01,0,.02,0,.03,0l.28-.27.09-.13.03-.02v.06s-.07.1-.07.1h-.05s-.01.02-.02.03l-.17.26-.09.06h0s0-.03-.02-.03c-.01,0-.02,0-.03.01l-.03.05s-.02-.02-.03-.02c0,0,0,0,0,0l-.07.03s-.01.01-.02.02v.03s-.1.09-.1.09l-.08-.06s-.03,0-.04,0c0,0,0,.02,0,.02l.04.13-.03.03h-.49ZM66.54,3.08l.02-.02.03.02h-.05ZM70.7,2.87s0-.01,0-.02v-.05s.09-.02.09-.02l.04.03h-.02s-.01.03-.01.04v.02s-.11,0-.11,0ZM66.7,2.4s0,0,0-.01l.04-.03v.03s-.04.02-.04.02c0,0,0,0,0,0ZM77.23,2.33l.04.02-.03.02v-.04ZM66.9,2.32l.02-.09.16-.18.06-.04-.1.14-.11.08s-.01.03,0,.04c0,0,0,0,0,0l.02.02-.03.02s0,0,0,0h0s0,0,0,0ZM66.66,2.28s-.01,0-.02,0h0l.06-.06.07-.06s0,0,0,0l.02-.03s.08-.08.13-.12l.02-.02h0s.07-.07.07-.07h0s-.1.11-.1.11c0,0,0,0,0,0l-.08.14-.1.09s-.03,0-.04,0l-.04.04h0ZM67.98,2.21h0s-.03.02-.03.02l.03-.02ZM77.33,1.95l-.09-.11.03-.06s0-.01,0-.02l-.02-.08.04-.07s0-.02,0-.03l-.05-.09c.05-.08.09-.19.14-.28l.03-.06c.11-.03.25-.06.37-.09l-.05.11-.21.16s0,0,0,.01l-.06.16s0,0,0,0v.29s.02.01.02.02l.23.2h-.16l-.21-.09ZM67.28,1.75h0s.02,0,.03,0l.02-.02s0,0,0,.01l-.11.09.06-.08ZM67.98,1.64l.1-.09h.01s-.04.12-.04.12h-.1s.03-.03.03-.03ZM67.58,1.59l.12-.07-.21.16h-.01l.1-.09ZM68.19,1.35s0-.03,0-.04c0,0-.01,0-.02,0,0,0-.01,0-.02,0l-.05.05h-.07s0,0,0,0c0-.01,0-.03,0-.04,0,0-.02,0-.03,0h-.02s0,.01,0,.01l.18-.16-.03.05s0,.03,0,.04c0,0,.02,0,.02,0h.02s0,0,0,0c0,0,.01.01.02.01,0,0,.02,0,.02-.01h.01s.07-.04.07-.04l.04.04-.04.02s-.01.01-.01.02h0s-.07.06-.07.06h-.03s.01-.02.01-.02ZM74.32,1.2h.08s.02,0,.03-.02l.02-.07s0-.03-.02-.03l-.1-.03.13-.06s.02-.02.01-.04c0,0-.01-.01-.02-.01l-.12-.02s0,0-.01,0l-.15.03v-.08s0-.02-.02-.02l-.1-.06v-.06s.09-.01.09-.01c0,.01,0,.02.01.03.02.01.04.02.06.03,0,0,.02,0,.02-.01h0s.02.11.02.11c0,.01.01.02.02.02h.1s.03,0,.03-.01c0,0,0,0,0-.01l-.04-.14.06-.02.14.15s0,0,0,0l.09.05h-.07s-.02,0-.02.02c-.07.12-.12.24-.16.37l-.12-.1ZM74.91,1.16s-.01-.02-.02-.02h0l-.08.02v-.04s0-.01,0-.02v-.02s.08-.02.08-.02l.05.06s0,0,.01,0h0s0,.06,0,.06h-.02s-.02-.03-.02-.03ZM67.95,1.18h0s0,0,0,0c0,0,0,0,0,0ZM68.19,1.09l.09-.07v.02s-.02.03-.02.03c0,0,0,.01,0,.02h0s-.05.03-.05.03v-.03ZM68.59,1.06s-.01-.02-.02-.02h-.15s.17-.09.17-.09c0,0,0,0,0,0h0s0,0,0,0c0,.01.02.01.03,0l.05-.03.23-.16s0,0,0-.01h.06s0-.01.01-.01l.27-.23-.03.04s0,.03,0,.04c0,0,.02,0,.03,0l.11-.1.26-.07s.01,0,.02-.01v-.02s.16-.07.16-.07c.01,0,.02-.02.01-.04,0-.01-.02-.02-.03-.01l-.24.09s0,0,0-.01h.03s.02-.03.01-.05c0,0,0-.01-.01-.01,0,0,0-.01,0-.02l.17-.05s0,0,.01,0l.02-.02h.02s0,0,0,0h0s-.01.03-.01.04c0,.01,0,.02,0,.03.01,0,.02,0,.03,0l.09-.09.13-.05h.03s0,0,0,0h.01s0,0,0,0c0,.01,0,.03.02.03,0,0,.02,0,.02,0l.07-.05h0s-.01.03,0,.04c0,.01.02.01.03,0l.07-.04h.04-.01s-.02.02-.02.03c0,.01,0,.02.02.02.02,0,.04,0,.06.01l-.25.06-.07.02s-.02.02-.02.03c0,0,0,0,0,0l-.15.04s-.02.02-.02.03c0,0,0,.01,0,.01l-.2.08-.08.03s-.02.02-.02.03h0s-.08.04-.08.04h-.02s-.02-.01-.03,0l-.05.04-.17.03s-.01,0-.02.01c0,0,0,.01,0,.02h0s-.03.01-.03.01c-.01,0-.02,0-.03.02v.04s-.07,0-.07,0c0,0-.02,0-.02.02v.03s-.13.06-.13.06h-.01s-.02-.01-.03,0l-.09.07-.15.09s-.02.02,0,.04c0,0,0,0,0,0l-.03.03h-.02s-.02,0-.03,0l-.03.02s0,0,0,0ZM74.73.95h0s.03.04.03.04h-.05s.02-.04.02-.04ZM74.74.72s0,0,0,0c0,0,0-.01,0-.02,0,0,0-.01-.01-.02,0,0,0,0,0,0l.09-.07.12.03.02.11s0,.02,0,.02h0s-.07.02-.11.03c-.04-.02-.07-.05-.11-.08h0ZM78.8.66h0l.18.1h0s-.02,0-.02,0c0,0-.02,0-.02,0l-.03.02-.12-.11ZM74.68.74h.02s0,0,0,0h-.01ZM68.8.69l.05-.02-.04.02s0,0,0,0ZM74.57.67h0s.03,0,.03,0c0,0,.02,0,.03-.01,0,0,0-.02,0-.03h0s.09.05.09.05h-.14ZM78.59.63l-.18-.09s0,0,0,0h-.08s-.08-.05-.08-.05l-.07-.06h0s0-.03,0-.03l-.06-.05.14.06.08.07s0,0,0,0l.09.03.05.05s.02,0,.03,0h.03s.12.07.12.07h-.06ZM68.96.62s0,0,0,0c0,0,0-.02,0-.02v-.02s.02-.01.02-.01c0,0,0,0,0,0l.04-.04s.02,0,.03,0l.02-.02.04-.02s.02-.02.01-.03l.09-.04h-.02s0,.01,0,.01l-.02.03s0,0,0,0l-.12.08s-.01.01-.01.02c0,0,0,.01,0,.02l-.09.03s0,0,0,0h0ZM76.09.43l.02-.03s0,0,0-.01h.05s.02,0,.02,0h-.04s-.02.02-.02.03c0,0,0,.01,0,.02h-.03ZM76.73.4l-.03-.02h.02s.06.02.06.02h0s-.04,0-.04,0ZM69.27.39h0s-.01,0-.01,0h0ZM76.45.36h0s.06.01.06.01h0s-.06-.01-.06-.01ZM76.44.28h0s.04,0,.04,0h-.04Z"/>
      <path id="Path_18186" data-name="Path 18186" class="cls-1" d="M50.79,16.86c-.16-.09-.3-.22-.4-.38-.1-.17-.15-.36-.14-.55,0-.19.05-.38.14-.55.09-.16.23-.29.4-.38.35-.18.78-.18,1.13,0,.16.09.3.22.4.38.1.17.15.36.14.55,0,.19-.05.38-.14.55-.09.16-.23.29-.4.38-.35.18-.78.18-1.13,0ZM50.99,15.29c-.11.06-.2.15-.26.26-.06.11-.1.24-.09.38,0,.13.03.26.09.38.06.11.15.2.26.26.23.12.51.12.74,0,.11-.06.2-.15.26-.26.06-.12.1-.24.09-.38,0-.13-.03-.26-.09-.38-.06-.11-.15-.2-.26-.26-.23-.12-.51-.12-.74,0h0ZM65.35,16.96v-2.08h.38v2.08h-.38ZM69.87,16.96v-2.08h1.5v.32h-1.12v.54h.99v.32h-.99v.57h1.16v.32h-1.54ZM66.87,16.96v-2.08h.9c.2,0,.4.04.58.13.16.08.3.21.4.37.1.17.14.35.14.54,0,.19-.04.38-.14.54-.09.16-.23.28-.4.37-.18.09-.38.13-.58.13h-.9ZM67.25,16.64h.5c.14,0,.27-.03.4-.09.11-.06.2-.14.26-.25.06-.11.1-.24.09-.38,0-.13-.03-.26-.09-.37-.06-.11-.15-.19-.26-.25-.12-.06-.26-.09-.4-.09h-.5v1.42ZM63.37,16.96l-.51-1.54-.52,1.54h-.41l-.68-2.08h.4l.51,1.58.53-1.58h.35l.52,1.59.52-1.59h.36l-.68,2.08h-.4ZM58.52,16.96v-2.08h.9c.2,0,.4.04.58.13.16.08.3.21.4.37.1.17.14.35.14.54,0,.19-.04.38-.14.54-.09.16-.23.28-.4.37-.18.09-.38.13-.58.13h-.9ZM58.9,16.64h.5c.14,0,.27-.03.4-.09.11-.06.2-.14.26-.25.06-.11.1-.24.09-.38,0-.13-.03-.26-.09-.37-.06-.11-.15-.19-.26-.25-.12-.06-.26-.09-.4-.09h-.5v1.42ZM56.18,16.96v-2.08h.38v1.75h1.07v.33h-1.45ZM54.79,16.96l-.42-.61s-.05,0-.08,0h-.46v.6h-.38v-2.08h.84c.16,0,.32.03.46.09.12.05.23.14.3.26.07.12.11.26.11.39,0,.14-.04.28-.11.4-.08.12-.19.2-.32.25l.47.68h-.41ZM53.83,16.04h.45c.13,0,.27-.03.38-.11.09-.08.14-.19.13-.31,0-.12-.04-.23-.13-.31-.11-.08-.24-.12-.38-.11h-.45v.83ZM48.44,16.96l-.51-1.54-.52,1.54h-.41l-.68-2.08h.4l.51,1.58.53-1.58h.35l.52,1.59.52-1.59h.36l-.68,2.08h-.4Z"/>
      <path id="Path_18185" data-name="Path 18185" class="cls-1" d="M28.91,16.96h-.72l-2.1-4.04c-.17.01-.34.02-.49.02h-2.26v-1.92h2.33c1.31-.03,2.67-.59,2.67-1.97s-1.57-1.96-2.87-1.96h-2.13v-1.92h2.35c2.73,0,5.3,1.25,5.3,3.9.02,1.62-1.04,3.05-2.59,3.51l2.28,4.38h-1.77ZM42.14,16.96h-.72l-2.12-4.08h-2.64v-1.8s1.7,0,1.7,0l-1.68-3.23-2.61,5.02h-2.52l4.04-7.71h2.19l6.12,11.78h-1.77ZM65.15,12.89c1.17-2.93-6.9-.06-6.9-4.35,0-2.3,2.61-3.37,5.24-3.37,1.49,0,2.97.33,4.07,1.15l-1.85,1.53c-.54-.6-1.5-.88-2.49-.88-1.16,0-2.33.41-2.33,1.43,0,2.15,6.71-.47,6.71,4.49h-2.46ZM54.08,12.89v-4.91h2.53v4.91h-2.53ZM45.61,12.89v-5.81h-4.35v-1.9h11.23v1.9h-4.35v5.81h-2.53ZM14.79,12.89v-5.81h-4.35v-1.9h11.23v1.9h-4.35v5.81h-2.53ZM6.89,12.89c1.17-2.93-6.89-.06-6.89-4.35,0-2.3,2.61-3.37,5.24-3.37,1.48,0,2.97.33,4.07,1.15l-1.85,1.53c-.54-.6-1.5-.88-2.49-.88-1.16,0-2.33.41-2.33,1.43,0,2.15,6.71-.47,6.71,4.49h-2.46ZM54.08,7.08v-1.9h2.53v1.9h-2.53Z"/>
    </g>
  </g>
</svg>