<?xml version="1.0" encoding="UTF-8"?>
<svg id="Layer_2" data-name="Layer 2" xmlns="http://www.w3.org/2000/svg" viewBox="0 0 84 24.86">
  <defs>
    <style>
      .cls-1 {
        opacity: .8;
      }

      .cls-1, .cls-2, .cls-3, .cls-4, .cls-5 {
        stroke-width: 0px;
      }

      .cls-1, .cls-3, .cls-4 {
        fill-rule: evenodd;
      }

      .cls-1, .cls-4, .cls-5 {
        fill: #FFFFFF;
      }

      .cls-2, .cls-3 {
        fill: #fff;
      }
    </style>
  </defs>
  <g id="Layer_1-2" data-name="Layer 1">
    <g>
      <path class="cls-1" d="M20,0H.02v14.42c0,.19-.02.38-.02.57,0,5.45,4.47,9.86,9.99,9.86s9.99-4.42,9.99-9.86c0-.03,0-.06,0-.09h.02V0h0Z"/>
      <path class="cls-4" d="M19.22.93H.81v13.35c0,.18.04.35.04.53,0,5.07,4.14,9.18,9.21,9.18s9.2-4.11,9.2-9.18c0-.03-.03-.06-.03-.08h0V.93Z"/>
      <path class="cls-3" d="M15.88,4.83v-.03c-.75.17-.87.85-1.37,1.24,0-.77-.04-1.32-.16-1.89-.01-.01-.02-.02-.03-.03h-.03c-.27.84.28,1.38.2,1.99,0,.06-.02.11-.04.17.03-.06.07-.12.1-.17.35-.52,1.02-.64,1.34-1.27ZM14.2,6.76c.11-.17.19-.33.24-.49-.09.16-.16.32-.24.49ZM10.17,3.88c-.4.34-.35,1.07-.33,1.76-.02.01-.04.02-.07.03-.38-.52-.7-1.07-1.3-1.37.17.86.99.87,1.34,1.47.06.1.1.2.14.32-.02-.15-.05-.3-.07-.45.08-.58.33-1,.29-1.76ZM10.04,6.62c0-.19-.03-.36-.08-.53.03.18.06.35.08.53ZM16.54,10.86c.65-.13,1.19.09,1.57-.26h.07c-.51-.4-1.35.17-1.79.23.23-.65.72-.91.88-1.73-.74.45-.5,1.17-.98,1.76-.41.51-2.1.88-3.07.88.33-.44.78-.76,1.4-.91.55-.13,1.1.1,1.47-.16h.07c-.36-.28-1.07,0-1.37.1v-.03c.27-.12.4-.37.62-.49.25-.14.68-.18.91-.26.03-.04.07-.09.1-.13-.51,0-.68.19-1.01.36.13-.38.33-.57.33-1.11-.61.6-.04,1.1-1.08,1.63.22-.39.48-.65.65-1.11v-.2c-.4.29-.6.84-.75,1.37-.15.04-.3.09-.46.13h-.1c.25-.35.5-.7.75-1.04.1-.21.2-.41.29-.62.44-.5,1.24-.47,1.5-1.17-.77.27-.84.68-1.34.95-.04.04-.09.09-.13.13-.11-.3.09-.77.13-1.08-.04-.28-.09-.57-.13-.85-.24.24-.29.94-.16,1.34-.52.1-.74.29-1.14.42.17-.39.37-.66.36-1.24-.35.34-.15.86-.42,1.3-.21.34-.76.55-1.14.72.36-.47.83-.66,1.08-1.27-.75.19-.74,1.04-1.34,1.34h-.03c.29-1.76,1.89-2.58,3.33-3.2.13-.14.26-.28.39-.42v-.03c-1.08.06-1.33.8-2.06,1.11.11-.17.19-.35.28-.55-.43.67-1.22,1.39-1.65,1.69.02-1.48,1.13-1.24,1.66-2.12v-.03c-.58.11-.74.48-1.11.78.1-.26.2-.52.29-.78.2-.32.52-.41.69-.82-.33.11-.54.41-.65.75-.02.01-.04.02-.07.03-.09-.31-.12-.74-.2-1.01-.03-.02-.07-.04-.1-.07.02.86.45,1.27-.07,1.86v.07c-.13-.35.02-1.02-.07-1.4-.02-.01-.04-.02-.07-.03-.14.53,0,1.01.03,1.53-.03.05-.07.11-.1.16-.07.05-.13.11-.2.16-.01-.49-.02-.98-.03-1.47.16-.66.59-.94.59-1.89-.41.37-.56,1-.59,1.76h-.03c-.05-.37-.2-.68-.26-.98-.1-.46.17-.89.13-1.37h-.16c-.08.43-.04.77-.03,1.27-.39-.31-.57-.85-1.14-.98v.03c.31.59.83.59,1.14,1.01.29.39.2,1.26.2,1.83h-.03c-.13-.44,0-1.35-.26-1.73v-.07h-.03c-.11.47.02.88.1,1.3-.28-.29-.24-.78-.62-.98-.04-.04-.09-.09-.13-.13h-.03c.14.75.78,1.02.98,1.73-.04.27-.09.54-.13.82-.26,1.1-.51,2.05-1.01,2.9-.27.42-.54.85-.82,1.27-.02.01-.04.02-.07.03-.07-.37-.13-.74-.2-1.11.4-.54,1.16-.67,1.5-1.27-.59.11-.76.49-1.14.78.1-.25.2-.5.29-.75.2-.33.58-.38.69-.85h-.03c-.31.2-.4.5-.65.75-.01.02-.02.04-.03.07-.04-.39-.04-.8-.23-1.04v-.07c-.31.43.26.85.2,1.24-.1.22-.2.43-.29.65-.02.01-.04.02-.07.03.02-.5.05-.99-.03-1.44h-.07c-.1.56.02.99.03,1.57v.03c-.07.05-.13.11-.2.16-.22-1.07-.56-1.98.55-2.54.02.21.07.29.23.36.07.01.13.02.2.03.02-.03.04-.07.07-.1-.02-.25-.1-.26-.23-.39v-.03c.08-.02.15-.04.23-.07,0,.31.09.33.26.46.15-.07.41-.49.36-.62-.01-.03-.02-.07-.03-.1-.4-.07-.68.19-1.01.33.47-.49,1.01-.64,1.34-1.3v-.03c-.51.16-.74.47-1.11.75.08-.21.15-.41.23-.62v-.16c-.63.38-.5,1.4-1.14,1.76.02-1.81.99-1.9,1.01-3.43-.76.56-.54,1.18-.95,2.06-.01.02-.02.04-.03.07-.02-.15-.05-.31-.07-.46.04.88-.31,1.93-.42,2.51-.95-.96.24-1.78.26-2.9-.34.25-.47.7-.52,1.24-.28-.64-.01-1.1,0-1.83-.02-.01-.04-.02-.07-.03-.11.33-.15.59-.13,1.04h-.03c-.29-.27-.4-.59-.78-.78.2.79.92.5.91,1.73h-.03c-.12-.39-.35-.91-.68-1.11-.03-.03-.07-.07-.1-.1h-.03c.12.65.56.79.78,1.27.08.2-.03.43-.07.62h-.03c-.22-.51-.7-.82-.95-1.27-.46-.85-.07-1.8-.82-2.45-.07,1.06.38,1.54.69,2.25-.38-.32-.76-.63-1.14-.95-.13-.32-.26-.63-.39-.95-.15-.17-.3-.35-.46-.52-.03-.01-.07-.02-.1-.03.08.69.51,1.14.91,1.5.01.03.02.07.03.1-.66-.08-1.17-.31-1.92-.2.49.51,1.31.04,1.99.26.66.22,1.48,1.54,1.79,2.19h-.16c-.47-.37-.66-1.03-1.4-1.14.3.56.83.68,1.24,1.11-1.07-.23-1.27-.71-1.63-1.63-.07-.05-.13-.11-.2-.16.03.57.32.81.52,1.21-.36-.14-.71-.36-1.21-.26.32.28.85.1,1.27.33.23.12.38.34.69.42-.23.07-1.08-.04-1.5.07-.01.02-.02.04-.03.07.45.1,1.72-.09,1.92.07-.32.03-1.02.13-1.14.36-.05.12,0,.18.03.29.15.03.2.02.33-.03.02.07.04.13.07.2.09.04.11.06.26.07.04-.05.09-.11.13-.16.05-.23,0-.32-.13-.46.22-.17.63-.24,1.01-.23.17.48.35.96.52,1.44-.3-.23-.47-.78-.59-1.17-.09-.08-.17-.15-.26-.23.05.49.28.72.49,1.04-.32-.26-.48-.6-.98-.68.46.77,1.16.59,1.5,1.7-.63.23-1.06-.95-1.53-1.21.11.5.49.64.75.98-.37-.2-.61-.46-1.17-.49v.03c.3.29.82.43,1.27.55.02.03.04.07.07.1-.64-.09-1.55-.31-1.83-.78-.23-.39-.08-.92-.39-1.21-.01-.02-.02-.04-.03-.07h-.03c.04.49.21.71.33,1.08-.3-.28-.37-.68-.85-.78.25.49.73.63.98,1.11-.51-.32-1.26-.88-1.47-1.47-.09-.27.07-.6.1-.78.08-.5-.1-.88-.2-1.21-.02-.01-.04-.02-.07-.03-.08.71.08,1.22.1,1.92h-.03c-.54-.39-.76-.77-1.5-1.01.25.59.86.64,1.37.98.33.41.65.83.98,1.24-.35-.21-.7-.41-1.04-.62-.34-.13-.74-.1-1.14-.2-.01.01-.02.02-.03.03.5.63,1.32.55,2.19.85.37.26.74.52,1.11.78h.07c-.57.24-.89-.27-1.27-.42-.25-.04-.5-.09-.75-.13-.01.01-.02.02-.03.03.16.2.45.38.75.42-.35.12-1,.08-1.34.16-.01.02-.02.04-.03.07.55.15,1.14.12,1.76.07v.03c-.21.04-.74.17-.85.42v.1c.24.14.32.08.52.23.18-.02.17-.03.23-.16.08-.19-.04-.28-.13-.39.08-.03.15-.07.23-.1v.39c.09.04.11.06.26.07.02-.04.04-.09.07-.13.08-.16,0-.29-.07-.39.54-.29,1.51-.02,1.86.29-.47.06-1.03,0-1.44.1v.03c.3.18.78.05,1.11-.03-.31.22-.73.21-.91.55-.02.03-.04.07-.07.1.6-.15.84-.66,1.44-.75.26.04.52.09.78.13.02.27.04.54.07.82.46.09.76.39.98.72-.09-.08-.17-.15-.26-.23.14.23.28.46.42.69-.41-.41-.57-.87-1.21-1.08-1.52-.48-3.24.05-4.53-.72-.23-.13-.55-.34-.84-.58.11.12.21.24.28.32-.75-.22-1.23-.67-2.32-.55.56.6,1.46.37,2.38.65.25.16.5.33.75.49.46.28,1.04.49,1.63.62-.28.08-1.14-.29-1.79-.2.28.32,1.02.28,1.63.26v.03c-1.59.43-1.34-.11-2.48-.52.17.46.73.44,1.04.75-.41.09-.73.2-1.04.33-.02.04-.04.09-.07.13.49-.1.74-.32,1.11-.42.32-.01.63-.02.95-.03-.39.35-.93.31-1.17.82-.02.03-.04.07-.07.1.77-.15.99-.73,1.6-1.01.01.01.02.02.03.03-.17.24-.36.46-.65.59-.03.13-.07.26-.1.39.01.02.02.04.03.07.07.03.13.07.2.1.03-.01.07-.02.1-.03.21-.25.16.01.42-.07.03-.01.07-.02.1-.03.08-.32-.09-.56-.36-.52.18-.28.41-.45.62-.68.77-.03,1.9.29,2.51.59-.03.55-.07,1.11-.1,1.66h.03c.09-.26.17-.52.26-.78h.03c-.08.65-.37,1.14-.52,1.7.23-.22.43-.64.49-1.01h.03c-.16,1.57-1.38,2.34-3.13,2.35,1.64.01,3.28.02,4.93.03-.29-.36-.62-.54-.75-1.08h.03c.07.18.21.33.36.42-.14-.32-.28-.63-.42-.95.51.73.78,1.61,2.02,1.6v-.03c-1.28-.51-1.42-2.01-1.53-3.69.8-.27,1.17-.85,2.22-.88.23.21.39.54.52.85-.28,0-.38.04-.46.23-.01.1-.02.2-.03.29.1.02.2.04.29.07.07-.07.06-.04.1-.16h.03c.02.09.04.17.07.26.1.06.11.09.29.1.04-.08.09-.15.13-.23-.05-.49-.48-.64-.59-1.14.61.33.7,1.15,1.4,1.4.02.02.04.04.07.07h.03c-.15-.7-.73-.82-1.11-1.27.04.01.09.02.13.04-.16-.07-.32-.18-.49-.36h-.07c.44-.13,1.13.38,1.7.1h.07c-.46-.45-1.26-.02-1.86-.23-.02-.01-.04-.02-.07-.03.32-.15,1.04-.42,1.44-.36.64.1,1.62.55,2.32.16h.07v-.03c-.81-.27-1.35-.24-2.35-.2v-.03c.47-.23.94-.46,1.4-.68ZM10.96,7.44h.03s-.04.04-.07.07c.01-.02.02-.04.03-.07ZM10.76,7.73h.03c-.07.08-.13.15-.2.23.05-.08.11-.15.16-.23ZM6.49,10.21c.09.01.17.02.26.03-.1.04-.18.02-.26-.03ZM12.2,9.98c.07-.02.13-.04.2-.07l.82.1c-.03.1-.07.2-.1.29-.5.2-.76.49-1.21.68h-.03c.11-.34.22-.67.33-1.01ZM11.81,11.09c.4-.09.95,0,1.37-.1.01-.02.02-.04.03-.07-.4-.09-.77-.02-1.14.07.32-.24.73-.39,1.04-.62.05.17.09.19.2.29h.13s.08-.25.13-.29c.12-.11.21.05.33-.07.05-.06.04-.04.07-.16-.02-.04-.04-.09-.07-.13-.21-.12-.86-.15-1.24-.16v-.03c.55-.11,1.44-.12,1.92-.26.01-.02.02-.04.03-.07-.55-.19-1.12.04-1.53.16.25-.21.5-.41.75-.62.4-.18.78-.1,1.04-.39.39.46-.18,1.04-.36,1.27-.73.95-1.87,1.87-3.2,2.19.16-.34.33-.67.49-1.01ZM14.38,12.53c.09.04.18.06.26.07-.09-.02-.17-.05-.26-.07ZM3.69,9.93c.11.2.31.4.53.58-.17-.2-.37-.43-.53-.58ZM16.34,13.47c-.19-.47-.67-.47-1.04-.75-.02-.01-.04-.02-.07-.03.42-.08.82-.22,1.17-.33.04-.05.09-.11.13-.16-.76.02-1.31.48-1.89.4.22.06.44.12.65.18.37.23.54.52,1.04.69ZM3.62,8.71c-.09-.27-.17-.54-.26-.82-.03-.02-.07-.04-.1-.07-.14.79.2,1.27.29,1.89h-.03c-.57-.32-.83-.64-1.6-.85.3.62,1.06.54,1.6.91.05.03.11.08.17.14-.03-.05-.05-.1-.07-.14,0,0,0-1.08,0-1.08Z"/>
      <g>
        <path class="cls-2" d="M2.84,19.2c.02.15.08.34.21.49.18.23.41.27.59.13.16-.13.18-.3.08-.6-.12-.37-.11-.66.13-.86.27-.22.65-.15.92.19.14.18.2.34.22.45l-.23.08c0-.08-.05-.24-.18-.39-.19-.24-.4-.21-.52-.12-.16.13-.16.3-.06.61.12.39.1.65-.16.85-.27.21-.66.21-.99-.2-.13-.17-.23-.39-.24-.54l.24-.09Z"/>
        <path class="cls-2" d="M5.53,19.38l-1.5,1.64-.21-.2,1.5-1.64.21.2Z"/>
        <path class="cls-2" d="M4.61,21.55l1.16-1.9.27.17.02,1.33c0,.31,0,.58-.04.82h.01c.13-.27.27-.5.45-.8l.49-.8.23.14-1.16,1.9-.25-.15v-1.33c-.02-.29-.01-.59.02-.85h-.01c-.13.25-.27.48-.46.79l-.5.81-.23-.14Z"/>
        <path class="cls-2" d="M8.38,23.13c-.11.02-.33.01-.59-.06-.6-.17-.94-.69-.74-1.39.19-.67.78-.99,1.44-.8.26.08.42.18.48.24l-.13.21c-.09-.08-.23-.16-.4-.21-.5-.14-.93.08-1.09.64-.15.53.05.95.57,1.1.17.05.35.06.48.04v.24Z"/>
        <path class="cls-2" d="M10.25,22.3l-.86-.05-.04.8.96.05v.24s-1.27-.07-1.27-.07l.12-2.23,1.21.06v.24s-.93-.05-.93-.05l-.04.7.86.05v.24Z"/>
        <path class="cls-2" d="M11.71,23.21l-.04-.17.17-.27c.4-.64.57-.98.49-1.29-.05-.21-.2-.38-.52-.3-.19.05-.32.19-.4.29l-.14-.17c.11-.15.29-.3.53-.36.45-.12.72.14.79.44.1.38-.1.77-.43,1.3l-.12.2h0s.93-.24.93-.24l.06.23-1.33.35Z"/>
        <path class="cls-2" d="M14.42,21c.33.65.28,1.13-.14,1.35-.37.19-.81-.03-1.14-.65-.33-.64-.23-1.14.16-1.34.4-.21.82.03,1.13.64ZM13.39,21.56c.26.5.55.7.79.58.26-.13.23-.51-.02-1-.24-.47-.52-.72-.79-.58-.22.12-.25.48.02,1Z"/>
        <path class="cls-2" d="M15.8,19.89c.47.56.52,1.05.15,1.35-.32.27-.8.15-1.26-.39-.46-.56-.47-1.06-.14-1.34.35-.29.8-.15,1.24.38ZM14.93,20.66c.36.43.69.56.9.39.23-.19.11-.55-.24-.97-.34-.41-.66-.59-.9-.39-.19.16-.14.52.24.97Z"/>
        <path class="cls-2" d="M16.69,20.05c.09-.04.27-.13.4-.3.23-.29.11-.53-.03-.64-.24-.18-.51-.05-.68.18l-.1.13-.17-.13.1-.13c.13-.17.21-.45,0-.6-.14-.1-.32-.11-.49.1-.1.14-.15.31-.15.43l-.22-.07c0-.14.07-.37.21-.55.26-.34.57-.33.78-.17.18.14.24.36.16.63h0c.2-.18.49-.22.73-.04.27.21.34.61.03,1.01-.15.19-.34.31-.46.35l-.13-.2Z"/>
      </g>
      <g>
        <path class="cls-5" d="M26.61,13.99h4.57v.91h-8.64V.02h8.68v.89h-6.55v5.71h4.3v.71h-4.3v6.65h1.94Z"/>
        <path class="cls-5" d="M42.37,11.29c-.12,1.22-.64,2.15-1.53,2.83-.89.66-2,.93-3.37.79-1.36-.14-3.16-1.24-3.97-2.56l.39-.43c1.12,1.59,1.96,2.21,3.45,2.46.99.14,1.8-.08,2.42-.6.6-.5.95-1.12,1.01-1.82.08-.7-.08-1.32-.52-1.86-.43-.52-1.26-1.12-2.48-1.8-1.07-.62-1.88-1.14-2.44-1.57-.54-.43-.93-.95-1.2-1.57-.25-.62-.35-1.26-.27-1.92.1-1.01.54-1.82,1.32-2.42.76-.6,1.69-.83,2.77-.72.6.06,1.14.23,1.65.48.52.25,1.01.72,1.51,1.38l-.45.37c-.12-.19-.27-.37-.41-.54-.6-.7-1.34-1.1-2.23-1.18-.85-.1-1.49.06-1.92.48-.45.41-.7.89-.76,1.45-.06.64.12,1.22.58,1.74.43.52,1.26,1.12,2.48,1.84,1.16.66,1.98,1.2,2.5,1.59.54.39.93.89,1.2,1.51.27.64.35,1.32.27,2.09Z"/>
        <path class="cls-5" d="M49.24,13.99h4.57v.91h-8.64V.02h8.68v.89h-6.55v5.71h4.3v.71h-4.3v6.65h1.94Z"/>
        <path class="cls-5" d="M65.38,9.64h-5.48l-2.09,5.26h-1.08L62.89.02h.73l6.32,14.88h-2.33c-.79-1.92-1.12-2.73-1.12-2.73l-1.12-2.53ZM65.19,8.95l-2.51-6.24-2.54,6.24h5.05Z"/>
        <path class="cls-5" d="M83.72,12.73c-1.26,1.43-2.87,2.17-4.84,2.17-2.07,0-3.76-.66-5.08-1.96-1.3-1.32-1.96-3.06-1.96-5.21,0-1.43.29-2.75.91-4.01.6-1.26,1.45-2.19,2.54-2.79,1.07-.6,2.27-.91,3.57-.91,1.07,0,2.05.23,2.91.66.85.43,1.49.91,1.92,1.43v.06l-.41.39c-.23-.35-.52-.64-.81-.87-.99-.76-2.09-1.14-3.31-1.14-1.51,0-2.71.62-3.6,1.84-.89,1.22-1.32,2.95-1.32,5.23,0,2.15.48,3.8,1.45,4.96.97,1.14,2.17,1.72,3.62,1.72.76,0,1.55-.19,2.36-.56.66-.31,1.2-.79,1.63-1.45l.41.43Z"/>
      </g>
      <g>
        <path class="cls-5" d="M24.7,21.94c0,.4-.15.7-.44.9-.29.2-.69.3-1.18.3-.06,0-.12,0-.16,0,0,.38.01.85.04,1.39h-.49c.03-.5.04-1.1.04-1.81,0-.61-.01-1.15-.04-1.63h.36s.15,0,.34,0c.18,0,.34,0,.47,0,.33,0,.59.08.78.23.19.15.29.37.29.64ZM24.27,22.1c0-.45-.3-.68-.89-.68-.15,0-.31.01-.49.04.01.29.02.73.02,1.34.06,0,.13,0,.22,0,.77,0,1.15-.24,1.15-.71Z"/>
        <path class="cls-5" d="M27.86,24.53h-.49c-.16-.51-.28-.84-.36-1-.1-.21-.2-.34-.32-.4-.1-.05-.27-.07-.51-.07-.14,0-.27,0-.38,0,0,.57.01,1.06.03,1.47h-.47c.03-.55.04-1.15.04-1.81,0-.62-.01-1.16-.04-1.63h.36c.08,0,.17,0,.29,0,.12,0,.25,0,.4,0,.74,0,1.12.27,1.12.8,0,.44-.21.75-.63.93v.03c.19.06.34.19.45.4.1.18.27.61.52,1.29ZM27.08,22.05c0-.42-.27-.63-.82-.63-.2,0-.36.01-.49.03.01.31.02.72.02,1.25.1,0,.2,0,.29,0,.67,0,1-.22,1-.66Z"/>
        <path class="cls-5" d="M28.99,24.53h-.48c.03-.57.04-1.17.04-1.81s-.01-1.17-.04-1.63h.48c-.02.48-.04,1.02-.04,1.63,0,.64.01,1.24.04,1.81Z"/>
        <path class="cls-5" d="M32.33,21.09c0,.15-.21.72-.64,1.72-.43,1-.64,1.57-.64,1.72h-.33c0-.14-.2-.71-.61-1.71-.41-1-.61-1.58-.61-1.73h.48c0,.14.15.63.46,1.47.31.84.46,1.32.46,1.44h.03c0-.14.16-.62.47-1.44s.47-1.31.47-1.47h.46Z"/>
        <path class="cls-5" d="M35.44,24.53h-.54c0-.12-.11-.49-.32-1.11h-1.47c-.21.61-.32.98-.32,1.11h-.51c0-.07.22-.63.66-1.69.44-1.06.66-1.64.66-1.75h.59c0,.1.21.68.63,1.72.42,1.05.63,1.62.63,1.71ZM34.46,23.07c-.4-1.03-.6-1.58-.6-1.65h-.03c0,.05-.21.6-.62,1.65h1.25Z"/>
        <path class="cls-5" d="M37.94,21.09v.37c-.35-.02-.7-.03-1.05-.03,0,.34,0,.77,0,1.29,0,.57,0,1.18.03,1.81h-.47c.02-.6.03-1.2.03-1.81,0-.51,0-.94-.02-1.29-.25,0-.6.01-1.06.03v-.38h2.55Z"/>
        <path class="cls-5" d="M40.55,24.13l-.02.4h-2.05c.02-.55.04-1.15.04-1.81,0-.62-.01-1.16-.04-1.63h1.93l-.02.39c-.47-.02-.96-.03-1.49-.03.01.27.02.64.02,1.11.45,0,.85-.01,1.21-.03v.39c-.38-.02-.78-.02-1.21-.02,0,.45,0,.88.02,1.27.56,0,1.1-.01,1.61-.04Z"/>
        <path class="cls-5" d="M44.65,23.48c0,.34-.14.61-.42.79-.27.18-.65.27-1.13.27-.13,0-.39,0-.78-.02.02-.55.04-1.15.04-1.81,0-.62-.01-1.16-.04-1.63h.31c.06,0,.18,0,.36,0,.18,0,.31,0,.39,0,.71,0,1.06.25,1.06.76,0,.39-.17.66-.5.79v.03c.47.09.71.37.71.83ZM44.02,21.96c0-.36-.24-.55-.71-.55-.24,0-.43.01-.58.04.01.13.02.49.02,1.07.08,0,.17,0,.28,0,.34,0,.58-.04.73-.12.17-.09.26-.24.26-.45ZM44.22,23.53c0-.43-.37-.65-1.11-.65-.14,0-.26,0-.36.02,0,.47,0,.89.03,1.26.06.02.18.02.34.02.41,0,.7-.06.87-.17.15-.1.23-.26.23-.48Z"/>
        <path class="cls-5" d="M48.04,21.09c0,.33-.01.64-.02.93s0,.56,0,.81c0,1.18-.45,1.77-1.35,1.77-.23,0-.44-.03-.6-.1-.17-.07-.3-.18-.41-.32-.11-.14-.19-.32-.24-.54-.05-.22-.08-.48-.08-.77,0-.26,0-.54,0-.83,0-.29,0-.61-.02-.94h.48c-.02.67-.03,1.2-.03,1.58,0,.31.01.56.04.75.03.19.08.35.15.48.07.13.17.22.28.27.11.05.25.08.43.08.18,0,.33-.03.44-.08.11-.05.21-.14.28-.27.07-.12.12-.28.15-.48.03-.19.05-.45.05-.76,0-.19,0-.41,0-.67,0-.26-.01-.56-.03-.9h.47Z"/>
        <path class="cls-5" d="M50.88,23.64c0,.65-.44.98-1.31.98-.32,0-.6-.04-.85-.11l.09-.41c.29.1.56.15.81.15.58,0,.87-.17.87-.51,0-.17-.07-.32-.22-.44-.1-.08-.3-.19-.59-.32-.31-.14-.53-.27-.65-.39-.17-.17-.26-.37-.26-.62s.09-.47.26-.64c.2-.18.47-.27.83-.27.4,0,.68.03.83.08l-.06.42c-.26-.08-.53-.13-.82-.13-.44,0-.65.15-.65.45,0,.15.06.27.19.37.08.06.26.15.54.28.32.14.55.28.69.41.21.19.32.43.32.71Z"/>
        <path class="cls-5" d="M52.1,24.53h-.48c.03-.57.04-1.17.04-1.81s-.01-1.17-.04-1.63h.48c-.02.48-.04,1.02-.04,1.63,0,.64.01,1.24.04,1.81Z"/>
        <path class="cls-5" d="M55.61,24.53h-.36s-.28-.45-.84-1.26c-.58-.85-.91-1.39-1-1.62h-.03c.03.42.05.79.05,1.09,0,.59.01,1.19.04,1.79h-.43c.03-.57.04-1.17.04-1.81s-.01-1.17-.04-1.63h.49s.26.45.77,1.2c.54.79.84,1.31.92,1.55h.03c-.03-.43-.04-.79-.04-1.09,0-.65-.01-1.2-.04-1.66h.44c-.03.47-.04,1.01-.04,1.63s.01,1.23.04,1.81Z"/>
        <path class="cls-5" d="M58.64,24.13l-.02.4h-2.05c.02-.55.04-1.15.04-1.81,0-.62-.01-1.16-.04-1.63h1.93l-.02.39c-.47-.02-.96-.03-1.49-.03.01.27.02.64.02,1.11.45,0,.85-.01,1.21-.03v.39c-.38-.02-.78-.02-1.21-.02,0,.45,0,.88.02,1.27.56,0,1.1-.01,1.61-.04Z"/>
        <path class="cls-5" d="M61.22,23.64c0,.65-.44.98-1.31.98-.32,0-.6-.04-.85-.11l.09-.41c.29.1.56.15.81.15.58,0,.87-.17.87-.51,0-.17-.07-.32-.22-.44-.1-.08-.3-.19-.59-.32-.31-.14-.53-.27-.65-.39-.17-.17-.26-.37-.26-.62s.09-.47.26-.64c.2-.18.47-.27.83-.27.4,0,.68.03.83.08l-.06.42c-.26-.08-.53-.13-.82-.13-.44,0-.65.15-.65.45,0,.15.06.27.19.37.08.06.26.15.54.28.32.14.55.28.69.41.21.19.32.43.32.71Z"/>
        <path class="cls-5" d="M63.89,23.64c0,.65-.44.98-1.31.98-.32,0-.6-.04-.85-.11l.09-.41c.29.1.56.15.81.15.58,0,.87-.17.87-.51,0-.17-.07-.32-.22-.44-.1-.08-.3-.19-.59-.32-.31-.14-.53-.27-.65-.39-.17-.17-.26-.37-.26-.62s.09-.47.26-.64c.2-.18.47-.27.83-.27.4,0,.68.03.83.08l-.06.42c-.26-.08-.53-.13-.82-.13-.44,0-.65.15-.65.45,0,.15.06.27.19.37.08.06.26.15.54.28.32.14.55.28.69.41.21.19.32.43.32.71Z"/>
        <path class="cls-5" d="M67.69,23.64c0,.65-.44.98-1.31.98-.32,0-.6-.04-.85-.11l.09-.41c.29.1.56.15.81.15.58,0,.87-.17.87-.51,0-.17-.07-.32-.22-.44-.1-.08-.3-.19-.59-.32-.31-.14-.53-.27-.65-.39-.17-.17-.26-.37-.26-.62s.09-.47.26-.64c.2-.18.47-.27.83-.27.4,0,.68.03.83.08l-.06.42c-.26-.08-.53-.13-.82-.13-.44,0-.65.15-.65.45,0,.15.06.27.19.37.08.06.26.15.54.28.32.14.55.28.69.41.21.19.32.43.32.71Z"/>
        <path class="cls-5" d="M70.67,24.11l-.03.39c-.21.07-.44.1-.68.1-.58,0-1.02-.17-1.32-.5-.29-.33-.44-.74-.44-1.22s.16-.93.49-1.3c.33-.36.77-.55,1.32-.55.15,0,.31.02.48.07l-.07.42c-.2-.06-.37-.1-.52-.1-.41,0-.72.13-.94.4s-.32.59-.32.97.12.72.37,1c.24.28.58.42,1.01.42.16,0,.38-.04.64-.11Z"/>
        <path class="cls-5" d="M73.73,24.53h-.48c.02-.61.03-1.15.03-1.64h-1.53c0,.39,0,.94.03,1.64h-.48c.02-.64.04-1.24.04-1.81s-.01-1.13-.04-1.63h.48c-.02.5-.03.99-.03,1.47h1.54c0-.38-.01-.87-.03-1.47h.48c-.03.49-.04,1.03-.04,1.63,0,.66.01,1.26.04,1.81Z"/>
        <path class="cls-5" d="M77.58,22.76c0,.57-.16,1.02-.48,1.36-.32.34-.69.51-1.11.51s-.76-.16-1.06-.47c-.3-.31-.46-.73-.46-1.27,0-.58.16-1.03.48-1.37.32-.34.69-.51,1.11-.51s.76.16,1.06.47c.3.31.46.73.46,1.27ZM77.12,22.82c0-.45-.12-.81-.35-1.05-.23-.25-.5-.37-.8-.37-.28,0-.53.13-.74.39-.22.26-.33.61-.33,1.05s.12.81.35,1.06.5.37.8.37c.28,0,.53-.13.74-.4.22-.27.32-.62.32-1.05Z"/>
        <path class="cls-5" d="M81.25,22.76c0,.57-.16,1.02-.48,1.36-.32.34-.69.51-1.11.51s-.76-.16-1.06-.47c-.3-.31-.46-.73-.46-1.27,0-.58.16-1.03.48-1.37.32-.34.69-.51,1.11-.51s.76.16,1.06.47c.3.31.46.73.46,1.27ZM80.79,22.82c0-.45-.12-.81-.35-1.05-.23-.25-.5-.37-.8-.37-.28,0-.53.13-.74.39-.22.26-.33.61-.33,1.05s.12.81.35,1.06.5.37.8.37c.28,0,.53-.13.74-.4.22-.27.32-.62.32-1.05Z"/>
        <path class="cls-5" d="M84,24.14l-.02.39h-2.01c.02-.43.03-1.04.03-1.81,0-.66-.01-1.21-.03-1.63h.47c-.02.36-.03.9-.03,1.63,0,.6,0,1.08-.03,1.45.51,0,1.04,0,1.61-.03Z"/>
      </g>
      <rect class="cls-5" x="22.54" y="17.62" width="61.13" height=".47"/>
    </g>
  </g>
</svg>