<?xml version="1.0" encoding="UTF-8"?>
<svg id="Layer_2" data-name="Layer 2" xmlns="http://www.w3.org/2000/svg" viewBox="0 0 84 37.23">
  <defs>
    <style>
      .cls-1 {
        fill: #FFFFFF;
        stroke-width: 0px;
      }
    </style>
  </defs>
  <g id="Layer_1-2" data-name="Layer 1">
    <g>
      <g>
        <path class="cls-1" d="M1.98,35.03c0,.86-.34,1.17-.98,1.17-.15,0-.29-.02-.4-.04v-.42c.07.02.23.03.35.03.46,0,.52-.34.52-.72v-2.71h.51v2.7Z"/>
        <path class="cls-1" d="M5.21,34.74c0,.8-.46,1.46-1.31,1.46-.79,0-1.27-.61-1.27-1.45s.47-1.46,1.31-1.46c.77,0,1.27.57,1.27,1.44ZM3.12,34.75c0,.61.31,1.06.8,1.06s.79-.42.79-1.05-.28-1.06-.8-1.06-.79.42-.79,1.05Z"/>
        <path class="cls-1" d="M8.06,35.33c0,.27,0,.65,0,.81h-.47c-.01-.07-.02-.24-.02-.42-.14.31-.4.48-.84.48-.47,0-.92-.24-.92-1.02v-1.82h.48v1.72c0,.36.11.7.57.7.51,0,.71-.28.71-.98v-1.44h.48v1.96Z"/>
        <path class="cls-1" d="M8.88,34.12c0-.39,0-.61,0-.75h.47c0,.08.02.3.02.56.14-.37.47-.62.93-.63v.48c-.57.02-.93.32-.93,1.02v1.35h-.48v-2.02Z"/>
        <path class="cls-1" d="M10.75,34.07c0-.24,0-.49,0-.7h.47c.02.08.02.37.02.45.11-.24.33-.52.87-.52s.93.32.93,1.06v1.78h-.48v-1.72c0-.42-.16-.7-.59-.7-.53,0-.73.4-.73.96v1.47h-.48v-2.07Z"/>
        <path class="cls-1" d="M14.13,34.84c0,.56.29.97.76.97.44,0,.58-.23.67-.43h.49c-.11.36-.41.83-1.17.83-.87,0-1.23-.71-1.23-1.42,0-.83.42-1.48,1.26-1.48.9,0,1.19.72,1.19,1.31,0,.09,0,.16,0,.23h-1.96ZM15.61,34.5c0-.46-.24-.83-.71-.83s-.71.34-.75.83h1.46ZM15.86,32.07l-.84.84h-.45l.7-.84h.59Z"/>
        <path class="cls-1" d="M17.02,34.84c0,.56.29.97.76.97.44,0,.58-.23.67-.43h.49c-.11.36-.41.83-1.17.83-.87,0-1.23-.71-1.23-1.42,0-.83.42-1.48,1.26-1.48.9,0,1.19.72,1.19,1.31,0,.09,0,.16,0,.23h-1.96ZM18.5,34.5c0-.46-.24-.83-.71-.83s-.71.34-.75.83h1.46Z"/>
        <path class="cls-1" d="M23.29,32.12v3.23c0,.26,0,.51,0,.78h-.46c-.02-.07-.03-.28-.03-.39-.14.29-.42.46-.87.46-.72,0-1.15-.58-1.15-1.42s.48-1.48,1.24-1.48c.49,0,.71.2.78.36v-1.53h.48ZM22.04,35.8c.65,0,.79-.48.79-1.09s-.13-1.01-.75-1.01c-.49,0-.79.39-.79,1.06s.32,1.03.75,1.03Z"/>
        <path class="cls-1" d="M24.39,34.84c0,.56.29.97.76.97.44,0,.58-.23.67-.43h.49c-.11.36-.41.83-1.17.83-.87,0-1.23-.71-1.23-1.42,0-.83.42-1.48,1.26-1.48.9,0,1.19.72,1.19,1.31,0,.09,0,.16,0,.23h-1.96ZM25.87,34.5c0-.46-.24-.83-.71-.83s-.71.34-.75.83h1.46Z"/>
        <path class="cls-1" d="M28.68,35.08c.1.46.42.71.97.71.59,0,.83-.28.83-.64,0-.38-.19-.6-.95-.78-.9-.22-1.21-.53-1.21-1.06,0-.57.42-1.03,1.26-1.03.91,0,1.28.53,1.33,1.02h-.51c-.07-.33-.28-.61-.84-.61-.47,0-.72.21-.72.57s.21.5.88.66c1.08.26,1.27.68,1.27,1.18,0,.61-.45,1.09-1.38,1.09s-1.37-.53-1.45-1.11h.51Z"/>
        <path class="cls-1" d="M33.73,35.53c0,.26.02.53.04.61h-.46c-.02-.06-.04-.19-.04-.36-.1.18-.32.43-.86.43-.66,0-.94-.43-.94-.85,0-.62.49-.9,1.31-.9h.47v-.24c0-.25-.08-.54-.6-.54-.46,0-.54.23-.59.44h-.47c.04-.38.27-.82,1.07-.82.68,0,1.06.28,1.06.91v1.32ZM33.26,34.79h-.45c-.55,0-.85.15-.85.54,0,.29.2.5.54.5.67,0,.75-.45.75-.95v-.09Z"/>
        <path class="cls-1" d="M34.56,34.07c0-.24,0-.49,0-.7h.47c.02.08.02.37.02.45.11-.24.33-.52.87-.52s.93.32.93,1.06v1.78h-.48v-1.72c0-.42-.16-.7-.59-.7-.53,0-.73.4-.73.96v1.47h-.48v-2.07Z"/>
        <path class="cls-1" d="M37.26,33.36h.48v-.82h.48v.82h.61v.39h-.61v1.62c0,.27.07.41.32.41.07,0,.16,0,.24-.02v.36c-.11.04-.28.05-.42.05-.43,0-.62-.22-.62-.68v-1.74h-.48v-.39Z"/>
        <path class="cls-1" d="M39.61,34.84c0,.56.29.97.76.97.44,0,.58-.23.67-.43h.49c-.11.36-.41.83-1.17.83-.87,0-1.23-.71-1.23-1.42,0-.83.42-1.48,1.26-1.48.9,0,1.19.72,1.19,1.31,0,.09,0,.16,0,.23h-1.96ZM41.09,34.5c0-.46-.24-.83-.71-.83s-.71.34-.75.83h1.46ZM41.34,32.07l-.84.84h-.45l.7-.84h.59Z"/>
        <path class="cls-1" d="M43.66,32.33h1.44c.74,0,1.25.42,1.25,1.11,0,.74-.54,1.13-1.28,1.13h-.9v1.56h-.51v-3.81ZM44.17,34.15h.88c.52,0,.78-.25.78-.69,0-.47-.32-.69-.77-.69h-.9v1.39Z"/>
        <path class="cls-1" d="M49.13,35.33c0,.27,0,.65,0,.81h-.47c-.01-.07-.02-.24-.02-.42-.14.31-.4.48-.84.48-.47,0-.92-.24-.92-1.02v-1.82h.48v1.72c0,.36.11.7.57.7.51,0,.71-.28.71-.98v-1.44h.48v1.96Z"/>
        <path class="cls-1" d="M49.95,32.12h.48v1.64c.12-.24.38-.46.88-.46.7,0,1.14.57,1.14,1.39s-.43,1.51-1.21,1.51c-.44,0-.68-.16-.81-.43,0,.14-.01.29-.02.37h-.46c0-.31,0-.62,0-.93v-3.09ZM51.2,33.7c-.59,0-.8.39-.8,1.06,0,.58.19,1.04.77,1.04.49,0,.78-.42.78-1.09,0-.6-.27-1-.75-1Z"/>
        <path class="cls-1" d="M53.07,36.14v-4.02h.48v4.02h-.48Z"/>
        <path class="cls-1" d="M54.37,32.72v-.6h.48v.6h-.48ZM54.37,33.36h.48v2.77h-.48v-2.77Z"/>
        <path class="cls-1" d="M57.5,35.74c-.14.29-.4.47-.88.47-.63,0-1.15-.5-1.15-1.42s.55-1.48,1.22-1.48c.51,0,.74.24.81.42,0-.1,0-.24.02-.35h.45c0,.29,0,.51,0,.77v3.1h-.47v-1.49ZM56.73,35.8c.6,0,.78-.42.78-1.06s-.16-1.03-.75-1.03c-.52,0-.79.44-.79,1.05,0,.56.24,1.04.77,1.04Z"/>
        <path class="cls-1" d="M61.01,35.33c0,.27,0,.65,0,.81h-.47c-.01-.07-.02-.24-.02-.42-.14.31-.4.48-.84.48-.47,0-.92-.24-.92-1.02v-1.82h.48v1.72c0,.36.11.7.57.7.51,0,.71-.28.71-.98v-1.44h.48v1.96Z"/>
        <path class="cls-1" d="M62.11,34.84c0,.56.29.97.76.97.44,0,.58-.23.67-.43h.49c-.11.36-.41.83-1.17.83-.87,0-1.23-.71-1.23-1.42,0-.83.42-1.48,1.26-1.48.9,0,1.19.72,1.19,1.31,0,.09,0,.16,0,.23h-1.96ZM63.59,34.5c0-.46-.24-.83-.71-.83s-.71.34-.75.83h1.46Z"/>
        <path class="cls-1" d="M66.17,32.33h1.36c1.07,0,1.79.73,1.79,1.87s-.71,1.94-1.81,1.94h-1.34v-3.81ZM66.67,35.71h.8c.9,0,1.32-.65,1.32-1.5,0-.75-.39-1.44-1.32-1.44h-.8v2.95Z"/>
        <path class="cls-1" d="M70.3,34.84c0,.56.29.97.76.97.44,0,.58-.23.67-.43h.49c-.11.36-.41.83-1.17.83-.87,0-1.23-.71-1.23-1.42,0-.83.42-1.48,1.26-1.48.9,0,1.19.72,1.19,1.31,0,.09,0,.16,0,.23h-1.96ZM71.78,34.5c0-.46-.24-.83-.71-.83s-.71.34-.75.83h1.46Z"/>
        <path class="cls-1" d="M74.59,35.08c.1.46.42.71.97.71.59,0,.83-.28.83-.64,0-.38-.19-.6-.95-.78-.9-.22-1.21-.53-1.21-1.06,0-.57.42-1.03,1.26-1.03.91,0,1.28.53,1.33,1.02h-.51c-.07-.33-.28-.61-.84-.61-.47,0-.72.21-.72.57s.21.5.88.66c1.08.26,1.27.68,1.27,1.18,0,.61-.45,1.09-1.38,1.09s-1.37-.53-1.45-1.11h.51Z"/>
        <path class="cls-1" d="M77.63,36.14v-2.38h-.44v-.39h.44v-.33c0-.51.2-.96.81-.96.1,0,.24.01.31.03v.41c-.07-.02-.17-.03-.24-.03-.28,0-.39.18-.39.58v.3h.56v.39h-.56v2.38h-.48Z"/>
        <path class="cls-1" d="M81.12,35.53c0,.26.02.53.04.61h-.46c-.02-.06-.04-.19-.04-.36-.1.18-.32.43-.86.43-.66,0-.94-.43-.94-.85,0-.62.49-.9,1.31-.9h.47v-.24c0-.25-.08-.54-.6-.54-.46,0-.54.23-.59.44h-.47c.04-.38.27-.82,1.07-.82.68,0,1.06.28,1.06.91v1.32ZM80.65,34.79h-.45c-.55,0-.85.15-.85.54,0,.29.2.5.54.5.67,0,.75-.45.75-.95v-.09Z"/>
        <path class="cls-1" d="M82.11,33.36c.39.62.56.88.66,1.03h0c.12-.18.35-.54.68-1.03h.54l-.94,1.33.95,1.44h-.55c-.34-.54-.57-.91-.68-1.09h0c-.09.15-.32.53-.68,1.09h-.54l.93-1.38-.9-1.39h.54Z"/>
      </g>
      <g>
        <path class="cls-1" d="M47.33,28.08c-.64,0-1.14-.16-1.5-.47-.36-.32-.55-.74-.55-1.26V1.74c0-1.14.6-1.74,1.74-1.74h6.87c3.03,0,5.39.77,7.01,2.29,1.63,1.53,2.46,3.76,2.46,6.63,0,1.52-.23,2.89-.7,4.07-.46,1.18-1.13,2.18-2,2.97-.86.79-1.9,1.4-3.09,1.81-1.18.41-2.5.62-3.92.62h-4.28v7.95c0,.52-.18.94-.55,1.26-.36.31-.86.47-1.5.47ZM53.66,14.73c1.69,0,3.06-.55,4.07-1.64,1.02-1.09,1.54-2.57,1.54-4.39s-.48-3.02-1.42-3.81c-.95-.8-2.28-1.21-3.95-1.21h-4.51v11.06h4.28Z"/>
        <path class="cls-1" d="M45.46,1.74c0-1.04.52-1.56,1.56-1.56h6.87c2.99,0,5.29.75,6.9,2.25,1.6,1.5,2.4,3.67,2.4,6.5,0,1.51-.23,2.85-.68,4-.46,1.16-1.11,2.13-1.95,2.91-.85.78-1.86,1.37-3.03,1.78-1.17.4-2.46.61-3.87.61h-4.45v8.13c0,.47-.16.85-.49,1.13-.33.29-.79.43-1.39.43s-1.06-.14-1.39-.43c-.33-.29-.49-.66-.49-1.13V1.74ZM53.66,14.9c1.74,0,3.14-.57,4.2-1.7,1.05-1.13,1.58-2.64,1.58-4.51s-.5-3.11-1.48-3.95c-.99-.83-2.34-1.25-4.06-1.25h-4.68v11.41h4.45Z"/>
        <g>
          <path class="cls-1" d="M11.86,10.79c-.85,1.37-1.73,2.29-2.48,2.89-.04-.55,0-1.94,1.27-3.83.88-1.32,2.9-2.14,2.9-2.14,0,0-.33,2.72-1.32,4.21-.74,1.12-1.96,1.69-2.51,1.9,1.62-1.46,2.14-3.04,2.14-3.04Z"/>
          <path class="cls-1" d="M13.42,20.57c-1.24,1.03-2.38,1.61-3.28,1.93.13-.53.63-1.83,2.44-3.21,1.26-.96,3.44-1.08,3.44-1.08,0,0-1.19,2.47-2.61,3.55-1.06.82-2.4.97-3,.99,2.01-.86,3.01-2.18,3.01-2.18Z"/>
          <path class="cls-1" d="M5.33,7.33c.82,1.22,1.25,2.31,1.47,3.16-.47-.17-1.61-.74-2.71-2.5-.77-1.23-.68-3.23-.68-3.23,0,0,2.14,1.3,3,2.69.65,1.04.67,2.27.64,2.81-.6-1.9-1.72-2.93-1.72-2.93Z"/>
          <path class="cls-1" d="M7.42,18.6c1.09,1,1.75,1.95,2.17,2.73-.5-.06-1.74-.34-3.21-1.8-1.03-1.02-1.41-2.98-1.41-2.98,0,0,2.38.77,3.55,1.92.87.86,1.18,2.05,1.27,2.59-1.03-1.71-2.36-2.45-2.36-2.45Z"/>
          <ellipse class="cls-1" cx="6.28" cy="13.97" rx="1.2" ry="1.86" transform="translate(-9.02 14.51) rotate(-67.82)"/>
          <ellipse class="cls-1" cx="11.72" cy="15.74" rx="1.86" ry="1.2" transform="translate(-7.23 10.62) rotate(-38.2)"/>
          <ellipse class="cls-1" cx="9.29" cy="6.95" rx="1.36" ry=".88" transform="translate(-2.31 7.23) rotate(-38.2)"/>
          <path class="cls-1" d="M10.12,2.3c-.5.82-1.03,1.37-1.48,1.72-.03-.33,0-1.16.76-2.28.52-.79,1.73-1.27,1.73-1.27,0,0-.2,1.62-.79,2.51-.44.67-1.17,1.01-1.5,1.14.97-.87,1.28-1.81,1.28-1.81Z"/>
          <path class="cls-1" d="M8.77,25.01l.06-.09h0s.06-.1.13-.2c.02-.04.04-.07.07-.12.03-.04.06-.09.09-.14.03-.05.06-.11.1-.17.03-.06.07-.12.1-.19.15-.27.31-.6.46-1,.04-.1.08-.2.11-.31.02-.05.03-.11.05-.16.02-.06.03-.11.05-.17.04-.11.06-.23.1-.35.03-.12.06-.25.09-.37.06-.26.1-.52.14-.8.03-.28.06-.57.07-.86.02-.59-.02-1.22-.13-1.86-.05-.32-.12-.64-.21-.96-.03-.08-.05-.16-.07-.24-.03-.08-.05-.15-.08-.23-.05-.16-.11-.31-.16-.47-.23-.63-.48-1.26-.74-1.89-.25-.63-.5-1.25-.71-1.88-.11-.31-.2-.63-.29-.94-.02-.08-.04-.16-.06-.24-.02-.08-.04-.16-.06-.23-.02-.08-.03-.15-.05-.23-.01-.04-.02-.08-.03-.12,0-.03-.01-.08-.02-.12-.03-.16-.06-.31-.07-.47,0-.07-.02-.15-.03-.23v-.06s-.01-.06-.01-.06c0-.04,0-.08-.01-.11,0-.08-.01-.15-.02-.23,0-.08,0-.15,0-.22,0-.07,0-.15,0-.22,0-.07,0-.15,0-.22,0-.58.05-1.12.13-1.62.07-.5.19-.95.3-1.35.03-.1.06-.19.09-.29.03-.09.06-.18.09-.26.02-.04.03-.08.05-.12.02-.04.03-.08.04-.12.03-.08.06-.15.08-.22.12-.27.21-.48.28-.63.03-.05.05-.1.06-.13-.02.03-.04.08-.07.13-.08.14-.18.35-.3.62-.03.07-.06.14-.09.22-.02.04-.03.07-.05.12-.02.04-.03.08-.05.12-.03.08-.06.17-.1.26-.03.09-.06.19-.09.28-.13.4-.25.85-.34,1.35-.09.5-.15,1.05-.17,1.64,0,.07,0,.15,0,.22,0,.07,0,.15,0,.22,0,.08,0,.15,0,.23,0,.08.01.15.01.23,0,.04,0,.08,0,.11v.06s0,.06,0,.06c0,.08.02.16.02.23.01.16.04.31.06.47.1.63.26,1.27.46,1.91.2.64.44,1.28.68,1.91.24.64.48,1.27.69,1.89.05.16.11.31.15.47.02.08.05.16.07.24.02.08.04.15.06.23.08.31.14.62.18.93.09.62.11,1.22.07,1.79-.01.28-.05.56-.08.82-.04.26-.09.52-.15.76-.02.12-.06.24-.09.35-.04.11-.07.23-.1.33-.02.05-.03.11-.05.16-.02.05-.04.1-.06.15-.03.1-.08.19-.11.29-.15.37-.31.68-.45.93-.03.06-.07.12-.1.18-.03.05-.06.11-.09.15-.03.04-.06.09-.08.13-.03.04-.05.07-.07.11-.09.13-.14.2-.14.2"/>
        </g>
        <path class="cls-1" d="M10,27.84c-3.06,0-5.95-1.34-7.93-3.68l-.03-.03c-1.32-1.57-2.04-3.61-2.04-5.73v-1.06c0-1.09.89-1.98,1.98-1.98s1.98.89,1.98,1.98v.51c0,3.22,2.52,5.87,5.73,6.03.1,0,.21,0,.31,0s.21,0,.31,0c3.22-.16,5.73-2.81,5.73-6.03V2.22c0-1.09.89-1.98,1.98-1.98s1.99.89,1.99,1.98v16.18c0,2.12-.73,4.16-2.05,5.73l-.03.03c-1.98,2.34-4.87,3.68-7.93,3.68Z"/>
        <path class="cls-1" d="M19.83,2.22v16.18c0,2.05-.69,4.05-2.01,5.62,0,.01-.02.02-.03.03-1.87,2.21-4.67,3.62-7.79,3.62s-5.92-1.4-7.79-3.62c0-.01-.02-.02-.03-.03-1.32-1.57-2-3.57-2-5.62v-1.06c0-1,.81-1.8,1.8-1.8h0c1,0,1.8.81,1.8,1.8v.51c0,3.32,2.61,6.04,5.9,6.21.11,0,.21,0,.32,0s.21,0,.32,0c3.29-.17,5.9-2.88,5.9-6.21V2.22c0-1,.81-1.8,1.8-1.8h0c1,0,1.8.81,1.8,1.8Z"/>
        <path class="cls-1" d="M31.71,5.43c-.91,0-1.68.32-2.32.95-.63.65-.95,1.42-.95,2.32,0,1.27.6,2.22,1.8,2.85.37.2,1.78.62,4.22,1.27,1.82.52,3.15,1.19,4,2,1.2,1.14,1.8,2.79,1.8,4.95s-.76,3.98-2.27,5.51c-1.53,1.51-3.37,2.27-5.51,2.27h-6.36c-.6,0-1.12-.22-1.56-.66-.44-.42-.66-.94-.66-1.56v-.05c0-.62.22-1.15.66-1.59s.96-.66,1.56-.66h6.61c.91,0,1.68-.32,2.32-.95.63-.63.95-1.41.95-2.32,0-1.2-.6-2.1-1.8-2.68-.28-.13-1.68-.55-4.22-1.27-1.8-.54-3.14-1.22-4-2.05-1.2-1.19-1.8-2.88-1.8-5.07s.76-3.97,2.27-5.49c1.53-1.53,3.37-2.29,5.51-2.29h4.49c.62,0,1.15.22,1.59.66s.66.97.66,1.59v.05c0,.62-.22,1.14-.66,1.56-.44.44-.97.66-1.59.66h-4.73Z"/>
        <path class="cls-1" d="M73.98,5.43c-.91,0-1.68.32-2.32.95-.63.65-.95,1.42-.95,2.32,0,1.27.6,2.22,1.8,2.85.37.2,1.78.62,4.22,1.27,1.82.52,3.15,1.19,4,2,1.2,1.14,1.8,2.79,1.8,4.95s-.76,3.98-2.27,5.51c-1.53,1.51-3.37,2.27-5.51,2.27h-6.36c-.6,0-1.12-.22-1.56-.66-.44-.42-.66-.94-.66-1.56v-.05c0-.62.22-1.15.66-1.59.44-.44.96-.66,1.56-.66h6.61c.91,0,1.68-.32,2.32-.95.63-.63.95-1.41.95-2.32,0-1.2-.6-2.1-1.8-2.68-.28-.13-1.68-.55-4.22-1.27-1.8-.54-3.14-1.22-4-2.05-1.2-1.19-1.8-2.88-1.8-5.07s.76-3.97,2.27-5.49c1.53-1.53,3.37-2.29,5.51-2.29h4.49c.62,0,1.15.22,1.58.66.44.44.66.97.66,1.59v.05c0,.62-.22,1.14-.66,1.56-.44.44-.97.66-1.58.66h-4.73Z"/>
      </g>
    </g>
  </g>
</svg>