<?xml version="1.0" encoding="UTF-8"?>
<svg id="Layer_2" data-name="Layer 2" xmlns="http://www.w3.org/2000/svg" xmlns:xlink="http://www.w3.org/1999/xlink" viewBox="0 0 85.81 96.79">
  <defs>
    <style>
      .cls-1 {
        fill: url(#linear-gradient-2);
      }

      .cls-1, .cls-2, .cls-3, .cls-4, .cls-5 {
        stroke: #030c1c;
        stroke-miterlimit: 10;
      }

      .cls-2 {
        fill: url(#radial-gradient);
      }

      .cls-3 {
        fill: url(#linear-gradient);
      }

      .cls-4 {
        fill: url(#linear-gradient-3);
      }

      .cls-5 {
        fill: url(#radial-gradient-2);
      }

      .cls-6 {
        fill: #f7f7f7;
      }
    </style>
    <linearGradient id="linear-gradient" x1="-15.17" y1="10590.82" x2="6.76" y2="10590.82" gradientTransform="translate(19.3 10632.25) rotate(-180)" gradientUnits="userSpaceOnUse">
      <stop offset="0" stop-color="#c2ecef"/>
      <stop offset=".31" stop-color="#00e1d5"/>
      <stop offset=".68" stop-color="#0095b1"/>
      <stop offset="1" stop-color="#00425f"/>
    </linearGradient>
    <linearGradient id="linear-gradient-2" x1=".5" y1="23.42" x2="28.77" y2="23.42" gradientUnits="userSpaceOnUse">
      <stop offset="0" stop-color="#05336e"/>
      <stop offset=".21" stop-color="#04477d"/>
      <stop offset=".65" stop-color="#017ca5"/>
      <stop offset="1" stop-color="#00acca"/>
    </linearGradient>
    <linearGradient id="linear-gradient-3" x1="57.11" y1="23.43" x2="85.31" y2="23.43" gradientUnits="userSpaceOnUse">
      <stop offset="0" stop-color="#00acca"/>
      <stop offset=".35" stop-color="#017ca5"/>
      <stop offset=".79" stop-color="#04477d"/>
      <stop offset="1" stop-color="#05336e"/>
    </linearGradient>
    <radialGradient id="radial-gradient" cx="42.65" cy="23.43" fx="42.65" fy="23.43" r="25.46" gradientUnits="userSpaceOnUse">
      <stop offset="0" stop-color="#b4b3ba"/>
      <stop offset="1" stop-color="#fff"/>
    </radialGradient>
    <radialGradient id="radial-gradient-2" cx="43.17" cy="23.43" fx="43.17" fy="23.43" r="25.46" gradientUnits="userSpaceOnUse">
      <stop offset="0" stop-color="#fff"/>
      <stop offset="1" stop-color="#b4b3ba"/>
    </radialGradient>
  </defs>
  <g id="Layer_1-2" data-name="Layer 1">
    <g>
      <g>
        <g>
          <path class="cls-3" d="M21.72,41.43h0s-.03,0-.04,0h.04Z"/>
          <path class="cls-1" d="M28.57,31.59h-9.69c-4.51,0-8.17-3.66-8.17-8.17s3.66-8.17,8.17-8.17h9.27l-.06-.07-8.06-9.77h-1.51c-9.95,0-18.01,8.06-18.01,18.01,0,7.54,4.64,14,11.21,16.68,2.15.72,3.95,1.22,6.8,1.33h1.87l7.12-8.31,1.27-1.53h-.2Z"/>
        </g>
        <path class="cls-4" d="M57.92,15.22c-.06.05-.08.03-.14.04h9.15c4.51,0,8.17,3.65,8.17,8.17s-3.66,8.17-8.17,8.17h-9.83s.32.37.32.37l8.12,9.48h1.75c9.95,0,18.01-8.07,18.01-18.02,0-7.54-4.64-14-11.21-16.68-.81-.35-1.26-.43-2.02-.6-.47-.11-1.04-.21-2.15-.38-.61-.1-1.05-.16-1.83-.22,0,0-1.54-.12-2.07-.12-.04,0-.12,0-.12,0l-6.28,7.57-1.41,1.7-.47.57c.06,0,.07.01.14-.04"/>
        <g>
          <path class="cls-2" d="M59.82,33.99L36.28,6.51c-2.8-3.27-6.7-5.34-10.92-5.87-.7-.09-1.42-.14-2.13-.14h-8.35l10.26,12.43.08.09,16.25,19.69c7.07,8.57,17.57,13.55,28.67,13.64.09,0,.18,0,.28,0l-10.59-12.36Z"/>
          <path class="cls-5" d="M67.25.5h-4.66c-5.02,0-9.79,2.19-13.06,6.01l-23.4,27.31-1.33,1.55-.34.39-9.06,10.58h0c.09,0,.19,0,.28,0,.02,0,.04,0,.05,0,11.08-.1,21.55-5.08,28.61-13.63l16.24-19.68,2.39-2.89,7.95-9.64h-3.68Z"/>
        </g>
      </g>
      <g>
        <path class="cls-6" d="M19.89,61.83c1.9,1.83,2.86,4.39,2.86,7.66s-.95,5.82-2.86,7.63c-1.9,1.81-4.61,2.72-8.12,2.72h-5.83v-20.77h5.83c3.51,0,6.22.92,8.12,2.75ZM18.92,76.28c1.64-1.63,2.46-3.89,2.46-6.79s-.82-5.2-2.46-6.83c-1.64-1.64-4.02-2.46-7.16-2.46h-4.5v18.52h4.5c3.14,0,5.52-.81,7.16-2.44Z"/>
        <path class="cls-6" d="M28.1,59.07v20.77h-1.33v-20.77h1.33Z"/>
        <path class="cls-6" d="M50.05,65.2c-.59-1.56-1.57-2.8-2.94-3.73-1.37-.93-2.99-1.39-4.87-1.39-1.64,0-3.12.38-4.44,1.15-1.32.77-2.37,1.86-3.14,3.29-.77,1.42-1.15,3.08-1.15,4.97s.38,3.55,1.15,4.97c.77,1.42,1.81,2.51,3.14,3.27,1.32.76,2.8,1.14,4.44,1.14s3.01-.35,4.29-1.06c1.28-.71,2.31-1.72,3.08-3.03.77-1.31,1.19-2.85,1.27-4.6h-9.26v-1.12h10.62v.89c-.06,1.93-.52,3.67-1.39,5.21-.87,1.54-2.05,2.74-3.55,3.61s-3.19,1.3-5.06,1.3-3.64-.45-5.18-1.35-2.74-2.15-3.61-3.76c-.87-1.61-1.3-3.43-1.3-5.46s.43-3.88,1.3-5.49c.87-1.61,2.07-2.86,3.61-3.76,1.54-.9,3.26-1.35,5.18-1.35,2.23,0,4.16.56,5.78,1.67,1.63,1.12,2.82,2.66,3.57,4.63h-1.54Z"/>
        <path class="cls-6" d="M57.6,59.07v20.77h-1.33v-20.77h1.33Z"/>
        <path class="cls-6" d="M68.81,69.46l6.24,10.39h-1.51l-5.59-9.32-5.36,9.32h-1.48l6.15-10.47-6.18-10.3h1.51l5.53,9.23,5.44-9.23h1.51l-6.27,10.39Z"/>
        <path class="cls-6" d="M79.88,59.07v20.77h-1.33v-20.77h1.33Z"/>
      </g>
      <g>
        <path class="cls-6" d="M9.17,91.8c.25.29.37.63.37,1.02,0,.49-.17.88-.5,1.19-.33.31-.82.46-1.46.46h-1.77v-6.18h1.77c.61,0,1.07.14,1.37.42.3.28.45.64.45,1.09,0,.41-.11.74-.33.98-.22.25-.49.4-.82.47.37.07.68.25.92.54ZM5.99,91.18h1.65c.51,0,.91-.12,1.18-.36s.41-.58.41-1.01-.13-.73-.4-.97c-.27-.24-.68-.36-1.24-.36h-1.6v2.7ZM8.89,93.91c.31-.26.47-.62.47-1.08s-.16-.81-.48-1.07c-.32-.27-.76-.4-1.32-.4h-1.58v2.95h1.6c.56,0,1-.13,1.31-.4Z"/>
        <path class="cls-6" d="M14.13,93.98c.36-.27.58-.64.66-1.11h.18c-.08.5-.32.9-.7,1.21-.38.31-.88.46-1.48.46-.44,0-.83-.1-1.18-.29-.34-.19-.62-.47-.81-.84-.2-.37-.29-.8-.29-1.3s.1-.93.29-1.3c.2-.37.47-.65.81-.84.35-.19.74-.29,1.18-.29.46,0,.86.1,1.18.29s.57.45.74.76.25.64.25.98c0,.21,0,.37,0,.47h-4.27c0,.49.11.89.3,1.22s.45.57.77.73c.32.16.66.24,1.03.24.53,0,.98-.13,1.34-.4ZM11.75,90.08c-.32.16-.57.41-.77.73s-.3.73-.3,1.22h4.12c.03-.49-.05-.89-.23-1.22-.18-.33-.44-.57-.75-.73-.32-.16-.66-.24-1.03-.24s-.72.08-1.03.24Z"/>
        <path class="cls-6" d="M22.83,89.11c.56.54.83,1.3.83,2.28s-.28,1.74-.83,2.28c-.56.54-1.37.81-2.43.81h-1.62v-6.18h1.62c1.06,0,1.87.27,2.43.81ZM22.71,93.55c.52-.51.78-1.23.78-2.16s-.26-1.64-.78-2.16c-.52-.51-1.29-.77-2.31-.77h-1.45v5.86h1.45c1.02,0,1.79-.26,2.31-.77Z"/>
        <path class="cls-6" d="M24.86,88.46s-.07-.1-.07-.17.02-.13.07-.17.1-.07.16-.07.12.02.16.07.07.1.07.17-.02.13-.07.17-.1.07-.16.07-.12-.02-.16-.07ZM25.11,89.74v4.74h-.18v-4.74h.18Z"/>
        <path class="cls-6" d="M30.07,90.1c.38.28.63.64.76,1.07v-1.43h.17v4.91c0,.44-.1.82-.29,1.14-.19.32-.45.57-.77.74s-.67.25-1.04.25c-.57,0-1.05-.14-1.43-.42-.38-.28-.64-.65-.78-1.13h.18c.13.43.37.76.71,1.01.34.25.78.37,1.31.37.36,0,.69-.08.98-.25s.52-.39.69-.69c.17-.3.25-.65.25-1.04v-1.61c-.13.44-.38.8-.76,1.08-.38.28-.84.42-1.38.42-.45,0-.85-.1-1.2-.29-.35-.2-.62-.48-.82-.84s-.29-.8-.29-1.29.1-.93.29-1.29.47-.65.82-.84c.35-.2.75-.29,1.2-.29.54,0,1,.14,1.38.42ZM30.55,90.92c-.18-.34-.44-.61-.76-.8-.32-.19-.69-.29-1.1-.29-.43,0-.81.09-1.13.27-.32.18-.57.44-.74.79-.18.34-.26.75-.26,1.21s.09.87.26,1.21c.18.34.42.6.74.79.32.18.69.27,1.13.27.41,0,.78-.1,1.1-.29.32-.19.58-.46.76-.8.18-.34.28-.74.28-1.19s-.09-.85-.28-1.19Z"/>
        <path class="cls-6" d="M32.41,88.46s-.07-.1-.07-.17.02-.13.07-.17.1-.07.16-.07.12.02.16.07.07.1.07.17-.02.13-.07.17-.1.07-.16.07-.12-.02-.16-.07ZM32.66,89.74v4.74h-.18v-4.74h.18Z"/>
        <path class="cls-6" d="M34.53,89.91v3.32c0,.29.03.51.1.66s.17.26.31.32c.14.06.34.09.59.09h.5v.18h-.52c-.41,0-.7-.09-.88-.28-.18-.19-.27-.51-.27-.96v-3.32h-.77v-.18h.77v-1.21h.18v1.21h1.49v.18h-1.49Z"/>
        <path class="cls-6" d="M37.19,90.81c.19-.37.47-.65.82-.84.35-.2.75-.29,1.2-.29.54,0,1,.14,1.38.43.38.28.63.64.76,1.08v-1.45h.17v4.74h-.17v-1.45c-.13.44-.38.8-.76,1.08-.38.28-.84.43-1.38.43-.45,0-.85-.1-1.2-.29-.35-.2-.62-.48-.82-.84s-.29-.8-.29-1.29.1-.93.29-1.29ZM41.07,90.92c-.18-.34-.44-.61-.76-.8-.32-.19-.69-.29-1.1-.29-.43,0-.81.09-1.13.27-.32.18-.57.44-.74.79-.18.34-.26.75-.26,1.21s.09.87.26,1.21c.18.34.42.6.74.79.32.18.69.27,1.13.27.41,0,.78-.1,1.1-.29.32-.19.58-.46.76-.8.18-.34.28-.74.28-1.19s-.09-.85-.28-1.19Z"/>
        <path class="cls-6" d="M43.18,87.98v6.49h-.18v-6.49h.18Z"/>
        <path class="cls-6" d="M50.58,91.8c.25.29.37.63.37,1.02,0,.49-.17.88-.5,1.19-.33.31-.82.46-1.46.46h-1.77v-6.18h1.77c.61,0,1.07.14,1.37.42.3.28.45.64.45,1.09,0,.41-.11.74-.33.98-.22.25-.49.4-.82.47.37.07.68.25.92.54ZM47.39,91.18h1.65c.51,0,.91-.12,1.18-.36s.41-.58.41-1.01-.13-.73-.4-.97c-.27-.24-.68-.36-1.24-.36h-1.6v2.7ZM50.3,93.91c.31-.26.47-.62.47-1.08s-.16-.81-.48-1.07c-.32-.27-.76-.4-1.32-.4h-1.58v2.95h1.6c.56,0,1-.13,1.31-.4Z"/>
        <path class="cls-6" d="M55.53,93.98c.36-.27.58-.64.66-1.11h.18c-.08.5-.32.9-.7,1.21-.38.31-.88.46-1.48.46-.44,0-.83-.1-1.18-.29-.34-.19-.62-.47-.81-.84-.2-.37-.29-.8-.29-1.3s.1-.93.29-1.3c.2-.37.47-.65.81-.84.35-.19.74-.29,1.18-.29.46,0,.86.1,1.18.29s.57.45.74.76.25.64.25.98c0,.21,0,.37,0,.47h-4.27c0,.49.11.89.3,1.22s.45.57.77.73c.32.16.66.24,1.03.24.53,0,.98-.13,1.34-.4ZM53.16,90.08c-.32.16-.57.41-.77.73s-.3.73-.3,1.22h4.12c.03-.49-.05-.89-.23-1.22-.18-.33-.44-.57-.75-.73-.32-.16-.66-.24-1.03-.24s-.72.08-1.03.24Z"/>
        <path class="cls-6" d="M64.24,89.11c.56.54.83,1.3.83,2.28s-.28,1.74-.83,2.28c-.56.54-1.37.81-2.43.81h-1.62v-6.18h1.62c1.06,0,1.87.27,2.43.81ZM64.11,93.55c.52-.51.78-1.23.78-2.16s-.26-1.64-.78-2.16c-.52-.51-1.29-.77-2.31-.77h-1.45v5.86h1.45c1.02,0,1.79-.26,2.31-.77Z"/>
        <path class="cls-6" d="M66.52,88.3v6.18h-.18v-6.18h.18Z"/>
        <path class="cls-6" d="M73.31,90.13c-.19-.51-.51-.93-.96-1.25-.45-.32-.99-.48-1.61-.48-.51,0-.98.12-1.4.36s-.75.59-1,1.04-.36.98-.36,1.58.12,1.13.36,1.58.57.8,1,1.04.89.36,1.4.36.96-.12,1.38-.35c.42-.23.75-.57,1-1.01s.38-.95.4-1.54h-2.91v-.16h3.08v.07c0,.61-.13,1.15-.38,1.63-.25.48-.6.85-1.05,1.12-.45.27-.96.4-1.52.4s-1.07-.13-1.52-.4c-.45-.27-.8-.64-1.05-1.12-.25-.48-.38-1.02-.38-1.63s.13-1.15.38-1.63c.25-.48.6-.85,1.05-1.12.45-.27.95-.4,1.52-.4.67,0,1.24.17,1.71.51.47.34.82.8,1.03,1.38h-.18Z"/>
        <path class="cls-6" d="M75.13,88.3v6.18h-.18v-6.18h.18Z"/>
        <path class="cls-6" d="M78.17,91.39l1.83,3.09h-.2l-1.76-2.97-1.7,2.97h-.2l1.81-3.13-1.81-3.04h.2l1.73,2.92,1.73-2.92h.2l-1.83,3.09Z"/>
      </g>
    </g>
  </g>
</svg>