<?xml version="1.0" encoding="UTF-8"?>
<svg id="Layer_2" data-name="Layer 2" xmlns="http://www.w3.org/2000/svg" xmlns:xlink="http://www.w3.org/1999/xlink" viewBox="0 0 84.81 99.2">
  <defs>
    <style>
      .cls-1 {
        fill: url(#linear-gradient-2);
      }

      .cls-2 {
        fill: url(#radial-gradient);
      }

      .cls-3 {
        fill: url(#radial-gradient-3);
      }

      .cls-4 {
        fill: url(#radial-gradient-2);
      }

      .cls-5 {
        font-family: Poppins-Thin, Poppins;
        font-size: 8.32px;
      }

      .cls-5, .cls-6 {
        fill: #030c1c;
        font-weight: 200;
      }

      .cls-7 {
        fill: url(#linear-gradient);
      }

      .cls-6 {
        font-family: Poppins-ExtraLight, Poppins;
        font-size: 29.59px;
      }
    </style>
    <linearGradient id="linear-gradient" x1="0" y1="22.69" x2="26.28" y2="22.69" gradientUnits="userSpaceOnUse">
      <stop offset="0" stop-color="#05336e"/>
      <stop offset=".21" stop-color="#04477d"/>
      <stop offset=".65" stop-color="#017ca5"/>
      <stop offset="1" stop-color="#00acca"/>
    </linearGradient>
    <linearGradient id="linear-gradient-2" x1="58.55" y1="22.72" x2="84.81" y2="22.72" gradientUnits="userSpaceOnUse">
      <stop offset="0" stop-color="#00acca"/>
      <stop offset=".35" stop-color="#017ca5"/>
      <stop offset=".79" stop-color="#04477d"/>
      <stop offset="1" stop-color="#05336e"/>
    </linearGradient>
    <radialGradient id="radial-gradient" cx="41.3" cy="23.16" fx="41.3" fy="23.16" r="34.88" gradientUnits="userSpaceOnUse">
      <stop offset="0" stop-color="#151128"/>
      <stop offset=".28" stop-color="#1d192e"/>
      <stop offset=".74" stop-color="#34313f"/>
      <stop offset="1" stop-color="#44434b"/>
    </radialGradient>
    <radialGradient id="radial-gradient-2" cx="41.3" fx="41.3" r="34.88" xlink:href="#radial-gradient"/>
    <radialGradient id="radial-gradient-3" cx="42.7" cy="22.68" fx="42.7" fy="22.68" r="24.93" gradientUnits="userSpaceOnUse">
      <stop offset="0" stop-color="#44434b"/>
      <stop offset="1" stop-color="#151128"/>
    </radialGradient>
  </defs>
  <g id="Layer_1-2" data-name="Layer 1">
    <g>
      <text class="cls-6" transform="translate(5.87 80)"><tspan x="0" y="0">DIGIX</tspan></text>
      <text class="cls-5" transform="translate(7.61 94.68)"><tspan x="0" y="0">Be Digital Be DIGIX</tspan></text>
    </g>
    <g>
      <path class="cls-7" d="M26.28,31.46l-7.67,8.94h-.86c-2.94-.11-4.8-.66-6.71-1.31C4.33,36.37,0,29.92,0,22.69,0,12.92,7.95,4.97,17.72,4.97h.19l7.38,8.94h-7.19c-4.84,0-8.77,3.94-8.77,8.77s3.94,8.77,8.77,8.77h8.19Z"/>
      <path class="cls-1" d="M84.81,22.7c0,9.76-7.95,17.72-17.73,17.72h-.87l-7.67-8.95h8.18c4.84,0,8.77-3.94,8.77-8.76s-3.94-8.77-8.77-8.77h-7.2l7.35-8.9c.51.04.98.07.99.08.78.06,1.21.12,1.82.21,1.06.17,1.64.27,2.15.38l.26.06c.61.13,1,.22,1.69.53,6.71,2.73,11.04,9.17,11.04,16.41Z"/>
      <g>
        <path class="cls-2" d="M41.74,13.4l-7.92,9.26-6.38-7.73-.41-.51-8.21-9.95-.42-.52-3.27-3.96h7.38c.67,0,1.38.05,2.09.14,4.18.52,7.99,2.57,10.74,5.76l6.42,7.5Z"/>
        <path class="cls-4" d="M69.12,45.36c-9.92-.28-19.24-4.46-26.02-11.62.4-.44.79-.88,1.16-1.34l6.76-8.19,5.33,6.22.42.51,8.54,9.97.44.51,3.37,3.94Z"/>
      </g>
      <path class="cls-3" d="M69.7,0l-3.29,3.99-.4.49-8.22,9.96-.41.51-6.37,7.71-.32.4-.32.39-6.87,8.32c-.35.42-.71.84-1.07,1.24-.11.12-.22.24-.33.36-.11.12-.23.25-.35.37-6.78,7.13-16.08,11.31-26.02,11.62l3.38-3.95.44-.51,8.53-9.96.43-.51,5.33-6.22.34-.39.32-.38,7.94-9.28.33-.38.33-.39,6.42-7.49c3.22-3.74,7.89-5.9,12.83-5.9h7.38Z"/>
    </g>
  </g>
</svg>