<?xml version="1.0" standalone="no"?>
<!DOCTYPE svg PUBLIC "-//W3C//DTD SVG 20010904//EN"
 "http://www.w3.org/TR/2001/REC-SVG-20010904/DTD/svg10.dtd">
<svg version="1.0" xmlns="http://www.w3.org/2000/svg"
 width="64.000000pt" height="64.000000pt" viewBox="0 0 64.000000 64.000000"
 preserveAspectRatio="xMidYMid meet">

<g transform="translate(0.000000,64.000000) scale(0.100000,-0.100000)"
fill="#000000" stroke="none">
<path d="M177 603 c-10 -10 -8 -51 2 -58 8 -4 41 -62 41 -71 0 -1 -10 -4 -22
-6 -15 -2 -24 -11 -26 -25 -2 -13 -5 -23 -8 -23 -7 0 -47 24 -66 38 -25 20
-62 11 -66 -16 -7 -45 35 -67 68 -37 15 14 18 14 30 0 7 -8 19 -15 26 -15 9 0
14 -11 14 -30 0 -31 -17 -39 -37 -19 -18 18 -58 7 -61 -18 -5 -31 28 -47 56
-27 43 30 60 -23 20 -57 -25 -20 -48 -25 -48 -10 0 16 -40 23 -55 11 -20 -17
-19 -57 1 -68 19 -11 54 -4 54 9 0 5 6 9 14 9 7 0 19 7 26 15 18 21 28 19 32
-7 2 -15 11 -24 26 -26 12 -2 22 -5 22 -8 0 -7 -24 -47 -38 -66 -20 -25 -11
-62 16 -66 45 -7 67 32 36 63 -15 15 -15 17 0 34 9 10 16 23 16 29 0 18 50 14
57 -4 3 -9 0 -19 -6 -24 -7 -4 -11 -18 -9 -31 4 -34 52 -34 56 0 2 13 -2 27
-9 31 -6 5 -9 15 -6 24 7 18 57 22 57 4 0 -6 7 -19 16 -29 15 -17 15 -19 0
-34 -31 -31 -9 -70 36 -63 27 4 36 41 16 66 -14 19 -38 59 -38 66 0 3 10 6 23
8 14 2 23 11 25 26 3 22 16 29 26 13 13 -21 83 -49 99 -39 21 11 22 51 2 68
-15 12 -55 5 -55 -11 0 -15 -23 -10 -47 10 -41 34 -24 87 19 57 28 -20 61 -4
56 27 -2 16 -11 23 -30 25 -16 2 -28 -1 -28 -7 0 -6 -9 -11 -20 -11 -16 0 -20
7 -20 30 0 19 5 30 14 30 7 0 19 7 26 15 12 14 15 14 30 0 33 -30 75 -8 68 37
-4 27 -41 36 -66 16 -19 -14 -59 -38 -66 -38 -3 0 -6 10 -8 23 -2 14 -11 23
-25 25 -13 2 -23 5 -23 8 0 7 24 47 38 66 20 25 11 62 -16 66 -45 7 -67 -32
-36 -63 15 -15 15 -17 0 -34 -9 -10 -16 -23 -16 -29 0 -15 -46 -16 -55 -2 -4
6 -1 17 5 25 6 8 10 24 8 37 -4 33 -52 33 -56 -1 -2 -13 2 -27 9 -31 6 -5 9
-15 6 -24 -7 -18 -57 -22 -57 -4 0 6 -7 19 -16 29 -15 17 -15 19 0 34 19 19
20 37 4 53 -13 13 -50 16 -61 5z m48 -23 c3 -6 -1 -13 -10 -16 -19 -8 -30 0
-20 15 8 14 22 14 30 1z m220 -1 c10 -15 -1 -23 -20 -15 -9 3 -13 10 -10 16 8
13 22 13 30 -1z m-115 -39 c0 -5 -4 -10 -10 -10 -5 0 -10 5 -10 10 0 6 5 10
10 10 6 0 10 -4 10 -10z m-246 -98 c2 -4 1 -14 -4 -22 -7 -11 -12 -12 -21 -3
-6 6 -8 16 -5 22 8 13 23 14 30 3z m361 -122 l0 -125 -125 0 -125 0 -3 114
c-1 63 0 121 2 128 4 11 33 13 128 11 l123 -3 0 -125z m141 119 c3 -6 1 -16
-5 -22 -9 -9 -14 -8 -21 3 -9 15 -4 30 10 30 5 0 12 -5 16 -11z m-476 -119 c0
-5 -5 -10 -11 -10 -5 0 -7 5 -4 10 3 6 8 10 11 10 2 0 4 -4 4 -10z m435 0 c3
-5 1 -10 -4 -10 -6 0 -11 5 -11 10 0 6 2 10 4 10 3 0 8 -4 11 -10z m-462 -115
c1 -5 -6 -11 -15 -13 -11 -2 -18 3 -18 13 0 17 30 18 33 0z m507 6 c0 -14 -18
-23 -30 -16 -6 4 -8 11 -5 16 8 12 35 12 35 0z m-260 -111 c0 -5 -4 -10 -10
-10 -5 0 -10 5 -10 10 0 6 5 10 10 10 6 0 10 -4 10 -10z m-109 -35 c-1 -15
-24 -12 -29 3 -3 9 2 13 12 10 10 -1 17 -7 17 -13z m229 6 c0 -14 -18 -23 -30
-16 -6 4 -8 11 -5 16 8 12 35 12 35 0z"/>
<path d="M262 364 c-16 -11 -22 -25 -22 -54 0 -21 5 -42 10 -45 6 -3 10 3 10
14 0 17 6 21 30 21 24 0 30 -4 30 -21 0 -11 5 -17 10 -14 6 3 10 24 10 45 0
29 -6 43 -22 54 -12 9 -25 16 -28 16 -3 0 -16 -7 -28 -16z m48 -29 c0 -8 -9
-15 -20 -15 -11 0 -20 7 -20 15 0 8 9 15 20 15 11 0 20 -7 20 -15z"/>
<path d="M380 320 c0 -38 4 -59 10 -55 6 3 10 28 10 55 0 27 -4 52 -10 55 -6
4 -10 -17 -10 -55z"/>
</g>
</svg>
