<?xml version="1.0" standalone="no"?>
<!DOCTYPE svg PUBLIC "-//W3C//DTD SVG 20010904//EN"
 "http://www.w3.org/TR/2001/REC-SVG-20010904/DTD/svg10.dtd">
<svg version="1.0" xmlns="http://www.w3.org/2000/svg"
 width="64.000000pt" height="64.000000pt" viewBox="0 0 64.000000 64.000000"
 preserveAspectRatio="xMidYMid meet">

<g transform="translate(0.000000,64.000000) scale(0.100000,-0.100000)"
fill="#000000" stroke="none">
<path d="M236 524 c-9 -8 -16 -21 -16 -29 0 -8 -25 -16 -71 -23 -108 -16 -109
-18 -109 -189 0 -198 -23 -183 280 -183 303 0 280 -15 280 184 0 120 -3 146
-16 157 -9 7 -20 23 -25 36 -7 19 -16 23 -48 23 -22 0 -43 -4 -46 -10 -9 -15
-45 -12 -45 4 0 32 -30 46 -100 46 -49 0 -73 -4 -84 -16z m119 -24 c0 -18 -52
-27 -67 -12 -17 17 2 33 35 30 20 -2 32 -8 32 -18z m-180 -120 c0 -35 0 -35
-45 -35 -39 0 -45 3 -48 23 -6 43 4 53 50 50 42 -3 43 -4 43 -38z m229 1 c26
-27 31 -39 31 -81 0 -43 -5 -54 -33 -82 -47 -48 -117 -48 -164 0 -28 28 -33
39 -33 81 0 52 25 92 70 112 37 16 96 3 129 -30z"/>
<path d="M265 355 c-50 -49 -15 -135 55 -135 19 0 40 9 55 25 50 49 15 135
-55 135 -19 0 -40 -9 -55 -25z m111 -49 c13 -34 -44 -82 -68 -58 -7 7 -2 20
18 41 33 34 42 37 50 17z"/>
</g>
</svg>
