<?xml version="1.0" encoding="UTF-8"?>
<svg id="Layer_2" data-name="Layer 2" xmlns="http://www.w3.org/2000/svg" viewBox="0 0 343.58 343.36">
  <defs>
    <style>
      .cls-1 {
        fill: #000;
        stroke-width: 0px;
      }
    </style>
  </defs>
  <g id="Layer_1-2" data-name="Layer 1">
    <g>
      <path class="cls-1" d="M142.04,125.18c13.25,49.28,26.42,98.29,39.7,147.71-1.52.09-2.7.24-3.88.23-15.97-.09-31.94.01-47.9-.4-8.34-.22-16.29,1.11-24.27,3.32-16.68,4.62-33.36,9.27-50.21,13.23-17.41,4.09-35.62-6.28-40.82-23.42-5.17-17.03-9.76-34.26-13.84-51.58-4.02-17.07,6.97-35.29,24.26-40.37,19.23-5.65,38.7-10.5,58.03-15.8,2.49-.68,4.95-1.71,7.18-3,16.19-9.35,32.31-18.81,48.45-28.23.94-.55,1.92-1.01,3.28-1.71Z"/>
      <path class="cls-1" d="M55.99.03c8.98,0,17.96-.06,26.94.01,17.32.14,28.97,11.92,29,29.31.03,17.71.04,35.42,0,53.13-.04,17.28-11.91,29.23-29.1,29.28-17.96.05-35.92.05-53.88,0-16.62-.05-28.6-11.83-28.72-28.44-.14-18.33-.15-36.67,0-55C.36,11.84,12.12.24,28.67.05c9.1-.1,18.21-.02,27.32-.02Z"/>
      <path class="cls-1" d="M299.73.11c5.86,0,11.73-.2,17.58.04,13.97.57,25.61,12.04,26.01,25.99.34,11.71.33,23.44.02,35.16-.38,14.31-12.14,26.03-26.45,26.41-11.47.3-22.95.28-34.42.01-14.53-.34-26.46-12.45-26.72-27.02-.2-11.22-.21-22.45,0-33.66.28-14.64,12.07-26.42,26.76-26.91,5.73-.19,11.47-.03,17.21-.03,0,0,0,.02,0,.03Z"/>
      <path class="cls-1" d="M343.45,307.44c0,5.48.14,10.97-.03,16.45-.33,10.88-8.44,19.09-19.31,19.31-10.84.22-21.69.19-32.53.03-11.25-.17-19.56-8.26-19.88-19.61-.3-10.83-.31-21.69,0-32.52.33-11.29,8.61-19.36,19.95-19.62,10.59-.24,21.19-.23,31.78,0,11.72.25,19.8,8.57,20.02,20.26.1,5.23.02,10.47.02,15.7,0,0-.02,0-.03,0Z"/>
      <path class="cls-1" d="M167.33,102.75c6.63.08,11.02,3.68,12.67,9.77,3.94,14.54,7.82,29.09,11.73,43.63,9.65,35.94,19.3,71.88,28.92,107.83,1.86,6.96-1.01,13.11-7.02,15.35-7.05,2.64-13.99-1.35-16.17-9.39-4.04-14.89-8.02-29.81-12.03-44.71-9.43-35.1-18.86-70.2-28.29-105.29-2.07-7.69.33-13.84,6.44-16.28,1.48-.59,3.11-.76,3.74-.91Z"/>
      <path class="cls-1" d="M282.96,208.48c-.67,7.02-1.17,12.97-1.82,18.91-.95,8.69-6.49,13.69-13.85,12.63-7.26-1.04-11.24-7.16-9.92-15.61,2.4-15.29,1.19-30.3-3.21-45.08-3.73-12.55-9.79-23.89-17.77-34.28-1.82-2.37-3.43-5.32-3.91-8.21-.92-5.48,2.24-10.24,7.14-12.25,4.86-1.99,10.35-.67,13.84,3.59,13.87,16.89,22.95,36.08,26.82,57.59,1.4,7.82,1.89,15.8,2.68,22.72Z"/>
      <path class="cls-1" d="M65.73,303.4c10.4-2.81,20.34-5.51,30.28-8.19,7.09-1.9,14.18-3.77,21.27-5.66.48-.13.96-.28,1.44-.39,7.54-1.7,9.26-.7,11.15,6.55,1.07,4.09,2.29,8.15,3.1,12.29,2,10.26-.81,19.34-8.74,25.93-9.53,7.92-20.98,10.9-33.21,8.35-9.41-1.97-15.98-8.14-19.19-17.17-2.45-6.89-4-14.1-6.1-21.71Z"/>
      <path class="cls-1" d="M245.14,205.43c-.27,2.3-.47,6.31-1.26,10.2-1.3,6.39-7.03,10.3-13.22,9.43-6.32-.89-10.82-6.06-10.19-12.6.69-7.14,1.32-14.32-1.23-21.08-2.09-5.52-4.81-10.94-8.06-15.86-4.42-6.7-4.27-13.58,1.33-17.97,5.5-4.32,12.8-3.04,17.67,3.2,9.87,12.63,14.63,27.04,14.95,44.68Z"/>
    </g>
  </g>
</svg>