<?xml version="1.0" standalone="no"?>
<!DOCTYPE svg PUBLIC "-//W3C//DTD SVG 20010904//EN"
 "http://www.w3.org/TR/2001/REC-SVG-20010904/DTD/svg10.dtd">
<svg version="1.0" xmlns="http://www.w3.org/2000/svg"
 width="64.000000pt" height="64.000000pt" viewBox="0 0 64.000000 64.000000"
 preserveAspectRatio="xMidYMid meet">

<g transform="translate(0.000000,64.000000) scale(0.100000,-0.100000)"
fill="#000000" stroke="none">
<path d="M182 540 c-16 -28 -21 -30 -79 -30 -51 0 -66 -4 -83 -22 -18 -20 -20
-34 -20 -194 0 -158 2 -173 21 -198 l20 -26 279 0 279 0 20 26 c19 25 21 40
21 198 0 160 -2 174 -20 194 -17 18 -32 22 -83 22 -58 0 -63 2 -79 30 l-17 30
-121 0 -121 0 -17 -30z m250 -27 c12 -26 18 -28 83 -31 38 -2 75 -8 82 -14 16
-13 19 -319 3 -349 -10 -18 -24 -19 -280 -19 -256 0 -270 1 -280 19 -15 29
-13 334 2 349 7 7 41 12 84 12 71 0 72 0 83 30 l10 30 100 0 c99 0 100 0 113
-27z"/>
<path d="M252 423 c-51 -25 -77 -69 -77 -130 0 -85 61 -148 145 -148 112 0
184 123 128 219 -41 69 -124 95 -196 59z m138 -42 c30 -21 53 -82 44 -117 -4
-14 -20 -38 -36 -54 -25 -25 -38 -30 -78 -30 -40 0 -53 5 -78 30 -103 102 29
254 148 171z"/>
<path d="M517 434 c-12 -12 -8 -42 6 -47 21 -8 39 8 35 29 -3 19 -29 30 -41
18z"/>
</g>
</svg>
