<?xml version="1.0" standalone="no"?>
<!DOCTYPE svg PUBLIC "-//W3C//DTD SVG 20010904//EN"
 "http://www.w3.org/TR/2001/REC-SVG-20010904/DTD/svg10.dtd">
<svg version="1.0" xmlns="http://www.w3.org/2000/svg"
 width="64.000000pt" height="64.000000pt" viewBox="0 0 64.000000 64.000000"
 preserveAspectRatio="xMidYMid meet">

<g transform="translate(0.000000,64.000000) scale(0.100000,-0.100000)"
fill="#000000" stroke="none">
<path d="M67 634 c-4 -4 -7 -29 -7 -56 l0 -48 36 0 35 0 -3 53 c-3 47 -5 52
-28 55 -14 2 -29 0 -33 -4z"/>
<path d="M242 632 c-9 -6 -12 -25 -10 -53 3 -43 4 -44 38 -44 l35 0 0 50 c0
46 -2 50 -25 53 -14 1 -31 -2 -38 -6z"/>
<path d="M417 634 c-4 -4 -7 -29 -7 -56 l0 -48 36 0 35 0 -3 53 c-3 47 -5 52
-28 55 -14 2 -29 0 -33 -4z"/>
<path d="M0 390 l0 -200 148 0 c139 0 202 10 202 33 0 4 -34 7 -76 7 l-75 0 3
53 3 52 65 0 65 0 3 -38 c4 -47 22 -39 22 10 l0 36 75 -5 c41 -3 81 -11 90
-18 13 -11 15 3 15 129 0 133 -1 141 -19 141 -16 0 -20 -8 -23 -37 -3 -37 -4
-38 -47 -41 -49 -4 -61 6 -61 51 0 24 -4 27 -34 27 -33 0 -35 -2 -38 -37 -3
-38 -3 -38 -48 -38 -45 0 -45 0 -48 38 -3 35 -5 37 -38 37 -31 0 -34 -3 -34
-29 0 -38 -20 -53 -67 -49 -36 3 -38 5 -41 41 -3 29 -7 37 -23 37 -18 0 -19
-9 -19 -200z m180 30 l0 -50 -65 0 -65 0 0 50 0 50 65 0 65 0 0 -50z m160 0
l0 -50 -70 0 -70 0 0 50 0 50 70 0 70 0 0 -50z m150 0 l0 -50 -65 0 -65 0 0
50 0 50 65 0 65 0 0 -50z m-310 -135 l0 -55 -65 0 -65 0 0 48 c0 27 3 52 7 55
3 4 33 7 65 7 l58 0 0 -55z"/>
<path d="M72 418 c3 -31 6 -33 46 -36 l42 -3 0 35 c0 36 0 36 -46 36 -45 0
-45 0 -42 -32z"/>
<path d="M222 418 c3 -32 5 -33 48 -33 43 0 45 1 48 33 l3 32 -51 0 -51 0 3
-32z"/>
<path d="M380 415 c0 -35 0 -35 45 -35 45 0 45 0 45 35 0 35 0 35 -45 35 -45
0 -45 0 -45 -35z"/>
<path d="M70 285 c0 -35 0 -35 45 -35 45 0 45 0 45 35 0 35 0 35 -45 35 -45 0
-45 0 -45 -35z"/>
<path d="M227 313 c-4 -3 -7 -19 -7 -35 0 -27 2 -28 50 -28 l50 0 0 35 c0 35
0 35 -43 35 -24 0 -47 -3 -50 -7z"/>
<path d="M380 311 c0 -5 11 -11 25 -13 17 -4 25 -1 25 8 0 8 -11 14 -25 14
-14 0 -25 -4 -25 -9z"/>
<path d="M450 295 c0 -15 -10 -19 -43 -15 -31 3 -49 -20 -41 -52 5 -24 2 -30
-15 -35 -28 -7 -29 -53 -1 -71 14 -9 19 -19 15 -35 -8 -29 28 -65 48 -49 15
13 31 4 40 -21 9 -25 57 -23 64 4 5 17 11 20 33 15 36 -7 60 19 53 56 -4 20 0
27 16 33 28 9 28 51 0 65 -16 9 -19 18 -14 39 7 31 -12 54 -42 51 -33 -4 -43
0 -43 15 0 10 -11 15 -35 15 -24 0 -35 -5 -35 -15z m70 -85 c26 -14 34 -57 15
-86 -29 -45 -115 -22 -115 30 0 52 52 82 100 56z"/>
</g>
</svg>
