<?xml version="1.0" encoding="UTF-8"?>
<svg id="Layer_2" data-name="Layer 2" xmlns="http://www.w3.org/2000/svg" viewBox="0 0 309.98 279.45">
  <defs>
    <style>
      .cls-1 {
        fill: #000;
        stroke-width: 0px;
      }
    </style>
  </defs>
  <g id="Layer_1-2" data-name="Layer 1">
    <g>
      <path class="cls-1" d="M84.6,279.45c-.69-.4-1.34-.86-2.06-1.19-3.66-1.69-5.02-4.63-5.01-8.54.05-18.83.02-37.66.02-56.49,0-1.08,0-2.17,0-3.68-1.08,0-2.04,0-2.99,0-11.37,0-22.74-.11-34.1.03-10.17.13-19.39-2.6-27.4-8.86-2.6-2.03-4.91-4.59-6.85-7.26C1.76,187.34-.02,180.43,0,172.8.12,127.32.05,81.84.09,36.36c0-2.89.06-5.9.81-8.66C4.37,14.83,12.83,6.37,25.35,2.39,30.44.78,36.04.19,41.42.15,71.98-.05,102.54.13,133.09,0c9.24-.04,17.82,1.9,25.6,6.9,2.19,1.4,4.25,3.13,6.03,5.02,5.71,6.08,9.23,13.23,9.28,21.71.1,17.83.1,35.66.02,53.48-.03,6.87-7.27,10.99-13.55,8-3.8-1.81-5.49-4.63-5.47-8.83.08-16.46-.39-32.94.17-49.39.39-11.43-9.52-19.54-19.55-19.5-23.37.09-46.75.03-70.12.03-8.55,0-17.1,0-25.65,0-10.37,0-17.33,4.51-20.57,15-.39,1.26-.21,2.71-.21,4.07,0,45.48-.03,90.96,0,136.44,0,11.27,7.97,18.75,18.18,19.07,13.26.42,26.55.1,40.28.1,0-1.09,0-2.13,0-3.17,0-21.74.14-43.48-.09-65.22-.07-6.51,4.44-10.16,10.14-10.16,70.67,0,141.33.02,212-.04,4.99,0,7.97,2.7,10.38,6.54v152.82c-2.36,2.18-4.73,4.37-7.09,6.55H84.6ZM290.28,131.13H96.75v130.71h193.53v-130.71Z"/>
      <path class="cls-1" d="M302.88,279.45c2.36-2.18,4.73-4.37,7.09-6.55v6.55h-7.09Z"/>
      <path class="cls-1" d="M96.39,57.5c0,5.09.34,10.21-.07,15.27-.97,12.01-11.18,20.4-22.17,22.58-10.6,2.1-20.11-.54-27.86-7.99-4.49-4.32-7.41-9.83-7.44-16.38-.05-9.1-.1-18.19-.02-27.29.04-4.95,4.29-8.69,9.58-8.7,5.46-.01,9.33,3.54,9.38,8.85.08,8.37,0,16.74.03,25.1.01,3.88,1.93,6.84,5.22,8.54,3.38,1.75,6.93,1.67,10.36-.5,3.02-1.91,4.19-4.51,4.16-7.96-.06-8.09.17-16.2-.08-24.28-.2-6.35,4.69-9.7,9.69-9.73,5.8-.04,9.35,3.67,9.38,9.67.02,4.27,0,8.55,0,12.82-.06,0-.11,0-.17,0Z"/>
      <path class="cls-1" d="M116.3,65.23c0-6.91.16-13.82-.05-20.73-.19-6.11,4.7-9.45,9.64-9.5,5.71-.06,9.4,3.61,9.42,9.35.03,14.09.03,28.18,0,42.28-.01,5.74-3.69,9.4-9.41,9.36-4.82-.04-9.85-3.41-9.65-9.5.23-7.08.05-14.18.05-21.27Z"/>
      <path class="cls-1" d="M222.96,244.47c-12.54,0-25.08-.13-37.62.06-5.46.08-8.82-2.35-11.01-7.13-1.07-2.34,2.5-9.07,6.14-9.72,1.51-.27,3.04-.56,4.57-.57,25.08-.03,50.16.02,75.23-.08,3.63-.01,6.52,1.21,9.05,3.59,2.66,2.5,2.25,8-.42,10.58-2.63,2.55-5.64,3.32-9.16,3.29-12.27-.08-24.53-.03-36.8-.03Z"/>
      <path class="cls-1" d="M135.63,227.09c2.82,0,5.65.18,8.46-.04,5.84-.45,10.87,4.15,10.93,8.62.06,4.66-5.06,9.14-11,8.86-6.17-.29-12.37.05-18.55-.11-6.73-.17-10.95-6.22-8.45-11.99,1.59-3.66,4.81-5.07,8.52-5.28,3.35-.2,6.73-.04,10.09-.04,0,0,0-.01,0-.02Z"/>
    </g>
    <path class="cls-1" d="M161.15,215.97c-10.6,2.1-20.11-.54-27.86-7.99-4.49-4.32-7.41-9.83-7.44-16.38-.05-9.1-.1-18.19-.02-27.29.04-4.95,4.29-8.69,9.58-8.7,5.46-.01,9.33,3.54,9.38,8.85.08,8.37,0,16.74.03,25.1.01,3.88,1.93,6.84,5.22,8.54,3.38,1.75,6.93,1.67,10.36-.5,3.02-1.91,4.19-4.51,4.16-7.96-.06-8.09.17-16.2-.08-24.28-.2-6.35,4.69-9.7,9.69-9.73,5.8-.04,9.35,3.67,9.38,9.67.02,4.27,0,8.55,0,12.82-.06,0-.11,0-.17,0,0,5.09.34,10.21-.07,15.27-.97,12.01-11.18,20.4-22.17,22.58"/>
    <path class="cls-1" d="M197.34,209.99c-4.04-3.21-6.06-9.42-1.88-14.48,4.87-5.89,9.4-12.06,14.07-18.11,4.56-5.89,9.25-11.68,13.62-17.71,3.87-5.34,10.19-4.95,14.39-1.73,4.86,3.73,5.54,9.29,1.77,14.2-9.26,12.04-18.56,24.06-27.87,36.06-3.79,4.89-9.31,5.58-14.1,1.77"/>
    <path class="cls-1" d="M237.9,209.42c-4.04,3.25-10.5,3.85-14.42-1.38-4.56-6.09-9.48-11.91-14.24-17.85-4.64-5.78-9.15-11.68-13.96-17.32-4.26-4.99-2.43-11.1,1.66-14.51,4.73-3.94,10.26-3.37,14.13,1.42,9.49,11.78,18.95,23.57,28.39,35.39,3.84,4.81,3.24,10.39-1.55,14.24"/>
  </g>
</svg>