<?xml version="1.0" encoding="UTF-8"?>
<svg id="Layer_2" data-name="Layer 2" xmlns="http://www.w3.org/2000/svg" viewBox="0 0 382.88 383.04">
  <defs>
    <style>
      .cls-1 {
        fill: #000;
        stroke-width: 0px;
      }
    </style>
  </defs>
  <g id="Layer_1-2" data-name="Layer 1">
    <g>
      <path class="cls-1" d="M179.65,0c7.98,0,15.97,0,23.95,0,6.41.83,12.85,1.43,19.22,2.52,35.61,6.07,67.48,20.5,94.34,44.67,48.71,43.84,70.94,98.45,64.68,164.1-1.11,11.65-10.26,19-21.6,17.76-10.44-1.14-17.92-10.96-16.43-22.07,2.28-16.93.67-33.56-3.03-50.11-.6-2.71-1.58-3.59-4.39-3.57-22.08.12-44.16.07-66.24.07h-3.31c.46,12.42.7,24.26,1.39,36.07.73,12.65-8.43,21.21-19.04,21.35-11.1.15-19.15-8.59-19.32-20.79-.07-5.11-.04-10.23-.32-15.34-.38-7.04-1-14.07-1.52-20.99h-72.99c-2.58,25.53-2.67,50.75,0,76.23,12.05,0,23.75-.04,35.46.01,11.6.06,20.15,8.14,20.28,19.06.13,10.85-8.4,19.11-20.01,19.24-8.36.09-16.71.01-25.07.03-1.31,0-2.62.12-3.95.18-.04.77-.14,1.15-.07,1.49,5.94,25.64,14.72,50.17,28.61,72.67.77,1.25,2.87,2.26,4.41,2.33,5.47.27,10.97.02,16.46.11,10.09.17,18.38,8.31,18.68,18.24.31,10.39-7.21,19.72-17.36,19.76-15.68.05-31.52.19-47.03-1.76-38.12-4.79-71.67-20.49-100.4-46-33.31-29.57-54.11-66.34-62.08-110.23-1.29-7.09-2.01-14.28-2.99-21.42,0-7.98,0-15.97,0-23.95.55-4.56,1.02-9.13,1.67-13.67,6.04-42.32,23.93-78.87,54.05-109.2C84.38,27.92,118.83,9.83,158.99,2.89,165.84,1.7,172.76.95,179.65,0ZM115.56,153.52c.28.06-.19-.13-.66-.13-23.07-.02-46.15,0-69.22-.07-2.22,0-2.62,1.15-3.04,2.87-5.66,23.32-5.71,46.63-.25,70,.66,2.84,1.65,3.79,4.62,3.78,21.95-.13,43.9-.07,65.85-.08,1.17,0,2.34-.11,2.69-.13v-76.24ZM323.45,114.82c-8.53-24.23-62.19-67.54-84.26-68.17.11.37.17.74.32,1.08,9.27,20.76,16.24,42.27,20.72,64.55.59,2.92,2.17,2.76,4.23,2.76,18.57-.02,37.14,0,55.71-.02,1.07,0,2.14-.13,3.28-.2ZM59.16,114.73c1.27.16,1.75.28,2.22.28,19.33.01,38.66-.04,57.99.07,2.56.01,3.03-1.24,3.46-3.3,4.02-19.43,9.73-38.36,17.32-56.71,1.16-2.79,2.36-5.56,3.87-9.13-36.95,12.93-64.81,35.51-84.86,68.79ZM143.54,337.11c-.12-.87-.1-1.22-.22-1.51-9.21-20.92-16.28-42.52-20.67-64.97-.46-2.38-1.91-2.43-3.79-2.43-18.82.04-37.65.02-56.47.04-.89,0-1.79.21-3.18.39,20.07,33.17,47.88,55.76,84.32,68.48ZM221.46,114.77c-6.28-26.81-15.42-52.07-30.1-75.77-14.53,23.87-23.69,49.05-29.85,75.77h59.95Z"/>
      <path class="cls-1" d="M368.58,300.22c-.1,4.71-2.47,7.46-6.23,9.33-10.27,5.09-20.6,10.05-30.69,15.47-2.66,1.43-5.21,3.96-6.64,6.62-5.31,9.86-10.2,19.95-15.12,30.02-2.02,4.13-4.76,7.01-9.67,6.91-4.92-.1-7.46-3.12-9.36-7.31-15.76-34.81-31.62-69.57-47.42-104.36-3.17-6.99-.26-13.73,6.59-14.67,2.28-.31,4.95.46,7.13,1.44,28.71,12.93,57.36,25.99,86.02,39.02,6.46,2.94,12.91,5.87,19.37,8.81,3.89,1.77,5.97,4.75,6.02,8.72Z"/>
    </g>
  </g>
</svg>